<?xml version="1.0" encoding="UTF-8" standalone="no"?>
<svg
   version="1.1"
   width="16"
   height="16"
   id="svg1"
   sodipodi:docname="bold-27-36-45.svg"
   viewBox="0 0 640 640"
   inkscape:version="1.4.2 (f4327f4, 2025-05-13)"
   xmlns:inkscape="http://www.inkscape.org/namespaces/inkscape"
   xmlns:sodipodi="http://sodipodi.sourceforge.net/DTD/sodipodi-0.dtd"
   xmlns="http://www.w3.org/2000/svg"
   xmlns:svg="http://www.w3.org/2000/svg">
  <defs
     id="defs1" />
  <sodipodi:namedview
     id="namedview1"
     pagecolor="#ffffff"
     bordercolor="#111111"
     borderopacity="1"
     inkscape:showpageshadow="0"
     inkscape:pageopacity="0"
     inkscape:pagecheckerboard="1"
     inkscape:deskcolor="#d1d1d1"
     inkscape:zoom="33.67596"
     inkscape:cx="5.953802"
     inkscape:cy="5.1371957"
     inkscape:window-width="1920"
     inkscape:window-height="991"
     inkscape:window-x="-9"
     inkscape:window-y="-9"
     inkscape:window-maximized="1"
     inkscape:current-layer="svg1" />
  <path
     d="m 113.39176,63.825035 c 253.28016,0 253.28016,0 291,31 1.32064,1.022871 1.32064,1.022871 2.66797,2.066406 17.99188,14.185419 31.96348,31.533419 42.33203,51.933599 0.55172,1.07508 1.10344,2.15015 1.67187,3.25781 6.57922,13.53148 10.97813,27.8983 13.32813,42.74219 0.18434,1.13437 0.36867,2.26875 0.55859,3.4375 0.80813,6.77203 0.68583,13.62625 0.69141,20.4375 6.7e-4,0.73832 0.001,1.47664 0.002,2.23734 -0.0163,11.21763 -0.52499,21.9689 -3.25204,32.88766 -0.17692,0.7367 -0.35385,1.4734 -0.53613,2.23242 -2.59776,10.63346 -6.14977,20.71627 -10.46383,30.76758 0.71543,0.44988 1.43086,0.89977 2.16797,1.36328 34.74528,22.42936 58.96174,56.39437 68.83203,96.63672 0.26466,1.01852 0.26466,1.01852 0.53467,2.05762 5.6701,22.62422 4.50498,50.55393 -1.53467,72.94238 -0.22542,0.85094 -0.45085,1.70188 -0.68311,2.57861 -5.16074,18.74756 -13.93116,37.34531 -26.31689,52.42139 -0.67031,0.86883 -1.34063,1.73766 -2.03125,2.63281 -19.68545,25.03476 -46.54457,43.38863 -77.03125,52.74219 -0.72921,0.22647 -1.45841,0.45294 -2.20972,0.68628 -17.53063,5.0328 -34.81266,5.35927 -52.92358,5.2793 -2.74557,-0.003 -5.49113,-6.5e-4 -8.23669,10e-4 -6.56662,0.002 -13.13311,-0.0121 -19.6997,-0.0315 -7.61016,-0.0218 -15.22025,-0.024 -22.83046,-0.0264 -20.05413,-0.0157 -40.10824,-0.0576 -60.16235,-0.0963 -44.83875,-0.0617 -89.6775,-0.12363 -135.875,-0.18738 0,-168.96 0,-337.92 0,-512.000005 z m 111,110.000005 c 0,30.03 0,60.06 0,91 13.75687,0.0412 27.51375,0.0825 41.6875,0.125 6.47887,0.0273 6.47887,0.0273 13.08862,0.0552 3.92362,0.007 3.92362,0.007 7.84725,0.0107 1.72694,0.003 3.45387,0.01 5.18078,0.0203 18.5985,0.10477 35.8112,-0.67204 50.14116,-14.02365 9.54681,-10.24938 12.70275,-22.16262 12.35938,-35.89453 -0.6223,-11.67699 -6.0807,-21.44915 -14.54297,-29.39453 -15.30836,-12.42648 -31.5622,-12.05133 -50.33203,-11.9961 -1.67766,0.001 -3.35531,0.002 -5.03296,0.003 -6.17392,0.005 -12.34782,0.0192 -18.52173,0.0321 -13.81875,0.0206 -27.6375,0.0413 -41.875,0.0625 z m 0,201 c 0,30.03 0,60.06 0,91 25.4541,0.0583 25.4541,0.0583 50.9082,0.0977 10.38682,0.0118 20.77361,0.0257 31.1604,0.0532 7.56616,0.02 15.13229,0.0329 22.69847,0.0373 4.00171,0.003 8.00335,0.009 12.00503,0.0233 3.77646,0.0137 7.55281,0.0177 11.32929,0.0148 2.02643,8e-4 4.05286,0.0115 6.07926,0.0226 16.55751,-0.0368 31.28117,-2.43014 43.76466,-14.06134 9.54681,-10.24938 12.70275,-22.16262 12.35938,-35.89453 -0.63504,-11.91605 -6.28518,-21.26317 -14.58985,-29.58203 -13.34834,-11.59027 -28.3716,-11.8702 -45.16064,-11.82447 -1.43003,2.9e-4 -2.86006,1.3e-4 -4.29009,-4.4e-4 -3.8526,-2.8e-4 -7.70517,0.006 -11.55777,0.0126 -4.03719,0.006 -8.07439,0.007 -12.11158,0.008 -7.63182,0.003 -15.26362,0.0113 -22.89543,0.0213 -10.32219,0.0133 -20.64438,0.0187 -30.96657,0.0245 -16.24427,0.009 -32.4885,0.0293 -48.73276,0.0475 z"
     fill="#000000"
     id="path1"
     style="fill:#1b242d;fill-opacity:1" />
</svg>
