<?xml version="1.0" encoding="UTF-8" standalone="no"?>
<svg
   version="1.1"
   width="16"
   height="16"
   id="svg2"
   sodipodi:docname="color.svg"
   viewBox="0 0 512 512"
   inkscape:version="1.4.2 (f4327f4, 2025-05-13)"
   xmlns:inkscape="http://www.inkscape.org/namespaces/inkscape"
   xmlns:sodipodi="http://sodipodi.sourceforge.net/DTD/sodipodi-0.dtd"
   xmlns="http://www.w3.org/2000/svg"
   xmlns:svg="http://www.w3.org/2000/svg">
  <defs
     id="defs2" />
  <sodipodi:namedview
     id="namedview2"
     pagecolor="#ffffff"
     bordercolor="#111111"
     borderopacity="1"
     inkscape:showpageshadow="0"
     inkscape:pageopacity="0"
     inkscape:pagecheckerboard="1"
     inkscape:deskcolor="#d1d1d1"
     inkscape:zoom="47.625"
     inkscape:cx="8.0944882"
     inkscape:cy="7.9580053"
     inkscape:window-width="1920"
     inkscape:window-height="991"
     inkscape:window-x="-9"
     inkscape:window-y="-9"
     inkscape:window-maximized="1"
     inkscape:current-layer="svg2" />
  <path
     d="m 46.491806,-0.50793457 c 1.452727,-0.004616 2.905449,-0.0109731 4.358162,-0.018909 3.969652,-0.0166249 7.938918,-0.008478 11.908571,0.003945 4.289808,0.009076 8.57955,-0.004932 12.869345,-0.0159197 8.395169,-0.0177626 16.790195,-0.0139552 25.185366,-0.002349 6.8251,0.009043 13.65016,0.0102543 20.47527,0.005905 0.97239,-6.1293e-4 1.94479,-0.001226 2.94665,-0.001857 1.97559,-0.001279 3.95117,-0.002576 5.92676,-0.00389 18.51435,-0.0113993 37.02862,0.001698 55.54295,0.0232015 15.8747,0.0178676 31.74928,0.0147684 47.62398,-0.003675 18.44778,-0.021423 36.89549,-0.0298242 55.34327,-0.0175509 1.96852,0.001274 3.93703,0.002532 5.90554,0.003772 1.45271,9.2565e-4 1.45271,9.2565e-4 2.93476,0.00187 6.81376,0.003449 13.62748,-0.002365 20.44123,-0.0117882 8.3083,-0.0112373 16.61645,-0.008144 24.92473,0.013123 4.23635,0.0104875 8.47244,0.0146717 12.70879,0.001403 3.88316,-0.0119778 7.76583,-0.005274 11.64894,0.0159102 1.39962,0.004443 2.79927,0.002251 4.19886,-0.007503 13.78154,-0.0886291 23.61199,3.05885907 33.65877,12.48709067 8.59062,8.863078 12.08292,19.415324 12.01978,31.579346 1.5e-4,0.742002 2.9e-4,1.484003 4.4e-4,2.248489 -6.9e-4,2.440231 -0.008,4.880385 -0.0163,7.320603 -0.002,1.696792 -0.003,3.393585 -0.004,5.090378 -0.004,4.456807 -0.0136,8.913582 -0.0247,13.370376 -0.0102,4.551489 -0.0148,9.102983 -0.0198,13.65448 -0.0107,8.923843 -0.0278,17.847664 -0.0488,26.771484 0.77959,-0.004 1.55919,-0.009 2.3624,-0.0135 7.38438,-0.0403 14.76871,-0.0706 22.15317,-0.0902 3.79548,-0.0104 7.59087,-0.0245 11.38629,-0.0472 3.66992,-0.0219 7.33975,-0.0337 11.00972,-0.0389 1.39288,-0.004 2.78575,-0.0108 4.17858,-0.0217 13.51823,-0.10131 24.51336,0.73009 34.95281,10.03178 8.50635,8.95978 9.54858,18.64524 9.46497,30.56433 0.005,1.44106 0.011,2.88212 0.0189,4.32317 0.0166,3.93738 0.008,7.87437 -0.004,11.81175 -0.009,4.25503 0.005,8.50999 0.0159,12.765 0.0178,8.32665 0.014,16.65316 0.002,24.97982 -0.009,6.76885 -0.0102,13.53767 -0.006,20.30652 6.1e-4,0.96436 10e-4,1.92872 0.002,2.9223 10e-4,1.95924 0.003,3.91848 0.004,5.87772 0.0114,18.36029 -0.002,36.72049 -0.0232,55.08076 -0.0179,15.74482 -0.0148,31.48953 0.004,47.23435 0.0214,18.29578 0.0298,36.59149 0.0176,54.88728 -10e-4,1.95193 -0.003,3.90385 -0.004,5.85578 -6.2e-4,0.96031 -0.001,1.92063 -0.002,2.91005 -0.003,6.75863 0.002,13.51721 0.0118,20.27583 0.0112,8.23952 0.008,16.47889 -0.0131,24.7184 -0.0105,4.2018 -0.0147,8.40334 -10e-4,12.60513 0.012,3.85042 0.005,7.70035 -0.0159,11.55072 -0.004,1.38882 -0.002,2.7777 0.007,4.1665 0.0734,11.33108 -1.67099,20.1897 -9.59646,28.59037 -6.39372,5.82308 -13.36313,8.9995 -22.0866,9.01117 -1.22149,0.006 -2.44297,0.0129 -3.70147,0.0195 -1.34711,-0.003 -2.69423,-0.006 -4.04134,-0.009 -1.43761,0.004 -2.87522,0.008 -4.31282,0.0137 -3.94631,0.0122 -7.89254,0.012 -11.83886,0.01 -4.25781,-4.1e-4 -8.51559,0.0106 -12.77339,0.0201 -8.34052,0.0166 -16.68103,0.0221 -25.02157,0.0232 -6.78038,9.5e-4 -13.56076,0.005 -20.34113,0.0114 -19.2267,0.0176 -38.45338,0.0268 -57.68008,0.0253 -1.55466,-1.2e-4 -1.55466,-1.2e-4 -3.14073,-2.4e-4 -1.03771,-8e-5 -2.07542,-1.6e-4 -3.14457,-2.5e-4 -16.81557,-8.1e-4 -33.63105,0.0183 -50.4466,0.0465 -17.26909,0.0287 -34.53814,0.0425 -51.80726,0.0408 -9.69407,-6.6e-4 -19.38804,0.005 -29.08208,0.0264 -8.25424,0.0182 -16.50835,0.0226 -24.76261,0.009 -4.20988,-0.007 -8.4195,-0.007 -12.62935,0.0107 -3.85796,0.0158 -7.71545,0.0129 -11.5734,-0.005 -1.39165,-0.003 -2.78333,5.5e-4 -4.17493,0.0117 -11.72519,0.0879 -20.66226,-1.88804 -29.32012,-10.10073 -7.09133,-8.3499 -9.18166,-17.34605 -9.1604,-28.07983 1.1e-4,-1.9212 1.1e-4,-1.9212 2.2e-4,-3.88121 0.005,-1.37757 0.0103,-2.75514 0.0156,-4.13271 0.002,-1.42489 0.003,-2.84978 0.004,-4.27467 0.004,-3.73014 0.0136,-7.46024 0.0247,-11.19036 0.0103,-3.81438 0.0148,-7.62878 0.0198,-11.44317 0.0107,-7.46942 0.0277,-14.93881 0.0488,-22.40821 -0.92326,0.009 -1.84653,0.0178 -2.79777,0.0269 -8.75201,0.0806 -17.503885,0.14125 -26.256177,0.18033 -4.498374,0.0208 -8.996438,0.0489 -13.494634,0.0945 -4.350757,0.0439 -8.701218,0.0675 -13.052179,0.0778 -1.649999,0.007 -3.299985,0.0216 -4.949856,0.0434 -16.05206,0.20335 -29.012331,-2.55812 -41.199381,-13.67292 -6.535339,-6.8386 -10.492756,-16.54437 -10.510062,-25.95208 -0.0071,-1.2307 -0.01413,-2.4614 -0.02141,-3.72939 0.0023,-1.35753 0.0047,-2.71506 0.0073,-4.07258 -0.0045,-1.44856 -0.0098,-2.89712 -0.01587,-4.34567 -0.01417,-3.97665 -0.01584,-7.95322 -0.0154,-11.92989 -0.0016,-4.29057 -0.01472,-8.58111 -0.02619,-12.87166 -0.02284,-9.38032 -0.03077,-18.76061 -0.03583,-28.14095 -0.0033,-5.85928 -0.0098,-11.71856 -0.017,-17.57784 -0.01957,-16.22876 -0.03597,-32.45751 -0.03888,-48.68628 -1.87e-4,-1.03837 -3.75e-4,-2.07674 -5.68e-4,-3.14658 -3.66e-4,-2.10495 -7.3e-4,-4.20991 -0.0011,-6.31486 -1.83e-4,-1.04488 -3.66e-4,-2.08976 -5.54e-4,-3.1663 -1.81e-4,-1.04615 -3.61e-4,-2.09231 -5.47e-4,-3.17017 -0.0035,-16.9468 -0.03056,-33.89347 -0.06795,-50.84023 -0.0381,-17.40696 -0.05745,-34.81387 -0.05775,-52.22088 -5.84e-4,-9.77016 -0.0091,-19.54017 -0.038,-29.310305 -0.02454,-8.320448 -0.03178,-16.640689 -0.01675,-24.961164 0.0072,-4.242588 0.0064,-8.484767 -0.01641,-12.727309 -0.02067,-3.89022 -0.01791,-7.77972 0.0029,-11.669933 0.0035,-1.401107 -0.0013,-2.802267 -0.01571,-4.203305 C -0.758306,31.916437 2.4721,21.96121 10.836003,12.18766 20.956307,1.9575239 32.541207,-0.60499125 46.491806,-0.50793457 Z"
     fill="#26b899"
     id="foreground"
     inkscape:label="#fore" />
  <path
     d="m 417,112 c 8.17184,-0.0465 16.34363,-0.082 24.51557,-0.10362 3.79548,-0.0104 7.59086,-0.0245 11.38628,-0.0473 3.66992,-0.0219 7.33975,-0.0337 11.00973,-0.0389 1.39287,-0.004 2.78574,-0.0108 4.17858,-0.0217 13.51822,-0.10132 24.51336,0.73008 34.95281,10.03177 8.50635,8.95978 9.54858,18.64524 9.46496,30.56433 0.005,1.44107 0.011,2.88213 0.0189,4.32318 0.0166,3.93738 0.009,7.87437 -0.004,11.81175 -0.009,4.25502 0.005,8.50998 0.0159,12.76499 0.0178,8.32666 0.014,16.65316 0.002,24.97982 -0.009,6.76886 -0.0103,13.53767 -0.006,20.30653 6.2e-4,0.96436 10e-4,1.92872 0.002,2.9223 10e-4,1.95924 0.003,3.91848 0.004,5.87772 0.0114,18.36028 -0.002,36.72048 -0.0232,55.08075 -0.0179,15.74483 -0.0148,31.48953 0.004,47.23436 0.0214,18.29578 0.0298,36.59149 0.0176,54.88728 -10e-4,1.95192 -0.003,3.90385 -0.004,5.85577 -9.2e-4,1.44048 -9.2e-4,1.44048 -0.002,2.91006 -0.004,6.75862 0.002,13.5172 0.0118,20.27582 0.0112,8.23953 0.008,16.4789 -0.0131,24.71841 -0.0105,4.20179 -0.0147,8.40333 -10e-4,12.60513 0.012,3.85041 0.005,7.70034 -0.0159,11.55071 -0.004,1.38883 -0.002,2.7777 0.008,4.1665 0.0734,11.33108 -1.67099,20.18971 -9.59647,28.59037 -6.39372,5.82308 -13.36312,8.9995 -22.0866,9.01118 -1.22148,0.006 -2.44297,0.0129 -3.70147,0.0195 -1.34711,-0.003 -2.69423,-0.006 -4.04134,-0.009 -1.43761,0.004 -2.87522,0.008 -4.31282,0.0137 -3.94631,0.0122 -7.89254,0.012 -11.83886,0.01 -4.25781,-4.1e-4 -8.51559,0.0106 -12.77338,0.0201 -8.34053,0.0166 -16.68103,0.0221 -25.02158,0.0232 -6.78038,9.5e-4 -13.56075,0.005 -20.34113,0.0114 -19.2267,0.0176 -38.45337,0.0268 -57.68008,0.0253 -1.55466,-1.2e-4 -1.55466,-1.2e-4 -3.14073,-2.4e-4 -1.03771,-9e-5 -2.07542,-1.7e-4 -3.14457,-2.5e-4 -16.81557,-8.2e-4 -33.63105,0.0183 -50.44659,0.0465 -17.2691,0.0287 -34.53815,0.0425 -51.80727,0.0408 -9.69406,-6.6e-4 -19.38803,0.005 -29.08207,0.0264 -8.25425,0.0182 -16.50836,0.0226 -24.76261,0.009 -4.20988,-0.007 -8.4195,-0.007 -12.62936,0.0107 -3.85795,0.0158 -7.71544,0.0129 -11.57339,-0.005 -1.39165,-0.003 -2.78333,5.5e-4 -4.17494,0.0117 -11.72518,0.0879 -20.66225,-1.88804 -29.32011,-10.10073 -7.09133,-8.3499 -9.18166,-17.34605 -9.16041,-28.07984 8e-5,-1.2808 1.6e-4,-2.5616 2.3e-4,-3.88121 0.005,-1.37757 0.0103,-2.75514 0.0156,-4.1327 0.002,-1.42489 0.003,-2.84979 0.004,-4.27468 0.004,-3.73013 0.0136,-7.46023 0.0247,-11.19035 0.0103,-3.81439 0.0148,-7.62878 0.0198,-11.44318 0.0107,-7.46942 0.0277,-14.9388 0.0488,-22.4082 0.55406,-0.001 1.10812,-0.003 1.67897,-0.004 32.86816,-0.0807 65.73627,-0.17171 98.60437,-0.27594 3.95015,-0.0125 7.9003,-0.0249 11.85045,-0.0373 0.78637,-0.002 1.57275,-0.005 2.38295,-0.007 12.71801,-0.0397 25.43602,-0.0724 38.15405,-0.10264 13.05851,-0.0312 26.11698,-0.0698 39.17545,-0.11529 8.05198,-0.0278 16.10394,-0.0499 24.15596,-0.0645 6.18355,-0.0118 12.36702,-0.0341 18.55052,-0.0601 2.52989,-0.009 5.0598,-0.0148 7.5897,-0.0168 3.46412,-0.003 6.92799,-0.0189 10.39206,-0.0373 0.99226,0.002 1.98451,0.004 3.00684,0.006 14.06915,-0.11133 26.27086,-2.78944 36.90008,-12.52653 9.4129,-10.61605 11.70364,-22.86977 11.71682,-36.57773 0.007,-1.63702 0.007,-1.63702 0.015,-3.30712 0.0154,-3.65736 0.0237,-7.3147 0.0321,-10.97208 0.01,-2.62154 0.0196,-5.24309 0.03,-7.86463 0.0217,-5.64424 0.0399,-11.28848 0.0556,-16.93275 0.0227,-8.16061 0.0509,-16.32121 0.0803,-24.4818 0.0476,-13.24059 0.0909,-26.48119 0.13144,-39.7218 0.0394,-12.86068 0.0808,-25.72136 0.125,-38.58203 0.004,-1.18945 0.004,-1.18945 0.008,-2.40292 0.0137,-3.97814 0.0274,-7.95628 0.0411,-11.93442 C 416.79099,177.98704 416.89781,144.99353 417,112 Z"
     fill="#546080"
     id="background"
     inkscape:label="#back" />
</svg>
