<?xml version="1.0" encoding="UTF-8" standalone="no"?>
<svg
   version="1.1"
   width="16"
   height="16"
   id="svg1"
   sodipodi:docname="fontface2-white.svg"
   viewBox="0 0 512 512"
   inkscape:version="1.4.2 (f4327f4, 2025-05-13)"
   xmlns:inkscape="http://www.inkscape.org/namespaces/inkscape"
   xmlns:sodipodi="http://sodipodi.sourceforge.net/DTD/sodipodi-0.dtd"
   xmlns="http://www.w3.org/2000/svg"
   xmlns:svg="http://www.w3.org/2000/svg">
  <defs
     id="defs1" />
  <sodipodi:namedview
     id="namedview1"
     pagecolor="#ffffff"
     bordercolor="#111111"
     borderopacity="1"
     inkscape:showpageshadow="0"
     inkscape:pageopacity="0"
     inkscape:pagecheckerboard="1"
     inkscape:deskcolor="#d1d1d1"
     inkscape:zoom="33.67596"
     inkscape:cx="6.5180027"
     inkscape:cy="7.1861351"
     inkscape:window-width="1920"
     inkscape:window-height="991"
     inkscape:window-x="-9"
     inkscape:window-y="-9"
     inkscape:window-maximized="1"
     inkscape:current-layer="svg1" />
  <path
     d="m 320.125,58.75 c 0.98227,-0.02063 1.96453,-0.04125 2.97656,-0.0625 14.45053,-0.07605 27.09324,4.788422 37.63281,14.714844 7.90037,9.058182 10.652,20.051595 10.57813,31.785156 -0.006,0.93256 -0.0113,1.86511 -0.0171,2.82593 -0.27451,15.62371 -5.32712,28.36273 -16.04932,39.83032 -6.71086,6.44243 -11.88415,9.30563 -21.18359,9.59375 -6.76728,-0.16523 -11.55751,-1.15388 -16.54688,-5.82813 -4.72871,-5.28503 -7.19041,-10.42867 -6.92968,-17.5039 0.89809,-4.56672 4.76511,-6.62581 8.28906,-9.23047 6.16941,-5.0535 11.59555,-13.99349 13.125,-21.875 0.58825,-6.727538 1.15592,-13.304848 -3,-19 -4.06101,-2.707338 -7.23559,-2.523023 -12,-2 -12.55965,4.589103 -18.69816,18.56651 -24.03751,29.86764 -2.564,5.68042 -4.48737,11.58357 -6.39999,17.50736 -0.23708,0.7196 -0.47415,1.4392 -0.71841,2.1806 -6.25889,19.00318 -11.76005,38.25252 -17.32041,57.4693 -0.3591,1.2401 -0.71821,2.4802 -1.08819,3.75788 -0.681,2.35515 -1.36,4.71088 -2.03675,7.06726 -0.30198,1.04609 -0.60396,2.09219 -0.9151,3.16998 -0.26359,0.91734 -0.52717,1.83468 -0.79875,2.77982 C 263,208 263,208 262,210 c 0.60586,-0.13277 1.21172,-0.26555 1.83594,-0.40234 C 280.00436,206.18985 298.00225,204.63135 313,213 c 5.95501,4.37719 11.19903,8.66749 13,16 0.50258,4.69317 0.58096,8.60569 -1.25,13 -2.34433,2.67923 -4.39808,3.85721 -7.96339,4.23378 -1.20644,-0.0112 -1.20644,-0.0112 -2.43724,-0.0226 -0.91939,-0.003 -1.83878,-0.007 -2.78603,-0.0102 -0.99157,-0.0135 -1.98313,-0.0269 -3.00475,-0.0408 -1.03688,-0.005 -2.07377,-0.0104 -3.14207,-0.0158 -3.32648,-0.0178 -6.65266,-0.0489 -9.97902,-0.0819 -4.33461,-0.037 -8.66919,-0.0674 -13.00391,-0.0898 -1.05297,-0.006 -2.10594,-0.0112 -3.19082,-0.0169 -9.44271,-0.0181 -18.8231,0.43489 -28.24277,1.04428 -0.23074,0.94681 -0.46148,1.89361 -0.69922,2.86911 -2.56015,10.41991 -5.37472,20.75377 -8.30078,31.0762 -0.48125,1.70213 -0.96245,3.40427 -1.4436,5.10642 -1.00674,3.55879 -2.01557,7.11698 -3.02564,10.67483 -1.00994,3.55852 -2.01613,7.11807 -3.01855,10.67871 -5.38301,19.11747 -10.89767,38.1828 -16.85596,57.12989 -0.23899,0.76429 -0.47798,1.52858 -0.72421,2.31602 -6.69204,21.34346 -14.85496,42.12252 -24.43204,62.33632 -0.48018,1.01554 -0.96035,2.03108 -1.45508,3.07739 -4.7782,9.77397 -10.03983,15.85066 -20.23242,20.04761 -8.56117,1.54382 -16.99972,1.80696 -24.8125,-2.3125 -3.20161,-2.80141 -3.89826,-4.35568 -4.5625,-8.5625 0.19174,-3.66868 1.30681,-6.57795 2.74609,-9.94141 0.45351,-1.06114 0.90702,-2.12228 1.37427,-3.21557 1.8255,-4.15257 3.7005,-8.2809 5.58814,-12.40552 7.12657,-15.66011 13.26494,-31.60625 18.854,-47.875 0.24841,-0.72224 0.49681,-1.44448 0.75275,-2.1886 9.8074,-28.60851 18.30851,-57.60718 26.75872,-86.63806 0.21375,-0.73374 0.4275,-1.46748 0.64772,-2.22345 1.01477,-3.48382 2.0275,-6.96819 3.03573,-10.4539 0.5335,-1.83602 0.5335,-1.83602 1.07779,-3.70912 0.31085,-1.07388 0.6217,-2.14775 0.94197,-3.25417 C 204,257.00006 204,257.00006 205,255.00006 c -0.80836,0.23505 -0.80836,0.23505 -1.63306,0.47485 -2.47262,0.71022 -4.95073,1.39902 -7.42944,2.08765 -1.27134,0.37028 -1.27134,0.37028 -2.56836,0.74805 -5.14279,1.4098 -9.06616,2.0135 -14.36914,0.68945 -3.77745,-2.40383 -6.18591,-4.89442 -8,-9 -0.5,-3.5 -0.5,-3.5 0,-7 2,-2.5625 2,-2.5625 5,-5 0.50016,-0.44859 1.00031,-0.89719 1.51563,-1.35938 4.43203,-3.71332 9.36245,-6.22384 14.54687,-8.70312 0.65323,-0.31622 1.30646,-0.63245 1.97949,-0.95825 3.56354,-1.65015 6.81934,-2.94772 10.6731,-3.82398 7.69773,-1.75513 7.69773,-1.75513 13.26416,-7.08227 1.44239,-3.87419 2.43423,-7.67232 3.33325,-11.698 0.37948,-1.47099 0.76552,-2.94031 1.15771,-4.40796 0.8145,-3.07868 1.59537,-6.16309 2.35157,-9.25659 1.70228,-6.90205 3.68986,-13.72237 5.66272,-20.55093 0.6401,-2.22063 1.27349,-4.44307 1.90515,-6.66611 C 237.92676,144.04572 244.09829,125.19803 253,107 c 0.46189,-0.95254 0.46189,-0.95254 0.9331,-1.92432 9.47467,-19.292794 23.74268,-36.37564 44.5669,-43.51318 7.32677,-2.244328 13.99726,-2.773383 21.625,-2.8125 z"
     fill="#000000"
     id="path1"
     style="fill:#ffffff;fill-opacity:1" />
</svg>
