<?xml version="1.0" encoding="UTF-8" standalone="no"?>
<svg
   version="1.1"
   width="16"
   height="16"
   id="svg2"
   sodipodi:docname="fontface-white.svg"
   viewBox="0 0 512 512"
   inkscape:version="1.4.2 (f4327f4, 2025-05-13)"
   xmlns:inkscape="http://www.inkscape.org/namespaces/inkscape"
   xmlns:sodipodi="http://sodipodi.sourceforge.net/DTD/sodipodi-0.dtd"
   xmlns="http://www.w3.org/2000/svg"
   xmlns:svg="http://www.w3.org/2000/svg">
  <defs
     id="defs2" />
  <sodipodi:namedview
     id="namedview2"
     pagecolor="#ffffff"
     bordercolor="#111111"
     borderopacity="1"
     inkscape:showpageshadow="0"
     inkscape:pageopacity="0"
     inkscape:pagecheckerboard="1"
     inkscape:deskcolor="#d1d1d1"
     inkscape:zoom="47.625"
     inkscape:cx="8.1154856"
     inkscape:cy="8.0209974"
     inkscape:window-width="1920"
     inkscape:window-height="991"
     inkscape:window-x="-9"
     inkscape:window-y="-9"
     inkscape:window-maximized="1"
     inkscape:current-layer="svg2" />
  <path
     id="fontface"
     d="m 450.36328,190.6875 c 2.44424,1.46104 2.44424,1.46104 4.63672,1.3125 0.39187,-1.0725 0.78375,-2.145 1.1875,-3.25 1.57053,-3.65962 3.40331,-5.58808 6.8125,-7.75 5.64458,-1.87971 11.94105,-1.22617 17.8125,-1.25 1.25877,-0.0206 2.51754,-0.0412 3.81445,-0.0625 12.19289,-0.0514 12.19289,-0.0514 17.37305,3.3125 4.09486,4.91864 4.57986,8.49014 4.52139,14.60887 0.0115,1.28048 0.0115,1.28048 0.0232,2.58682 0.0206,2.85356 0.0127,5.70631 0.005,8.55992 0.009,2.04863 0.0191,4.09724 0.031,6.14585 0.0268,5.55993 0.0279,11.11958 0.0229,16.67956 -0.002,4.64226 0.008,9.28446 0.0172,13.92671 0.0222,10.95165 0.0231,21.90316 0.011,32.85482 -0.0121,11.2973 0.0125,22.59411 0.0551,33.89133 0.0352,9.70124 0.0472,19.40233 0.0407,29.10363 -0.004,5.79342 0.002,11.58647 0.0294,17.37982 0.0251,5.44786 0.0213,10.89493 -0.005,16.34277 -0.005,1.99826 7.5e-4,3.99656 0.0172,5.99475 0.0209,2.73067 0.005,5.45872 -0.0206,8.18929 0.0221,1.18309 0.0221,1.18309 0.0447,2.39008 -0.10513,5.38484 -1.62929,8.11564 -5.31163,12.02399 -4.45261,3.9726 -11.47542,2.79706 -17.1065,3.00929 -1.25942,0.0599 -2.51883,0.11988 -3.81641,0.18164 -14.82212,0.56769 -14.82212,0.56769 -21.43359,-3.74414 -2.02445,-2.02444 -3.17399,-3.44486 -4.125,-6.125 0,-0.99 0,-1.98 0,-3 -1.17434,0.53109 -2.34868,1.06219 -3.5586,1.60937 -27.26594,12.089 -53.76935,14.28439 -82.1914,4.07813 -26.07549,-10.70262 -44.97614,-28.85899 -56.39356,-54.60693 -12.56639,-30.52761 -12.42809,-73.594 0.0117,-104.21778 10.9644,-25.20183 30.99286,-43.15582 55.93848,-54.00634 26.64517,-10.40418 56.01335,-8.98511 81.55668,3.83105 z m -75.04688,68.38281 c -5.0472,7.39858 -6.47352,14.69865 -6.55468,23.5 -0.008,0.83627 -0.0161,1.67254 -0.0245,2.53415 -0.0138,1.77017 -0.0245,3.54037 -0.0324,5.31058 -0.0115,1.79598 -0.0319,3.59192 -0.0615,5.38769 -0.39795,14.10994 -0.39795,14.10994 4.35669,27.19727 0.59812,1.05187 1.19625,2.10375 1.8125,3.1875 7.20858,9.26817 15.51289,14.7412 27.1875,16.8125 9.18911,0.93449 18.54286,-1.76652 25.9375,-7.3125 1.38353,-1.19602 2.74021,-2.4241 4.0625,-3.6875 0.57492,-0.54656 1.14984,-1.09312 1.74218,-1.65625 7.30287,-7.70252 9.39713,-17.6093 9.46094,-27.91797 0.006,-0.72387 0.0114,-1.44775 0.0173,-2.19356 0.009,-1.52881 0.016,-3.05763 0.0198,-4.58647 0.01,-2.30872 0.0407,-4.61653 0.0723,-6.92505 0.0964,-13.29415 -1.84807,-25.12532 -11.53907,-34.98633 -8.87621,-7.60818 -17.68265,-10.49993 -29.34375,-10.11718 -11.16734,1.24647 -20.08065,6.83001 -27.11328,15.45312 z M 134.05078,104.83203 c 0.73945,-0.003 1.47891,-0.007 2.24077,-0.0101 1.55377,-0.005 3.10755,-0.007 4.66133,-0.007 2.34337,-0.002 4.68626,-0.0204 7.02954,-0.0393 11.06585,-0.0431 21.34185,-0.0505 30.94727,6.10352 6.45609,6.61444 9.15213,16.20275 12.18359,24.71093 0.47806,1.32483 0.95669,2.64944 1.43587,3.97386 1.495,4.1414 2.97376,8.28849 4.45085,12.4363 0.4688,1.31344 0.9377,2.62686 1.40668,3.94024 3.03727,8.5117 6.04809,17.03264 9.05226,25.55606 1.25693,3.56466 2.51609,7.12853 3.77519,10.69242 0.25309,0.7164 0.50619,1.43279 0.76695,2.1709 0.50945,1.44203 1.01892,2.88406 1.52839,4.3261 0.75485,2.1368 1.50948,4.27368 2.26406,6.41058 4.07395,11.536 8.16608,23.06546 12.26897,34.5912 1.26315,3.54943 2.52614,7.09892 3.78906,10.64844 0.32178,0.90435 0.64357,1.80871 0.9751,2.74047 4.71101,13.24274 9.41067,26.4895 14.11084,39.73609 0.234,0.65948 0.468,1.31897 0.70909,1.99843 6.62285,18.66541 13.24129,37.33236 19.85341,56.00157 0.34344,0.96967 0.68689,1.93933 1.04074,2.93838 0.33194,0.93726 0.66389,1.87452 1.00589,2.84018 0.3223,0.90945 0.6446,1.8189 0.97667,2.75591 0.62043,1.75382 1.23903,3.50828 1.85562,5.26346 1.43164,4.07018 2.88974,8.12555 4.41795,12.16056 0.28235,0.75924 0.56469,1.51847 0.85559,2.30071 0.52012,1.39542 1.05114,2.78686 1.59644,4.17264 1.80912,4.90202 2.41236,9.58442 1.7511,14.75566 -2.08034,4.08638 -3.75652,6.31939 -8,8 -2.3076,0.2607 -2.3076,0.2607 -4.8728,0.27466 -0.96458,0.01 -1.92916,0.0191 -2.92296,0.0289 -1.55323,-0.001 -1.55323,-0.001 -3.13784,-0.003 -1.07008,0.004 -2.14017,0.009 -3.24269,0.013 -2.26195,0.006 -4.52392,0.006 -6.78587,0.002 -3.4589,-0.003 -6.91694,0.0203 -10.37573,0.0457 -2.19857,0.002 -4.39714,0.003 -6.5957,0.002 -1.03347,0.009 -2.06693,0.0184 -3.1317,0.0279 -9.46795,-0.0609 -9.46795,-0.0609 -12.93471,-3.39119 -3.24505,-5.10697 -5.21249,-10.91322 -7.23438,-16.58594 -0.28289,-0.78299 -0.56577,-1.56599 -0.85724,-2.37271 -0.59047,-1.63777 -1.17856,-3.2764 -1.76434,-4.91586 -0.89986,-2.51677 -1.8085,-5.03025 -2.71826,-7.54346 -0.57474,-1.59747 -1.14897,-3.19512 -1.72266,-4.79297 -0.27181,-0.75204 -0.54362,-1.50407 -0.82367,-2.2789 C 202,359.23117 202,359.23117 202,356.99997 c -14.94229,-0.0701 -29.88456,-0.12297 -44.82698,-0.15544 -6.93786,-0.0155 -13.87561,-0.0366 -20.8134,-0.0709 -6.69137,-0.0331 -13.38261,-0.0505 -20.07406,-0.0583 -2.55696,-0.006 -5.11392,-0.0164 -7.67084,-0.0326 -3.57263,-0.0217 -7.14482,-0.0248 -10.717504,-0.0234 -1.06455,-0.0108 -2.129099,-0.0216 -3.225907,-0.0327 -1.457627,0.006 -1.457627,0.006 -2.944702,0.0125 -0.845284,-0.003 -1.690568,-0.006 -2.561467,-0.008 -2.704133,0.46103 -3.519984,1.20552 -5.165141,3.36914 -1.098602,2.72088 -2.07658,5.39556 -2.996094,8.17578 -0.412226,1.20417 -0.412226,1.20417 -0.832779,2.43266 -0.877917,2.56526 -1.744593,5.13409 -2.608627,7.70406 -1.134606,3.37457 -2.280614,6.74495 -3.433594,10.11328 -0.254303,0.76895 -0.508606,1.5379 -0.770615,2.33015 -1.880011,5.48814 -4.005727,10.15041 -8.434707,14.09197 -4.51491,1.77919 -8.890174,1.59974 -13.700928,1.58569 -1.044105,0.005 -2.088211,0.0105 -3.163956,0.0159 -2.204697,0.006 -4.40943,0.005 -6.61412,-0.003 -3.366915,-0.009 -6.73213,0.0203 -10.098879,0.052 -2.14518,0.002 -4.29036,10e-4 -6.43555,-0.002 -1.00328,0.0112 -2.00657,0.0225 -3.04026,0.034 -5.93455,-0.0589 -9.36515,-0.55388 -13.86989,-4.53013 -3.01798,-4.52697 -2.52521,-8.68958 -2,-14 0.97457,-4.14301 2.37561,-8.07647 3.84765,-12.06641 0.40282,-1.13454 0.80564,-2.26909 1.22066,-3.43802 1.08895,-3.05693 2.19286,-6.10791 3.30393,-9.15685 1.16884,-3.21941 2.31744,-6.44603 3.46809,-9.67197 1.85073,-5.1814 3.712,-10.35886 5.58301,-15.53296 2.1729,-6.01038 4.32913,-12.02643 6.47119,-18.04785 2.04329,-5.74087 4.0905,-11.48027 6.145935,-17.2168 5.089687,-14.20609 10.133258,-28.42852 15.176907,-42.651 1.198667,-3.38005 2.397514,-6.76003 3.596347,-10.14002 0.235496,-0.66395 0.470991,-1.32791 0.713623,-2.01199 0.472426,-1.33196 0.944854,-2.66391 1.417285,-3.99587 0.468823,-1.3218 0.937637,-2.6436 1.406444,-3.96541 2.956285,-8.33522 5.914003,-16.66992 8.87549,-25.00329 0.323797,-0.91118 0.647593,-1.82236 0.981201,-2.76115 1.571824,-4.42215 3.145155,-8.84375 4.720948,-13.26448 3.153134,-8.84894 6.294894,-17.70166 9.410191,-26.56399 1.902597,-5.41223 3.810504,-10.82257 5.721487,-16.23184 1.172564,-3.32024 2.34214,-6.64146 3.504583,-9.96525 1.296469,-3.707 2.605601,-7.40945 3.915497,-11.11173 0.57405,-1.65166 0.57405,-1.65166 1.159698,-3.33668 3.344159,-9.39758 6.738734,-18.20884 15.359834,-23.86644 6.87345,-3.07175 14.62352,-3.15662 22.05078,-3.1686 z M 143,195 c -3.71582,8.54984 -6.92123,17.23288 -9.96378,26.03793 -4.13221,11.95461 -8.34816,23.87761 -12.66513,35.76676 -0.38926,1.07229 -0.77853,2.14458 -1.17959,3.24937 -1.93031,5.31298 -3.86585,10.62401 -5.80576,15.93349 -0.70807,1.94553 -1.41608,3.89109 -2.12402,5.83667 -0.33061,0.90036 -0.66122,1.80072 -1.00185,2.72836 -0.44828,1.23407 -0.44828,1.23407 -0.90562,2.49307 -0.2628,0.71891 -0.52559,1.43782 -0.79634,2.17852 -0.65782,1.7836 -0.65782,1.7836 -0.55791,3.77583 23.43,0 46.86,0 71,0 -5.93372,-17.20778 -11.87404,-34.39105 -18.0603,-51.50635 -1.14022,-3.15468 -2.2775,-6.3104 -3.41431,-9.46631 C 153.06862,219.66567 148.56214,207.32317 144,195 c -0.33,0 -0.66,0 -1,0 z"
     inkscape:label="#fontface"
     style="fill:#ffffff;fill-opacity:1" />
</svg>
