<?xml version="1.0" encoding="UTF-8" standalone="no"?>
<svg
   version="1.1"
   width="16"
   height="16"
   id="svg1"
   sodipodi:docname="italic-27-36-45.svg"
   viewBox="0 0 640 640"
   inkscape:version="1.4.2 (f4327f4, 2025-05-13)"
   xmlns:inkscape="http://www.inkscape.org/namespaces/inkscape"
   xmlns:sodipodi="http://sodipodi.sourceforge.net/DTD/sodipodi-0.dtd"
   xmlns="http://www.w3.org/2000/svg"
   xmlns:svg="http://www.w3.org/2000/svg">
  <defs
     id="defs1" />
  <sodipodi:namedview
     id="namedview1"
     pagecolor="#ffffff"
     bordercolor="#111111"
     borderopacity="1"
     inkscape:showpageshadow="0"
     inkscape:pageopacity="0"
     inkscape:pagecheckerboard="1"
     inkscape:deskcolor="#d1d1d1"
     inkscape:zoom="33.67596"
     inkscape:cx="8.566942"
     inkscape:cy="7.3643037"
     inkscape:window-width="1920"
     inkscape:window-height="991"
     inkscape:window-x="-9"
     inkscape:window-y="-9"
     inkscape:window-maximized="1"
     inkscape:current-layer="svg1" />
  <path
     d="m 290.96034,63.85384 c 0.83405,-0.0037 1.66809,-0.0074 2.52742,-0.01114 2.80502,-0.01104 5.61,-0.01488 8.41504,-0.01869 2.00714,-0.0063 4.01428,-0.01291 6.02142,-0.01991 5.46093,-0.01741 10.92184,-0.02796 16.38279,-0.0362 3.41141,-0.0051 6.82283,-0.01122 10.23424,-0.01751 10.67232,-0.01905 21.34463,-0.03329 32.01696,-0.04161 12.32149,-0.0098 24.6428,-0.03609 36.96423,-0.0765 9.52198,-0.03016 19.0439,-0.04497 28.56592,-0.04828 5.6878,-0.0024 11.3754,-0.01132 17.06315,-0.03646 5.35244,-0.02328 10.70455,-0.02752 16.05703,-0.01724 1.96236,4.96e-4 3.92474,-0.0058 5.88705,-0.01956 2.68397,-0.01772 5.36681,-0.01061 8.05079,0.0025 0.77229,-0.01097 1.54459,-0.02194 2.34028,-0.03324 6.51881,0.07682 11.63699,2.162797 16.59119,6.415518 0.5298,0.63293 1.05961,1.26586 1.60547,1.917969 0.54269,0.625195 1.08539,1.250394 1.64453,1.894534 4.65825,6.92251 5.01018,12.82521 5.01172,21 0.008,1.12057 0.0152,2.24115 0.0231,3.39568 0.0108,2.364259 0.0137,4.728569 0.009,7.092849 -9.7e-4,3.59513 0.0406,7.18813 0.085,10.78296 0.005,2.30533 0.008,4.61067 0.008,6.91601 0.0164,1.06387 0.0328,2.12773 0.0497,3.22383 -0.0765,8.37261 -2.25568,14.87793 -7.70593,21.31914 -0.63938,0.51562 -1.27875,1.03125 -1.9375,1.5625 -0.63938,0.53625 -1.27875,1.0725 -1.9375,1.625 -4.47699,2.98466 -8.25621,3.62279 -13.59693,3.60205 -1.30097,-1.5e-4 -2.60194,-3e-4 -3.94233,-4.6e-4 -1.4101,-0.0102 -2.82019,-0.0206 -4.23027,-0.0313 -1.45017,-0.004 -2.90034,-0.007 -4.35051,-0.009 -3.80585,-0.008 -7.61154,-0.0272 -11.41732,-0.0494 -3.88792,-0.0205 -7.77586,-0.0296 -11.66382,-0.0397 -7.62051,-0.0214 -15.24089,-0.0555 -22.86132,-0.0977 -0.3621,1.81742 -0.3621,1.81742 -0.73151,3.67155 -1.41399,6.33792 -3.5006,12.43284 -5.56441,18.58368 -0.44275,1.33028 -0.8851,2.66069 -1.3271,3.99121 -1.20948,3.63707 -2.42454,7.27225 -3.64056,10.90713 -1.31272,3.92726 -2.62024,7.85625 -3.92841,11.78503 -2.56044,7.68695 -5.12566,15.3723 -7.69247,23.05713 -2.98809,8.94672 -5.97134,17.89505 -8.95436,26.84345 -5.32051,15.95985 -10.64526,31.91829 -15.97246,47.87591 -5.17216,15.49318 -10.34157,30.98727 -15.50781,46.48242 -0.31852,0.95533 -0.63704,1.91066 -0.96521,2.89494 -0.64164,1.92447 -1.28328,3.84894 -1.92491,5.77342 -0.3165,0.94927 -0.633,1.89853 -0.95908,2.87657 -0.31569,0.94684 -0.63137,1.89368 -0.95662,2.86921 -4.92125,14.76003 -9.84479,29.51929 -14.76865,44.27845 -1.78603,5.35365 -3.57175,10.7074 -5.35728,16.06122 -2.83027,8.48638 -5.66153,16.97243 -8.49486,25.4578 -1.29502,3.87845 -2.58957,7.75705 -3.88284,11.63609 -1.18233,3.5462 -2.36604,7.09195 -3.55088,10.63731 -0.63443,1.89957 -1.26739,3.79963 -1.9003,5.69971 -0.37348,1.1166 -0.74696,2.2332 -1.13176,3.38364 -0.32358,0.96948 -0.64716,1.93897 -0.98054,2.93783 -0.80798,2.2963 -0.80798,2.2963 -1.80798,4.2963 1.92078,-0.0393 1.92078,-0.0393 3.88037,-0.0793 4.78953,-0.0911 9.57899,-0.14812 14.36914,-0.19532 2.06589,-0.025 4.13168,-0.059 6.19726,-0.10254 2.98411,-0.0612 5.96704,-0.0891 8.95166,-0.11108 0.91084,-0.0258 1.82167,-0.0516 2.76011,-0.0782 6.84103,-0.003 12.15854,1.70017 17.84146,5.56648 5.02665,5.27943 8.22645,10.76492 8.29052,18.18237 0.0128,1.00843 0.0255,2.01685 0.0387,3.05584 0.002,1.08026 0.005,2.16052 0.007,3.27351 0.01,1.6851 0.01,1.6851 0.0202,3.40425 0.0101,2.37622 0.0148,4.75247 0.0145,7.12871 0.004,3.61254 0.0407,7.22385 0.0786,10.83618 0.006,2.31445 0.01,4.6289 0.0117,6.94336 0.0144,1.07014 0.0287,2.14028 0.0436,3.24284 -0.0486,8.0947 -1.44482,15.21099 -6.68808,21.58919 -0.74378,0.60844 -1.48757,1.21688 -2.2539,1.84375 -0.74121,0.62906 -1.48242,1.25813 -2.2461,1.90625 -5.07042,3.48859 -9.61145,3.88521 -15.64643,3.86118 -0.83576,0.005 -1.67152,0.009 -2.5326,0.0137 -2.79886,0.0127 -5.59752,0.011 -8.39641,0.009 -2.00743,0.006 -4.01487,0.0128 -6.0223,0.0204 -5.45256,0.0177 -10.90506,0.0224 -16.35764,0.0236 -4.55263,0.002 -9.10524,0.009 -13.65786,0.0163 -10.74212,0.0163 -21.48422,0.0212 -32.22636,0.0198 -11.07845,-0.001 -22.15671,0.0199 -33.23512,0.0515 -9.51353,0.0262 -19.027,0.0369 -28.54057,0.0356 -5.68105,-5.1e-4 -11.36192,0.005 -17.04293,0.0263 -5.34428,0.0194 -10.68821,0.0195 -16.03249,0.005 -1.95913,-0.002 -3.91829,0.003 -5.87738,0.0147 -2.67951,0.0155 -5.35785,0.006 -8.03733,-0.009 -0.77093,0.0103 -1.54186,0.0206 -2.33615,0.0312 -6.68636,-0.0846 -11.80241,-2.27989 -16.83577,-6.67409 -0.63164,-0.73476 -1.26328,-1.46953 -1.91406,-2.22656 -0.64711,-0.72961 -1.29422,-1.45922 -1.96094,-2.21094 -4.22259,-6.12572 -3.97115,-12.45874 -3.96484,-19.62109 -0.004,-1.07997 -0.009,-2.15994 -0.013,-3.27263 -0.006,-2.28029 -0.006,-4.5606 -0.002,-6.8409 0.003,-3.46964 -0.0203,-6.93842 -0.0456,-10.40795 -0.002,-2.22201 -0.003,-4.44402 -0.002,-6.66602 -0.0138,-1.54262 -0.0138,-1.54262 -0.0279,-3.11641 0.0504,-7.94447 1.06531,-15.68577 6.57869,-21.80156 0.7947,-0.92232 0.7947,-0.92232 1.60547,-1.86328 7.917,-6.54379 15.32053,-6.36571 25.20703,-6.21484 1.44587,0.007 2.89176,0.0132 4.33764,0.0172 3.78136,0.0152 7.56209,0.0544 11.3432,0.0988 3.86802,0.0411 7.73614,0.0592 11.60431,0.0794 7.5719,0.0427 15.14329,0.11088 22.71485,0.19531 0.24139,-1.21161 0.48279,-2.42322 0.7315,-3.67155 1.414,-6.33792 3.50061,-12.43284 5.56441,-18.58368 0.44275,-1.33028 0.88511,-2.66069 1.3271,-3.99121 1.20949,-3.63707 2.42455,-7.27225 3.64056,-10.90713 1.31273,-3.92726 2.62024,-7.85625 3.92841,-11.78503 2.56045,-7.68695 5.12566,-15.3723 7.69248,-23.05713 2.98809,-8.94671 5.97133,-17.89504 8.95435,-26.84345 5.32052,-15.95985 10.64526,-31.91829 15.97247,-47.87591 5.17215,-15.49268 10.34156,-30.98677 15.50781,-46.48192 0.47778,-1.43299 0.47778,-1.43299 0.9652,-2.89494 0.64164,-1.92447 1.28328,-3.84894 1.92492,-5.77341 0.31649,-0.94927 0.63299,-1.89854 0.95908,-2.87658 0.31568,-0.94684 0.63137,-1.89367 0.95662,-2.8692 4.92124,-14.76003 9.84478,-29.5193 14.76864,-44.27845 1.78603,-5.35365 3.57176,-10.7074 5.35728,-16.06122 2.83027,-8.48639 5.66154,-16.97244 8.49486,-25.45781 1.29502,-3.87845 2.58958,-7.75705 3.88285,-11.63609 1.18233,-3.5462 2.36604,-7.09195 3.55088,-10.63731 0.63443,-1.89957 1.26738,-3.79963 1.9003,-5.69971 0.37348,-1.1166 0.74696,-2.2332 1.13176,-3.38364 0.32358,-0.96948 0.64715,-1.93896 0.98053,-2.93783 0.80799,-2.2963 0.80799,-2.2963 1.80799,-4.2963 -1.92079,0.0393 -1.92079,0.0393 -3.88037,0.0794 -4.78954,0.0911 -9.57899,0.14812 -14.36914,0.19531 -2.06589,0.025 -4.13169,0.059 -6.19727,0.10254 -2.98411,0.0612 -5.96704,0.0891 -8.95166,0.11109 -0.91083,0.0258 -1.82167,0.0516 -2.7601,0.0782 -6.83601,0.003 -12.16814,-1.69065 -17.84146,-5.56649 -2.34744,-2.50074 -4.26156,-5.04581 -6,-8 -0.36094,-0.59683 -0.72188,-1.19367 -1.09375,-1.80859 -2.42319,-5.85953 -2.06609,-12.5036 -2.07422,-18.74609 -0.003,-0.90099 -0.007,-1.80197 -0.0101,-2.73026 -0.005,-1.89769 -0.007,-3.79539 -0.007,-5.69308 -0.002,-2.88118 -0.0204,-5.76196 -0.0393,-8.64307 -0.003,-1.85286 -0.005,-3.705729 -0.006,-5.558589 -0.007,-0.85029 -0.0144,-1.70058 -0.0218,-2.57663 0.0365,-9.69718 1.6845,-17.82803 8.25224,-25.243685 6.12668,-4.864262 11.33942,-6.14898 19.08953,-6.147156 z"
     fill="#000000"
     id="path1"
     style="fill:#1b242d;fill-opacity:1" />
</svg>
