<?xml version="1.0" encoding="UTF-8" standalone="no"?>
<svg
   version="1.1"
   width="512"
   height="512"
   id="svg5"
   sodipodi:docname="no-results-white.svg"
   inkscape:version="1.4.2 (f4327f4, 2025-05-13)"
   xmlns:inkscape="http://www.inkscape.org/namespaces/inkscape"
   xmlns:sodipodi="http://sodipodi.sourceforge.net/DTD/sodipodi-0.dtd"
   xmlns="http://www.w3.org/2000/svg"
   xmlns:svg="http://www.w3.org/2000/svg">
  <defs
     id="defs5" />
  <sodipodi:namedview
     id="namedview5"
     pagecolor="#ffffff"
     bordercolor="#111111"
     borderopacity="1"
     inkscape:showpageshadow="0"
     inkscape:pageopacity="0"
     inkscape:pagecheckerboard="1"
     inkscape:deskcolor="#d1d1d1"
     inkscape:zoom="1.4882812"
     inkscape:cx="255.66404"
     inkscape:cy="256"
     inkscape:window-width="1920"
     inkscape:window-height="991"
     inkscape:window-x="-9"
     inkscape:window-y="-9"
     inkscape:window-maximized="1"
     inkscape:current-layer="svg5" />
  <path
     id="path5"
     transform="translate(267,190)"
     d="M 0,0 C 3.125,1.875 3.125,1.875 5,5 5.9887662,10.026228 5.7769173,13.705138 3.125,18.125 -1.2948622,20.776917 -4.9737715,20.988766 -10,20 -13.125,18.125 -13.125,18.125 -15,15 -15.988766,9.9737715 -15.776917,6.2948622 -13.125,1.875 -8.7051378,-0.7769173 -5.0262285,-0.98876625 0,0 Z m 50,0 c 3.125,1.875 3.125,1.875 5,5 0.988766,5.026228 0.776917,8.705138 -1.875,13.125 C 48.705138,20.776917 45.026228,20.988766 40,20 36.875,18.125 36.875,18.125 35,15 34.011234,9.9737715 34.223083,6.2948622 36.875,1.875 41.294862,-0.7769173 44.973772,-0.98876625 50,0 Z m 50,0 c 3.125,1.875 3.125,1.875 5,5 0.98877,5.026228 0.77692,8.705138 -1.875,13.125 C 98.705138,20.776917 95.026228,20.988766 90,20 86.875,18.125 86.875,18.125 85,15 84.011234,9.9737715 84.223083,6.2948622 86.875,1.875 91.294862,-0.7769173 94.973772,-0.98876625 100,0 Z M -55,-105 c 2.4375,1.5 2.4375,1.5 4,4 0.897768,5.005482 0.763031,8.728282 -1.875,13.125 -4.401863,2.641118 -8.116475,2.894798 -13.125,1.875 -3.414216,-2.369048 -4.643466,-3.974965 -6,-7.875 0,-4.168008 0.843928,-6.554 3,-10.125 5.19325,-3.29572 8.390208,-3.43444 14,-1 z m 230.1875,-38.125 c 16.59028,14.4457 30.1473,30.49909 41.8125,49.125 0.56799,0.899121 0.56799,0.899121 1.14746,1.816406 C 229.97533,-73.185143 237.27528,-51.773373 242,-30 c 0.26466,1.137437 0.26466,1.137437 0.53467,2.297852 C 247.9613,-3.7045089 247.56642,26.077111 242,50 c -0.18804,0.866572 -0.37608,1.733145 -0.56982,2.625977 -4.35371,19.776973 -10.99372,39.663485 -22.1294,56.702153 -1.53509,3.15315 -1.39874,4.40016 -0.30078,7.67187 0.35062,0.86625 0.70125,1.7325 1.0625,2.625 C 221,122 221,122 221,125 c 0.66,0.0619 1.32,0.12375 2,0.1875 8.67451,2.34935 14.36152,8.5426 19.32422,15.73047 4.295,7.79128 4.00676,18.4037 2.01562,26.89844 -3.40501,8.47567 -10.66345,16.1395 -18.97363,19.77195 -4.35398,1.58393 -8.19287,1.79212 -12.78809,1.68532 -0.80142,-0.006 -1.60284,-0.0117 -2.42855,-0.0178 -1.72963,-0.0136 -3.45921,-0.0335 -5.18869,-0.0592 -2.76307,-0.0373 -5.52521,-0.0494 -8.28852,-0.054 -7.85322,-0.0146 -15.70559,-0.0484 -23.5581,-0.15953 -30.93601,-0.56622 -30.93601,-0.56622 -59.68561,9.8162 -16.746956,8.2792 -38.681986,11.25183 -57.17865,11.43893 -0.807613,0.01 -1.615226,0.0196 -2.447311,0.0297 C 35.549747,210.44365 17.866705,210.21412 0,206 -1.3677759,205.67854 -1.3677759,205.67854 -2.7631836,205.35059 -23.915847,200.18737 -47.696537,191.48972 -65,178 c -3.150721,3.12572 -6.297931,6.25493 -9.442139,9.38721 -1.066784,1.0618 -2.13447,2.1227 -3.203125,3.18261 -5.419152,5.37601 -10.754281,10.76247 -15.71582,16.5708 -3.669839,4.16349 -7.717886,7.97515 -11.677976,11.85938 -3.27795,3.23998 -6.4523,6.50697 -9.46094,10 -4.25033,4.93462 -8.89258,9.44253 -13.53906,14 -3.27795,3.23998 -6.4523,6.50697 -9.46094,10 -4.25033,4.93462 -8.89258,9.44253 -13.53906,14 -3.27795,3.23998 -6.4523,6.50697 -9.46094,10 -4.25033,4.93462 -8.89258,9.44253 -13.53906,14 -4.54466,4.49202 -8.79299,9.15867 -12.96094,14 -8.35875,9.31539 -18.77731,16.70131 -31.64844,17.43359 -1.57535,0.0233 -3.15117,0.0242 -4.72656,0.004 -1.24499,-0.0114 -1.24499,-0.0114 -2.51514,-0.0229 -12.57713,-0.33647 -22.7093,-5.54726 -31.35986,-14.60205 -9.75095,-11.48316 -10.88314,-24.38426 -9.75,-38.8125 0.81448,-4.02586 2.07534,-7.3814 4,-11 0.3777,-0.72703 0.75539,-1.45406 1.14453,-2.20313 5.36557,-9.01285 13.88651,-16.39827 21.76953,-23.19531 4.23433,-3.67218 8.16292,-7.60192 12.08594,-11.60156 4.51975,-4.60803 9.10932,-9.01018 14,-13.22266 3.48971,-3.10121 6.73217,-6.44568 10,-9.77734 4.51975,-4.60803 9.10932,-9.01018 14,-13.22266 3.48971,-3.10121 6.73217,-6.44568 10,-9.77734 4.51975,-4.60803 9.10932,-9.01018 14,-13.22266 3.48971,-3.10121 6.73217,-6.44568 10,-9.77734 3.87294,-3.94858 7.74267,-7.83271 11.9375,-11.44141 4.57935,-3.9442 8.81483,-8.20057 13.0625,-12.49609 1.16209,-1.16886 1.16209,-1.16886 2.34766,-2.36133 1.88645,-1.89809 3.7705,-3.7985 5.65234,-5.70117 -0.44988,-0.6716 -0.89977,-1.3432 -1.36328,-2.03516 -18.28611,-28.400272 -30.53348,-62.599735 -30.875,-96.617184 -0.0146,-1.213745 -0.0146,-1.213745 -0.0295,-2.452011 -0.20908,-21.8668948 0.91845,-42.094788 6.85303,-63.259415 0.23232,-0.832256 0.46465,-1.664512 0.70401,-2.521987 0.56919,-2.038382 1.13983,-4.076354 1.71078,-6.114243 -1.03015,-0.0036 -2.0603,-0.0073 -3.12167,-0.01105 -9.73916,-0.03705 -19.47801,-0.09492 -29.21693,-0.172856 -5.00612,-0.0394 -10.01207,-0.07162 -15.01833,-0.08709 -4.83724,-0.01522 -9.67399,-0.04975 -14.51101,-0.09731 -1.83939,-0.01476 -3.67885,-0.02273 -5.5183,-0.02357 -13.95885,-0.01287 -23.86705,-1.066727 -34.41063,-11.096397 -7.24352,-8.258116 -8.7038,-17.025574 -8.46875,-27.6875 0.70881,-10.204869 5.8125,-17.066089 13.26562,-23.824219 5.44099,-4.0208 10.28151,-5.63354 17,-6 0.0941,-1.15887 0.1882,-2.31773 0.28516,-3.51172 0.57954,-4.56704 2.0633,-8.22725 4.15234,-12.30078 0.35417,-0.69287 0.70834,-1.38574 1.07324,-2.09961 7.39016,-13.83171 19.19226,-23.41032 34.0166,-28.39648 15.98561,-4.46991 33.19458,-2.36511 47.72266,5.43359 4.28046,2.59986 7.27276,5.43167 10.5625,9.1875 5.04455,5.38573 9.39536,5.82024 16.5625,6.34766 8.25299,0.77371 14.105782,4.55328 20.625,9.33984 0.801797,-0.72703 1.603594,-1.45406 2.429688,-2.20312 C -79.30362,-148.4545 -69.471685,-155.36768 -59,-162 c 0.991289,-0.64582 1.982578,-1.29164 3.003906,-1.95703 C -38.947617,-174.55339 -19.430668,-181.35629 0,-186 c 0.93875977,-0.22446 1.8775195,-0.44892 2.8447266,-0.68018 60.3369554,-13.61604 125.5423834,3.82261 172.3427734,43.55518 z m -259.730469,28.65137 C -106.80487,-92.082969 -122.62067,-62.641537 -130,-32 c -0.1961,0.786328 -0.3922,1.572656 -0.59424,2.382813 C -136.8277,-3.6027974 -136.31032,26.06725 -130,52 c 0.20899,0.862866 0.41798,1.725732 0.6333,2.614746 C -117.65294,101.05738 -86.566822,140.25353 -46,165 c 18.315975,10.91818 38.0886011,17.988 59,22 0.932476,0.18691 1.864951,0.37383 2.825684,0.56641 9.080338,1.62762 18.032082,1.74015 27.225586,1.69433 2.604232,-0.0109 5.207797,3e-5 7.812011,0.0127 1.662762,-0.001 3.325524,-0.004 4.988281,-0.008 0.774939,0.004 1.549877,0.008 2.348298,0.0123 C 62.000397,189.24455 63.760485,189.15968 67,187 66.347734,186.64809 65.695469,186.29617 65.023437,185.93359 58.619651,182.31612 53.252626,178.55422 49.921875,171.82031 46.722754,168.79025 42.924716,169.49617 38.6875,169.5 -1.8430814,168.4692 -40.01835,151.1242 -69,123 c -2.447796,-2.57883 -4.73927,-5.25664 -7,-8 -0.625195,-0.73734 -1.250391,-1.47469 -1.894531,-2.23437 C -94.995794,92.122681 -106.89999,67.333468 -112,41 c -0.1766,-0.909192 -0.3532,-1.818384 -0.53516,-2.755127 -1.61474,-9.246543 -1.86522,-18.325236 -1.83984,-27.682373 8.8e-4,-0.7914139 0.002,-1.5828278 0.003,-2.3982239 C -114.2769,-18.050822 -108.77666,-44.328403 -95,-67 c 4.025356,-2.68357 7.272496,-2.675358 12,-2 3.158013,1.973758 3.806578,3.366904 4.886719,6.902344 0.717513,5.763327 -2.3256,10.94753 -4.574219,16.097656 -3.861582,9.233434 -7.333124,18.156909 -9.3125,28 -0.258376,1.257682 -0.258376,1.257682 -0.521973,2.540771 -1.56266,8.2996339 -1.878922,16.4670011 -1.853027,24.896729 0.0013,1.050228 0.0013,1.050228 0.0027,2.121674 C -94.225489,47.303008 -80.731809,80.214048 -56,106 c 1.303242,1.41539 1.303242,1.41539 2.632813,2.85938 21.832735,23.24325 55.4118061,39.36867 87.472656,40.3789 C 38.07805,149.28376 42.031945,149.18722 46,149 c 0.219141,-0.70125 0.438281,-1.4025 0.664062,-2.125 3.236106,-9.68201 7.246683,-16.09697 15.898438,-21.67969 2.608374,-1.2791 4.833629,-1.66566 7.6875,-2.13281 2.590932,-0.52708 2.590932,-0.52708 4.75,-2.0625 1.73017,-3.61845 2.743133,-7.20272 3.792969,-11.05859 C 80.386061,104.26627 83.543048,99.716213 87,95 87.421523,94.407031 87.843047,93.814063 88.277344,93.203125 96.485838,82.479571 110.89977,75.84294 124,74 c 13.34969,-1.100195 25.15965,0.495342 37.03906,7.011719 C 162.93168,82.150019 162.93168,82.150019 165,82 183.60113,46.497343 190.4434,7.5660701 178.67969,-31.492187 174.00562,-46.065241 166.98563,-59.626926 158,-72 c -0.85078,-1.187227 -0.85078,-1.187227 -1.71875,-2.398437 C 134.30492,-103.41104 101.48092,-123.17217 65.395996,-128.37549 35.726755,-132.15119 9.4447665,-127.14294 -17.75,-115 c -4.679607,1.98034 -7.408881,2.71456 -12.25,1 -2.4375,-1.5 -2.4375,-1.5 -4,-4 -0.621068,-3.13463 -0.84006,-5.90586 0,-9 3.659014,-4.57377 7.808972,-6.69147 13.0625,-8.9375 0.784395,-0.33991 1.568789,-0.67982 2.376953,-1.03003 C -9.5914083,-140.74396 -0.42419486,-143.60313 9,-146 c 1.01707,-0.26901 1.01707,-0.26901 2.054688,-0.54346 C 32.247387,-151.90015 59.902305,-151.60142 81,-146 c 1.18771,0.30599 1.18771,0.30599 2.399414,0.61816 26.160796,6.89393 49.462626,18.8679 69.346676,37.33887 1.56496,1.4185 3.18372,2.77895 4.83985,4.08984 26.47193,21.417424 42.17749,60.984865 46.19719,93.787252 0.33973,3.3928862 0.39826,6.7827702 0.41999,10.1893155 0.007,0.73938309 0.014,1.4787662 0.0213,2.2405548 0.0174,2.3703986 0.0239,4.7405476 0.0256,7.1110077 6.7e-4,0.809018 0.001,1.618035 0.002,2.451569 C 204.23657,23.485945 203.90718,34.650382 201,46 c -0.17692,0.699961 -0.35385,1.399922 -0.53613,2.121094 C 196.8243,62.226767 191.64827,75.5343 184.53979,88.254395 182.62592,91.432082 182.62592,91.432082 182,95 c 2.22907,0.479598 4.45826,0.958661 6.6875,1.4375 1.86205,0.400254 1.86205,0.400254 3.76172,0.808594 2.8469,0.604457 5.69534,1.191553 8.55078,1.753906 10.24423,-18.142279 17.00722,-36.529487 21,-57 0.18691,-0.949878 0.37383,-1.899756 0.56641,-2.878418 1.67242,-9.498451 1.83213,-18.882128 1.80859,-28.496582 -5.4e-4,-0.8368231 -0.001,-1.6736462 -0.002,-2.5358276 C 224.33251,-5.6123012 223.39116,-18.67183 220,-32 c -0.20899,-0.845786 -0.41798,-1.691572 -0.6333,-2.562988 C 207.34581,-81.881176 175.62439,-121.37984 134.021,-146.17969 116.18868,-156.51073 97.149503,-162.95174 77,-167 c -1.156289,-0.23461 -2.312578,-0.46922 -3.503906,-0.71094 -58.638858,-10.33482 -116.555252,12.19984 -158.039063,53.23731 z M -196,-138 c -7.07202,8.31032 -9.87416,16.03751 -10.69141,26.76172 -0.40814,2.96036 -1.44252,4.92436 -3.30859,7.23828 -2.38916,1.19458 -4.57558,1.29357 -7.2063,1.54443 -6.5751,0.66136 -11.38415,1.16411 -15.7937,6.45557 -2.30552,3.039088 -2.42195,6.194331 -2.31641,9.972656 0.66954,4.290008 3.08874,7.061327 6.40911,9.674027 3.9898,1.857208 7.38849,1.750837 11.73665,1.693893 0.87855,4.38e-4 1.7571,8.76e-4 2.66227,0.0013 2.89495,-0.0021 5.78931,-0.0254 8.68416,-0.04894 2.01067,-0.0056 4.02135,-0.0099 6.03203,-0.01286 5.28548,-0.01144 10.57071,-0.0409 15.85609,-0.07411 5.39599,-0.03072 10.79201,-0.0444 16.18805,-0.05951 10.58279,-0.03215 21.1654,-0.08334 31.74805,-0.146484 0.54165,-1.095678 1.08331,-2.191356 1.64137,-3.320236 0.72172,-1.453452 1.44357,-2.906843 2.16551,-4.360184 0.35568,-0.720281 0.71135,-1.440563 1.0778,-2.182671 2.68439,-5.395056 5.62893,-10.485712 9.05282,-15.449409 0.50435,-0.74709 1.00869,-1.49418 1.52832,-2.26392 3.69439,-5.3998 7.65564,-10.44948 11.9873,-15.35717 1.84652,-2.03647 1.84652,-2.03647 1.54688,-5.06641 -6.06657,-4.04438 -11.245,-4.35628 -18.36328,-4.02734 -6.58531,0.26645 -6.58531,0.26645 -9.63672,-1.97266 -1.42187,-1.69922 -1.42187,-1.69922 -2.75,-3.6875 -5.6941,-7.88304 -13.47026,-14.46041 -23.25,-16.3125 -13.68014,-0.99226 -24.94749,1.0613 -35,11 z m 298.25,246.875 c -5.254594,7.29805 -6.768687,13.96023 -7.5625,22.89062 C 93.864251,135.63864 92.953786,137.35891 90,140 c -3.460938,0.78516 -3.460938,0.78516 -7.375,1.0625 -5.747069,0.42038 -9.08257,1.31429 -13.625,4.9375 -3.129764,4.34129 -3.388705,7.76597 -2.5625,12.88672 0.867542,3.2593 2.019121,4.89598 4.5625,7.11328 7.026953,3.39057 13.382752,3.4268 21.0979,3.38818 1.296903,0.005 2.593806,0.0105 3.930008,0.0159 3.537161,0.0136 7.074052,0.008 10.611222,-0.001 3.71229,-0.008 7.42456,-5.5e-4 11.13686,0.004 6.23137,0.005 12.46263,-0.002 18.69398,-0.016 7.1926,-0.0163 14.38495,-0.011 21.57755,0.005 6.18962,0.0136 12.37917,0.0155 18.56881,0.008 3.69065,-0.005 7.38118,-0.005 11.07183,0.005 4.1146,0.0103 8.22876,-0.004 12.34333,-0.0207 1.21527,0.006 2.43053,0.0121 3.68262,0.0184 7.4812,-0.0562 12.90025,-0.455 18.72339,-5.53159 2.20575,-4.05859 2.42427,-7.3587 1.5625,-11.875 -2.19318,-4.30512 -3.55507,-5.50087 -8.12109,-7.07813 -2.29152,-0.64377 -4.59829,-1.23605 -6.91797,-1.76953 C 205.30838,141.73083 204.55766,140.53825 203,137 c -0.46696,-1.59026 -0.88438,-3.19593 -1.25,-4.8125 -1.57993,-5.5133 -4.26152,-9.58841 -8.75,-13.1875 -5.32294,-2.8389 -9.34106,-3.35345 -15.1875,-3.0625 -8.65745,0.37572 -8.65745,0.37572 -11.8125,-1.9375 -1.42188,-1.69922 -1.42188,-1.69922 -2.75,-3.6875 C 157.15632,101.89742 149.32935,96.035712 139,94 c -15.94963,-1.438756 -25.98627,3.622006 -36.75,14.875 z m -227.95825,43.76514 c -2.77129,2.7794 -5.53433,5.56669 -8.29175,8.35986 5.24459,6.3659 11.02097,12.13571 16.875,17.9375 0.98461,0.97958 1.96899,1.9594 2.95312,2.93945 2.38836,2.37665 4.77903,4.75092 7.17188,7.12305 5.16977,-4.33161 10.04188,-8.85913 14.8125,-13.625 0.66709,-0.65484 1.33418,-1.30969 2.021484,-1.98438 0.638731,-0.63679 1.277461,-1.27359 1.935547,-1.92968 0.573391,-0.56928 1.146782,-1.13857 1.737549,-1.7251 1.557765,-1.81124 2.520441,-3.56241 3.49292,-5.73584 -0.955195,-0.87141 -1.910391,-1.74281 -2.894531,-2.64063 -7.396892,-6.79823 -14.468839,-13.70206 -21.128909,-21.22656 -0.65226,-0.70383 -1.30453,-1.40765 -1.97656,-2.13281 -4.70197,0 -13.30018,11.24198 -16.70825,14.64014 z m -26.07691,25.08252 c -1.50025,1.54142 -3.00025,3.08308 -4.5,4.625 -2.127,2.07803 -4.2733,4.02337 -6.52343,5.96093 -4.2708,3.70236 -8.23528,7.65802 -12.19141,11.69141 -4.51975,4.60803 -9.10932,9.01018 -14,13.22266 -3.48971,3.10121 -6.73217,6.44568 -10,9.77734 -4.51975,4.60803 -9.10932,9.01018 -14,13.22266 -3.48971,3.10121 -6.73217,6.44568 -10,9.77734 -3.9819,4.05967 -7.96955,8.02721 -12.28516,11.73437 -2.70363,2.33006 -5.06098,4.60076 -7.15234,7.51563 -0.47309,0.64453 -0.94617,1.28906 -1.43359,1.95312 -3.32006,5.28453 -2.62567,11.80737 -2.12891,17.79688 1.68399,6.28959 5.73016,10.37922 11,14 5.94517,3.12121 12.19119,3.56704 18.6228,1.8562 7.41877,-2.67203 12.89591,-9.23349 18.0647,-14.9187 1.39671,-1.51202 2.79517,-3.02242 4.19531,-4.53125 0.68997,-0.74379 1.37994,-1.48758 2.09082,-2.25391 3.44174,-3.6557 7.00693,-7.18465 10.60132,-10.68969 2.72756,-2.68104 5.299,-5.43559 7.79614,-8.33374 4.30097,-4.97146 8.97787,-9.52865 13.66797,-14.12891 3.27795,-3.23998 6.4523,-6.50697 9.46094,-10 4.25033,-4.93462 8.89258,-9.44253 13.53906,-14 5.73504,-5.66861 11.17283,-11.50083 15.96094,-18 -3.96615,-3.99079 -7.93552,-7.97835 -11.90796,-11.96289 -1.35213,-1.35718 -2.70337,-2.71525 -4.05371,-4.07422 -1.93623,-1.9483 -3.87562,-3.8934 -5.81567,-5.83789 -0.60731,-0.61247 -1.21461,-1.22493 -1.84032,-1.85596 -1.44192,-1.44211 -2.90951,-2.85851 -4.38234,-4.26904 -1.29353,-0.11573 -1.29353,-0.11573 -2.78516,1.72266 z"
     style="fill:#ffffff;fill-opacity:0.60357141" />
</svg>
