<?xml version="1.0" encoding="UTF-8" standalone="no"?>
<svg
   version="1.1"
   width="512"
   height="512"
   id="svg9"
   sodipodi:docname="research-white.svg"
   inkscape:version="1.4.2 (f4327f4, 2025-05-13)"
   xmlns:inkscape="http://www.inkscape.org/namespaces/inkscape"
   xmlns:sodipodi="http://sodipodi.sourceforge.net/DTD/sodipodi-0.dtd"
   xmlns="http://www.w3.org/2000/svg"
   xmlns:svg="http://www.w3.org/2000/svg">
  <defs
     id="defs9" />
  <sodipodi:namedview
     id="namedview9"
     pagecolor="#ffffff"
     bordercolor="#111111"
     borderopacity="1"
     inkscape:showpageshadow="0"
     inkscape:pageopacity="0"
     inkscape:pagecheckerboard="1"
     inkscape:deskcolor="#d1d1d1"
     inkscape:zoom="1.4882812"
     inkscape:cx="255.66404"
     inkscape:cy="256"
     inkscape:window-width="1920"
     inkscape:window-height="991"
     inkscape:window-x="-9"
     inkscape:window-y="-9"
     inkscape:window-maximized="1"
     inkscape:current-layer="svg9" />
  <path
     id="path9"
     transform="translate(149.927001953125,340.693603515625)"
     d="m 0,0 c 1.0014656,-0.0159874 2.0029312,-0.03197479 3.0347443,-0.04844666 1.6218848,-0.008044 1.6218848,-0.008044 3.276535,-0.01625061 1.1135234,-0.0090285 2.2270468,-0.01805694 3.3743134,-0.027359 2.3578673,-0.0145171 4.7157753,-0.02339285 7.0736843,-0.02708435 3.602013,-0.011883 7.202305,-0.0610461 10.803955,-0.11157227 2.291008,-0.009466 4.582025,-0.0167 6.873047,-0.0214844 1.612776,-0.0292985 1.612776,-0.0292985 3.258133,-0.0591888 8.356438,0.0502394 8.356438,0.0502394 12.043381,3.02769471 3.194061,3.5426865 3.729647,5.6716979 3.69458,10.4846194 -0.635193,3.721403 -2.699165,5.508597 -5.359375,8.105468 -2.451234,1.225617 -4.088364,1.146565 -6.829346,1.177002 -1.004768,0.01284 -2.009537,0.02567 -3.044754,0.0389 -1.089555,0.0074 -2.179109,0.01477 -3.301681,0.02238 -1.11731,0.0081 -2.23462,0.01614 -3.385788,0.02446 -2.368052,0.01385 -4.736123,0.02457 -7.104202,0.03242 -3.62156,0.01722 -7.242208,0.0611 -10.863526,0.105225 -2.298821,0.01013 -4.5976504,0.01864 -6.8964842,0.02539 -1.0834822,0.01751 -2.1669644,0.03502 -3.2832794,0.05306 -7.5389417,-0.02175 -7.5389417,-0.02175 -11.4322968,-2.38826 -2.7029356,-3.040226 -3.7049166,-4.912012 -4.2336426,-8.965577 0.476385,-3.9698747 1.905404,-6.0203649 4.3750001,-9.1249995 C -4.6886305,0.1474822 -3.7454777,0.04522113 0,0 Z m 1.9396973,53.015869 c 1.7723652,-0.01914 1.7723652,-0.01914 3.5805359,-0.03867 1.2729592,-0.0022 2.5459185,-0.0045 3.8574523,-0.0067 1.3118725,-0.0067 2.6237455,-0.01331 3.9753725,-0.02017 2.775658,-0.01196 5.551192,-0.01568 8.326874,-0.0145 3.546477,2.03e-4 7.092153,-0.02709 10.638441,-0.06154 3.394782,-0.02767 6.789419,-0.02642 10.184313,-0.02879 1.903366,-0.02156 1.903366,-0.02156 3.845184,-0.04355 10.972641,0.05684 10.972641,0.05684 15.725128,4.504486 2.00543,2.868958 2.266403,4.987013 1.9375,8.4375 -0.05285,0.741211 -0.105703,1.482422 -0.160156,2.246094 -1.147594,3.419713 -3.03595,5.011327 -5.777344,7.316406 -2.997314,0.634919 -2.997314,0.634919 -6.363281,0.646973 -1.897218,0.02364 -1.897218,0.02364 -3.832764,0.04776 -1.37216,-0.009 -2.744313,-0.0192 -4.116455,-0.03067 -1.415776,0.0034 -2.831549,0.0082 -4.247314,0.0145 -2.96244,0.0074 -5.924124,-0.0033 -8.886475,-0.0267 -3.790086,-0.02849 -7.578402,-0.01208 -11.368423,0.01786 -2.922117,0.0181 -5.843817,0.0123 -8.765946,-6.39e-4 -1.3969951,-0.0033 -2.7940286,7.26e-4 -4.1909789,0.0124 -1.9550195,0.01275 -3.9101725,-0.01014 -5.8650818,-0.0345 -1.6661536,-0.006 -1.6661536,-0.006 -3.3659668,-0.01205 -3.9490731,-0.836529 -5.4583854,-2.572163 -7.9973145,-5.634919 -1.137816,-3.01495 -1.293218,-5.797155 -1,-9 3.2703624,-6.661849 6.6914866,-8.237875 13.8666993,-8.290527 z M 1.354248,-53.324707 c 0.7144629,-0.0072 1.4289258,-0.01431 2.1650391,-0.02168 2.3518958,-0.01685 4.7018756,0.0025 7.0537109,0.02388 1.639976,-8.29e-4 3.279951,-0.0033 4.919922,-0.0073 3.433198,-0.0029 6.865742,0.01182 10.298828,0.03929 4.395187,0.03408 8.789206,0.02806 13.184448,0.0093 3.385312,-0.01058 6.770353,-0.0016 10.15564,0.01338 1.620272,0.0052 3.240572,0.0047 4.86084,-0.0015 2.266973,-0.0055 4.532288,0.01497 6.799072,0.0423 1.288418,0.0062 2.576836,0.0124 3.904297,0.01878 3.931829,0.599229 5.582319,1.740932 8.376953,4.514663 1.858553,3.717106 1.579084,7.952773 1,12 -2.52676,3.346251 -4.039335,4.679779 -8,6 -2.221785,0.109805 -4.446718,0.159036 -6.671143,0.177002 -1.010325,0.0099 -1.010325,0.0099 -2.041061,0.01991 -2.227444,0.0197 -4.45482,0.03139 -6.682327,0.04137 -0.762039,0.0041 -1.524079,0.0082 -2.30921,0.01235 -4.033402,0.02085 -8.06677,0.03515 -12.100214,0.04453 -4.159606,0.01106 -8.318676,0.04546 -12.478093,0.08517 -3.204265,0.02618 -6.408402,0.03452 -9.612764,0.03811 -1.532966,0.0049 -3.065927,0.01647 -4.5987888,0.03504 -2.1494526,0.02442 -4.2975233,0.02342 -6.447073,0.01648 -1.8317553,0.0088 -1.8317553,0.0088 -3.70051573,0.01778 -4.02910487,-0.585084 -6.19114697,-1.980038 -9.35881047,-4.487748 -2.00543,-2.868957 -2.266403,-4.987012 -1.9375,-8.4375 0.05285,-0.74121 0.105703,-1.482421 0.160156,-2.246093 2.192407,-6.533152 6.6797991,-7.942748 13.058594,-7.94751 z M 141.073,21.306396 c 3.65782,2.03994 5.66946,3.504193 8,7 0.49358,2.564909 0.92026,5.107808 1.3125,7.6875 1.82929,10.589559 5.89836,16.920398 14.6875,23.3125 4.48622,2.550989 8.51439,3.239695 13.5625,3.875 5.77294,0.830401 8.84114,1.429756 12.4375,6.125 1.03604,3.085362 1.35336,5.762783 1,9 -1.95835,3.846764 -3.41449,5.609662 -7,8 -13.1247,1.645371 -26.2526,-2.483028 -37,-10 -6.74647,-5.746988 -12.41858,-11.803787 -16,-20 -0.3777,-0.859804 -0.75539,-1.719609 -1.14453,-2.605468 -2.66789,-6.3822 -4.01362,-11.940483 -4.16797,-18.894532 -0.0374,-1.103437 -0.0748,-2.206875 -0.11328,-3.34375 0.51685,-3.831358 1.77362,-5.405315 4.42578,-8.15625 3.26934,-2.288539 6.06981,-2.471622 10,-2 z M 0.17683411,-223.96776 c 1.05563639,-0.01 2.11127289,-0.0199 3.19889829,-0.0302 1.157981,-6.6e-4 2.3159619,-0.001 3.5090332,-0.002 1.2197502,-0.008 2.4395005,-0.0166 3.6962124,-0.0252 3.347296,-0.02 6.694344,-0.0308 10.041678,-0.0358 2.092103,-0.004 4.184182,-0.01 6.276276,-0.017 7.301278,-0.0245 14.602485,-0.0376 21.903802,-0.0411 6.80125,-0.004 13.602048,-0.0335 20.403159,-0.0754 5.84216,-0.0347 11.68417,-0.0501 17.526433,-0.0508 3.487956,-7.9e-4 6.975452,-0.01 10.463301,-0.038 3.892653,-0.0311 7.784653,-0.0221 11.677423,-0.01 1.72786,-0.0223 1.72786,-0.0223 3.49063,-0.045 8.71329,0.0799 8.71329,0.0799 12.41273,3.0414 2.92127,3.31092 3.32532,5.11508 3.53878,9.38417 -0.3858,3.53437 -1.93869,5.59531 -4.24219,8.21875 -3.29598,2.19732 -4.28187,2.25347 -8.11057,2.26742 -1.05708,0.009 -2.11416,0.0171 -3.20327,0.0258 -1.15956,-9.1e-4 -2.31911,-0.002 -3.5138,-0.003 -1.22136,0.007 -2.44271,0.0134 -3.70108,0.0204 -3.35137,0.0158 -6.702485,0.0224 -10.053872,0.0236 -2.798169,0.002 -5.596315,0.009 -8.394476,0.0163 -6.602546,0.0163 -13.205038,0.0212 -19.807602,0.0197 -6.809158,-0.001 -13.617999,0.0199 -20.427076,0.0515 -5.847239,0.0262 -11.694375,0.0369 -17.541672,0.0356 -3.491761,-5.1e-4 -6.98324,0.005 -10.474943,0.0264 -3.895198,0.023 -7.789961,0.0139 -11.6852152,0.002 -1.1555035,0.0112 -2.3110071,0.0225 -3.5015259,0.0341 -7.8250072,-0.0618 -7.8250072,-0.0618 -11.7582702,-2.43307 -2.6674837,-3.04745 -3.6748857,-4.92345 -4.2016297,-8.96182 0.476385,-3.96988 1.905404,-6.02037 4.375,-9.125 3.2924244,-2.19495 4.2796277,-2.2548 8.10383611,-2.27416 z m 34.42968789,64 c 0.774204,-0.005 1.548409,-0.0105 2.346075,-0.0159 2.602441,-0.015 5.204687,-0.0157 7.807169,-0.0164 1.862608,-0.008 3.725213,-0.0161 5.587814,-0.0252 5.066185,-0.022 10.13231,-0.0308 15.198538,-0.0358 3.164161,-0.004 6.328307,-0.01 9.492462,-0.017 11.035975,-0.0245 22.071903,-0.0376 33.1079,-0.0411 10.29121,-0.004 20.58211,-0.0335 30.87323,-0.0754 8.83151,-0.0347 17.66292,-0.0501 26.49451,-0.0508 5.27641,-7.9e-4 10.55252,-0.01 15.82887,-0.038 4.96346,-0.0261 9.92637,-0.0284 14.88987,-0.0123 1.82129,0.002 3.64262,-0.005 5.46385,-0.0208 2.4879,-0.0204 4.97384,-0.01 7.46171,0.008 1.07964,-0.0198 1.07964,-0.0198 2.18108,-0.04 5.62406,0.0936 7.93312,1.79883 11.7334,5.65473 1.26717,3.01083 1.35334,5.76289 1,9 -1.95835,3.84676 -3.41449,5.60966 -7,8 -2.54959,0.19742 -4.99022,0.27828 -7.54025,0.26742 -1.16237,0.007 -1.16237,0.007 -2.34822,0.0137 -2.60478,0.0127 -5.20936,0.011 -7.81417,0.009 -1.86423,0.006 -3.72846,0.0128 -5.59268,0.0204 -5.07026,0.0177 -10.14045,0.0224 -15.21073,0.0236 -4.22972,0.002 -8.45942,0.009 -12.68913,0.0163 -9.97775,0.0163 -19.95547,0.0212 -29.93324,0.0197 -10.29913,-0.001 -20.59806,0.0199 -30.89714,0.0515 -8.836592,0.0261 -17.673117,0.0369 -26.509749,0.0356 -5.280246,-5.1e-4 -10.560306,0.005 -15.840513,0.0264 -4.965866,0.0193 -9.931368,0.0195 -14.897247,0.005 -1.823323,-0.002 -3.646668,0.003 -5.469952,0.0147 -2.488018,0.0154 -4.974771,0.006 -7.462761,-0.009 -1.084004,0.0154 -1.084004,0.0154 -2.189908,0.0312 -4.807597,-0.066 -7.210987,-1.14628 -10.604312,-4.52565 -2.28854,-3.26935 -2.471622,-6.06982 -2,-10 3.826185,-6.86075 6.972469,-8.29929 14.533524,-8.27416 z m -29.7408299,53.00673 c 0.8975659,-0.005 1.7951317,-0.009 2.7198965,-0.0137 3.0139214,-0.0127 6.0276634,-0.011 9.0416084,-0.009 2.158318,-0.006 4.316633,-0.0128 6.474945,-0.0204 5.867759,-0.0177 11.73546,-0.0224 17.603243,-0.0236 4.895738,-0.002 9.791462,-0.009 14.687195,-0.0163 11.548916,-0.0163 23.097801,-0.0212 34.646727,-0.0198 11.919733,0.001 23.839283,-0.0199 35.758973,-0.0515 10.22855,-0.0261 20.45704,-0.0369 30.68562,-0.0356 6.11136,5.1e-4 12.22255,-0.005 18.33388,-0.0263 5.74724,-0.0193 11.49417,-0.0195 17.24143,-0.005 2.10994,0.002 4.21989,-0.003 6.3298,-0.0147 2.87948,-0.0154 5.75787,-0.006 8.63733,0.009 0.8358,-0.0103 1.6716,-0.0206 2.53273,-0.0312 5.29791,0.0628 8.29926,1.02722 12.51393,4.52565 2.00543,2.868954 2.2664,4.987009 1.9375,8.437496 -0.0529,0.741211 -0.10571,1.482422 -0.16016,2.246094 -1.1812,3.519853 -2.87174,5.010985 -5.77734,7.316406 -3.02452,0.727898 -5.97222,0.675416 -9.07154,0.634919 -1.37319,0.0117 -1.37319,0.0117 -2.77412,0.02364 -3.06878,0.01995 -6.13633,0.0041 -9.20512,-0.01158 -2.1995,0.0068 -4.399,0.01568 -6.59848,0.02655 -5.9752,0.02282 -11.94997,0.01395 -17.92517,-0.0019 -6.24905,-0.01265 -12.49806,-9.22e-4 -18.74711,0.0069 -11.16725,0.0097 -22.33436,-0.0059 -33.50158,-0.0313 -10.12383,-0.02234 -20.24739,-0.01846 -30.371218,0.0046 -11.758433,0.02676 -23.516727,0.03672 -35.275191,0.02194 -6.223658,-0.0078 -12.447118,-0.0088 -18.670762,0.0077 -5.850772,0.01443 -11.701003,0.0045 -17.551716,-0.02447 -2.149046,-0.0066 -4.298138,-0.0047 -6.447167,0.0063 -2.9303834,0.01363 -5.8590226,-0.0034 -8.7892948,-0.0284 -0.8535976,0.01115 -1.7071952,0.02231 -2.58665938,0.0338 -4.34333022,-0.07194 -5.98274292,-0.268994 -9.49886612,-3.068019 -2.8929567,-3.788358 -3.4164497,-6.898947 -2.9860077,-11.600699 3.9149777,-7.974956 8.5019707,-8.297986 16.7926941,-8.267426 z M 248.073,-37.693604 c 18.06458,17.582142 28.80798,41.665193 29.29199,66.880127 0.10064,14.390503 -1.24761,28.117126 -7.75293,41.174561 -0.7496,1.953494 -0.7496,1.953494 0.18378,3.815186 1.46858,2.449398 3.1202,4.170543 5.17267,6.15747 0.80133,0.781817 1.60266,1.563633 2.42828,2.369141 0.86768,0.838535 1.73536,1.67707 2.62933,2.541015 1.83524,1.800172 3.66985,3.600974 5.50391,5.402344 2.88654,2.827302 5.77871,5.648551 8.6831,8.45752 2.80576,2.72036 5.59165,5.45988 8.37549,8.20264 0.85959,0.82234 1.71917,1.64468 2.6048,2.49194 8.03161,7.96344 13.35487,16.76858 14.12958,28.19556 -0.1658,8.82058 -3.58308,16.63499 -9.25,23.3125 -8.21743,7.79209 -16.1268,9.62427 -27.31641,9.33593 -14.28232,-1.30252 -22.89067,-12.45398 -32.35937,-22.125 -0.7784,-0.7932 -1.5568,-1.5864 -2.35878,-2.40364 -3.26043,-3.32426 -6.52028,-6.64859 -9.7567,-9.99626 -2.38542,-2.46376 -4.78921,-4.90824 -7.19702,-7.3501 -0.73028,-0.76438 -1.46056,-1.52876 -2.21297,-2.31631 -0.68809,-0.69177 -1.37619,-1.38355 -2.08513,-2.09628 -0.59827,-0.61461 -1.19654,-1.22923 -1.81294,-1.86246 -1.88602,-1.44405 -1.88602,-1.44405 -4.41428,-0.94647 -2.64532,0.8092 -5.27979,1.64607 -7.90266,2.52548 -26.11437,8.69007 -51.85628,6.21723 -76.56812,-5.13599 -23.14191,-11.80505 -40.340839,-32.646025 -48.328122,-57.253904 -0.590816,-2.117302 -1.154991,-4.242286 -1.6875,-6.375 -0.225586,-0.89332 -0.451172,-1.78664 -0.683594,-2.707031 -5.242476,-25.272351 0.328714,-51.4761595 13.683594,-73.292969 2.167332,-3.160694 4.508752,-6.090052 7.000002,-9 0.98226,-1.198828 0.98226,-1.198828 1.98437,-2.421875 16.3127,-19.1704 39.80602,-30.030194 64.70313,-32.265625 28.6661,-1.671673 53.99192,7.406286 75.3125,26.6875 z M 123.91675,-15.388916 C 109.08991,2.0041074 105.32277,22.108195 107.073,44.306396 c 2.17686,17.845732 13.09397,34.675721 26.59765,46.125 17.70798,13.820854 36.45723,17.392334 58.40235,15.875004 14.67506,-1.84414 28.13395,-9.232331 39,-19.000004 0.61101,-0.518203 1.22203,-1.036406 1.85156,-1.570312 14.19424,-12.897961 20.7544,-31.980677 22.43359,-50.589844 0.62032,-20.039017 -7.36941,-38.9855502 -20.93359,-53.457031 -14.9011,-15.099119 -32.28048,-23.069452 -53.66406,-23.695313 -22.58878,0.432322 -41.60362,10.327918 -56.84375,26.617188 z M 255.073,93.306396 c -1.09312,1.159373 -2.1488,2.354126 -3.1875,3.5625 -0.57106,0.66129 -1.14211,1.322579 -1.73047,2.003907 -0.68707,0.803086 -1.37414,1.606167 -2.08203,2.433597 -1.04327,1.21745 -2.08666,2.43481 -3.13013,3.6521 -0.53809,0.62772 -1.07617,1.25545 -1.63057,1.9022 -0.61345,0.71562 -0.61345,0.71562 -1.2393,1.4457 5.38282,5.56053 10.79308,11.09325 16.22314,16.60766 1.84333,1.8785 3.68032,3.76323 5.51074,5.6543 2.63472,2.71977 5.29153,5.41618 7.95362,8.10913 0.81179,0.84792 1.62357,1.69583 2.45996,2.56944 4.85952,4.96468 4.85952,4.96468 11.25488,7.1769 3.91558,-0.12781 5.5972,-0.64647 8.59766,-3.11743 2.08666,-3.12999 2.60384,-5.09581 2.50662,-8.83863 -0.63106,-2.69226 -1.68126,-3.90496 -3.55008,-5.9309 -0.63706,-0.69457 -1.27412,-1.38913 -1.93048,-2.10474 -3.25724,-3.41748 -6.54994,-6.79234 -9.89325,-10.12573 -0.72019,-0.72115 -1.44039,-1.4423 -2.1824,-2.18531 -1.50633,-1.507 -3.01391,-3.01277 -4.52268,-4.51733 -2.32084,-2.31543 -4.63622,-4.63621 -6.95117,-6.95752 -1.46843,-1.46777 -2.93717,-2.93523 -4.40625,-4.40234 -0.69471,-0.696742 -1.38943,-1.39348 -2.10519,-2.111332 -0.95703,-0.952295 -0.95703,-0.952295 -1.93338,-1.923828 -0.56291,-0.562112 -1.12582,-1.124223 -1.70578,-1.703369 -1.15164,-1.310757 -1.15164,-1.310757 -2.32596,-1.198975 z M -10.243896,-320.09766 c 1.9691807,-0.006 3.9383585,-0.0127 5.9075313,-0.0208 5.3182898,-0.0179 10.636414,-0.0168 15.9547247,-0.0111 4.453003,0.003 8.905974,-0.003 13.358972,-0.009 10.511896,-0.014 21.023711,-0.0125 31.535607,-0.001 10.815495,0.0115 21.630741,-0.003 32.446203,-0.0294 9.313352,-0.0222 18.626628,-0.0288 27.940008,-0.0229 5.55034,0.003 11.10052,0.001 16.65083,-0.0162 5.22211,-0.0156 10.44385,-0.0114 15.66594,0.007 1.90662,0.004 3.81327,6.4e-4 5.71987,-0.01 23.66499,-0.12061 38.3168,7.13958 55.13721,23.5172 0.7773,0.74894 1.55461,1.49789 2.35547,2.26953 3.02434,2.96584 5.89942,5.99579 8.63281,9.23144 4.46651,5.12642 9.31595,9.85275 14.16806,14.60827 2.28162,2.23888 4.55336,4.48768 6.82585,6.73582 4.21106,4.16571 8.42589,8.32743 12.65746,12.47232 2.96288,2.90294 5.91293,5.81842 8.85531,8.74213 1.11163,1.10002 2.22774,2.19554 3.3487,3.28606 13.1038,12.75687 20.97665,26.61377 21.66427,45.18838 0.0234,2.67768 0.0264,5.34967 0.01,8.02684 0.005,1.49 0.0126,2.98 0.0212,4.46998 0.018,3.9954 0.0113,7.99037 -0.002,11.98577 -0.0102,4.2012 -7.1e-4,8.40236 0.006,12.60356 0.007,7.04117 -0.002,14.08216 -0.0214,21.1233 -0.0218,8.13065 -0.0146,16.2609 0.007,24.39154 0.0182,7.00589 0.0207,14.011662 0.0102,21.017571 -0.006,4.174002 -0.007,8.347815 0.006,12.521804 0.0116,3.91633 0.004,7.832143 -0.0196,11.748417 -0.005,1.434272 -0.004,2.868588 0.005,4.302843 0.0756,13.518349 0.0756,13.518349 -4.53065,18.274421 -3.70175,2.467832 -6.70494,2.680728 -11,2 -5.5,-3 -5.5,-3 -7,-6 -0.10602,-2.026896 -0.14667,-4.05731 -0.15822,-6.086944 -0.0147,-1.947794 -0.0147,-1.947794 -0.0297,-3.934937 -0.006,-1.447295 -0.0117,-2.894592 -0.0174,-4.341888 -0.01,-1.51752 -0.0196,-3.035037 -0.03,-4.552551 -0.0271,-4.127832 -0.0481,-8.255676 -0.068,-12.383548 -0.0218,-4.310862 -0.0492,-8.621689 -0.0761,-12.932523 -0.05,-8.166835 -0.0949,-16.333695 -0.13802,-24.500565 -0.0494,-9.29615 -0.10428,-18.59225 -0.15968,-27.88836 -0.11387,-19.1262 -0.2207,-38.25242 -0.32292,-57.37868 -0.85032,0.0111 -1.70064,0.0222 -2.57672,0.0336 -8.06062,0.10069 -16.12103,0.17656 -24.18214,0.22542 -4.14315,0.026 -8.28579,0.0611 -12.42864,0.11813 -4.00713,0.0548 -8.01376,0.0843 -12.02123,0.0972 -1.51968,0.009 -3.03934,0.027 -4.5588,0.0543 -11.65987,0.20048 -21.77281,-1.14302 -30.73247,-9.34115 -5.95141,-6.53295 -8.6291,-13.24659 -8.61353,-22.04566 -1.4e-4,-0.69294 -2.9e-4,-1.38588 -4.4e-4,-2.09982 7e-4,-2.28878 0.008,-4.57748 0.0163,-6.86624 0.002,-1.58755 0.003,-3.1751 0.004,-4.76265 0.004,-4.17736 0.0136,-8.35468 0.0247,-12.53203 0.0102,-4.2631 0.0148,-8.5262 0.0198,-12.78931 0.0107,-8.36394 0.0278,-16.72786 0.0488,-25.09179 -25.3825,-0.0701 -50.76498,-0.12301 -76.14756,-0.15544 -11.785971,-0.0155 -23.571881,-0.0365 -35.357813,-0.0709 -10.274429,-0.0299 -20.548814,-0.0493 -30.823285,-0.0559 -5.438602,-0.004 -10.87708,-0.0131 -16.315643,-0.0349 -5.1233597,-0.0204 -10.2465442,-0.0266 -15.3699412,-0.0221 -1.8760512,-8.2e-4 -3.7521084,-0.007 -5.6281243,-0.0183 -13.1333025,-0.0768 -24.1597155,0.0846 -34.3576355,9.35762 -9.874853,10.14915 -9.149413,23.42312 -9.133713,36.63093 -0.0019,1.49225 -0.0042,2.98449 -0.0069,4.47673 -0.0061,4.08806 -0.006,8.17611 -0.0048,12.26417 2.05e-4,4.41389 -0.0053,8.82777 -0.01006,13.24165 -0.0083,8.64271 -0.01105,17.28542 -0.01161,25.92815 -4.75e-4,7.02631 -0.0025,14.05263 -0.0057,21.07895 -0.0088,19.9292 -0.01342,39.85839 -0.01267,59.78759 6e-5,1.61082 6e-5,1.61082 1.21e-4,3.25418 4.1e-5,1.07519 8.2e-5,2.15039 1.24e-4,3.25816 4.07e-4,17.425826 -0.0092,34.851629 -0.02326,52.277447 -0.01437,17.900835 -0.02127,35.801659 -0.02041,53.7024989 3.32e-4,10.046712 -0.0024,20.0934011 -0.01318,30.1401081 -0.0091,8.553506 -0.01128,17.106979 -0.0045,25.660487 0.0033,4.361841 0.0033,8.723618 -0.0054,13.085452 -0.0079,3.997825 -0.0064,7.995538 0.0023,11.99336 0.0015,1.441401 -2.69e-4,2.882811 -0.0059,4.324202 -0.04581,12.654712 0.07294,25.140035 9.11482,34.903745 7.194004,6.66421 14.506543,9.11714 24.282211,9.11676 1.235083,0.003 2.470166,0.005 3.742676,0.008 1.360764,-0.002 2.721527,-0.004 4.082291,-0.006 1.43926,0.001 2.8785202,0.003 4.3177793,0.006 3.0949124,0.004 6.1898116,0.006 9.2847271,0.006 4.8958019,0.001 9.7915286,0.014 14.6873036,0.0296 0.826955,0.003 1.65391,0.005 2.505924,0.008 1.690682,0.005 3.381364,0.0106 5.072047,0.0159 11.394182,0.0351 22.788271,0.0617 34.182512,0.0592 7.69149,-0.002 15.382723,0.0144 23.07413,0.0507 4.068022,0.0185 8.135615,0.0278 12.203669,0.0155 3.826012,-0.0114 7.651257,2.8e-4 11.477167,0.0296 1.402,0.007 2.80408,0.005 4.20606,-0.006 11.90746,-0.0863 11.90746,-0.0863 15.84404,3.05979 2.78182,3.32088 3.21025,5.1808 3.42028,9.38141 -0.3858,3.53437 -1.93869,5.59531 -4.24219,8.21875 -3.49752,2.33167 -4.87852,2.25294 -9.01256,2.26069 -1.88598,0.0106 -1.88598,0.0106 -3.81006,0.0215 -1.39628,-0.002 -2.79257,-0.005 -4.18886,-0.008 -1.46864,0.004 -2.93728,0.01 -4.40591,0.0155 -3.994329,0.0134 -7.988562,0.014 -11.982908,0.0114 -3.339308,-0.001 -6.678597,0.004 -10.017902,0.009 -7.887715,0.0111 -15.775382,0.0115 -23.663101,0.005 -8.116576,-0.006 -16.232977,0.006 -24.349523,0.0276 -6.979395,0.0177 -13.958735,0.0236 -20.938151,0.0204 -4.1631738,-0.002 -8.3262241,7.5e-4 -12.4893777,0.0147 -3.924297,0.0127 -7.8483259,0.0105 -11.7726193,-0.002 -1.431752,-0.002 -2.863522,3e-4 -4.295252,0.009 -17.375485,0.0936 -31.0075,-3.85863 -43.784715,-15.96656 -13.142342,-13.88244 -15.599263,-29.23185 -15.556488,-47.711339 -0.0037,-1.539905 -0.0083,-3.079808 -0.01373,-4.619708 -0.01218,-4.210728 -0.01198,-8.421375 -0.0096,-12.632116 4.09e-4,-4.549606 -0.01064,-9.099186 -0.02012,-13.64878 -0.01658,-8.906149 -0.02211,-17.812271 -0.02322,-26.718434 -9.52e-4,-7.243145 -0.0051,-14.486281 -0.0114,-21.7294231 -0.01761,-20.5561079 -0.02684,-41.1121949 -0.02534,-61.6683109 8e-5,-1.107278 1.6e-4,-2.214557 2.43e-4,-3.35539 8.1e-5,-1.108638 1.63e-4,-2.217276 2.47e-4,-3.359509 8.13e-4,-17.959068 -0.01832,-35.918052 -0.04652,-53.8771 -0.02876,-18.46028 -0.04254,-36.92052 -0.04081,-55.38083 6.63e-4,-10.35594 -0.0048,-20.7118 -0.02636,-31.06773 -0.01826,-8.81868 -0.02252,-17.63723 -0.009,-26.45592 0.0065,-4.49418 0.0067,-8.98812 -0.01071,-13.48227 -0.01584,-4.12457 -0.01276,-8.24869 0.0046,-12.37325 0.003,-1.48181 -4.75e-4,-2.96365 -0.01172,-4.44542 -0.123701,-17.47519 3.455389,-33.42076 15.57339,-46.64244 14.824868,-13.8668 31.229887,-15.70508 50.620606,-15.65406 z M 192.073,-281.6936 c -0.12695,7.15312 -0.21442,14.30596 -0.27466,21.45996 -0.0251,2.43273 -0.0592,4.86538 -0.10254,7.29785 -0.0608,3.50019 -0.089,6.99938 -0.11108,10.5 -0.0258,1.08459 -0.0516,2.16919 -0.0782,3.28665 -0.048,6.51725 -0.048,6.51725 2.9095,12.12692 3.5422,3.10444 5.9516,3.45382 10.4956,3.44214 0.98079,-7e-5 1.96158,-1.5e-4 2.97209,-2.3e-4 1.5845,-0.008 1.5845,-0.008 3.20101,-0.0156 1.08336,-0.001 2.16672,-0.003 3.28291,-0.004 3.46432,-0.006 6.92857,-0.0182 10.39287,-0.0309 2.347,-0.005 4.69401,-0.01 7.04101,-0.0137 5.75719,-0.011 11.51433,-0.0278 17.27149,-0.0488 -5.3521,-6.50247 -11.27074,-12.39875 -17.23438,-18.33203 -1.08544,-1.08358 -2.17066,-2.16738 -3.25567,-3.25139 -2.83775,-2.83396 -5.67849,-5.6649 -8.5199,-8.4952 -2.89825,-2.88798 -5.79364,-5.77882 -8.68927,-8.66943 -5.0779,-5.06836 -10.15826,-10.13424 -15.24042,-15.19832 -1.35454,-1.35012 -2.70803,-2.7013 -4.06036,-4.05363 z"
     style="fill:#ffffff;fill-opacity:0.59642857" />
</svg>
