<?xml version="1.0" encoding="UTF-8" standalone="no"?>
<svg
   version="1.1"
   width="16"
   height="16"
   id="svg2"
   sodipodi:docname="underline-white.svg"
   viewBox="0 0 640 640"
   inkscape:version="1.4.2 (f4327f4, 2025-05-13)"
   xmlns:inkscape="http://www.inkscape.org/namespaces/inkscape"
   xmlns:sodipodi="http://sodipodi.sourceforge.net/DTD/sodipodi-0.dtd"
   xmlns="http://www.w3.org/2000/svg"
   xmlns:svg="http://www.w3.org/2000/svg">
  <defs
     id="defs2" />
  <sodipodi:namedview
     id="namedview2"
     pagecolor="#ffffff"
     bordercolor="#111111"
     borderopacity="1"
     inkscape:showpageshadow="0"
     inkscape:pageopacity="0"
     inkscape:pagecheckerboard="1"
     inkscape:deskcolor="#d1d1d1"
     inkscape:zoom="45.254834"
     inkscape:cx="7.4135726"
     inkscape:cy="8.2201163"
     inkscape:window-width="1920"
     inkscape:window-height="991"
     inkscape:window-x="-9"
     inkscape:window-y="-9"
     inkscape:window-maximized="1"
     inkscape:current-layer="svg2" />
  <path
     id="path2"
     d="m 154.93746,485.73852 c 1.19635,-0.006 2.39269,-0.0129 3.62529,-0.0195 1.96602,0.005 1.96602,0.005 3.97176,0.009 1.4093,-0.004 2.8186,-0.008 4.22789,-0.0137 3.87262,-0.0122 7.74515,-0.012 11.61779,-0.01 4.17667,4.1e-4 8.35331,-0.0106 12.52996,-0.0201 8.18292,-0.0166 16.3658,-0.0221 24.54873,-0.0232 6.65123,-9.5e-4 13.30245,-0.005 19.95367,-0.0114 18.85538,-0.0176 37.71073,-0.0268 56.56611,-0.0253 1.52493,1.2e-4 1.52493,1.2e-4 3.08067,2.4e-4 1.01787,9e-5 2.03573,1.7e-4 3.08444,2.5e-4 16.49689,8.1e-4 32.9937,-0.0183 49.49056,-0.0465 16.93683,-0.0287 33.87362,-0.0425 50.81047,-0.0408 9.50957,6.7e-4 19.01905,-0.005 28.52861,-0.0264 8.09659,-0.0182 16.19304,-0.0226 24.28964,-0.009 4.13064,0.007 8.26102,0.007 12.39163,-0.0107 3.78327,-0.0157 7.56605,-0.0129 11.3493,0.005 2.01298,0.005 4.02598,-0.0106 6.0389,-0.0265 8.21021,0.0627 13.77234,0.93046 20.16758,6.42018 0.5298,0.63293 1.05961,1.26586 1.60547,1.91797 0.54269,0.62519 1.08539,1.25039 1.64453,1.89453 4.65825,6.92251 5.01018,12.82521 5.01172,21 0.008,1.12057 0.0152,2.24115 0.0231,3.39568 0.0108,2.36426 0.0137,4.72856 0.009,7.09285 -9.7e-4,3.59513 0.0407,7.18813 0.085,10.78296 0.005,2.30533 0.008,4.61067 0.008,6.91601 0.0164,1.06386 0.0328,2.12773 0.0497,3.22383 -0.0765,8.37261 -2.25568,14.87793 -7.70593,21.31914 -0.63938,0.51562 -1.27875,1.03125 -1.9375,1.5625 -0.63938,0.53625 -1.27875,1.0725 -1.9375,1.625 -4.25607,2.83738 -7.91739,3.62534 -12.99654,3.63227 -1.19634,0.006 -2.39268,0.0129 -3.62528,0.0195 -1.31068,-0.003 -2.62136,-0.006 -3.97177,-0.009 -1.40929,0.004 -2.81859,0.008 -4.22788,0.0137 -3.87262,0.0122 -7.74516,0.012 -11.61779,0.01 -4.17667,-4.1e-4 -8.35331,0.0106 -12.52997,0.0201 -8.18291,0.0166 -16.3658,0.0221 -24.54873,0.0232 -6.65122,9.5e-4 -13.30244,0.005 -19.95367,0.0114 -18.85537,0.0176 -37.71072,0.0268 -56.5661,0.0253 -1.52494,-1.2e-4 -1.52494,-1.2e-4 -3.08068,-2.4e-4 -1.01787,-9e-5 -2.03573,-1.7e-4 -3.08444,-2.5e-4 -16.49689,-8.2e-4 -32.99369,0.0183 -49.49056,0.0465 -16.93683,0.0287 -33.87361,0.0425 -50.81046,0.0408 -9.50958,-6.7e-4 -19.01906,0.005 -28.52861,0.0264 -8.09659,0.0182 -16.19304,0.0226 -24.28964,0.009 -4.13065,-0.006 -8.26102,-0.007 -12.39164,0.0107 -3.78326,0.0157 -7.56605,0.0129 -11.3493,-0.005 -2.01298,-0.005 -4.02597,0.0106 -6.03889,0.0265 -8.21022,-0.0627 -13.77234,-0.93047 -20.16758,-6.42018 -0.5298,-0.63293 -1.05961,-1.26586 -1.60547,-1.91797 -0.54269,-0.6252 -1.08539,-1.25039 -1.64453,-1.89453 -4.65825,-6.92251 -5.01018,-12.82521 -5.01172,-21 -0.008,-1.12058 -0.0152,-2.24115 -0.0231,-3.39568 -0.0108,-2.36426 -0.0137,-4.72857 -0.009,-7.09285 9.7e-4,-3.59514 -0.0406,-7.18813 -0.085,-10.78296 -0.005,-2.30533 -0.008,-4.61067 -0.008,-6.91601 -0.0164,-1.06387 -0.0328,-2.12773 -0.0497,-3.22383 0.0765,-8.37261 2.25568,-14.87793 7.70593,-21.31914 0.95907,-0.77344 0.95907,-0.77344 1.9375,-1.5625 0.63938,-0.53625 1.27875,-1.0725 1.9375,-1.625 4.25598,-2.83734 7.91729,-3.6253 12.99644,-3.63223 z M 180.15822,63.818778 c 1.05184,-0.01284 2.10369,-0.02567 3.18741,-0.03889 1.13747,-0.0074 2.27493,-0.01477 3.44687,-0.02238 1.17299,-0.0081 2.34599,-0.01614 3.55453,-0.02446 2.48653,-0.01384 4.97307,-0.02456 7.45963,-0.03242 3.78601,-0.01717 7.57115,-0.06106 11.35693,-0.105224 2.41796,-0.01013 4.83593,-0.01865 7.25391,-0.02539 1.12532,-0.01751 2.25064,-0.03502 3.41006,-0.05306 7.93153,0.02167 14.13458,1.341692 20.48056,6.267899 0.77731,0.908789 0.77731,0.908789 1.57032,1.835937 0.53367,0.590391 1.06734,1.180781 1.61718,1.789063 5.96603,10.231895 4.92333,21.783839 4.87671,33.219487 0.002,2.09533 0.006,4.19067 0.0114,6.28601 0.008,4.49884 0.007,8.99755 -1.8e-4,13.49639 -0.0116,7.12503 6.1e-4,14.24989 0.0166,21.3749 0.0361,17.69875 0.0424,35.39748 0.0399,53.09625 -0.002,13.75546 0.006,27.51078 0.04,41.2662 0.0167,7.07095 0.0151,14.14157 -8.3e-4,21.21252 -0.006,4.41479 0.005,8.82943 0.0203,13.2442 0.004,2.03359 6.9e-4,4.06721 -0.01,6.10078 -0.0716,14.78255 1.1691,28.20511 8.20133,41.53921 0.34176,0.66129 0.68352,1.32258 1.03564,2.00391 9.39661,17.54147 24.4985,28.29489 43.33935,34.12109 19.18412,4.95074 37.72401,2.19254 55.07032,-7.04297 16.78583,-10.21644 28.34336,-25.71039 33.4237,-44.7447 2.13629,-9.47679 1.85998,-18.97125 1.82825,-28.64079 0.004,-2.1039 0.01,-4.20779 0.0163,-6.31168 0.0117,-4.50698 0.0142,-9.01383 0.01,-13.52082 -0.007,-7.1323 0.009,-14.26444 0.0284,-21.39671 0.041,-16.42154 0.0524,-32.84309 0.0635,-49.26468 0.0105,-15.06617 0.0273,-30.13227 0.0681,-45.1984 0.0183,-7.08483 0.0223,-14.16948 0.0151,-21.25433 -0.002,-4.41015 0.009,-8.82022 0.0234,-13.23036 0.004,-2.03891 0.003,-4.07785 -0.004,-6.11676 -0.0748,-24.785833 -0.0748,-24.785833 6.58211,-32.02781 0.52981,-0.605859 1.05961,-1.211719 1.60547,-1.835937 7.28123,-5.902307 13.65658,-6.385005 22.73828,-6.320313 1.19049,-0.0038 2.38098,-0.0077 3.60755,-0.0116 2.50794,-0.0027 5.01591,0.0046 7.5238,0.02136 3.82535,0.02142 7.64883,1.73e-4 11.47412,-0.02539 2.44402,0.0026 4.88803,0.0078 7.33203,0.01563 1.70501,-0.01215 1.70501,-0.01215 3.44446,-0.02454 8.21242,0.09635 13.48482,1.444989 19.83679,6.930786 6.26535,7.309573 7.40003,12.111638 7.39045,21.520035 0.004,1.363217 0.004,1.363217 0.009,2.753973 0.009,3.052635 0.0102,6.105226 0.0117,9.157876 0.005,2.18648 0.01,4.37297 0.015,6.55945 0.0131,5.9492 0.0196,11.89839 0.024,17.8476 0.003,3.72223 0.007,7.44447 0.0115,11.1667 0.0137,11.66066 0.0234,23.3213 0.0272,34.98197 4.4e-4,1.34195 8.9e-4,2.68389 0.001,4.02584 2.2e-4,0.66564 4.4e-4,1.33128 6.7e-4,2.0171 0.004,10.08352 0.0185,20.16698 0.0403,30.25048 0.0254,11.72886 0.0402,23.45768 0.0417,35.18658 0.001,6.20061 0.007,12.40113 0.0248,18.60172 0.0166,5.84655 0.0186,11.69293 0.01,17.53949 -7.6e-4,2.1319 0.003,4.2638 0.0135,6.39566 0.0724,16.46744 -0.97357,32.68502 -5.99608,48.49554 -0.3785,1.21672 -0.3785,1.21672 -0.76464,2.45801 -13.58286,42.16983 -42.28257,77.06355 -81.57862,97.76294 -19.97533,10.06424 -42.57127,16.96357 -65.05517,17.10718 -0.7392,0.007 -1.47841,0.0141 -2.24001,0.0214 -30.34492,0.22413 -30.34492,0.22413 -43.73656,-3.22452 -0.80292,-0.19336 -1.60584,-0.38672 -2.4331,-0.58594 -42.63841,-10.40082 -79.24974,-37.18428 -102.20741,-74.64063 -8.26335,-14.00623 -14.00846,-29.03321 -18.23437,-44.71094 -0.19119,-0.70761 -0.38237,-1.41523 -0.57935,-2.14429 -3.61531,-14.33815 -3.84416,-28.44065 -3.83618,-43.1267 -0.006,-2.21566 -0.0128,-4.43132 -0.0204,-6.64698 -0.0176,-5.97886 -0.0223,-11.95767 -0.0236,-17.93657 -0.001,-3.73929 -0.006,-7.47857 -0.011,-11.21786 -0.0175,-12.38305 -0.0268,-24.76607 -0.0253,-37.14913 8e-5,-0.66504 1.6e-4,-1.33009 2.4e-4,-2.01528 8e-5,-0.66587 1.7e-4,-1.33173 2.5e-4,-2.01777 8.1e-4,-10.81227 -0.0184,-21.62439 -0.0465,-32.43662 -0.0287,-11.12884 -0.0422,-22.25765 -0.0408,-33.38653 5.1e-4,-6.23759 -0.005,-12.47502 -0.0264,-18.71257 -0.0194,-5.85901 -0.0195,-11.71771 -0.005,-17.57673 0.002,-2.14781 -0.003,-4.29564 -0.0147,-6.44341 -0.0154,-2.935168 -0.006,-5.869269 0.009,-8.804412 -0.0103,-0.846502 -0.0206,-1.693004 -0.0312,-2.565157 0.0826,-7.137396 2.24247,-12.238818 6.90065,-17.632505 5.39408,-4.623504 9.63079,-7.35096 16.77978,-7.427002 z"
     style="fill:#ffffff;fill-opacity:1" />
</svg>
