<?xml version="1.0" encoding="UTF-8" standalone="no"?>
<svg
   version="1.1"
   width="16"
   height="16"
   id="svg15"
   sodipodi:docname="definition.svg"
   viewBox="0 0 512 512"
   inkscape:version="1.4.2 (f4327f4, 2025-05-13)"
   xmlns:inkscape="http://www.inkscape.org/namespaces/inkscape"
   xmlns:sodipodi="http://sodipodi.sourceforge.net/DTD/sodipodi-0.dtd"
   xmlns="http://www.w3.org/2000/svg"
   xmlns:svg="http://www.w3.org/2000/svg">
  <defs
     id="defs15" />
  <sodipodi:namedview
     id="namedview15"
     pagecolor="#ffffff"
     bordercolor="#111111"
     borderopacity="1"
     inkscape:showpageshadow="0"
     inkscape:pageopacity="0"
     inkscape:pagecheckerboard="1"
     inkscape:deskcolor="#d1d1d1"
     inkscape:zoom="1.4882812"
     inkscape:cx="255.66404"
     inkscape:cy="256"
     inkscape:window-width="1920"
     inkscape:window-height="991"
     inkscape:window-x="-9"
     inkscape:window-y="-9"
     inkscape:window-maximized="1"
     inkscape:current-layer="svg15" />
  <path
     d="m 96.645828,-0.26742554 c 1.627279,-0.006797 1.627279,-0.006797 3.287432,-0.0137306 3.64184,-0.0126788 7.28352,-0.0110214 10.92538,-0.009371 2.60842,-0.005983 5.21683,-0.0127881 7.82524,-0.0203552 6.35409,-0.0166061 12.70815,-0.0221094 19.06226,-0.0232248 5.16572,-9.5068e-4 10.33143,-0.005062 15.49715,-0.0114012 14.64972,-0.0176116 29.29942,-0.026839 43.94915,-0.0253391 0.78962,7.991e-5 1.57923,1.5982e-4 2.39277,2.4216e-4 0.79057,8.176e-5 1.58115,1.6352e-4 2.39569,2.4776e-4 12.81098,8.1281e-4 25.62185,-0.0183239 38.4328,-0.0465245 13.15807,-0.0287359 26.31608,-0.0425399 39.47418,-0.0408124 7.38571,6.6367e-4 14.77131,-0.004819 22.15699,-0.0263561 6.9464,-0.0201269 13.89254,-0.0195309 20.83895,-0.004967 2.54933,0.002094 5.09867,-0.002645 7.64797,-0.0147209 3.48078,-0.0154197 6.96067,-0.006165 10.44143,0.009262 1.51242,-0.0154307 1.51242,-0.0154307 3.05539,-0.0311731 7.88536,0.0772026 14.15741,2.10214562 19.78389,7.83814942 6.3292,6.7473041 7.34201,14.5453911 7.25,23.5625001 -0.009,1.152421 -0.0181,2.304843 -0.0273,3.492187 C 371.0178,35.670429 371.0178,35.670429 371,37 c 1.18336,-0.05801 2.36672,-0.116016 3.58594,-0.175782 10.22446,-0.353724 18.19891,-0.307395 26.23828,6.785157 5.57614,5.886673 7.53727,12.536798 7.43945,20.492187 -0.0377,1.187227 -0.0377,1.187227 -0.0762,2.398438 -0.0135,0.822421 -0.0271,1.644843 -0.041,2.492187 -0.0349,2.002895 -0.0887,4.005446 -0.14649,6.007813 1.35932,-0.05221 1.35932,-0.05221 2.7461,-0.105469 9.81894,-0.218199 17.7219,0.486508 25.68359,6.578125 4.22935,4.11362 7.43685,9.500937 7.69911,15.447983 0.002,1.206049 0.004,2.412099 0.005,3.654691 0.002,0.67443 0.005,1.34885 0.007,2.04372 0.007,2.27626 0.006,4.55246 0.006,6.82873 0.003,1.64197 0.007,3.28394 0.0111,4.92591 0.01,4.52508 0.0137,9.05014 0.0164,13.57522 0.004,4.87543 0.0135,9.75085 0.0222,14.62627 0.0198,11.78087 0.0298,23.56174 0.0387,35.34263 0.004,5.54566 0.01,11.09133 0.015,16.63699 0.017,18.43157 0.0315,36.86313 0.0387,55.2947 0.002,4.78454 0.004,9.56908 0.006,14.35362 4.8e-4,1.1892 9.7e-4,2.3784 0.001,3.60363 0.008,19.26724 0.0336,38.53442 0.0661,57.80163 0.0331,19.77423 0.0511,39.54843 0.0543,59.32268 0.002,11.10534 0.0109,22.21058 0.0365,33.31589 0.0217,9.4573 0.0298,18.91449 0.02,28.37182 -0.005,4.82541 -0.003,9.65058 0.0168,14.47596 0.0176,4.4193 0.0167,8.83819 0.001,13.25749 -0.002,1.59696 0.002,3.19396 0.0138,4.79089 0.0673,9.65947 -0.18322,17.79266 -6.6888,25.41548 -0.74379,0.62004 -1.48758,1.24008 -2.25391,1.87891 -0.74121,0.63808 -1.48242,1.27617 -2.24609,1.93359 -5.80054,4.07896 -11.09278,3.91729 -17.96224,3.89633 -1.08485,0.005 -2.1697,0.009 -3.28743,0.0137 -3.64184,0.0127 -7.28352,0.011 -10.92538,0.009 -2.60842,0.006 -5.21683,0.0128 -7.82524,0.0204 -6.35409,0.0166 -12.70815,0.0221 -19.06226,0.0232 -5.16572,9.5e-4 -10.33143,0.005 -15.49715,0.0114 -14.64972,0.0176 -29.29942,0.0268 -43.94915,0.0253 -0.78961,-8e-5 -1.57922,-1.6e-4 -2.39276,-2.4e-4 -0.79058,-8e-5 -1.58116,-1.6e-4 -2.39569,-2.5e-4 -12.81099,-8.1e-4 -25.62185,0.0183 -38.4328,0.0465 -13.15807,0.0287 -26.31608,0.0425 -39.47419,0.0408 -7.38571,-6.6e-4 -14.7713,0.005 -22.15699,0.0264 -6.9464,0.0201 -13.89254,0.0195 -20.83895,0.005 -2.54933,-0.002 -5.09867,0.003 -7.64797,0.0147 -3.48078,0.0154 -6.96067,0.006 -10.44143,-0.009 -1.00828,0.0103 -2.01656,0.0206 -3.05539,0.0312 -7.88536,-0.0772 -14.1574,-2.10214 -19.78389,-7.83814 -6.47349,-6.90113 -7.33679,-14.86328 -7.25,-24.0625 0.009,-1.24524 0.0181,-2.49047 0.0273,-3.77344 0.0116,-0.94102 0.0232,-1.88203 0.0352,-2.85156 -0.9668,0.0464 -1.93359,0.0928 -2.92969,0.14062 -10.12961,0.28082 -18.30846,-0.29648 -26.00781,-7.51562 -6.19442,-6.82115 -7.23619,-13.49925 -7.125,-22.4375 0.005,-0.69288 0.009,-1.38575 0.0137,-2.09961 0.0117,-1.69601 0.0296,-3.39196 0.0488,-5.08789 -0.9784,0.0348 -1.9568,0.0696 -2.96484,0.10546 -9.985959,0.2062 -18.286736,-0.32091 -26.464848,-6.57812 -4.229348,-4.11362 -7.436847,-9.50094 -7.699113,-15.44798 -0.0018,-1.20605 -0.0036,-2.4121 -0.0054,-3.6547 -0.0024,-0.67443 -0.0047,-1.34885 -0.0071,-2.04371 -0.0067,-2.27627 -0.0062,-4.55247 -0.0058,-6.82874 -0.0033,-1.64197 -0.007,-3.28394 -0.01114,-4.92591 -0.01003,-4.52508 -0.01374,-9.05014 -0.01639,-13.57522 -0.0039,-4.87543 -0.01348,-9.75084 -0.02221,-14.62626 -0.01978,-11.78088 -0.02983,-23.56175 -0.03873,-35.34264 -0.0044,-5.54566 -0.0097,-11.09133 -0.01499,-16.63699 -0.01701,-18.43156 -0.03151,-36.86313 -0.03875,-55.2947 -0.0019,-4.78454 -0.0038,-9.56908 -0.0058,-14.35362 -4.84e-4,-1.1892 -9.68e-4,-2.3784 -0.0015,-3.60363 -0.0083,-19.26724 -0.03364,-38.53442 -0.06611,-57.80163 -0.03306,-19.77423 -0.05108,-39.54843 -0.05428,-59.32268 -0.0022,-11.10533 -0.01093,-22.21058 -0.03646,-33.315883 -0.02169,-9.457304 -0.02977,-18.914495 -0.02003,-28.371821 0.0046,-4.825409 0.0026,-9.650586 -0.01676,-14.475963 -0.0176,-4.419293 -0.01666,-8.838185 -0.0011,-13.257483 0.0024,-1.596969 -0.002,-3.193966 -0.01383,-4.790893 -0.06725,-9.659475 0.183222,-17.79266 6.688806,-25.415481 1.115683,-0.9300586 1.115683,-0.9300586 2.253906,-1.8789063 1.111816,-0.9571289 1.111816,-0.9571289 2.246094,-1.9335937 5.801335,-4.07885065 11.09358,-3.91718381 17.963033,-3.89622154 z"
     fill="#e4e0e4"
     id="path1" />
  <path
     d="m 96.645828,-0.26742554 c 1.627279,-0.006797 1.627279,-0.006797 3.287432,-0.0137306 3.64184,-0.0126788 7.28352,-0.0110214 10.92538,-0.009371 2.60842,-0.005983 5.21683,-0.0127881 7.82524,-0.0203552 6.35409,-0.0166061 12.70815,-0.0221094 19.06226,-0.0232248 5.16572,-9.5068e-4 10.33143,-0.005062 15.49715,-0.0114012 14.64972,-0.0176116 29.29942,-0.026839 43.94915,-0.0253391 0.78962,7.991e-5 1.57923,1.5982e-4 2.39277,2.4216e-4 0.79057,8.176e-5 1.58115,1.6352e-4 2.39569,2.4776e-4 12.81098,8.1281e-4 25.62185,-0.0183239 38.4328,-0.0465245 13.15807,-0.0287359 26.31608,-0.0425399 39.47418,-0.0408124 7.38571,6.6367e-4 14.77131,-0.004819 22.15699,-0.0263561 6.9464,-0.0201269 13.89254,-0.0195309 20.83895,-0.004967 2.54933,0.002094 5.09867,-0.002645 7.64797,-0.0147209 3.48078,-0.0154197 6.96067,-0.006165 10.44143,0.009262 1.51242,-0.0154307 1.51242,-0.0154307 3.05539,-0.0311731 7.88536,0.0772026 14.15741,2.10214562 19.78389,7.83814942 7.49286,7.9878331 7.33592,17.6207181 7.26979,28.0009461 -0.003,1.141681 -0.006,2.283362 -0.01,3.45964 -0.01,3.166198 -0.0245,6.332336 -0.041,9.498505 -0.0169,3.467781 -0.0278,6.935581 -0.0395,10.403383 -0.0236,6.729569 -0.0524,13.459104 -0.0831,20.188644 -0.0353,7.785111 -0.064,15.570237 -0.0927,23.355372 -0.079,20.55202 -0.16695,41.10401 -0.25379,61.65601 -0.18562,45.91125 -0.37125,91.8225 -0.5625,139.125 -99.66,0 -199.32,0 -302,0 -0.0825,-46.67438 -0.165,-93.34875 -0.25,-141.4375 -0.03642,-14.74487 -0.07283,-29.48973 -0.110352,-44.6814 -0.01807,-17.986691 -0.01807,-17.986691 -0.02142,-26.403455 -0.0037,-5.886336 -0.01841,-11.77252 -0.04053,-17.658813 -0.02548,-6.790144 -0.03704,-13.580143 -0.03148,-20.370336 0.0024,-3.472797 -0.0014,-6.945269 -0.02308,-10.418006 -0.01989,-3.722419 -0.0151,-7.444024 -0.0042,-11.166462 -0.01165,-1.078502 -0.0233,-2.157005 -0.03531,-3.268189 0.06194,-7.836067 1.534122,-14.101489 6.699917,-20.1544328 1.115683,-0.9300586 1.115683,-0.9300586 2.253906,-1.8789063 1.111816,-0.9571289 1.111816,-0.9571289 2.246094,-1.9335937 5.800885,-4.07896062 11.09313,-3.91729378 17.962583,-3.89633174 z"
     fill="#ec5469"
     id="path2" />
  <path
     d="m 68,303 c 79.86,0 159.72,0 242,0 -1.01728,5.08641 -2.52862,9.68768 -4.25,14.5625 -0.28746,0.8308 -0.57492,1.6616 -0.87109,2.51758 C 302.50969,326.83079 299.80344,333.41902 297,340 c -0.63814,0.006 -1.27627,0.0117 -1.93375,0.0178 -6.65144,0.064 -13.3024,0.14846 -19.95346,0.24467 -2.48105,0.0332 -4.96218,0.0613 -7.44336,0.084 -3.56982,0.0336 -7.13896,0.0859 -10.70849,0.14185 -1.10647,0.006 -2.21294,0.0128 -3.35294,0.0194 -7.74047,0.1263 -7.74047,0.1263 -14.608,3.49236 -1.4191,3.35017 -1.4191,3.35017 -1,7 2.02308,2.90822 3.64077,4.70771 7.19302,5.47159 2.72343,0.20417 5.40794,0.24665 8.13901,0.23544 1.48762,0.0227 1.48762,0.0227 3.0053,0.0458 3.15862,0.0429 6.31629,0.0517 9.47517,0.0596 2.14521,0.0231 4.29039,0.0485 6.43555,0.0762 5.25066,0.0629 10.50094,0.0978 15.75195,0.11133 -1.34846,2.5488 -2.72014,5.0779 -4.13658,7.5898 -1.21984,2.2324 -2.36705,4.50643 -3.42908,6.81808 -4.49009,8.8708 -4.49009,8.8708 -9.60462,10.7683 -3.96522,0.43062 -7.81985,0.44344 -11.7953,0.3121 -1.51029,-0.002 -3.0206,0.002 -4.53086,0.011 -3.24046,0.007 -6.47696,-0.0264 -9.71675,-0.0924 -5.12298,-0.1042 -10.2438,-0.1173 -15.3677,-0.11877 -8.10135,-0.0132 -16.20078,-0.0882 -24.30147,-0.18917 -14.51329,-0.17938 -29.02721,-0.26292 -43.54149,-0.30968 -5.09226,-0.019 -10.18309,-0.0681 -15.27484,-0.14214 -3.16538,-0.0419 -6.33069,-0.0639 -9.4963,-0.0812 -1.46705,-0.0125 -2.93405,-0.0337 -4.40084,-0.0643 -2.00309,-0.0408 -4.00679,-0.0479 -6.0103,-0.0533 -1.12064,-0.0141 -2.24129,-0.0282 -3.3959,-0.0428 -4.00806,0.79485 -5.5183,2.41171 -7.99797,5.59454 -0.17762,3.67583 -0.17762,3.67583 1,7 3.42745,2.28496 4.6814,2.25697 8.71367,2.27847 1.19052,0.0112 2.38104,0.0223 3.60763,0.0338 1.30767,0.002 2.61534,0.004 3.96264,0.007 1.38959,0.009 2.77918,0.0195 4.16876,0.0304 3.77448,0.0273 7.54893,0.0425 11.32348,0.0554 3.94386,0.0156 7.88764,0.0424 11.83144,0.068 7.4691,0.0468 14.93821,0.0836 22.40738,0.11668 8.50298,0.0382 17.00588,0.0876 25.5088,0.13798 17.49201,0.10341 34.98407,0.19266 52.4762,0.27264 -1.80024,3.84672 -4.2474,6.72696 -7.125,9.8125 -0.49718,0.53552 -0.99435,1.07105 -1.50659,1.6228 -7.01549,7.47285 -14.94644,13.70845 -23.00122,20.01392 -0.75628,0.59301 -0.75628,0.59301 -1.52783,1.198 -2.55188,1.87681 -5.20068,3.60089 -7.83936,5.35278 17.18555,0.11697 34.37097,0.20506 51.55683,0.25906 7.9803,0.0257 15.96035,0.0608 23.94048,0.11814 6.95817,0.0499 13.91617,0.0821 20.87451,0.0932 3.68208,0.007 7.36364,0.0217 11.04555,0.0582 4.11754,0.0405 8.23418,0.0413 12.35192,0.039 1.21129,0.018 2.42258,0.0359 3.67058,0.0545 8.08614,-0.0491 14.02739,-1.4942 20.10562,-7.02955 5.24086,-5.78499 6.90257,-11.85832 6.88688,-19.45559 0.0102,-0.75204 0.0204,-1.50409 0.0309,-2.27893 0.03,-2.46187 0.0394,-4.92335 0.0485,-7.38537 0.0169,-1.71637 0.035,-3.43273 0.0544,-5.14907 0.0474,-4.49947 0.0773,-8.99888 0.10344,-13.49852 0.0351,-5.40839 0.0921,-10.81659 0.14539,-16.22483 0.0783,-8.20005 0.12903,-16.39986 0.185,-24.60024 12.21,0 24.42,0 37,0 0.0678,14.72558 0.12304,29.45106 0.15544,44.17676 0.0154,6.83795 0.0365,13.67579 0.0709,20.51367 0.0332,6.6006 0.0505,13.20112 0.0583,19.8018 0.006,2.51655 0.0163,5.03309 0.0326,7.54959 0.0218,3.52851 0.0248,7.05657 0.0234,10.58513 0.0108,1.03723 0.0216,2.07445 0.0327,3.1431 -0.0294,6.90878 -0.80506,12.61496 -4.91623,18.40182 -0.54269,0.52079 -1.08539,1.04157 -1.64453,1.57813 -0.5298,0.53109 -1.05961,1.06219 -1.60547,1.60937 -6.84328,5.08705 -12.64397,6.2293 -21.08627,6.18653 -1.07376,0.0103 -2.14751,0.0207 -3.2538,0.0313 -3.5865,0.0296 -7.17244,0.0309 -10.75905,0.0322 -2.57607,0.0153 -5.15212,0.0323 -7.72816,0.0508 -6.26411,0.0417 -12.52811,0.062 -18.79233,0.0745 -5.09368,0.0106 -10.18728,0.0289 -15.28092,0.0527 -1.08892,0.005 -1.08892,0.005 -2.19985,0.0103 -1.47494,0.007 -2.94988,0.0138 -4.42482,0.0208 -13.82114,0.0642 -27.64227,0.10408 -41.46352,0.13561 -11.84601,0.0276 -23.69178,0.0762 -35.53765,0.14012 -13.76979,0.0743 -27.53953,0.13543 -41.30947,0.17576 -1.47002,0.004 -2.94004,0.009 -4.41006,0.0131 -0.72319,0.002 -1.44639,0.004 -2.19149,0.007 -5.0835,0.016 -10.1669,0.0414 -15.25033,0.0704 -6.85037,0.0388 -13.70052,0.0562 -20.551,0.0592 -2.51142,0.004 -5.02284,0.0155 -7.53419,0.0341 -3.4339,0.0243 -6.86695,0.0236 -10.30091,0.0167 -1.4831,0.0192 -1.4831,0.0192 -2.99617,0.0388 -8.46948,-0.0632 -15.77319,-2.01487 -22.07454,-7.8838 -6.19442,-6.82115 -7.23619,-13.49925 -7.125,-22.4375 0.005,-0.69287 0.009,-1.38574 0.0137,-2.09961 0.0117,-1.696 0.0296,-3.39196 0.0488,-5.08789 -0.9784,0.0348 -1.9568,0.0696 -2.96484,0.10547 -9.985959,0.2062 -18.286736,-0.32092 -26.464848,-6.57813 C 71.965682,427.02135 69.578987,422.73696 68,418 c 0,-37.95 0,-75.9 0,-115 z"
     fill="#f8f6f7"
     id="path3" />
  <path
     d="m 414.5,74.75 c 9.00825,0.08231 16.86944,1.800871 23.5,8.25 4.34892,5.757254 6.12345,10.310604 6.13422,17.57533 0.002,0.67443 0.005,1.34886 0.007,2.04372 0.007,2.27626 0.006,4.55247 0.006,6.82873 0.003,1.64198 0.007,3.28395 0.0111,4.92591 0.01,4.52508 0.0137,9.05014 0.0164,13.57523 0.004,4.87542 0.0135,9.75084 0.0222,14.62626 0.0198,11.78087 0.0298,23.56175 0.0387,35.34263 0.004,5.54567 0.01,11.09133 0.015,16.637 0.017,18.43156 0.0315,36.86312 0.0387,55.29469 0.002,4.78454 0.004,9.56908 0.006,14.35362 4.8e-4,1.1892 9.7e-4,2.3784 0.002,3.60364 0.008,19.26724 0.0336,38.53442 0.0661,57.80163 0.0331,19.77423 0.0511,39.54842 0.0543,59.32268 0.002,11.10533 0.0109,22.21057 0.0365,33.31588 0.0217,9.45731 0.0298,18.9145 0.02,28.37182 -0.004,4.82541 -0.003,9.65059 0.0168,14.47597 0.0176,4.41929 0.0167,8.83818 0.001,13.25748 -0.002,1.59697 0.002,3.19397 0.0138,4.79089 0.0673,9.65948 -0.18322,17.79266 -6.68881,25.41548 -0.74378,0.62004 -1.48757,1.24008 -2.2539,1.87891 -0.74121,0.63809 -1.48242,1.27617 -2.2461,1.93359 -5.80053,4.07896 -11.09278,3.9173 -17.96223,3.89634 -1.62728,0.007 -1.62728,0.007 -3.28743,0.0137 -3.64184,0.0127 -7.28353,0.011 -10.92538,0.009 -2.60842,0.006 -5.21683,0.0128 -7.82525,0.0204 -6.35409,0.0166 -12.70814,0.0221 -19.06225,0.0232 -5.16573,9.5e-4 -10.33144,0.005 -15.49715,0.0114 -14.64973,0.0176 -29.29942,0.0268 -43.94915,0.0253 -0.78961,-8e-5 -1.57923,-1.6e-4 -2.39277,-2.4e-4 -0.79057,-9e-5 -1.58115,-1.7e-4 -2.39568,-2.5e-4 -12.81099,-8.2e-4 -25.62185,0.0183 -38.4328,0.0465 -13.15807,0.0287 -26.31609,0.0425 -39.47419,0.0408 -7.38571,-6.6e-4 -14.7713,0.005 -22.15699,0.0264 -6.9464,0.0201 -13.89254,0.0195 -20.83895,0.005 -2.54933,-0.002 -5.09867,0.003 -7.64797,0.0147 -3.48078,0.0154 -6.96067,0.006 -10.44143,-0.009 -1.00828,0.0103 -2.01656,0.0206 -3.05539,0.0312 -7.88536,-0.0772 -14.1574,-2.10215 -19.78389,-7.83815 -6.44571,-6.87151 -7.33185,-14.83741 -7.3125,-24 -0.003,-1.23363 -0.005,-2.46727 -0.008,-3.73828 C 141,474 141,474 142,473 c 3.15488,-0.10162 6.28809,-0.1371 9.4435,-0.1313 1.00384,-0.002 2.00769,-0.004 3.04196,-0.006 3.39166,-0.006 6.78328,-0.005 10.17494,-0.004 2.42063,-0.003 4.84127,-0.007 7.2619,-0.0105 5.22744,-0.008 10.45486,-0.0131 15.6823,-0.0163 8.26491,-0.005 16.52979,-0.0224 24.79468,-0.0414 2.82654,-0.006 5.65308,-0.0127 8.47963,-0.019 1.05972,-0.002 1.05972,-0.002 2.14086,-0.005 8.04867,-0.0179 16.09733,-0.0342 24.146,-0.0492 0.73602,-0.001 1.47204,-0.003 2.23036,-0.004 11.91557,-0.0219 23.83113,-0.0327 35.74672,-0.0402 12.23137,-0.008 24.46265,-0.0314 36.69397,-0.0679 7.54465,-0.022 15.0891,-0.0317 22.63378,-0.0255 5.78731,0.004 11.57442,-0.0137 17.36167,-0.0387 2.37193,-0.007 4.74389,-0.007 7.11582,2e-4 3.2402,0.009 6.4794,-0.007 9.71953,-0.0285 0.93708,0.008 1.87416,0.0169 2.83963,0.0256 7.07867,-0.0876 12.33303,-1.8185 17.73494,-6.46753 0.80824,-0.96293 0.80824,-0.96293 1.63281,-1.94531 0.5543,-0.6368 1.10859,-1.27359 1.67969,-1.92969 3.09116,-4.69523 3.69585,-9.30578 3.70423,-14.83417 0.004,-0.64483 0.007,-1.28966 0.0112,-1.95403 0.01,-2.1575 0.006,-4.31473 0.002,-6.47225 0.004,-1.56364 0.009,-3.12728 0.0154,-4.69092 0.0139,-4.29433 0.0154,-8.58858 0.0149,-12.88292 0.002,-4.63188 0.0148,-9.26372 0.0265,-13.89558 0.0189,-8.02444 0.0306,-16.04886 0.0375,-24.07331 0.0102,-11.60312 0.0322,-23.20619 0.0574,-34.80928 0.0406,-18.82652 0.0731,-37.65304 0.0997,-56.47958 0.002,-1.69019 0.002,-1.69019 0.005,-3.41454 0.002,-1.69236 0.002,-1.69236 0.005,-3.41892 0.0227,-16.00832 0.0473,-32.01663 0.0743,-48.02494 0.003,-1.69041 0.003,-1.69041 0.006,-3.41497 0.0317,-18.7618 0.0675,-37.52359 0.1053,-56.28538 0.0231,-11.58093 0.042,-23.16185 0.0557,-34.7428 0.01,-7.92583 0.0223,-15.85166 0.0378,-23.77748 0.009,-4.57929 0.0159,-9.15858 0.0186,-13.73788 0.003,-4.18487 0.01,-8.369701 0.0203,-12.554556 0.003,-1.520688 0.004,-3.041379 0.004,-4.56207 -4.3e-4,-2.053364 0.006,-4.106726 0.0124,-6.16008 0.002,-1.144642 0.003,-2.289284 0.005,-3.468612 0.24907,-4.933296 3.33445,-3.736453 7.6283,-3.791502 z"
     fill="#c9bfc8"
     id="path4" />
  <path
     d="m 247,0 c 13.55207,-0.09276192 27.10407,-0.16379678 40.6564,-0.20724869 6.2932,-0.0208568 12.58617,-0.0491404 18.87924,-0.0945091 6.07544,-0.0435246 12.15066,-0.0673936 18.22623,-0.0777512 2.31561,-0.007379 4.6312,-0.0217897 6.94672,-0.0434113 3.24843,-0.029121 6.496,-0.033032 9.74453,-0.0311813 0.95307,-0.0143811 1.90614,-0.0287622 2.88808,-0.0435791 7.16761,0.0440614 12.16796,1.84711129 17.86583,6.17346189 8.5363,8.7024568 8.94999,17.9062378 8.87526,29.6376648 -0.003,1.144438 -0.006,2.288875 -0.01,3.467993 -0.0121,3.837048 -0.0314,7.674024 -0.0508,11.511041 -0.0107,2.749616 -0.0199,5.499236 -0.0291,8.248856 -0.0207,5.920919 -0.0451,11.841813 -0.0721,17.762707 -0.039,8.560585 -0.0723,17.121186 -0.10429,25.681797 -0.052,13.88951 -0.1086,27.77898 -0.16805,41.66846 -0.0577,13.4912 -0.11332,26.98241 -0.16601,40.47363 -0.003,0.8318 -0.007,1.66359 -0.01,2.52059 -0.0163,4.17293 -0.0325,8.34587 -0.0488,12.5188 C 370.28893,233.77824 370.14604,268.38912 370,303 c -19.8,0 -39.6,0 -60,0 4,-16 4,-16 5.5,-21.9375 2.79711,-12.28895 4.92566,-24.98182 6.02344,-37.53906 0.0734,-0.82347 0.14679,-1.64694 0.22241,-2.49536 0.12396,-1.51385 0.22772,-3.02955 0.30713,-4.54639 0.16186,-2.03247 0.16186,-2.03247 0.94702,-5.48169 0.8285,-0.52585 1.65701,-1.0517 2.51062,-1.59349 2.78055,-2.68798 2.87473,-3.15283 3.11084,-6.81558 0.0236,-1.84795 0.0195,-3.69638 -0.006,-5.5443 0.008,-1.5152 0.008,-1.5152 0.0168,-3.06102 0.0118,-3.34074 -0.0125,-6.68012 -0.0383,-10.02077 -0.002,-2.3188 -0.002,-4.6376 1.2e-4,-6.9564 -0.002,-4.85985 -0.0204,-9.71925 -0.0519,-14.579 -0.0397,-6.23701 -0.044,-12.47343 -0.0365,-18.71055 0.003,-4.78775 -0.009,-9.57536 -0.0261,-14.36308 -0.007,-2.30016 -0.0102,-4.60034 -0.009,-6.9005 -0.002,-3.21073 -0.0231,-6.42073 -0.0501,-9.63134 0.003,-0.9554 0.006,-1.91081 0.009,-2.89517 -0.0113,-0.87341 -0.0227,-1.74683 -0.0344,-2.64671 -0.004,-0.75897 -0.007,-1.51794 -0.0113,-2.29991 C 327.88887,122.42504 327.07683,121.53952 325,120 c -3.5,-0.5 -3.5,-0.5 -7,0 -1.81476,1.39586 -1.81476,1.39586 -3,3 -0.66,0 -1.32,0 -2,0 -0.40219,-1.67449 -0.40219,-1.67449 -0.8125,-3.38281 C 301.88,77.90778 281.8567,40.246976 253.59375,7.9882812 251.32441,5.3737535 249.15307,2.7099341 247,0 Z"
     fill="#e5374e"
     id="path5" />
  <path
     d="m 370,340 c 12.21,0 24.42,0 37,0 0.0678,14.72558 0.12304,29.45106 0.15544,44.17676 0.0154,6.83795 0.0365,13.67579 0.0709,20.51367 0.0332,6.6006 0.0505,13.20112 0.0583,19.8018 0.005,2.51655 0.0163,5.03309 0.0326,7.54959 0.0218,3.52851 0.0248,7.05657 0.0234,10.58513 0.0162,1.55584 0.0162,1.55584 0.0327,3.1431 -0.0294,6.90878 -0.80506,12.61496 -4.91623,18.40183 -0.5427,0.52078 -1.08539,1.04156 -1.64453,1.57812 -0.52981,0.53109 -1.05961,1.06219 -1.60547,1.60938 -6.84329,5.08704 -12.64397,6.22929 -21.08627,6.18652 -1.07376,0.0103 -2.14751,0.0207 -3.2538,0.0313 -3.5865,0.0296 -7.17244,0.0309 -10.75905,0.0322 -2.57607,0.0153 -5.15212,0.0323 -7.72817,0.0508 -6.2641,0.0417 -12.5281,0.062 -18.79232,0.0745 -5.09368,0.0106 -10.18729,0.0289 -15.28092,0.0527 -1.08893,0.005 -1.08893,0.005 -2.19985,0.0103 -1.47494,0.007 -2.94988,0.0138 -4.42482,0.0208 -13.82115,0.0642 -27.64228,0.10408 -41.46353,0.13561 -11.846,0.0276 -23.69177,0.0762 -35.53764,0.14012 -13.76979,0.0743 -27.53953,0.13543 -41.30947,0.17576 -1.47002,0.004 -2.94004,0.009 -4.41006,0.0131 -0.72319,0.002 -1.44639,0.004 -2.19149,0.007 -5.0835,0.016 -10.1669,0.0414 -15.25033,0.0704 -6.85037,0.0388 -13.70052,0.0562 -20.551,0.0592 -2.51142,0.004 -5.02284,0.0155 -7.53419,0.0341 -3.4339,0.0243 -6.86695,0.0236 -10.30091,0.0167 -1.4831,0.0192 -1.4831,0.0192 -2.99616,0.0388 -8.46949,-0.0632 -15.7732,-2.01487 -22.07455,-7.8838 -6.34384,-6.98569 -7.23115,-13.80086 -7.125,-22.9375 0.005,-0.74057 0.009,-1.48113 0.0137,-2.24414 0.0117,-1.81449 0.0296,-3.62893 0.0488,-5.44336 1.26468,-5.4e-4 2.52935,-0.001 3.83235,-0.002 30.03577,-0.014 60.0714,-0.0538 90.10708,-0.1252 3.69866,-0.009 7.39731,-0.0173 11.09597,-0.0257 0.73632,-0.002 1.47264,-0.003 2.23128,-0.005 11.91496,-0.0266 23.82989,-0.0358 35.74488,-0.0384 12.23024,-0.003 24.46033,-0.025 36.6905,-0.0645 7.54384,-0.0237 15.0874,-0.0328 22.63126,-0.023 5.78932,0.006 11.57832,-0.0144 17.36755,-0.0446 2.3715,-0.008 4.74305,-0.008 7.11455,0.002 3.2423,0.0116 6.48304,-0.007 9.72521,-0.0342 0.93485,0.0107 1.8697,0.0214 2.83288,0.0323 7.17871,-0.10984 12.80609,-2.2173 18.1828,-7.07876 5.2193,-5.80959 6.89177,-11.84813 6.87606,-19.45586 0.0102,-0.75205 0.0204,-1.5041 0.0309,-2.27893 0.03,-2.46187 0.0394,-4.92335 0.0485,-7.38538 0.0168,-1.71637 0.035,-3.43272 0.0544,-5.14906 0.0474,-4.49947 0.0773,-8.99889 0.10344,-13.49852 0.0351,-5.40839 0.0921,-10.81659 0.1454,-16.22483 C 369.89331,356.40019 369.94403,348.20038 370,340 Z"
     fill="#d7d0d6"
     id="path6" />
  <path
     d="m 370,37 c 23.34466,0 23.34466,0 30.82031,6.609375 6.96008,7.329932 7.61564,15.440127 7.50249,25.096436 -10e-4,1.16248 -0.003,2.324961 -0.005,3.522668 -0.007,3.208749 -0.028,6.417076 -0.0545,9.625712 -0.0254,3.466792 -0.0332,6.933629 -0.0431,10.400493 -0.0196,6.000611 -0.0503,12.001086 -0.0886,18.001606 -0.0553,8.67564 -0.0938,17.3513 -0.12827,26.02705 -0.0564,14.07701 -0.12624,28.15392 -0.20465,42.23082 -0.0761,13.67152 -0.14586,27.34305 -0.20703,41.01465 -0.006,1.26483 -0.006,1.26483 -0.0114,2.5552 -0.0189,4.23033 -0.0377,8.46066 -0.0564,12.69099 C 407.3689,269.85011 407.1908,304.92507 407,340 c -12.21,0 -24.42,0 -37,0 0,-99.99 0,-199.98 0,-303 z"
     fill="#6fd6a2"
     id="path7" />
  <path
     d="m 414.5,74.75 c 9.00825,0.08231 16.86944,1.800871 23.5,8.25 3.79826,5.028272 6.12585,9.432831 6.12305,15.820094 0.002,0.998741 0.004,1.997486 0.006,3.026486 -0.004,1.65027 -0.004,1.65027 -0.009,3.33389 8.5e-4,1.16637 0.002,2.33275 0.003,3.53447 0.001,3.24268 -0.002,6.48533 -0.007,9.72801 -0.004,3.49487 -0.003,6.98973 -0.002,10.4846 5.2e-4,6.05683 -0.003,12.11365 -0.008,18.17048 -0.008,8.7572 -0.0107,17.5144 -0.012,26.27161 -0.002,14.20727 -0.009,28.41454 -0.0183,42.62182 -0.009,13.80273 -0.0163,27.60546 -0.0205,41.4082 -2.7e-4,0.8505 -5.3e-4,1.70101 -8e-4,2.57729 -10e-4,4.26665 -0.003,8.53329 -0.004,12.79994 C 444.03995,308.1846 444.02206,343.5923 444,379 c -12.21,0 -24.42,0 -37,0 -0.0226,-38.58339 -0.0405,-77.16677 -0.0511,-115.75016 -10e-4,-4.55016 -0.003,-9.10032 -0.004,-13.65047 -2.7e-4,-0.9059 -5.3e-4,-1.81179 -8e-4,-2.74514 -0.004,-14.68804 -0.0122,-29.37608 -0.0214,-44.06412 -0.009,-15.05968 -0.0149,-30.11935 -0.0169,-45.17904 -10e-4,-9.30036 -0.006,-18.60071 -0.0138,-27.90107 -0.005,-6.36865 -0.007,-12.73729 -0.006,-19.10594 6.5e-4,-3.68005 -3.7e-4,-7.36007 -0.006,-11.040105 -0.006,-3.980223 -0.004,-7.960421 -10e-4,-11.940649 -0.003,-1.176044 -0.006,-2.352089 -0.009,-3.563771 0.002,-1.05746 0.004,-2.11492 0.006,-3.204424 -3.8e-4,-0.920062 -7.6e-4,-1.840125 -10e-4,-2.788068 0.26909,-4.478412 3.89634,-3.26925 7.6242,-3.317043 z"
     fill="#fdc244"
     id="path8" />
  <path
     d="m 321.5,118.4375 c 3.5,0.5625 3.5,0.5625 5.68541,1.97656 2.79545,3.98374 2.38066,7.76603 2.34804,12.52344 0.0129,1.51279 0.0129,1.51279 0.0261,3.05615 0.0227,3.33571 0.0159,6.67059 0.007,10.00635 0.005,2.31641 0.0115,4.63281 0.0188,6.94922 0.0104,4.85557 0.006,9.71085 -0.009,14.5664 -0.0172,6.22813 0.006,12.45533 0.0415,18.68336 0.0219,4.7835 0.0205,9.56679 0.0122,14.35034 -8.2e-4,2.29656 0.006,4.59313 0.0208,6.88964 0.0174,3.20843 0.003,6.41518 -0.0198,9.62354 0.0175,1.42772 0.0175,1.42772 0.0354,2.88428 -0.0926,6.40282 -0.0926,6.40282 -2.97942,9.67431 -3.69167,1.8944 -5.75374,1.54435 -9.68712,0.37891 -3.31046,-3.25619 -3.46154,-6.23095 -3.6875,-10.75 -0.0657,-1.17047 -0.13148,-2.34094 -0.19922,-3.54687 -0.0561,-1.33805 -0.0561,-1.33805 -0.11328,-2.70313 -0.60586,0.45891 -1.21172,0.91781 -1.83594,1.39062 C 298.14648,223.9235 284.89558,226.40132 269,225 c -14.69089,-3.13908 -26.02724,-12.69822 -34,-25 -6.53491,-11.95831 -7.96218,-25.58917 -5.19531,-38.85938 4.82779,-14.9828 14.63311,-25.1172 28.11328,-32.80468 11.7684,-5.45031 26.54942,-5.289 38.76953,-1.27344 6.01915,2.50259 11.23178,5.87527 16.3125,9.9375 0.0258,-0.88043 0.0516,-1.76086 0.0781,-2.66797 0.0851,-1.74217 0.0851,-1.74217 0.17188,-3.51953 0.0464,-1.14856 0.0928,-2.29711 0.14062,-3.48047 0.95798,-5.23815 2.75899,-8.03465 8.10938,-8.89453 z"
     fill="#f8f5f6"
     id="path9" />
  <path
     d="M 167.76953,71.441406 C 171.25397,72.314041 173.61434,74.414094 176,77 c 1.57509,2.691551 2.61382,5.513725 3.67187,8.441406 0.32894,0.864362 0.65787,1.728723 0.99677,2.619278 0.73011,1.926536 1.4517,3.856318 2.16608,5.788742 1.22636,3.315713 2.47596,6.621984 3.72973,9.927424 2.6593,7.02622 5.29012,14.06283 7.91668,21.10132 2.10653,5.64212 4.21913,11.28199 6.33039,16.92235 0.80602,2.15355 1.61178,4.30721 2.41751,6.46088 5.35754,14.31794 10.74741,28.62359 16.14597,42.9261 0.42801,1.13469 0.85602,2.26938 1.297,3.43845 1.19989,3.1809 2.4005,6.36152 3.60144,9.54202 0.52643,1.39548 0.52643,1.39548 1.0635,2.81916 0.32371,0.85656 0.64741,1.71312 0.98093,2.59564 0.29485,0.7808 0.58971,1.5616 0.89349,2.36606 0.63804,1.65948 1.31087,3.30557 1.9942,4.94693 1.21976,3.23081 1.22123,5.68991 0.79444,9.10424 -2.0625,3 -2.0625,3 -5,5 -3.625,0.0625 -3.625,0.0625 -7,-1 -2.92117,-3.1251 -4.20496,-6.69865 -5.69922,-10.66406 -0.23991,-0.63328 -0.47982,-1.26656 -0.72701,-1.91904 -0.50301,-1.33181 -1.00289,-2.66482 -1.4998,-3.99893 -0.76256,-2.04589 -1.53561,-4.08758 -2.3103,-6.1289 C 204,197.2939 204,197.2939 204,195 c -25.08,0 -50.16,0 -76,0 -0.99,3.3 -1.98,6.6 -3,10 -1.38519,4.01641 -2.90696,7.97446 -4.4375,11.9375 -0.57331,1.54011 -0.57331,1.54011 -1.1582,3.11133 -0.37963,0.98291 -0.75926,1.96582 -1.15039,2.97852 -0.33701,0.88421 -0.67402,1.76843 -1.02125,2.67944 C 115.81455,228.345 114.59417,229.52296 112,231 c -3.71637,-0.0652 -6.04746,-0.2011 -8.9375,-2.625 -2.76044,-6.1704 -0.50572,-11.64142 1.75548,-17.60656 0.41456,-1.05796 0.82912,-2.11592 1.25624,-3.20594 0.64715,-1.6928 0.64715,-1.6928 1.30739,-3.4198 1.17877,-3.07714 2.36769,-6.15012 3.56115,-9.22158 1.25322,-3.23279 2.49306,-6.47071 3.734,-9.70823 2.06497,-5.38324 4.13699,-10.76372 6.21338,-16.14258 2.98484,-7.73465 5.94385,-15.479 8.89501,-23.22656 0.46279,-1.2147 0.92558,-2.4294 1.40239,-3.68091 0.91301,-2.39654 1.82597,-4.79311 2.73888,-7.1897 2.48261,-6.51449 4.96742,-13.02816 7.46391,-19.53735 2.11845,-5.52381 4.21987,-11.05335 6.29912,-16.59204 0.88997,-2.354168 1.77995,-4.708335 2.66992,-7.0625 0.40584,-1.091474 0.81167,-2.182947 1.2298,-3.307495 6.23143,-16.416746 6.23143,-16.416746 16.18036,-17.032349 z"
     fill="#f8f4f5"
     id="path10" />
  <path
     d="m 296.33984,144.28906 c 8.35406,5.1987 14.26219,12.10141 17.24609,21.57031 1.97988,10.23557 0.30048,19.76731 -5.09375,28.61328 C 302.72951,202.50019 294.76639,208.07558 285,210 c -10.87516,1.14979 -19.92354,-1.38423 -28.67188,-7.91797 -7.0148,-6.27331 -11.62607,-14.35816 -12.60547,-23.73828 C 243.33022,167.16722 246.71439,158.45598 254,150 c 11.67768,-11.29004 28.1205,-13.54464 42.33984,-5.71094 z"
     fill="#ec556a"
     id="path11" />
  <path
     d="m 127.98946,380.85283 c 0.83531,-0.004 1.67062,-0.007 2.53124,-0.0111 2.81513,-0.0111 5.63022,-0.0149 8.44537,-0.0187 2.01186,-0.006 4.02372,-0.0129 6.03558,-0.0199 5.47731,-0.0174 10.95462,-0.028 16.43195,-0.0362 3.41959,-0.005 6.83918,-0.0112 10.25878,-0.0175 10.69207,-0.0191 21.38413,-0.0333 32.07621,-0.0416 12.35549,-0.01 24.71081,-0.0361 37.06623,-0.0765 9.54145,-0.0301 19.08284,-0.045 28.62433,-0.0483 5.7028,-0.002 11.40542,-0.0114 17.10817,-0.0365 5.36391,-0.0232 10.72749,-0.0275 16.09144,-0.0172 1.97007,4.9e-4 3.94015,-0.006 5.91017,-0.0196 2.68728,-0.0176 5.3734,-0.0107 8.06067,0.003 1.17257,-0.0165 1.17257,-0.0165 2.36883,-0.0332 3.67563,0.0436 5.81525,0.40476 8.96222,2.36788 C 330.57786,385.61009 331,387.21157 331,391 c -2.13043,4.56522 -2.13043,4.56522 -5,6 -2.69906,0.1023 -5.37259,0.14338 -8.07211,0.14044 -0.84418,0.003 -1.68836,0.006 -2.55813,0.009 -2.8451,0.009 -5.69017,0.0102 -8.53528,0.0117 -2.03319,0.005 -4.06638,0.01 -6.09957,0.015 -5.53509,0.0131 -11.07018,0.0196 -16.60529,0.024 -3.4551,0.003 -6.91019,0.007 -10.36529,0.0115 -10.80153,0.0137 -21.60305,0.0233 -32.40458,0.0272 -12.48508,0.004 -24.97005,0.022 -37.4551,0.051 -9.63994,0.0216 -19.27985,0.0317 -28.91981,0.033 -5.76254,0.001 -11.52498,0.007 -17.28749,0.0248 -5.41886,0.0164 -10.83753,0.0187 -16.2564,0.01 -1.99145,-7.7e-4 -3.98291,0.004 -5.97433,0.0135 -2.71373,0.0126 -5.42681,0.007 -8.14054,-0.004 -0.79241,0.008 -1.58482,0.0161 -2.40124,0.0244 -3.19783,-0.029 -5.53558,-0.18412 -8.38272,-1.70393 C 114.0394,392.94857 114,390.6302 114,387.00002 c 3.88728,-6.16604 7.16802,-6.14879 13.98946,-6.14719 z"
     fill="#3f5a5b"
     id="path12" />
  <path
     d="m 166,96 c 2.3566,3.534902 3.71882,7.22904 5.20312,11.17969 0.31476,0.82863 0.62951,1.65727 0.9538,2.51101 1.0347,2.72673 2.06401,5.45545 3.09308,8.1843 0.71325,1.88423 1.42679,3.76834 2.14062,5.65234 1.47122,3.88441 2.94031,7.76961 4.40821,11.65528 2.11373,5.59163 4.24217,11.17757 6.37304,16.76269 0.967,2.53893 1.93354,5.07803 2.89978,7.61725 0.61824,1.62322 1.23746,3.24607 1.85767,4.86853 0.86001,2.25097 1.71586,4.50347 2.57068,6.75641 0.25546,0.66573 0.51091,1.33146 0.77411,2.01736 C 198,177.77178 198,177.77178 198,180 c -21.12,0 -42.24,0 -64,0 1.87532,-6.25108 3.75191,-12.26722 6.11719,-18.3125 0.29378,-0.76026 0.58757,-1.52051 0.89026,-2.3038 0.95239,-2.46259 1.9099,-4.92315 2.86755,-7.3837 1.00382,-2.59045 2.00642,-5.18136 3.00894,-7.77231 0.68346,-1.76614 1.36736,-3.53211 2.0517,-5.29791 2.32293,-5.99762 4.62327,-12.00349 6.90811,-18.01572 0.30117,-0.79174 0.60233,-1.58349 0.91263,-2.39923 1.15775,-3.04418 2.3153,-6.08842 3.46817,-9.13446 0.7848,-2.073 1.57277,-4.14476 2.36139,-6.21631 0.66588,-1.75643 0.66588,-1.75643 1.34521,-3.548337 C 165,97 165,97 166,96 Z"
     fill="#ec556a"
     id="path13" />
  <path
     d="m 127.08569,340.46655 c 0.81185,-0.009 1.62371,-0.0172 2.46016,-0.0261 2.68165,-0.0227 5.36227,-0.0159 8.04399,-0.007 1.86561,-0.005 3.73121,-0.0115 5.59682,-0.0188 3.90983,-0.0104 7.81929,-0.006 11.72911,0.009 5.00846,0.0172 10.01577,-0.006 15.0241,-0.0415 3.85281,-0.022 7.70535,-0.0205 11.55821,-0.0122 1.84637,8.2e-4 3.69276,-0.006 5.53907,-0.0208 2.5833,-0.0174 5.16454,-0.003 7.74776,0.0198 0.7612,-0.0117 1.5224,-0.0234 2.30667,-0.0354 3.94294,0.0705 5.75562,0.54911 8.91795,2.97942 C 208,346 208,346 208.0625,349.625 c -1.20108,3.81518 -1.61844,4.52629 -5.0625,6.375 -2.81132,0.29041 -5.39916,0.41018 -8.20923,0.38818 -0.82482,0.005 -1.64964,0.0105 -2.49945,0.0159 -2.72361,0.0132 -5.44662,0.005 -8.17023,-0.006 -1.89282,0.002 -3.78564,0.005 -5.67845,0.009 -3.96525,0.004 -7.9303,-0.002 -11.89552,-0.016 -5.08687,-0.0171 -10.17326,-0.007 -15.26011,0.0107 -3.90759,0.0108 -7.81507,0.007 -11.72267,-3.8e-4 -1.87592,-0.002 -3.75185,4.6e-4 -5.62776,0.007 -2.61919,0.008 -5.23761,-0.004 -7.85675,-0.0207 -0.77774,0.006 -1.55548,0.0122 -2.3568,0.0184 -5.18913,-0.0615 -5.18913,-0.0615 -7.70068,-1.68476 C 114.24881,351.73486 114.19533,348.30103 115,345 c 3.32732,-4.56653 6.80871,-4.57857 12.08569,-4.53345 z"
     fill="#3d595a"
     id="path14" />
  <path
     d="m 249.9939,340.59595 c 0.8021,-0.007 1.6042,-0.0137 2.4306,-0.0208 2.64905,-0.0183 5.2975,-0.0144 7.9466,-0.009 1.84319,-0.005 3.68637,-0.01 5.52955,-0.0159 3.8627,-0.009 7.72519,-0.007 11.58788,0.003 4.94777,0.0115 9.89482,-0.009 14.8425,-0.0379 3.80645,-0.0183 7.61274,-0.0181 11.41924,-0.0124 1.82403,1.5e-4 3.64808,-0.006 5.47208,-0.0183 2.55191,-0.0149 5.1025,-0.004 7.65436,0.0129 0.75185,-0.01 1.5037,-0.0193 2.27834,-0.0293 3.60582,0.0507 5.71353,0.45086 8.8175,2.34361 C 330,345 330,345 330.5625,348.5 c -0.66341,4.12791 -1.23046,5.05896 -4.5625,7.5 -2.85911,0.39975 -5.33465,0.55755 -8.19336,0.53345 -0.82321,0.009 -1.64642,0.0172 -2.49458,0.0261 -2.71892,0.0227 -5.43682,0.0159 -8.15581,0.007 -1.89042,0.005 -3.78084,0.0115 -5.67126,0.0188 -3.9611,0.0104 -7.92185,0.006 -11.88294,-0.009 -5.07805,-0.0172 -10.15497,0.006 -15.2329,0.0415 -3.90338,0.022 -7.8065,0.0205 -11.70992,0.0122 -1.87232,-8.2e-4 -3.74465,0.006 -5.61691,0.0208 -2.61703,0.0174 -5.23201,0.003 -7.84896,-0.0198 -1.16122,0.0175 -1.16122,0.0175 -2.3459,0.0354 -3.81517,-0.0675 -5.51039,-0.3562 -8.35954,-2.97942 C 237,351.00002 237,351.00002 237,347.37502 c 1,-3.375 1,-3.375 2.56288,-5.06069 3.42324,-1.84613 6.63735,-1.74103 10.43102,-1.71838 z"
     fill="#3d595a"
     id="path15" />
</svg>
