<?xml version="1.0" encoding="UTF-8" standalone="no"?>
<svg
   version="1.1"
   width="16"
   height="16"
   id="svg3"
   sodipodi:docname="edit.svg"
   viewBox="0 0 512 512"
   inkscape:version="1.4.2 (f4327f4, 2025-05-13)"
   xmlns:inkscape="http://www.inkscape.org/namespaces/inkscape"
   xmlns:sodipodi="http://sodipodi.sourceforge.net/DTD/sodipodi-0.dtd"
   xmlns="http://www.w3.org/2000/svg"
   xmlns:svg="http://www.w3.org/2000/svg">
  <defs
     id="defs3" />
  <sodipodi:namedview
     id="namedview3"
     pagecolor="#ffffff"
     bordercolor="#111111"
     borderopacity="1"
     inkscape:showpageshadow="0"
     inkscape:pageopacity="0"
     inkscape:pagecheckerboard="1"
     inkscape:deskcolor="#d1d1d1"
     inkscape:zoom="1.4882812"
     inkscape:cx="255.66404"
     inkscape:cy="256"
     inkscape:window-width="1920"
     inkscape:window-height="991"
     inkscape:window-x="-9"
     inkscape:window-y="-9"
     inkscape:window-maximized="1"
     inkscape:current-layer="svg3" />
  <path
     d="m 72.277832,85.580078 c 1.818039,-0.0074 3.636074,-0.01594 5.454102,-0.02567 4.904805,-0.02209 9.809441,-0.02515 14.714289,-0.02325 4.105437,1.2e-4 8.210837,-0.0085 12.316267,-0.01678 9.6871,-0.01919 19.37412,-0.02213 29.06124,-0.01536 9.97493,0.0066 19.9495,-0.01626 29.92436,-0.05331 8.58633,-0.03073 17.17255,-0.04205 25.75894,-0.03816 5.11878,0.0021 10.23728,-0.0033 15.35601,-0.02789 4.81178,-0.02232 9.62295,-0.02035 14.43473,-7.3e-5 1.75996,0.0034 3.51995,-0.0016 5.27985,-0.01598 C 242.49946,85.227638 242.49946,85.227638 250,91 c 5.68176,6.041385 6.3673,11.70355 6.26953,19.70313 -0.45929,5.61796 -2.05205,9.26232 -6.21094,13.07812 -5.44033,4.24807 -9.15669,5.34308 -16.11636,5.35678 -1.08463,0.004 -1.08463,0.004 -2.19117,0.009 -2.42956,0.008 -4.85908,0.01 -7.28866,0.0111 -1.73951,0.005 -3.47903,0.01 -5.21854,0.0154 -3.75028,0.0113 -7.50055,0.0197 -11.25084,0.0261 -5.93401,0.0107 -11.86797,0.0309 -17.80195,0.0531 -16.87568,0.0619 -33.75135,0.1159 -50.62711,0.14902 -9.31716,0.0184 -18.63422,0.0473 -27.95131,0.088 -4.92932,0.021 -9.85853,0.0365 -14.787901,0.0388 -4.640843,0.002 -9.281436,0.0181 -13.922203,0.0444 -1.699069,0.007 -3.398168,0.009 -5.097248,0.006 -11.05707,-0.0186 -20.403538,0.15052 -29.297486,7.43325 -5.15013,6.79123 -4.935819,14.33312 -4.888763,22.47546 -0.0047,1.24668 -0.0094,2.49335 -0.01418,3.77781 -0.0099,3.44413 -0.0064,6.88777 0.003,10.33188 0.0068,3.72058 -0.0037,7.44112 -0.01194,11.16169 -0.01333,7.28216 -0.01046,14.56422 -0.0018,21.84637 0.0068,5.91937 0.0077,11.83872 0.0044,17.75809 -4.6e-4,0.8431 -9.2e-4,1.68619 -0.0014,2.55483 -9.6e-4,1.71282 -0.0019,3.42565 -0.0029,5.13848 -0.0086,16.05394 0.0013,32.10784 0.0174,48.16178 0.0134,13.76928 0.01107,27.53849 -0.0028,41.30777 -0.01606,15.99725 -0.02237,31.99446 -0.01316,47.99173 9.56e-4,1.70645 0.0019,3.41291 0.0028,5.11937 4.63e-4,0.83957 9.25e-4,1.67914 0.0014,2.54415 0.0026,5.91094 -0.0018,11.82186 -0.0088,17.7328 -0.0084,7.20535 -0.0061,14.41061 0.0098,21.61595 0.0079,3.67494 0.01099,7.34971 0.0011,11.02464 -0.01061,3.98619 0.0021,7.97212 0.01704,11.9583 -0.0067,1.15798 -0.01338,2.31596 -0.02028,3.50903 0.05586,7.66451 0.657314,13.72878 5.77623,19.79065 5.513171,4.59431 9.742747,6.3093 16.858143,6.31893 1.598199,0.006 1.598199,0.006 3.228685,0.0116 1.169631,-8.7e-4 2.339262,-0.002 3.544337,-0.003 1.243256,0.003 2.486513,0.006 3.767444,0.009 3.453013,0.007 6.905976,0.01 10.358993,0.0106 3.723368,0.002 7.446725,0.009 11.170087,0.0161 8.142602,0.0136 16.285202,0.0196 24.427812,0.024 5.08434,0.003 10.16867,0.007 15.25301,0.0115 14.07723,0.0122 28.15447,0.0225 42.2317,0.0259 0.90097,2.2e-4 1.80194,4.4e-4 2.73021,6.7e-4 0.90312,2.1e-4 1.80625,4.3e-4 2.73674,6.6e-4 1.83006,4.4e-4 3.66013,8.9e-4 5.4902,10e-4 0.90778,2.2e-4 1.81556,4.4e-4 2.75084,6.7e-4 14.70895,0.004 29.41784,0.0214 44.12677,0.0447 15.10165,0.0237 30.20328,0.0362 45.30495,0.0373 8.47894,9.1e-4 16.95782,0.007 25.43674,0.0248 7.22008,0.0154 14.44007,0.0205 21.66017,0.0123 3.68301,-0.004 7.36586,-0.003 11.04886,0.0111 3.99519,0.0151 7.99,0.007 11.98521,-0.004 1.16071,0.008 2.32141,0.0161 3.5173,0.0244 7.22781,-0.0443 13.3165,-0.55795 19.23899,-5.11847 0.53882,-0.62649 1.07765,-1.25297 1.63281,-1.89844 0.55429,-0.61101 1.10859,-1.22203 1.67969,-1.85156 4.89028,-8.53818 3.71908,-19.24388 3.68481,-28.75806 10e-4,-1.74202 0.003,-3.48404 0.006,-5.22606 0.005,-3.7371 0.004,-7.47414 -0.002,-11.21124 -0.008,-5.91323 0.003,-11.82635 0.0172,-17.73956 0.0377,-16.80987 0.0559,-33.61968 0.0444,-50.42958 -0.006,-9.29488 0.005,-18.58957 0.0364,-27.8844 0.0186,-5.87457 0.0154,-11.74858 -0.004,-17.62315 -0.007,-3.65735 0.007,-7.31441 0.0269,-10.97171 0.005,-1.69144 0.002,-3.38293 -0.0111,-5.07434 -0.11585,-16.58734 -0.11585,-16.58734 5.64649,-22.60534 6.26992,-5.81115 11.08823,-6.46688 19.51562,-6.30078 4.64412,0.40089 7.94957,1.20065 11.48438,4.30078 5.12381,6.23867 7.15037,11.25148 7.14044,19.2966 0.004,1.12327 0.004,1.12327 0.009,2.26924 0.009,2.51696 0.0102,5.03388 0.0117,7.55086 0.005,1.80199 0.01,3.60398 0.015,5.40596 0.0131,4.90343 0.0196,9.80685 0.024,14.7103 0.003,3.06638 0.007,6.13276 0.0115,9.19914 0.0137,9.60179 0.0233,19.20357 0.0272,28.80537 0.004,11.06775 0.022,22.13538 0.051,33.20309 0.0217,8.56241 0.0317,17.12478 0.033,25.68721 0.001,5.10944 0.007,10.21877 0.0248,15.32819 0.0166,4.81481 0.0186,9.62942 0.01,14.44426 -7.6e-4,1.75868 0.004,3.51738 0.0135,5.27603 0.10725,20.16167 -3.9469,37.76902 -18.37107,52.82375 -9.1924,8.80738 -22.8596,17.23888 -35.87691,17.25727 -1.15817,0.006 -2.31634,0.0129 -3.5096,0.0195 -1.26292,-0.003 -2.52584,-0.006 -3.82704,-0.009 -1.36265,0.004 -2.7253,0.008 -4.08794,0.0137 -3.73915,0.0122 -7.47822,0.012 -11.21739,0.01 -4.03492,-4.1e-4 -8.06981,0.0106 -12.10472,0.0201 -7.90371,0.0166 -15.80739,0.0221 -23.71112,0.0232 -6.42616,9.5e-4 -12.85231,0.005 -19.27847,0.0114 -18.22555,0.0176 -36.45108,0.0268 -54.67665,0.0253 -1.47362,-1.2e-4 -1.47362,-1.2e-4 -2.97701,-2.4e-4 -0.98361,-8e-5 -1.96723,-1.7e-4 -2.98065,-2.5e-4 -15.93545,-8.1e-4 -31.8708,0.0183 -47.80622,0.0465 -16.36848,0.0288 -32.73692,0.0425 -49.10542,0.0408 -9.18716,-6.7e-4 -18.37423,0.005 -27.56137,0.0264 -7.82346,0.0182 -15.646782,0.0225 -23.470256,0.009 -3.989255,-0.007 -7.978234,-0.007 -11.967463,0.0107 -3.657557,0.0158 -7.31462,0.0128 -10.972166,-0.005 -1.938143,-0.005 -3.876301,0.0106 -5.814383,0.0265 -7.776762,-0.0611 -13.950017,-1.36663 -21.055223,-4.52565 -1.009336,-0.43441 -2.018672,-0.86883 -3.058594,-1.3164 -15.640895,-8.19285 -25.816823,-21.23668 -31.941406,-37.6836 -2.209498,-7.07393 -2.286154,-13.71471 -2.267426,-21.09219 -0.0045,-1.31186 -0.0091,-2.62372 -0.01373,-3.97534 -0.01219,-3.62623 -0.01197,-7.25236 -0.0096,-10.87861 4.09e-4,-3.91701 -0.01064,-7.834 -0.02012,-11.751 -0.01659,-7.66916 -0.02211,-15.33829 -0.02322,-23.00746 -9.52e-4,-6.2373 -0.0051,-12.47459 -0.0114,-18.71188 -0.01761,-17.70051 -0.02684,-35.40099 -0.02534,-53.1015 8e-5,-0.95361 1.6e-4,-1.90722 2.43e-4,-2.88973 8.1e-5,-0.95478 1.63e-4,-1.90957 2.47e-4,-2.89328 8.13e-4,-15.46447 -0.01832,-30.92885 -0.04652,-46.39329 -0.02876,-15.89509 -0.04254,-31.79012 -0.04081,-47.68523 6.63e-4,-8.91728 -0.0048,-17.83445 -0.02636,-26.7517 -0.01826,-7.59423 -0.02252,-15.18831 -0.009,-22.78255 0.0065,-3.87015 0.0067,-7.74002 -0.01071,-11.61014 -0.01584,-3.55217 -0.01276,-7.10383 0.0046,-10.65598 0.0045,-1.87419 -0.0105,-3.7484 -0.02648,-5.62253 C -0.385797,131.79363 6.203993,116.68388 18,104 33.538,89.057533 51.543128,85.540165 72.277832,85.580078 Z"
     fill="#5f7c8b"
     id="path1" />
  <path
     id="path3"
     d="m 487.8125,8.25 c 11.41873,7.822407 19.80856,18.419973 23.52734,31.894531 2.69737,15.753256 1.28238,30.701361 -7.52807,44.296143 -6.71959,9.492175 -15.64036,17.512996 -23.87427,25.684326 -1.16365,1.15862 -2.32706,2.31747 -3.49023,3.47656 -2.81307,2.8022 -5.62926,5.60121 -8.44727,8.39844 -2.92257,-1.32041 -4.99258,-2.74428 -7.25238,-5.01187 -0.61973,-0.61698 -1.23946,-1.23397 -1.87798,-1.86965 -0.66822,-0.67541 -1.33644,-1.35082 -2.02491,-2.0467 -0.7126,-0.71231 -1.42519,-1.42461 -2.15938,-2.1585 -2.35302,-2.3544 -4.69886,-4.71581 -7.04473,-7.07734 -1.63052,-1.63426 -3.26149,-3.26807 -4.89288,-4.901461 -4.29191,-4.299544 -8.57778,-8.60506 -12.86243,-12.911835 -4.37351,-4.393974 -8.75269,-8.78229 -13.1314,-13.171082 C 408.1637,64.239912 399.57987,55.621944 391,47 c 1.34956,-2.79444 2.62428,-4.881227 4.8064,-7.096924 0.56496,-0.577726 1.12993,-1.155453 1.71202,-1.750686 0.61138,-0.613609 1.22276,-1.227218 1.85267,-1.859421 0.95545,-0.96543 0.95545,-0.96543 1.93019,-1.950363 1.3516,-1.361711 2.70591,-2.720725 4.06273,-4.077225 2.04542,-2.049748 4.07433,-4.114886 6.10279,-6.181397 C 432.32458,3.0438547 459.98885,-8.337905 487.8125,8.25 Z M 368,68 c 1.10597,0.939105 2.21067,1.879715 3.31483,2.820938 0.61532,0.523637 1.23064,1.047273 1.8646,1.586778 2.68624,2.349408 5.19081,4.857292 7.69166,7.400878 0.52603,0.529809 1.05205,1.059619 1.59401,1.605484 2.21548,2.231581 4.42488,4.469149 6.63475,6.706283 1.62993,1.64823 3.26302,3.293274 4.89624,4.938233 0.4836,0.491893 0.96719,0.983786 1.46544,1.490585 2.69363,2.712264 5.46241,5.278431 8.35903,7.773571 4.55881,3.94982 8.80512,8.17672 13.05444,12.45459 0.80993,0.81135 1.61987,1.6227 2.45435,2.45864 2.55926,2.56481 5.115,5.1331 7.67065,7.70152 1.74586,1.75088 3.49195,3.50154 5.23828,5.25195 4.25657,4.26754 8.51027,8.53792 12.76172,12.81055 -1.29132,2.83547 -2.64863,4.90108 -4.84188,7.10753 -0.87454,0.88699 -0.87454,0.88699 -1.76675,1.79189 -0.64103,0.63998 -1.28206,1.27997 -1.94252,1.93934 -1.02103,1.03101 -1.02103,1.03101 -2.06269,2.08284 -2.28735,2.30707 -4.58182,4.6069 -6.87639,6.90677 -1.63961,1.65049 -3.27882,3.30138 -4.91767,4.95262 -4.45799,4.48852 -8.92273,8.97026 -13.38966,13.44988 -2.79059,2.79867 -5.58013,5.59839 -8.36939,8.3984 -7.72715,7.75613 -15.45629,15.51029 -23.19263,23.25726 -0.49497,0.49566 -0.98995,0.99133 -1.49992,1.50201 -0.49614,0.49683 -0.99228,0.99366 -1.50345,1.50555 -1.00533,1.00674 -2.01064,2.01347 -3.01596,3.02022 -0.49867,0.49937 -0.99733,0.99875 -1.51111,1.51325 -8.07575,8.08799 -16.1361,16.19113 -24.19003,24.30083 -8.27448,8.33132 -16.5621,16.64937 -24.86287,24.95449 -4.65792,4.66132 -9.30992,9.3282 -13.94799,14.00928 -4.36445,4.4042 -8.74528,8.79142 -13.13916,13.16625 -1.60805,1.60679 -3.21015,3.21956 -4.80572,4.83874 -2.18318,2.21362 -4.38701,4.40446 -6.59719,6.59107 -0.62319,0.64222 -1.24638,1.28443 -1.88845,1.9461 -4.73331,4.6144 -9.274,6.34936 -15.67857,7.76568 -1.27079,0.29667 -2.54158,0.59333 -3.85088,0.89899 -1.21798,0.24506 -2.43597,0.49012 -3.69087,0.74261 -0.68272,0.1386 -1.36544,0.27719 -2.06885,0.41998 -2.21603,0.44822 -4.43341,0.88918 -6.65112,1.32904 -1.56079,0.3119 -3.12157,0.6239 -4.68233,0.93598 -3.25273,0.64895 -6.50626,1.29374 -9.7603,1.9361 -4.15802,0.8216 -8.31284,1.65833 -12.4671,2.49875 -3.21475,0.64778 -6.43149,1.28516 -9.64887,1.91969 -1.53286,0.30406 -3.06499,0.61185 -4.59631,0.92354 -2.14127,0.43471 -4.28495,0.8547 -6.42981,1.2713 -1.2156,0.24188 -2.4312,0.48376 -3.68364,0.73297 -5.18395,0.58422 -9.05806,0.40391 -13.34492,-2.67145 -3.35194,-4.63357 -3.32234,-9.20383 -2.69598,-14.70645 0.24962,-1.31207 0.51252,-2.62167 0.7868,-3.9288 0.14134,-0.72305 0.28268,-1.4461 0.4283,-2.19106 0.46574,-2.36521 0.94933,-4.72635 1.43401,-7.08775 0.33138,-1.65554 0.66192,-3.31126 0.99163,-4.96714 0.69169,-3.45953 1.39194,-6.91719 2.0987,-10.37368 0.90327,-4.41982 1.78769,-8.84315 2.66606,-13.26797 0.67975,-3.41577 1.36811,-6.82975 2.05918,-10.24324 0.32923,-1.63015 0.65613,-3.26076 0.98061,-4.89186 0.45559,-2.28202 0.92241,-4.56147 1.39229,-6.84059 0.19657,-1.00074 0.19657,-1.00074 0.39711,-2.02171 1.70147,-8.10506 5.37799,-12.89695 11.11295,-18.55467 0.69268,-0.69525 1.38536,-1.39049 2.09904,-2.10681 2.31911,-2.32405 4.64878,-4.63723 6.97855,-6.95059 1.66609,-1.66525 3.33152,-3.33115 4.99634,-4.99767 4.51984,-4.52071 9.04888,-9.0321 13.57961,-13.54189 4.25428,-4.23744 8.50166,-8.48179 12.74907,-12.72611 8.41135,-8.4048 16.82938,-16.80287 25.25164,-25.19674 8.17995,-8.1524 16.35674,-16.30796 24.5293,-24.46777 0.50401,-0.50323 1.00802,-1.00645 1.52731,-1.52493 2.52855,-2.52463 5.05703,-5.04932 7.58549,-7.57405 C 326.03907,109.84105 347.01609,88.917077 368,68 Z"
     style="fill:#42a5f5;fill-opacity:1" />
</svg>
