<?xml version="1.0" encoding="UTF-8" standalone="no"?>
<svg
   version="1.1"
   width="16"
   height="16"
   id="svg2"
   sodipodi:docname="hyperlink.svg"
   viewBox="0 0 512 512"
   inkscape:version="1.4.2 (f4327f4, 2025-05-13)"
   xmlns:inkscape="http://www.inkscape.org/namespaces/inkscape"
   xmlns:sodipodi="http://sodipodi.sourceforge.net/DTD/sodipodi-0.dtd"
   xmlns="http://www.w3.org/2000/svg"
   xmlns:svg="http://www.w3.org/2000/svg">
  <defs
     id="defs2" />
  <sodipodi:namedview
     id="namedview2"
     pagecolor="#ffffff"
     bordercolor="#111111"
     borderopacity="1"
     inkscape:showpageshadow="0"
     inkscape:pageopacity="0"
     inkscape:pagecheckerboard="1"
     inkscape:deskcolor="#d1d1d1"
     inkscape:zoom="1.4882812"
     inkscape:cx="255.66404"
     inkscape:cy="256"
     inkscape:window-width="1920"
     inkscape:window-height="991"
     inkscape:window-x="-9"
     inkscape:window-y="-9"
     inkscape:window-maximized="1"
     inkscape:current-layer="svg2" />
  <path
     d="m 377.5625,-0.375 c 1.04691,3.1723e-4 1.04691,3.1723e-4 2.11496,6.4087e-4 C 391.48877,-0.33879761 402.61067,0.7577052 414,4 c 1.00039,0.2728784 1.00039,0.2728784 2.021,0.5512695 33.85713,9.4408515 63.04392,33.5430465 80.21777,63.9609375 C 512.7591,98.944393 517.82299,137.58211 508,171 c -0.20367,0.7143 -0.40734,1.4286 -0.61719,2.16455 -2.5042,8.51543 -5.98182,16.49648 -10.00781,24.39795 -0.35272,0.70649 -0.70544,1.41297 -1.06885,2.14087 -7.71737,14.50222 -18.97554,26.58148 -30.54053,38.06225 -1.3319,1.33461 -2.6632,2.66981 -3.99395,4.00556 -2.76008,2.7659 -5.52708,5.52461 -8.2995,8.27814 -3.53951,3.51654 -7.06051,7.05099 -10.57663,10.59091 -2.73292,2.74741 -5.47534,5.48518 -8.22068,8.22017 -1.3026,1.29995 -2.60228,2.60282 -3.89885,3.90877 -1.81,1.82023 -3.63245,3.62704 -5.45863,5.43103 -0.52278,0.53087 -1.04556,1.06175 -1.58418,1.60871 -5.83444,5.70462 -11.83524,8.76241 -20.1082,8.75359 -7.85202,-0.2422 -13.76776,-1.78732 -19.46094,-7.35938 -4.52852,-5.52258 -6.76955,-11.58676 -7.53906,-18.64062 1.60821,-15.27804 12.22113,-23.57305 22.68167,-33.82207 2.26198,-2.21895 4.51382,-4.44809 6.7665,-6.67647 4.16699,-4.12179 8.33786,-8.23947 12.52546,-12.34033 2.93935,-2.87923 5.86571,-5.77116 8.78446,-8.67127 1.09879,-1.08723 2.20205,-2.16996 3.31024,-3.2476 16.98702,-16.53022 27.97444,-36.74781 28.70852,-60.81746 C 459.53348,126.41746 458.3179,117.02259 455,107 c -0.45053,-1.39412 -0.45053,-1.39412 -0.91016,-2.81641 C 450.12309,93.21063 443.09073,84.251737 435,76 434.27426,75.238164 433.54852,74.476328 432.80078,73.691406 417.50831,58.710501 396.72656,52.6875 375.78467,52.6875 c -31.00524,0.444737 -51.16968,18.219005 -72.10108,39.160156 -1.86575,1.858642 -3.7318,3.716989 -5.59813,5.575058 -3.89972,3.885186 -7.79247,7.777256 -11.6819,11.672746 -4.46234,4.46897 -8.9392,8.92301 -13.42338,13.37006 -4.35263,4.31795 -8.69099,8.64999 -13.02426,12.98736 -1.82705,1.82537 -3.65803,3.64682 -5.49318,5.46404 -18.21486,18.01514 -18.21486,18.01514 -29.96274,40.52058 -0.33645,0.94263 -0.33645,0.94263 -0.67969,1.9043 -7.68327,22.03292 -5.91759,44.74752 4.17969,65.6582 3.49169,6.54582 7.83909,12.06297 12.6875,17.625 6.81305,7.87787 10.08108,13.84524 9.70312,24.44141 C 249.53607,297.4841 246.6503,303.47539 242,308 c -8.01629,5.13043 -14.45266,6.84416 -24,6 -16.29838,-4.38128 -26.94968,-22.27757 -35,-36 -17.78742,-32.63061 -22.00728,-70.40813 -11.58862,-106.06641 7.34938,-23.81661 20.12276,-42.75938 37.69409,-60.34546 0.86158,-0.8699 1.72316,-1.73981 2.61085,-2.63607 2.33343,-2.35319 4.67118,-4.70188 7.01194,-7.04776 1.47174,-1.47543 2.94219,-2.952135 4.41224,-4.42925 5.156,-5.180384 10.31759,-10.355114 15.48401,-15.525099 4.7714,-4.77502 9.52951,-9.562996 14.28171,-14.357113 4.11708,-4.152083 8.24404,-8.294186 12.37831,-12.429151 2.45278,-2.453565 4.90166,-4.910706 7.34032,-7.378315 13.7322,-13.869263 27.69001,-27.037674 45.68765,-35.160372 0.86754,-0.401543 1.73508,-0.803086 2.62891,-1.216797 C 339.19326,3.2186062 357.57013,-0.43130983 377.5625,-0.375 Z"
     fill="#afb7ce"
     id="path1" />
  <path
     d="m 298.8125,199.625 c 20.64415,10.71124 33.6223,37.96477 41,59 11.3296,35.89613 7.38157,74.04482 -9.8125,107.375 -2.12467,3.84764 -4.46673,7.41233 -7,11 -0.60082,0.8623 -1.20164,1.72459 -1.82066,2.61302 -8.0142,10.94161 -17.63766,20.32188 -27.21092,29.8874 -1.99251,1.99239 -3.98063,3.98914 -5.96894,5.98572 -4.70191,4.72102 -9.4118,9.43396 -14.12668,14.14203 -4.82001,4.81339 -9.6251,9.64132 -14.42321,14.47653 -4.15947,4.19044 -8.32884,8.37087 -12.50576,12.54392 -2.47708,2.47504 -4.95047,4.95346 -7.41405,7.44194 -13.86075,13.98991 -27.90716,27.21217 -46.09228,35.34694 -0.88075,0.40485 -1.7615,0.80969 -2.66895,1.22681 -7.76063,3.48722 -15.5199,6.26722 -23.76855,8.33569 -1.21301,0.31711 -2.42602,0.63422 -3.67578,0.96094 C 144.08787,514.17554 121.0395,514.01145 102,509 c -0.65388,-0.17161 -1.30775,-0.34321 -1.98145,-0.52002 C 64.79092,498.98125 35.3478,476.9248 16.80469,445.33594 -0.20963,415.20061 -5.89223,376.61056 3.41895,343.04932 3.61069,342.37304 3.80244,341.69677 4,341 c 0.32742,-1.25426 0.65484,-2.50852 0.99219,-3.80078 7.53252,-25.59409 23.83867,-45.11611 42.26562,-63.69531 0.46844,-0.47252 0.93689,-0.94504 1.41952,-1.43187 2.4691,-2.4897 4.94127,-4.9763 7.41593,-7.46047 2.53787,-2.54902 5.06382,-5.10955 7.58747,-7.67263 1.96311,-1.98931 3.93511,-3.96964 5.90957,-5.94768 1.38617,-1.39335 2.7627,-2.79626 4.13898,-4.19937 7.00551,-6.98144 12.42897,-10.21607 22.43478,-10.84658 7.79894,0.15039 13.54094,2.7978 19.14453,8.15235 5.65138,6.35616 7.07541,12.71329 6.96485,21.02734 -1.1746,12.3501 -12.06056,20.79822 -20.39063,28.91406 -1.75972,1.73246 -3.51882,3.46555 -5.27734,5.19922 -2.7344,2.69134 -5.47224,5.3787 -8.22119,8.05518 C 68.86859,326.31801 53.43016,345.81818 52.5979,374.2998 52.4704,385.15095 53.50652,394.70344 57,405 c 0.35063,1.05187 0.70125,2.10375 1.0625,3.1875 7.55703,20.15209 23.22167,34.61817 42.125,44 19.41832,8.50121 41.68689,10.1362 61.8125,2.8125 18.87564,-7.59587 32.13929,-20.66393 46.31641,-34.84766 1.86575,-1.85864 3.7318,-3.71699 5.59813,-5.57505 3.89972,-3.88519 7.79247,-7.77726 11.6819,-11.67275 4.46234,-4.46897 8.9392,-8.92301 13.42337,-13.37006 4.35264,-4.31795 8.691,-8.64999 13.02427,-12.98736 1.82705,-1.82537 3.65803,-3.64682 5.49318,-5.46404 18.21486,-18.01514 18.21486,-18.01514 29.96274,-40.52058 0.2243,-0.62842 0.44859,-1.25684 0.67969,-1.9043 C 295.86296,306.62528 294.09728,283.91068 284,263 c -3.49169,-6.54582 -7.83909,-12.06297 -12.6875,-17.625 -6.81305,-7.87787 -10.08108,-13.84524 -9.70313,-24.44141 C 262.46393,214.5159 265.3497,208.52461 270,204 c 8.94675,-5.72592 18.48235,-8.65997 28.8125,-4.375 z"
     fill="#89f1e7"
     id="path2" />
</svg>
