<?xml version="1.0" encoding="UTF-8" standalone="no"?>
<svg
   version="1.1"
   width="16"
   height="16"
   id="svg29"
   sodipodi:docname="reference.svg"
   viewBox="0 0 512 512"
   inkscape:version="1.4.2 (f4327f4, 2025-05-13)"
   xmlns:inkscape="http://www.inkscape.org/namespaces/inkscape"
   xmlns:sodipodi="http://sodipodi.sourceforge.net/DTD/sodipodi-0.dtd"
   xmlns="http://www.w3.org/2000/svg"
   xmlns:svg="http://www.w3.org/2000/svg">
  <defs
     id="defs29" />
  <sodipodi:namedview
     id="namedview29"
     pagecolor="#ffffff"
     bordercolor="#111111"
     borderopacity="1"
     inkscape:showpageshadow="0"
     inkscape:pageopacity="0"
     inkscape:pagecheckerboard="1"
     inkscape:deskcolor="#d1d1d1"
     inkscape:zoom="0.52618688"
     inkscape:cx="430.45543"
     inkscape:cy="374.3917"
     inkscape:window-width="1920"
     inkscape:window-height="991"
     inkscape:window-x="-9"
     inkscape:window-y="-9"
     inkscape:window-maximized="1"
     inkscape:current-layer="svg29" />
  <path
     d="m 255,87 c 2.95199,-1.380239 5.44916,-2.997654 8.0625,-4.9375 38.38126,-27.029847 83.5661,-38.548943 130.0625,-38.375 1.40618,0.0012 1.40618,0.0012 2.84076,0.0025 14.51862,0.02938 28.72856,0.61738 43.03424,3.309998 0.82468,0.134385 1.64936,0.26877 2.49902,0.407227 1.20318,0.219946 1.20318,0.219946 2.43067,0.444336 0.7114,0.124555 1.4228,0.249111 2.15576,0.377441 2.75463,1.1093 3.54468,2.121218 4.91455,4.770996 0.25673,2.833427 0.35006,5.438372 0.29297,8.265625 -0.004,0.793398 -0.008,1.586796 -0.0129,2.404236 -0.0168,2.527062 -0.0544,5.053319 -0.0926,7.580139 -0.0151,1.716134 -0.0287,3.432281 -0.041,5.148437 C 451.11346,80.599267 451.0617,84.799497 451,89 c 0.85755,-0.02618 1.7151,-0.05237 2.59863,-0.07935 3.19053,-0.08536 6.38048,-0.147969 9.57178,-0.195313 1.37943,-0.0251 2.75872,-0.05919 4.1377,-0.102539 1.98525,-0.06083 3.97148,-0.08638 5.95751,-0.111084 1.791,-0.03928 1.791,-0.03928 3.61817,-0.07935 C 480,89 480,89 482.39648,90.980469 c 2.16214,4.071447 2.11047,7.282412 1.99414,11.820311 -0.006,0.83638 -0.0113,1.67275 -0.0172,2.53447 -0.0223,2.65968 -0.0725,5.31798 -0.12347,7.97725 -0.0201,1.80792 -0.0383,3.61587 -0.0547,5.42383 -0.0439,4.42175 -0.11292,8.84248 -0.19525,13.26367 0.77714,-0.0105 1.55429,-0.0209 2.35498,-0.0317 3.50664,-0.0415 7.01323,-0.0676 10.52002,-0.0933 1.22332,-0.0168 2.44664,-0.0335 3.70703,-0.0508 1.1666,-0.006 2.3332,-0.0129 3.53516,-0.0195 1.07878,-0.0105 2.15757,-0.0209 3.26904,-0.0317 C 510,132 510,132 512,134 c 0.2507,2.20818 0.2507,2.20818 0.25168,5.01942 0.008,1.60301 0.008,1.60301 0.0158,3.23839 -0.007,1.77516 -0.007,1.77516 -0.0135,3.58618 0.003,1.24987 0.006,2.49973 0.009,3.78747 0.008,3.48054 0.004,6.96097 -0.002,10.44151 -0.005,3.74919 0.002,7.49837 0.008,11.24756 0.009,7.34912 0.007,14.69821 10e-4,22.04733 -0.005,5.97058 -0.005,11.94114 -0.003,17.91171 3.1e-4,0.84841 6.1e-4,1.69683 9.3e-4,2.57095 6.4e-4,1.7233 10e-4,3.44661 0.002,5.16992 0.006,16.17533 -8.7e-4,32.35065 -0.0116,48.52598 -0.009,13.89176 -0.007,27.7835 0.002,41.67526 0.0107,16.11581 0.0149,32.23159 0.009,48.3474 -6.4e-4,1.71712 -10e-4,3.43423 -0.002,5.15135 -3.1e-4,0.84494 -6.2e-4,1.68989 -9.3e-4,2.56044 -0.002,5.96629 10e-4,11.93256 0.006,17.89885 0.006,7.26677 0.004,14.53349 -0.007,21.80026 -0.005,3.71057 -0.007,7.42108 -7e-4,11.13165 0.007,4.01485 -10e-4,8.02953 -0.0114,12.04438 0.004,1.18344 0.009,2.36688 0.0135,3.58618 -0.005,1.06867 -0.0104,2.13733 -0.0158,3.23839 -3.2e-4,0.92771 -6.5e-4,1.85542 -9.8e-4,2.81124 C 512,440 512,440 510,442 c -2.74486,0.14508 -5.38481,0.18652 -8.125,0.125 -0.7541,-0.009 -1.5082,-0.0181 -2.28516,-0.0273 C 497.72643,442.0741 495.86317,442.0382 494,442 c 0.33,0.66 0.66,1.32 1,2 0.48586,2.98457 0.57259,5.07879 -1.05859,7.70312 -3.82272,4.5997 -8.31129,8.53143 -12.94141,12.29688 -0.80824,0.67482 -0.80824,0.67482 -1.63281,1.36328 -2.44593,1.86326 -4.01832,2.63622 -7.11328,2.64063 -4.58277,-1.4139 -6.95995,-4.12647 -10.19141,-7.56641 -0.61392,-0.6339 -1.22783,-1.26779 -1.86035,-1.9209 -3.77039,-3.91856 -7.46103,-7.90599 -10.96778,-12.06348 -2.29185,-2.83875 -2.29185,-2.83875 -5.72543,-3.7076 -1.05835,-0.002 -2.11669,-0.004 -3.20711,-0.006 -1.21268,-0.007 -2.42537,-0.0142 -3.6748,-0.0215 -1.35118,0.002 -2.70236,0.005 -4.05354,0.008 -1.4175,-0.004 -2.83499,-0.01 -4.25248,-0.0155 -3.85769,-0.0134 -7.71528,-0.014 -11.573,-0.0114 -3.22043,0.001 -6.44084,-0.004 -9.66127,-0.009 -7.60128,-0.0111 -15.2025,-0.0115 -22.80378,-0.005 -7.83662,0.006 -15.67305,-0.006 -23.50963,-0.0276 -6.72877,-0.0176 -13.45748,-0.0236 -20.18627,-0.0204 -4.01828,0.002 -8.03642,-8e-4 -12.05467,-0.0147 -3.7831,-0.0126 -7.56592,-0.0106 -11.34901,0.002 -1.38548,0.002 -2.77097,-3.5e-4 -4.15642,-0.009 -11.95499,-0.13962 -11.95499,-0.13962 -21.77696,6.00958 -1.11375,1.17563 -1.11375,1.17563 -2.25,2.375 -3.16717,1.05572 -5.44182,1.13938 -8.76904,1.16113 -1.18488,0.01 -2.36976,0.0192 -3.59055,0.0291 -1.28126,0.004 -2.56251,0.009 -3.8826,0.0129 -1.31566,0.006 -2.63132,0.0114 -3.98684,0.0173 -2.78581,0.0105 -5.57158,0.0163 -8.3574,0.0198 -3.56325,0.005 -7.12613,0.0295 -10.68926,0.058 -3.40549,0.0231 -6.81093,0.0251 -10.2165,0.0299 -1.27721,0.0123 -2.55442,0.0247 -3.87033,0.0374 -1.19118,-0.003 -2.38237,-0.006 -3.60965,-0.009 -1.04574,0.004 -2.09148,0.007 -3.16891,0.011 -4.53831,-0.58336 -7.60849,-2.9841 -10.92142,-5.99249 -4.82884,-3.90417 -9.31194,-3.52267 -15.33951,-3.51976 -0.85547,-0.004 -1.71094,-0.007 -2.59233,-0.0107 -2.87119,-0.0107 -5.74236,-0.0144 -8.61357,-0.0181 -2.05643,-0.006 -4.11287,-0.0131 -6.1693,-0.0203 -4.43017,-0.0147 -8.86034,-0.0264 -13.29053,-0.036 -6.99912,-0.0154 -13.9982,-0.0394 -20.99729,-0.0649 -19.9031,-0.0713 -39.80622,-0.13108 -59.70938,-0.18212 -10.99077,-0.0283 -21.98149,-0.0636 -32.97221,-0.10665 -6.96406,-0.0268 -13.92807,-0.0447 -20.89218,-0.056 -4.32345,-0.009 -8.64684,-0.0264 -12.97026,-0.0462 -2.01162,-0.007 -4.02326,-0.0115 -6.0349,-0.012 -2.73613,-10e-4 -5.47193,-0.0143 -8.208,-0.0306 -0.80465,0.003 -1.60931,0.005 -2.43834,0.008 -5.48149,-0.0515 -5.48149,-0.0515 -7.7097,-2.27967 -0.2507,-2.20818 -0.2507,-2.20818 -0.25168,-5.01942 -0.005,-1.06867 -0.0104,-2.13734 -0.0158,-3.23839 0.004,-1.18344 0.009,-2.36688 0.0135,-3.58618 -0.003,-1.24987 -0.006,-2.49973 -0.009,-3.78747 -0.008,-3.48054 -0.004,-6.96097 0.002,-10.44151 0.005,-3.74919 -0.002,-7.49837 -0.008,-11.24756 -0.009,-7.34912 -0.007,-14.69821 -0.001,-22.04733 0.005,-5.97058 0.005,-11.94114 0.003,-17.91171 -3.1e-4,-0.84841 -6.1e-4,-1.69683 -9.3e-4,-2.57095 -6.4e-4,-1.7233 -0.001,-3.44661 -0.002,-5.16992 -0.006,-16.17533 8.7e-4,-32.35065 0.0116,-48.52598 0.009,-13.89176 0.007,-27.7835 -0.002,-41.67526 -0.0107,-16.11581 -0.0149,-32.23159 -0.009,-48.3474 6.4e-4,-1.71712 0.001,-3.43423 0.002,-5.15135 3.1e-4,-0.84494 6.2e-4,-1.68989 9.3e-4,-2.56044 0.002,-5.96629 -0.001,-11.93256 -0.006,-17.89885 -0.006,-7.26677 -0.004,-14.53349 0.007,-21.80026 0.005,-3.71057 0.007,-7.42108 7e-4,-11.13165 -0.007,-4.01486 0.001,-8.02953 0.0114,-12.04438 -0.004,-1.18344 -0.009,-2.36688 -0.0135,-3.58618 0.005,-1.06867 0.0104,-2.13733 0.0158,-3.23839 3.2e-4,-0.92771 6.5e-4,-1.85542 9.8e-4,-2.81124 C 0,134 0,134 2,132 c 2.61377,-0.22705 2.61377,-0.22705 5.88281,-0.19531 1.7499,0.01 1.7499,0.01 3.53516,0.0195 1.22332,0.0168 2.44664,0.0335 3.70703,0.0508 1.23105,0.009 2.46211,0.018 3.73047,0.0273 3.04837,0.0236 6.09635,0.0566 9.14453,0.0977 -0.0105,-1.23154 -0.0209,-2.46308 -0.0317,-3.73194 -0.0361,-4.5584 -0.0591,-9.11679 -0.0781,-13.67529 -0.0101,-1.97496 -0.0237,-3.9499 -0.041,-5.9248 -0.0242,-2.83468 -0.0356,-5.66915 -0.0444,-8.50391 C 27.7945,99.277557 27.7842,98.391055 27.7735,97.477689 27.77301,95.31714 27.87727,93.157063 28,91 c 2,-2 2,-2 5.07275,-2.227051 1.28826,0.01047 2.57652,0.02095 3.90381,0.03174 0.68525,0.0028 1.3705,0.0057 2.07651,0.0086 2.19082,0.0112 4.38123,0.03631 6.57193,0.06174 1.48437,0.01003 2.96874,0.01915 4.45313,0.02734 3.64075,0.02206 7.28127,0.05659 10.92187,0.09766 -0.0157,-1.069599 -0.0314,-2.139199 -0.0476,-3.241211 -0.0543,-3.97323 -0.0888,-7.946428 -0.11718,-11.919922 -0.0151,-1.718806 -0.0355,-3.437574 -0.0615,-5.15625 -0.0364,-2.472427 -0.0534,-4.944345 -0.0667,-7.416992 -0.0155,-0.766811 -0.031,-1.533622 -0.0469,-2.323669 -9.9e-4,-3.146713 0.14054,-5.540642 1.5518,-8.381653 2.23648,-1.951576 3.76814,-2.320428 6.69043,-2.790772 0.97389,-0.163066 1.94778,-0.326133 2.95118,-0.49414 1.01771,-0.152754 2.03543,-0.305508 3.08398,-0.462891 1.47437,-0.246533 1.47437,-0.246533 2.97852,-0.498047 C 138.12507,36.588072 206.9958,47.504483 255,87 Z"
     fill="#d7d7d7"
     id="path1" />
  <path
     d="m 451,89 c 4.05656,-0.123862 8.11239,-0.214457 12.17041,-0.274658 1.37943,-0.0251 2.75872,-0.05919 4.13769,-0.102539 1.98526,-0.06083 3.97149,-0.08638 5.95752,-0.111084 1.791,-0.03928 1.791,-0.03928 3.61817,-0.07935 C 480,89 480,89 482.39083,91.402774 c 1.58959,2.56563 2.10273,3.70391 2.06327,6.653134 -4.5e-4,1.140617 -4.5e-4,1.140617 -9.1e-4,2.304272 -0.0206,0.8054 -0.0413,1.6108 -0.0626,2.4406 -0.006,0.83638 -0.0113,1.67275 -0.0172,2.53447 -0.0223,2.65968 -0.0725,5.31798 -0.12348,7.97725 -0.0201,1.80792 -0.0383,3.61587 -0.0547,5.42383 -0.044,4.42175 -0.11299,8.84248 -0.19531,13.26367 0.77714,-0.0105 1.55429,-0.0209 2.35498,-0.0317 3.50664,-0.0415 7.01323,-0.0676 10.52002,-0.0933 1.22332,-0.0168 2.44664,-0.0335 3.70703,-0.0508 1.1666,-0.006 2.3332,-0.0129 3.53516,-0.0195 1.07878,-0.0105 2.15757,-0.0209 3.26904,-0.0317 C 510,132 510,132 512,134 c 0.2507,2.20818 0.2507,2.20818 0.25168,5.01942 0.008,1.60301 0.008,1.60301 0.0158,3.23839 -0.007,1.77516 -0.007,1.77516 -0.0135,3.58618 0.003,1.24987 0.006,2.49973 0.01,3.78747 0.008,3.48054 0.004,6.96097 -0.002,10.44151 -0.005,3.74919 0.002,7.49837 0.008,11.24756 0.009,7.34912 0.007,14.69821 10e-4,22.04733 -0.005,5.97058 -0.005,11.94114 -0.003,17.91171 3.1e-4,0.84841 6.1e-4,1.69683 9.3e-4,2.57095 6.4e-4,1.7233 10e-4,3.44661 0.002,5.16992 0.006,16.17533 -8.6e-4,32.35065 -0.0116,48.52598 -0.009,13.89176 -0.007,27.7835 0.002,41.67526 0.0107,16.11581 0.0149,32.23159 0.009,48.3474 -6.4e-4,1.71712 -10e-4,3.43423 -0.002,5.15135 -3.1e-4,0.84494 -6.2e-4,1.68989 -9.4e-4,2.56044 -0.002,5.96629 10e-4,11.93256 0.006,17.89885 0.006,7.26677 0.004,14.53349 -0.007,21.80026 -0.005,3.71057 -0.007,7.42108 -7.1e-4,11.13165 0.007,4.01485 -10e-4,8.02953 -0.0114,12.04438 0.005,1.18344 0.009,2.36688 0.0135,3.58618 -0.005,1.06867 -0.0104,2.13733 -0.0158,3.23839 -3.2e-4,0.92771 -6.5e-4,1.85542 -9.8e-4,2.81124 C 512,440 512,440 510,442 c -2.74486,0.14508 -5.38481,0.18652 -8.125,0.125 -0.7541,-0.009 -1.5082,-0.0181 -2.28516,-0.0273 C 497.72643,442.0741 495.86317,442.0382 494,442 c 0.33,0.66 0.66,1.32 1,2 0.48586,2.98457 0.57259,5.07879 -1.05859,7.70312 -3.82272,4.5997 -8.3113,8.53143 -12.94141,12.29688 -0.80824,0.67482 -0.80824,0.67482 -1.63281,1.36328 -2.44593,1.86326 -4.01832,2.63622 -7.11328,2.64063 -4.58277,-1.4139 -6.95995,-4.12647 -10.19141,-7.56641 -0.61392,-0.6339 -1.22783,-1.26779 -1.86035,-1.9209 -3.77039,-3.91856 -7.46103,-7.90599 -10.96778,-12.06348 -2.29185,-2.83875 -2.29185,-2.83875 -5.72543,-3.7076 -1.05835,-0.002 -2.11669,-0.004 -3.20711,-0.006 -1.21268,-0.007 -2.42537,-0.0142 -3.6748,-0.0215 -1.35118,0.002 -2.70236,0.005 -4.05354,0.008 -1.4175,-0.004 -2.83499,-0.01 -4.25248,-0.0155 -3.85769,-0.0134 -7.71528,-0.014 -11.573,-0.0114 -3.22043,0.001 -6.44084,-0.004 -9.66127,-0.009 -7.60128,-0.0111 -15.2025,-0.0115 -22.80378,-0.005 -7.83662,0.006 -15.67305,-0.006 -23.50963,-0.0276 -6.72877,-0.0176 -13.45748,-0.0236 -20.18627,-0.0204 -4.01828,0.002 -8.03642,-8e-4 -12.05467,-0.0147 -3.7831,-0.0126 -7.56592,-0.0106 -11.34901,0.002 -1.38548,0.002 -2.77097,-3.5e-4 -4.15642,-0.009 -11.95499,-0.13967 -11.95499,-0.13967 -21.77696,6.00953 -1.11375,1.17563 -1.11375,1.17563 -2.25,2.375 -3.16717,1.05572 -5.44182,1.13938 -8.76904,1.16113 -1.18488,0.01 -2.36976,0.0192 -3.59055,0.0291 -1.28126,0.004 -2.56251,0.009 -3.8826,0.0129 -1.31566,0.006 -2.63132,0.0114 -3.98684,0.0173 -2.78581,0.0105 -5.57158,0.0163 -8.3574,0.0198 -3.56325,0.005 -7.12613,0.0295 -10.68926,0.058 -3.40549,0.0231 -6.81093,0.0251 -10.2165,0.0299 -1.27721,0.0123 -2.55442,0.0247 -3.87033,0.0374 -1.19118,-0.003 -2.38237,-0.006 -3.60965,-0.009 -1.04574,0.004 -2.09148,0.007 -3.16891,0.011 -4.53831,-0.58336 -7.60849,-2.9841 -10.92142,-5.99249 -4.82884,-3.90417 -9.31194,-3.52267 -15.33951,-3.51976 -0.85547,-0.004 -1.71094,-0.007 -2.59233,-0.0107 -2.87119,-0.0107 -5.74236,-0.0144 -8.61357,-0.0181 -2.05643,-0.006 -4.11287,-0.0131 -6.1693,-0.0203 -4.43017,-0.0147 -8.86034,-0.0264 -13.29053,-0.036 -6.99912,-0.0154 -13.9982,-0.0394 -20.99729,-0.0649 -19.9031,-0.0713 -39.80622,-0.13108 -59.70938,-0.18212 -10.99077,-0.0283 -21.98149,-0.0636 -32.97221,-0.10665 -6.96406,-0.0268 -13.92807,-0.0447 -20.89218,-0.056 -4.32345,-0.009 -8.64684,-0.0264 -12.97026,-0.0462 -2.01162,-0.007 -4.02326,-0.0115 -6.0349,-0.012 -2.73613,-10e-4 -5.47193,-0.0143 -8.208,-0.0306 -0.80465,0.003 -1.60931,0.005 -2.43834,0.008 -5.48149,-0.0515 -5.48149,-0.0515 -7.7097,-2.27967 -0.2507,-2.20818 -0.2507,-2.20818 -0.25168,-5.01942 -0.005,-1.06867 -0.0104,-2.13734 -0.0158,-3.23839 0.004,-1.18344 0.009,-2.36688 0.0135,-3.58618 -0.003,-1.24987 -0.006,-2.49973 -0.009,-3.78747 -0.008,-3.48054 -0.004,-6.96097 0.002,-10.44151 0.005,-3.74919 -0.002,-7.49837 -0.008,-11.24756 -0.009,-7.34912 -0.007,-14.69821 -0.001,-22.04733 0.005,-5.97058 0.005,-11.94114 0.003,-17.91171 -3.1e-4,-0.84841 -6.1e-4,-1.69683 -9.3e-4,-2.57095 -6.4e-4,-1.7233 -0.001,-3.44661 -0.002,-5.16992 -0.006,-16.17533 8.7e-4,-32.35065 0.0116,-48.52598 0.009,-13.89176 0.007,-27.7835 -0.002,-41.67526 -0.0107,-16.11581 -0.0149,-32.23159 -0.009,-48.3474 6.4e-4,-1.71712 0.001,-3.43423 0.002,-5.15135 3.1e-4,-0.84494 6.2e-4,-1.68989 9.3e-4,-2.56044 0.002,-5.96629 -0.001,-11.93256 -0.006,-17.89885 -0.006,-7.26677 -0.004,-14.5335 0.007,-21.80026 0.005,-3.71057 0.007,-7.42108 7e-4,-11.13165 -0.007,-4.01486 0.001,-8.02953 0.0114,-12.04438 -0.004,-1.18344 -0.009,-2.36688 -0.0135,-3.58618 0.005,-1.06867 0.0104,-2.13733 0.0158,-3.23839 3.2e-4,-0.92771 6.5e-4,-1.85542 9.8e-4,-2.81124 C 0,134 0,134 2,132 c 2.70557,-0.22705 2.70557,-0.22705 6.10156,-0.19531 1.81758,0.01 1.81758,0.01 3.67188,0.0195 1.27101,0.0168 2.54203,0.0335 3.85156,0.0508 1.27875,0.009 2.5575,0.018 3.875,0.0273 3.16685,0.0236 6.33333,0.0566 9.5,0.0977 0.002,0.59421 0.003,1.18841 0.005,1.80063 0.10292,35.18052 0.21101,70.36103 0.32586,105.54152 0.0138,4.21969 0.0275,8.43938 0.0412,12.65907 0.004,1.26015 0.004,1.26015 0.008,2.54576 0.0441,13.62105 0.0847,27.24212 0.12407,40.86319 0.0404,13.96584 0.0845,27.93166 0.13223,41.89748 0.0293,8.62475 0.0557,17.24949 0.0783,25.87425 0.0158,5.90612 0.0352,11.81222 0.0575,17.71831 0.0128,3.4127 0.0239,6.82538 0.0308,10.23809 0.008,3.69124 0.0225,7.38239 0.0384,11.0736 9.8e-4,1.09044 0.002,2.18089 0.003,3.30437 0.005,0.98083 0.0109,1.96165 0.0166,2.9722 0.003,0.85323 0.005,1.70646 0.008,2.58555 -0.0809,1.93364 -0.0809,1.93364 1.13061,2.92598 2.06415,0.0979 4.13173,0.12371 6.1982,0.12305 0.9869,0.002 0.9869,0.002 1.99374,0.003 2.23211,0.003 4.46415,-0.002 6.69626,-0.006 1.60541,4.4e-4 3.21082,10e-4 4.81623,0.003 4.43296,0.002 8.8659,-0.002 13.29886,-0.007 4.77235,-0.004 9.5447,-0.003 14.31705,-0.002 8.27554,5.2e-4 16.55107,-0.003 24.8266,-0.008 11.96518,-0.008 23.93036,-0.0107 35.89554,-0.012 19.41057,-0.002 38.82113,-0.009 58.23169,-0.0183 18.86068,-0.009 37.72135,-0.0163 56.58203,-0.0205 1.16168,-2.6e-4 2.32336,-5.2e-4 3.52024,-7.9e-4 5.82753,-10e-4 11.65507,-0.003 17.4826,-0.004 48.38032,-0.0104 96.76064,-0.028 145.14096,-0.0503 -0.64969,-0.72445 -1.29938,-1.44891 -1.96875,-2.19531 -1.25297,-1.4502 -1.25297,-1.4502 -2.53125,-2.92969 -0.83531,-0.95133 -1.67063,-1.90266 -2.53125,-2.88281 -2.23378,-3.3958 -2.4601,-5.01344 -1.96832,-8.99235 1,-2.375 1,-2.375 2,-4 -7.64555,-8.35291 -15.31437,-16.68396 -23,-25 2.85017,-2.88955 5.7092,-5.696 8.8125,-8.3125 0.60457,-0.51176 1.20914,-1.02352 1.83203,-1.55078 0.44731,-0.37512 0.89461,-0.75024 1.35547,-1.13672 0.71543,0.91523 1.43086,1.83047 2.16797,2.77344 6.65103,8.30071 6.65103,8.30071 16.33203,11.91406 2.16543,0.12723 4.33234,0.23154 6.5,0.3125 2.12985,0.34642 4.25539,0.72064 6.375,1.125 7.61708,1.59714 7.61708,1.59714 14.78006,-0.45163 2.97075,-4.3047 2.40058,-8.71324 2.36392,-13.82223 0.007,-1.1509 0.015,-2.3018 0.0227,-3.48757 0.0168,-3.19499 0.0157,-6.38941 0.007,-9.58441 -0.005,-3.44514 0.0131,-6.89017 0.0284,-10.33527 0.0233,-5.96898 0.0321,-11.93784 0.0309,-17.90686 -0.002,-8.6302 0.0187,-17.26024 0.0444,-25.8904 0.0411,-14.0015 0.0644,-28.00298 0.0765,-42.00454 0.0118,-13.60192 0.032,-27.20378 0.0635,-40.80566 0.002,-0.8383 0.004,-1.67659 0.006,-2.54029 0.01,-4.20544 0.0197,-8.41088 0.0297,-12.61633 C 450.9109,158.78657 450.96487,123.89333 451,89 Z"
     fill="#b7a08c"
     id="path2" />
  <path
     d="m 197,56 c 0,26.07 0,52.14 0,79 -3.27416,-0.65483 -6.20007,-1.31332 -9.34375,-2.30469 -11.65554,-3.57263 -23.03938,-6.01227 -35.14795,-7.40283 -2.38341,-0.27792 -4.75944,-0.59135 -7.13721,-0.91357 C 116.94937,120.22605 116.94937,120.22605 90,126 c -0.0246,4.82381 -0.0428,9.64758 -0.0549,14.47144 -0.005,1.64225 -0.0119,3.28451 -0.0205,4.92675 -0.0121,2.35556 -0.0178,4.71107 -0.0222,7.06665 -0.005,0.73855 -0.0103,1.4771 -0.0156,2.23803 -1.9e-4,1.76611 0.0513,3.5321 0.1133,5.29713 0.97531,1.19839 0.97531,1.19839 2.78534,1.09334 1.17118,-0.0214 1.17118,-0.0214 2.36603,-0.0433 0.88838,-0.0128 1.77676,-0.0256 2.69206,-0.0388 0.974637,-0.0179 1.949274,-0.0358 2.95344,-0.0543 2.0808,-0.0262 4.16161,-0.0508 6.24244,-0.074 1.09603,-0.0126 2.19207,-0.0251 3.32132,-0.0381 C 139.29619,160.56753 170.45834,160.72917 197,174 c 0,16.17 0,32.34 0,49 -12.12709,-2.20493 -12.12709,-2.20493 -18.125,-3.9375 -14.41695,-3.94662 -29.0732,-6.2256 -44.02344,-6.19531 -1.05257,-9.6e-4 -2.10514,-0.002 -3.1896,-0.003 -2.21708,-6.8e-4 -4.43415,0.001 -6.65122,0.005 -3.36821,0.005 -6.73628,5e-5 -10.10449,-0.006 -2.16406,6.6e-4 -4.32812,0.002 -6.49219,0.004 -1.49266,-0.003 -1.49266,-0.003 -3.01547,-0.006 C 93.38478,212.2667 93.38478,212.2667 83,217 c -0.72508,2.88321 -0.33638,4.97257 0,8 3.34274,2.2285 4.30693,2.23227 8.19214,2.16357 1.06349,-0.0131 2.12698,-0.0261 3.2227,-0.0396 1.15603,-0.0229 2.31207,-0.0457 3.503129,-0.0693 2.478511,-0.0254 4.957021,-0.0501 7.435551,-0.0742 3.88278,-0.049 7.76521,-0.10426 11.6477,-0.17236 28.28454,-0.46474 53.3266,4.04714 79.99878,13.19189 0,7.92 0,15.84 0,24 -6.71969,-1.11995 -6.71969,-1.11995 -9.92578,-2.08594 -0.70536,-0.20713 -1.41072,-0.41427 -2.13745,-0.62768 C 183.82338,260.959 183.82338,260.959 182.6875,260.625 173.86875,258.10936 165.07005,256.34655 156,255 c -1.02658,-0.17136 -2.05315,-0.34273 -3.11084,-0.51929 -10.15639,-1.563 -20.10333,-1.75637 -30.36084,-1.68652 -2.78818,0.0184 -5.57602,0.0205 -8.36426,0.0203 C 98.529613,251.90641 98.529613,251.90641 84,256 c -1.52492,3.04984 -1.23563,5.64234 -1,9 1.15297,1.79897 1.15297,1.79897 3,3 2.23918,0.40098 2.23918,0.40098 4.6875,0.25 1.21236,-0.0232 1.21236,-0.0232 2.44922,-0.0469 2.96608,-0.17498 2.96608,-0.17498 6.292968,-0.70312 C 130.18687,263.53226 168.91755,266.95878 197,281 c 0,8.58 0,17.16 0,26 -5.97463,-1.19493 -11.70714,-2.39139 -17.5625,-3.9375 -7.20771,-1.85924 -14.45358,-3.22496 -21.79297,-4.44922 -1.99023,-0.3349 -3.97899,-0.68636 -5.95068,-1.11719 -10.61237,-1.95435 -21.8201,-1.6826 -32.58277,-1.68139 -2.17589,-0.002 -4.35129,-0.0205 -6.5271,-0.0393 -9.88572,-0.0392 -20.11894,0.0696 -29.58398,3.22461 -0.0813,1.43656 -0.13934,2.87445 -0.1875,4.3125 -0.0348,0.80051 -0.0696,1.60102 -0.10547,2.42578 0.11048,2.28925 0.11048,2.28925 1.49053,3.88477 2.42463,1.85226 3.90209,1.7216 6.93452,1.66992 1.04993,-0.01 2.09985,-0.0198 3.18159,-0.03 1.71065,-0.0373 1.71065,-0.0373 3.455861,-0.0754 1.779836,-0.017 1.779836,-0.017 3.595629,-0.0344 5.07179,-0.0488 10.14285,-0.13177 15.21419,-0.2146 C 145.41876,310.50778 169.8252,313.80945 197,324 c 0,19.14 0,38.28 0,58 -3.84985,-0.64164 -7.34139,-1.29173 -11.0625,-2.30469 C 172.36627,376.09326 158.97247,373.42598 145,372 c -1.39751,-0.14357 -1.39751,-0.14357 -2.82324,-0.29004 -7.65108,-0.71484 -15.24541,-0.86611 -22.92676,-0.83496 -1.23138,0.004 -2.46275,0.008 -3.73144,0.0125 -13.24026,0.0811 -25.92863,0.71716 -38.89747,3.49146 -8.96309,1.53735 -8.96309,1.53735 -12.99609,-0.69141 -2.89494,-3.00628 -2.75126,-6.01679 -2.75643,-9.98056 -0.004,-1.10426 -0.008,-2.20852 -0.0116,-3.34624 8.7e-4,-1.21807 0.002,-2.43615 0.003,-3.69113 -0.003,-1.29014 -0.006,-2.58029 -0.009,-3.90953 -0.008,-3.5884 -0.01,-7.17678 -0.0106,-10.76519 -0.002,-3.86714 -0.009,-7.73427 -0.0161,-11.6014 -0.0136,-8.4585 -0.0196,-16.91699 -0.024,-25.3755 -0.003,-5.27878 -0.007,-10.55756 -0.0115,-15.83634 -0.0122,-14.6082 -0.0225,-29.2164 -0.0259,-43.82461 -2.2e-4,-0.93515 -4.4e-4,-1.8703 -6.6e-4,-2.8338 -2.2e-4,-0.93741 -4.4e-4,-1.87483 -6.6e-4,-2.84065 -4.5e-4,-1.89964 -8.9e-4,-3.79927 -10e-4,-5.69891 -3.4e-4,-1.41343 -3.4e-4,-1.41343 -6.8e-4,-2.85542 -0.004,-15.27753 -0.0214,-30.55501 -0.0447,-45.83252 -0.0237,-15.67565 -0.0362,-31.35128 -0.0373,-47.02694 -9.1e-4,-8.80524 -0.007,-17.61041 -0.0248,-26.41562 -0.0154,-7.4958 -0.0205,-14.991518 -0.0123,-22.487328 0.004,-3.826306 0.003,-7.652449 -0.0111,-11.478735 -0.015,-4.143341 -0.007,-8.28631 0.004,-12.429664 -0.008,-1.215842 -0.0161,-2.431684 -0.0244,-3.68437 0.007,-1.106867 0.0132,-2.213734 0.02,-3.354143 -5.9e-4,-0.956787 -10e-4,-1.913575 -0.002,-2.899357 C 61.06847,52.538402 61.94462,51.174222 64,49 c 2.26147,-0.80542 2.26147,-0.80542 4.90234,-1.230469 0.97389,-0.163066 1.94778,-0.326133 2.95118,-0.49414 1.01771,-0.152754 2.03543,-0.305508 3.08398,-0.462891 1.47437,-0.246533 1.47437,-0.246533 2.97852,-0.498047 C 116.76754,40.038242 160.04834,42.143126 197,56 Z"
     fill="#f2e7d6"
     id="path3" />
  <path
     d="m 33.072754,88.772949 c 1.288257,0.01047 2.576514,0.02095 3.903809,0.03174 1.027871,0.0042 1.027871,0.0042 2.076507,0.0086 2.19082,0.0112 4.381233,0.03631 6.57193,0.06174 1.484369,0.01003 2.968745,0.01915 4.453125,0.02734 C 53.718883,88.924407 57.359402,88.958938 61,89 c 0.002,0.886429 0.002,0.886429 0.0041,1.790765 0.08061,35.005375 0.171543,70.010705 0.275941,105.016015 0.01252,4.2008 0.02495,8.4016 0.03733,12.6024 0.0025,0.83632 0.0049,1.67265 0.0075,2.53431 0.03975,13.55113 0.07249,27.10226 0.102644,40.65341 0.03109,13.8992 0.06968,27.79836 0.11529,41.69752 0.02792,8.58021 0.04994,17.16039 0.06447,25.74064 0.01052,5.87952 0.02832,11.75899 0.0519,17.63848 0.0134,3.39485 0.02353,6.78964 0.02505,10.18452 0.0033,3.67711 0.01874,7.35398 0.03731,11.03104 -0.0019,1.07781 -0.0039,2.15563 -0.0059,3.2661 0.0075,0.98332 0.01493,1.96663 0.02262,2.97975 0.0034,1.27358 0.0034,1.27358 0.0069,2.57289 0.281622,2.53336 0.899417,4.14235 2.254809,6.29216 5.0263,2.51315 11.20298,0.68227 16.4375,-0.4375 8.173941,-1.61764 16.23914,-2.35446 24.562496,-2.5625 0.99017,-0.0272 1.98033,-0.0545 3.00049,-0.0825 21.1354,-0.49956 41.85217,0.93309 62.62451,4.95752 1.06154,0.20545 1.06154,0.20545 2.14453,0.41504 8.23997,1.7373 16.10841,4.32112 24.23047,6.70996 0,-19.14 0,-38.28 0,-58 13.53563,5.63985 13.53563,5.63985 19.0625,8.6875 1.59521,0.87205 1.59521,0.87205 3.22265,1.76172 1.94739,1.11239 3.8488,2.30675 5.71485,3.55078 3.63127,0.46357 5.31967,0.49645 8.3125,-1.6875 1.83051,-2.50848 2.34759,-4.25333 2.6875,-7.3125 2.31184,2.91701 4.05105,5.88028 5.75,9.1875 3.2689,6.09056 7.10716,12.04584 12.33252,16.64575 3.05506,5.04549 2.40762,10.12455 2.3081,15.90503 -0.006,1.23591 -0.0113,2.47181 -0.0171,3.74516 -0.0186,3.27348 -0.0545,6.54615 -0.0988,9.81936 -0.041,3.34495 -0.0589,6.68995 -0.0793,10.03509 -0.0441,6.55435 -0.111,13.10816 -0.19531,19.66211 1.04116,-0.7259 2.08232,-1.45181 3.15503,-2.19971 7.41132,-5.14589 14.79752,-10.2292 22.65747,-14.67529 0.79841,-0.45415 1.59682,-0.9083 2.41943,-1.37622 10.94598,-6.1642 18.37725,-9.78703 30.97119,-8.24097 24.59444,2.74057 49.14851,-2.61138 69.79688,-16.50781 0.33,-0.33 0.66,-0.66 1,-1 3.08984,-0.53516 3.08984,-0.53516 7,0 2.92598,2.1613 5.19656,4.81394 7.5625,7.5625 0.63357,0.70447 1.26714,1.40895 1.91992,2.13477 1.86284,2.08154 3.69515,4.18577 5.51758,6.30273 0.89114,1.03423 0.89114,1.03423 1.80029,2.08936 1.40337,1.6339 2.80208,3.27182 4.19971,4.91064 -0.32163,0.60046 -0.64325,1.20092 -0.97461,1.81958 -1.40663,2.99109 -1.45323,4.90168 -1.02539,8.18042 1.92845,3.04336 1.92845,3.04336 4.5,5.8125 4.5,5.14583 4.5,5.14583 4.5,6.1875 -49.64965,0.0457 -99.2993,0.081 -148.94896,0.10213 -5.85572,0.002 -11.71144,0.005 -17.56716,0.008 -1.16581,5.3e-4 -2.33163,0.001 -3.53277,0.002 -18.90031,0.009 -37.80061,0.0245 -56.70092,0.0429 -19.37972,0.0187 -38.75943,0.0298 -58.13916,0.0339 -11.96748,0.003 -23.93494,0.0114 -35.90242,0.0276 -8.195941,0.0105 -16.391869,0.0138 -24.587822,0.0112 -4.735344,-0.001 -9.470628,7.5e-4 -14.205962,0.0114 -4.328893,0.01 -8.657685,0.0103 -12.986582,0.003 -1.572033,-8.5e-4 -3.144071,0.002 -4.716092,0.008 -2.125218,0.008 -4.250066,0.004 -6.375278,-0.004 -1.183968,7.6e-4 -2.367936,0.002 -3.587782,0.002 -2.749088,-0.2484 -2.749088,-0.2484 -4.749088,-2.2484 -0.254809,-2.003 -0.254809,-2.003 -0.261713,-4.52005 -0.0075,-0.95753 -0.01493,-1.91506 -0.02262,-2.90161 0.0029,-1.58935 0.0029,-1.58935 0.0059,-3.2108 -0.0058,-1.12026 -0.01159,-2.24052 -0.01755,-3.39472 -0.0171,-3.78142 -0.01989,-7.56271 -0.02282,-11.34416 -0.0082,-2.70221 -0.01937,-5.40442 -0.03044,-8.10663 -0.02233,-5.84011 -0.03731,-11.68022 -0.04737,-17.52037 -0.01462,-8.48857 -0.04018,-16.97707 -0.06833,-25.4656 -0.04556,-13.83028 -0.08211,-27.66057 -0.113138,-41.49089 -0.02993,-13.33531 -0.06422,-26.67059 -0.104492,-40.00586 -0.0025,-0.81564 -0.0049,-1.63128 -0.0075,-2.47164 -0.0099,-3.28139 -0.01987,-6.56278 -0.02987,-9.84417 -0.06424,-21.09557 -0.124998,-42.19115 -0.178886,-63.28675 -0.0019,-0.7205 -0.0037,-1.44101 -0.0056,-2.18335 -0.01948,-7.64105 -0.03704,-15.28209 -0.0496,-22.92316 -0.0043,-2.593 -0.0087,-5.186 -0.01307,-7.779 -0.002,-1.24297 -0.0041,-2.48594 -0.0062,-3.76657 -0.01318,-6.92072 -0.04081,-13.84112 -0.08611,-20.7617 -0.02506,-3.93345 -0.04322,-7.86691 -0.06024,-11.8004 -0.0096,-1.76702 -0.0228,-3.53403 -0.03978,-5.301 -0.02252,-2.35232 -0.0333,-4.7044 -0.04111,-7.056809 -0.0095,-1.290933 -0.01906,-2.581865 -0.02887,-3.911918 0.322927,-4.157324 1.158346,-4.873456 5.302085,-5.179644 z"
     fill="#cebca7"
     id="path4" />
  <path
     d="m 4.7055664,131.77295 c 1.1206787,0.0105 2.2413574,0.0209 3.3959961,0.0317 1.8175781,0.01 1.8175781,0.01 3.6718755,0.0195 1.271015,0.0168 2.542031,0.0335 3.851562,0.0508 1.27875,0.009 2.5575,0.018 3.875,0.0273 3.166851,0.0236 6.333334,0.0566 9.5,0.0977 0.0017,0.59421 0.0035,1.18842 0.0053,1.80063 0.102922,35.18053 0.211012,70.36103 0.325856,105.54152 0.01377,4.21969 0.0275,8.43938 0.0412,12.65907 0.0041,1.26015 0.0041,1.26015 0.0083,2.54576 0.04413,13.62106 0.08475,27.24212 0.12407,40.86319 0.0404,13.96584 0.08455,27.93166 0.132226,41.89748 0.02932,8.62475 0.05568,17.24949 0.0783,25.87425 0.01577,5.90612 0.03517,11.81222 0.05749,17.71831 0.01279,3.4127 0.02392,6.82538 0.03075,10.23809 0.0082,3.69124 0.02249,7.38239 0.03836,11.0736 9.78e-4,1.09044 0.002,2.18089 0.003,3.30437 0.0055,0.98083 0.01095,1.96165 0.01659,2.9722 0.0027,0.85323 0.0053,1.70646 0.0081,2.58555 -0.08094,1.93364 -0.08094,1.93364 1.130611,2.92598 2.068087,0.0966 4.139544,0.1211 6.209886,0.11911 0.659211,7.5e-4 1.318422,0.001 1.997609,0.002 2.236536,10e-4 4.472999,-0.005 6.709527,-0.0102 1.608671,-4.5e-4 3.217343,-4.4e-4 4.826014,-10e-6 3.511924,-1e-5 7.023827,-0.003 10.535747,-0.009 5.713038,-0.009 11.426066,-0.0111 17.139109,-0.0122 7.218079,-0.002 14.436155,-0.005 21.654235,-0.0108 14.18502,-0.0104 28.37001,-0.006 42.55504,0.004 2.23091,10e-4 4.46183,0.003 6.69274,0.004 4.51746,0.003 9.03492,0.006 13.55237,0.009 11.62396,0.008 23.24791,0.0156 34.87186,0.0214 1.7504,8.9e-4 1.7504,8.9e-4 3.53615,0.002 18.90659,0.009 37.81311,-0.004 56.71969,-0.0241 19.39678,-0.02 38.79342,-0.0134 58.19019,0.0172 11.9715,0.0179 23.94261,0.0145 35.91409,-0.016 8.20448,-0.019 16.40868,-0.0125 24.61314,0.0141 4.73619,0.0146 9.47168,0.0178 14.20784,-0.01 4.3357,-0.0247 8.67011,-0.0173 13.00575,0.0158 1.56872,0.006 3.13755,7e-4 4.70617,-0.0179 11.7277,-0.12947 11.7277,-0.12947 15.81511,2.44508 1.75675,1.72991 3.16006,3.42469 4.54773,5.45538 0.61489,0.67547 1.22977,1.35094 1.86328,2.04688 0.47825,0.56203 0.95649,1.12406 1.44922,1.70312 3.81592,4.43448 7.77874,8.72889 11.7461,13.02734 1.9414,2.22266 1.9414,2.22266 1.9414,3.22266 -0.74084,0.002 -1.48167,0.005 -2.24496,0.007 -18.03653,0.0592 -36.07292,0.13473 -54.10931,0.22848 -8.72231,0.0449 -17.44458,0.0844 -26.16697,0.11072 -7.60353,0.023 -15.20693,0.0564 -22.81036,0.10226 -4.02498,0.0239 -8.04983,0.0427 -12.07488,0.0489 -3.79133,0.006 -7.58234,0.0261 -11.37355,0.0567 -1.38868,0.009 -2.77739,0.0125 -4.16609,0.0107 -11.96839,-0.0917 -11.96839,-0.0917 -21.80388,6.05999 -1.11375,1.17563 -1.11375,1.17563 -2.25,2.375 -3.16717,1.05572 -5.44182,1.13938 -8.76904,1.16113 -1.18488,0.01 -2.36976,0.0192 -3.59055,0.0291 -1.28125,0.004 -2.56251,0.008 -3.88259,0.0129 -1.31566,0.006 -2.63132,0.0114 -3.98685,0.0173 -2.7858,0.0105 -5.57157,0.0163 -8.35739,0.0198 -3.56326,0.005 -7.12613,0.0295 -10.68927,0.058 -3.40549,0.0231 -6.81093,0.0251 -10.21649,0.0299 -1.27721,0.0123 -2.55442,0.0247 -3.87033,0.0374 -1.19119,-0.003 -2.38237,-0.006 -3.60965,-0.009 -1.04575,0.004 -2.09149,0.007 -3.16892,0.011 -4.53831,-0.58336 -7.60849,-2.98409 -10.92142,-5.99249 -4.82883,-3.90417 -9.31194,-3.52267 -15.3395,-3.51976 -0.85547,-0.004 -1.71094,-0.007 -2.59233,-0.0107 -2.8712,-0.0107 -5.74236,-0.0144 -8.61358,-0.0181 -2.05643,-0.006 -4.11286,-0.0131 -6.16929,-0.0203 -4.43018,-0.0147 -8.86035,-0.0264 -13.29053,-0.0359 -6.99913,-0.0154 -13.99821,-0.0394 -20.9973,-0.0649 -19.9031,-0.0713 -39.80622,-0.13108 -59.709381,-0.18212 -10.990766,-0.0283 -21.981486,-0.0636 -32.972203,-0.10665 -6.964064,-0.0268 -13.928076,-0.0447 -20.892181,-0.056 -4.323453,-0.009 -8.646843,-0.0264 -12.970259,-0.0462 -2.011625,-0.007 -4.023266,-0.0115 -6.034904,-0.012 -2.736126,-0.001 -5.471928,-0.0143 -8.207998,-0.0306 -0.8046543,0.003 -1.6093083,0.005 -2.4383458,0.008 -5.4814804,-0.0514 -5.4814804,-0.0514 -7.7096952,-2.27967 -0.2506983,-2.20818 -0.2506983,-2.20818 -0.2516823,-5.01942 -0.00522,-1.06867 -0.010431,-2.13734 -0.015804,-3.23839 0.00446,-1.18344 0.00892,-2.36688 0.01352,-3.58618 -0.00312,-1.24987 -0.00624,-2.49973 -0.00945,-3.78747 -0.00838,-3.48054 -0.00421,-6.96097 0.00197,-10.44151 0.00451,-3.74919 -0.00245,-7.49837 -0.00796,-11.24756 -0.00891,-7.34912 -0.00696,-14.69821 -0.00117,-22.04733 0.00451,-5.97058 0.00513,-11.94114 0.00295,-17.91171 -3.065e-4,-0.84841 -6.13e-4,-1.69682 -9.287e-4,-2.57095 -6.395e-4,-1.7233 -0.00129,-3.44661 -0.00195,-5.16992 -0.00571,-16.17533 8.632e-4,-32.35065 0.011601,-48.52598 0.00894,-13.89176 0.00738,-27.78349 -0.00184,-41.67526 -0.010693,-16.1158 -0.014923,-32.23159 -0.00878,-48.3474 6.372e-4,-1.71711 0.00127,-3.43423 0.00189,-5.15135 3.085e-4,-0.84494 6.171e-4,-1.68989 9.35e-4,-2.56044 0.00173,-5.96629 -0.00119,-11.93256 -0.00589,-17.89885 -0.0056,-7.26677 -0.00412,-14.53349 0.00656,-21.80026 0.00527,-3.71057 0.00729,-7.42107 7.017e-4,-11.13165 -0.00702,-4.01485 0.00134,-8.02953 0.01136,-12.04437 -0.00446,-1.18344 -0.00892,-2.36689 -0.01352,-3.58619 0.00522,-1.06867 0.010431,-2.13733 0.015804,-3.23838 3.247e-4,-0.92772 6.494e-4,-1.85543 9.84e-4,-2.81125 0.3944693,-3.47462 1.5591362,-4.14891 4.9561127,-4.43398 z"
     fill="#fb4e51"
     id="path5" />
  <path
     d="m 392,44 c 26.52764,0 26.52764,0 35.875,1.375 1.44826,0.189492 1.44826,0.189492 2.92578,0.382812 C 433.54255,46.12983 436.27011,46.549614 439,47 c 0.85368,0.134385 1.70736,0.268769 2.58691,0.407227 0.7989,0.14663 1.5978,0.293261 2.4209,0.444335 0.70013,0.124556 1.40025,0.249112 2.12158,0.377442 2.59607,1.070004 3.40769,2.388878 4.87061,4.770996 0.37835,2.523654 0.37835,2.523654 0.38311,5.428931 0.009,1.109117 0.0181,2.218234 0.0274,3.360961 -0.005,1.218369 -0.0106,2.436737 -0.0161,3.692026 0.006,1.294376 0.0122,2.588752 0.0185,3.922352 0.0164,3.595673 0.0141,7.191127 0.009,10.786825 -0.003,3.876708 0.0118,7.753357 0.0241,11.630041 0.0211,7.595845 0.0256,15.191614 0.0238,22.787484 -10e-4,6.17264 0.002,12.34526 0.01,18.51789 0.002,1.77665 0.004,3.55329 0.006,5.32994 10e-4,0.88423 0.002,1.76845 0.003,2.67948 0.0189,16.73006 0.0178,33.46008 0.011,50.19016 -0.006,15.3124 0.0152,30.62464 0.0484,45.937 0.0337,15.71525 0.0489,31.43042 0.0443,47.1457 -0.002,8.82597 0.003,17.65178 0.0279,26.47771 0.021,7.51337 0.0246,15.02649 0.006,22.53987 -0.009,3.83464 -0.0102,7.66883 0.0104,11.50343 0.0221,4.15412 0.006,8.30717 -0.0149,12.4613 0.0125,1.21614 0.025,2.43227 0.0379,3.68526 -0.0963,9.06944 -0.0963,9.06944 -3.00927,12.19046 -3.37843,2.20949 -5.04437,2.14856 -9.02512,1.67068 -1.22332,-0.13793 -2.44664,-0.27586 -3.70703,-0.41797 -1.9394,-0.25717 -1.9394,-0.25717 -3.91797,-0.51953 -1.35773,-0.14513 -2.71582,-0.28705 -4.07422,-0.42578 -9.7673,-1.08486 -14.59995,-2.73828 -21.23828,-10.26172 -0.68159,-0.76667 -0.68159,-0.76667 -1.37695,-1.54883 C 404.20123,360.51424 403.09979,359.25782 402,358 c 1.27649,-3.58041 2.74536,-6.16211 5.1875,-9.0625 16.30423,-20.65877 21.59653,-45.49895 19.53516,-71.42578 -1.85236,-15.57741 -7.12297,-30.75768 -15.9375,-43.78516 C 409,231 409,231 409,229 c 1.19238,-0.0374 2.38477,-0.0748 3.61328,-0.11328 1.56644,-0.0657 3.13284,-0.13211 4.69922,-0.19922 0.78568,-0.0226 1.57137,-0.0451 2.38086,-0.0684 0.75732,-0.0354 1.51465,-0.0709 2.29492,-0.10742 0.6965,-0.0262 1.39299,-0.0524 2.1106,-0.0794 2.47069,-0.56182 3.38245,-1.42568 4.90112,-3.43228 0.58333,-3.5 0.58333,-3.5 0,-7 -3.24791,-3.39262 -6.65165,-3.62456 -11.1875,-4.125 -1.25168,-0.14695 -2.50336,-0.29391 -3.79297,-0.44531 C 406.69103,212.80235 399.34261,212.43192 392,212 c 0,-16.83 0,-33.66 0,-51 -34.20048,2.19018 -66.05443,6.28824 -96.77466,22.37256 -6.49438,3.39135 -6.49438,3.39135 -9.22534,3.62744 -2.82364,-2.82364 -2.41666,-5.62931 -2.51172,-9.42188 -0.0185,-0.7376 -0.037,-1.47521 -0.0561,-2.23516 -0.0321,-1.56343 -0.0577,-3.12699 -0.0774,-4.69062 -0.028,-1.59487 -0.0757,-3.18952 -0.14356,-4.7832 -0.5567,-13.12123 -0.5567,-13.12123 2.52686,-17.12695 2.35568,-1.61398 4.61272,-2.68545 7.26196,-3.74219 1.471,-0.77453 2.93856,-1.55565 4.40234,-2.34375 1.50647,-0.7297 3.01841,-1.44819 4.53516,-2.15625 0.82137,-0.38382 1.64275,-0.76764 2.48901,-1.16309 19.18723,-8.76605 39.6312,-13.54913 60.51099,-16.14941 1.47159,-0.18599 1.47159,-0.18599 2.9729,-0.37573 C 376.07296,121.88864 383.6436,122 392,122 c 0,-25.74 0,-51.48 0,-78 z"
     fill="#ddd1c3"
     id="path6" />
  <path
     d="M 375.35937,232.80078 C 390.11205,245.0862 399.17701,262.9782 401,282 c 1.25912,20.99229 -4.55845,40.58425 -18.60938,56.54687 -13.30466,13.6525 -30.77325,22.57041 -49.98437,23.65625 -21.31862,0.25583 -40.42183,-6.2307 -56.21485,-20.92187 C 265.4125,330.06044 259.0244,317.18974 255.99999,302 c -0.34031,-1.70156 -0.34031,-1.70156 -0.6875,-3.4375 -1.94973,-22.22695 4.05086,-42.04013 18.375,-59.1875 27.26576,-29.19469 70.62444,-30.27103 101.67188,-6.57422 z"
     fill="#e9e9e8"
     id="path7" />
  <path
     d="m 392,44 c 0,25.74 0,51.48 0,78 -12.87,0.99 -12.87,0.99 -26,2 -15.50779,2.20415 -30.1404,5.16213 -45,10 -0.7106,0.22913 -1.42119,0.45826 -2.15332,0.69434 C 300.59406,140.60019 300.59406,140.60019 285,151 c -0.0885,2.52094 -0.11527,5.01431 -0.0977,7.53516 0.002,1.12987 0.002,1.12987 0.004,2.28257 0.006,2.41497 0.0182,4.82984 0.0309,7.24477 0.005,1.63346 0.01,3.26693 0.0137,4.90039 0.011,4.01241 0.0283,8.02474 0.0488,12.03711 3.08223,1.40096 3.08223,1.40096 6.26562,-0.44141 1.33195,-0.69979 2.65984,-1.40737 3.98438,-2.12109 21.29663,-11.01368 44.18779,-17.86942 68,-20.625 0.68908,-0.0841 1.37817,-0.16822 2.08813,-0.25488 C 374.26474,160.63283 382.91973,161 392,161 c 0,16.83 0,33.66 0,51 -11,-7 -11,-7 -15.8125,-10.125 C 355.65956,189.65599 330.05611,187.27054 307,192 c -1.00547,0.20625 -2.01094,0.4125 -3.04688,0.625 -17.17457,3.91545 -32.58073,12.55156 -45.23046,24.75781 C 257,219 257,219 256,219 c -0.25735,-16.92454 -0.45112,-33.84847 -0.56993,-50.77453 -0.0566,-7.85976 -0.13382,-15.7183 -0.2599,-23.57728 -0.1099,-6.8527 -0.18067,-13.70452 -0.20514,-20.55808 -0.0143,-3.62707 -0.0477,-7.25162 -0.12806,-10.87787 -0.0891,-4.05616 -0.0908,-8.10798 -0.0858,-12.16512 -0.0395,-1.19259 -0.0791,-2.385179 -0.11984,-3.613908 0.0693,-5.111932 0.28449,-8.194823 3.7269,-12.127062 2.78746,-2.320794 5.58782,-4.352579 8.64172,-6.30615 0.8869,-0.576895 1.77379,-1.153791 2.68757,-1.748168 2.37623,-1.501878 4.79187,-2.888278 7.24993,-4.251832 0.90404,-0.505635 1.80807,-1.01127 2.7395,-1.532227 C 314.97112,52.032837 351.87024,44 392,44 Z"
     fill="#f2e7d6"
     id="path8" />
  <path
     d="m 197,56 c 16.52049,5.900174 16.52049,5.900174 24.5,9.75 0.89437,0.429741 1.78873,0.859482 2.7102,1.302246 6.95353,3.407059 13.74974,7.073154 20.00724,11.6629 1.37824,0.993427 2.80462,1.92027 4.24747,2.817289 6.96103,4.745173 6.96103,4.745173 8.47031,9.273544 0.35858,3.382821 0.4053,6.643433 0.34286,10.044851 0.0159,1.27097 0.0318,2.54194 0.0482,3.85143 0.0411,3.46812 0.0196,6.9332 -0.016,10.40128 -0.0292,3.64374 -0.008,7.28727 0.005,10.93105 0.0136,6.12087 -0.0141,12.24052 -0.066,18.36116 -0.0592,7.05239 -0.0505,14.10225 -0.006,21.15469 0.0415,6.8101 0.0318,13.61927 1.5e-4,20.42939 -0.0124,2.88558 -0.007,5.77027 0.0139,8.6558 0.0265,4.04324 -0.0217,8.0824 -0.0768,12.12536 0.0167,1.18218 0.0333,2.36436 0.0505,3.58236 C 257.00367,219.78081 253.27896,224.26642 247,231 c -1.65605,2.41687 -2.98207,4.84852 -4.375,7.4375 -2.02238,3.72434 -3.97224,7.25061 -6.625,10.5625 -0.36609,-1.0725 -0.73219,-2.145 -1.10938,-3.25 -1.79032,-4.1482 -4.12864,-5.62493 -8.14062,-7.75 -0.61118,-0.32831 -1.22235,-0.65662 -1.85205,-0.99487 C 215.52162,232.04294 205.93559,227.72585 196,224 c 0,-16.5 0,-33 0,-50 -28.03586,-8.41076 -52.6884,-12.54273 -81.75,-12.0625 -3.32675,0.0479 -6.65333,0.0911 -9.98029,0.12221 -2.04565,0.0197 -4.09125,0.0493 -6.136592,0.0899 -0.909857,0.01 -1.819718,0.0197 -2.757138,0.0298 -0.79969,0.0135 -1.59937,0.027 -2.42328,0.0409 C 91,162 91,162 89,160 c -0.23628,-2.54527 -0.35221,-4.97848 -0.37109,-7.52734 -0.0136,-1.11709 -0.0136,-1.11709 -0.0274,-2.25673 -0.0145,-1.57609 -0.0234,-3.15223 -0.0271,-4.72838 -0.0119,-2.4129 -0.0611,-4.82324 -0.11157,-7.2356 -0.009,-1.53058 -0.0167,-3.06119 -0.0215,-4.59179 -0.0195,-0.72195 -0.0391,-1.44391 -0.0592,-2.18773 0.0184,-2.0425 0.0184,-2.0425 0.61778,-5.47243 3.14148,-2.74313 5.9762,-3.40515 10.070313,-3.67188 1.446807,-0.0957 1.446807,-0.0957 2.922847,-0.19335 C 134.87116,120.66118 165.87571,124.62524 197,135 c 0,-26.07 0,-52.14 0,-79 z"
     fill="#dcd1c2"
     id="path9" />
  <path
     d="m 484,132 c 4.29161,-0.0578 8.58312,-0.0935 12.875,-0.125 1.22332,-0.0168 2.44664,-0.0335 3.70703,-0.0508 1.1666,-0.006 2.3332,-0.0129 3.53516,-0.0195 1.07878,-0.0105 2.15757,-0.0209 3.26904,-0.0317 C 510,132 510,132 512,134 c 0.2507,2.20818 0.2507,2.20818 0.25168,5.01942 0.005,1.06867 0.0104,2.13734 0.0158,3.23839 -0.007,1.77516 -0.007,1.77516 -0.0135,3.58618 0.003,1.24987 0.006,2.49973 0.01,3.78747 0.008,3.48054 0.004,6.96097 -0.002,10.44151 -0.005,3.74919 0.002,7.49837 0.008,11.24756 0.009,7.34912 0.007,14.69821 10e-4,22.04733 -0.005,5.97058 -0.005,11.94114 -0.003,17.91171 3.1e-4,0.84841 6.1e-4,1.69683 9.3e-4,2.57095 6.4e-4,1.7233 10e-4,3.44661 0.002,5.16992 0.006,16.17533 -8.6e-4,32.35065 -0.0116,48.52598 -0.009,13.89176 -0.007,27.7835 0.002,41.67526 0.0107,16.11581 0.0149,32.23159 0.009,48.3474 -6.4e-4,1.71712 -10e-4,3.43423 -0.002,5.15135 -3.1e-4,0.84494 -6.2e-4,1.68989 -9.4e-4,2.56044 -0.002,5.96629 10e-4,11.93256 0.006,17.89885 0.006,7.26677 0.004,14.53349 -0.007,21.80026 -0.005,3.71057 -0.007,7.42108 -7.1e-4,11.13165 0.007,4.01485 -10e-4,8.02953 -0.0114,12.04438 0.005,1.18344 0.009,2.36688 0.0135,3.58618 -0.008,1.603 -0.008,1.603 -0.0158,3.23839 -3.2e-4,0.92771 -6.5e-4,1.85542 -9.8e-4,2.81124 C 512,440 512,440 510,442 c -7.28996,1.20106 -14.92062,2.129 -21.21484,-2.22266 -2.32013,-2.58587 -4.40494,-5.18035 -6.43164,-7.99267 -2.41693,-3.18682 -5.22233,-6.01751 -7.97852,-8.90967 -5.21384,-5.55269 -5.21384,-5.55269 -6.375,-7.875 0.75926,-0.0374 1.51852,-0.0748 2.30078,-0.11328 0.99387,-0.0657 1.98774,-0.13149 3.01172,-0.19922 0.98613,-0.058 1.97227,-0.11602 2.98828,-0.17578 2.98053,-0.56505 3.88956,-1.13983 5.69922,-3.51172 1.20004,-2.40009 1.13019,-3.89137 1.13867,-6.57211 0.005,-0.96888 0.0109,-1.93776 0.0166,-2.93601 9.8e-4,-1.07196 0.002,-2.14393 0.003,-3.24838 0.005,-1.13285 0.01,-2.26571 0.015,-3.43289 0.0154,-3.8218 0.0238,-7.64358 0.0321,-11.4654 0.009,-2.72932 0.0195,-5.45865 0.03,-8.18797 0.0218,-5.88932 0.0399,-11.77863 0.0556,-17.66797 0.0227,-8.51506 0.0508,-17.0301 0.0803,-25.54514 0.0477,-13.81405 0.091,-27.62811 0.13144,-41.44218 0.0393,-13.42155 0.0808,-26.8431 0.125,-40.26465 0.003,-0.82687 0.005,-1.65374 0.008,-2.50567 0.0137,-4.14805 0.0274,-8.29609 0.0411,-12.44414 C 483.79108,200.85835 483.89788,166.42918 484,132 Z"
     fill="#e93942"
     id="path10" />
  <path
     d="m 380,203 c 1.57078,1.42845 3.13344,2.86588 4.6875,4.3125 7.58248,5.91776 17.6967,4.99329 26.91406,5.33594 13.12777,0.55327 13.12777,0.55327 17.11182,3.70849 C 430,218 430,218 430.4375,221.4375 430,225 430,225 428.51953,227.20703 c -3.68964,2.62565 -6.86238,2.233 -11.26953,2.04297 -0.79277,-0.018 -1.58555,-0.0361 -2.40234,-0.0547 C 412.89792,229.1483 410.9488,229.07659 409,229 c 0.65227,1.02996 1.30453,2.05992 1.97656,3.12109 C 418.64205,244.5056 424.75154,257.458 427,272 c 0.10957,0.66258 0.21914,1.32516 0.33203,2.00781 3.77925,27.31135 -3.04963,53.9991 -19.55859,75.95313 C 403.20816,355.68715 398.28798,360.94028 393,366 c -0.66,0.66 -1.32,1.32 -2,2 0.33,0.66 0.66,1.32 1,2 -1.485,0.34031 -1.485,0.34031 -3,0.6875 -3.94045,1.09145 -6.96819,3.06241 -10.30078,5.38672 -0.56074,0.30551 -1.12149,0.61101 -1.69922,0.92578 -0.66,-0.33 -1.32,-0.66 -2,-1 0.38672,-0.89719 0.77344,-1.79438 1.17187,-2.71875 4.64334,-11.02063 8.80549,-22.32982 9.07813,-34.40625 0.3434,-6.48937 3.43924,-11.11613 6.74609,-16.48437 2.7279,-4.61562 4.47664,-9.27025 6.00391,-14.39063 0.2243,-0.68707 0.44859,-1.37414 0.67969,-2.08203 5.14773,-18.44017 0.0143,-39.02853 -9.05469,-55.23047 C 378.94652,233.27793 362.56872,223.03658 343,218 c -3.3209,-0.57802 -6.63628,-0.80159 -10,-1 -1.05316,-0.0657 -2.10633,-0.13148 -3.19141,-0.19922 C 313.00394,216.24636 297.88656,221.74229 284,231 c -2.21873,0.36259 -4.45143,0.64212 -6.6875,0.875 -11.15861,1.31632 -22.10338,3.78529 -32.39453,8.39062 C 243,241 243,241 240,241 255.43169,215.24241 277.03558,198.39631 306.22656,190.87891 331.18164,185.06639 358.12317,190.02808 380,203 Z"
     fill="#c4c6c6"
     id="path11" />
  <path
     d="m 197,324 c 13.53563,5.63985 13.53563,5.63985 19.0625,8.6875 1.06348,0.58137 2.12695,1.16273 3.22266,1.76172 1.94738,1.11239 3.8488,2.30675 5.71484,3.55078 3.63127,0.46357 5.31968,0.49645 8.3125,-1.6875 1.83052,-2.50848 2.34759,-4.25333 2.6875,-7.3125 2.31185,2.91701 4.05105,5.88028 5.75,9.1875 3.2689,6.09056 7.10716,12.04584 12.33252,16.64575 3.05506,5.04548 2.40763,10.12455 2.3081,15.90503 -0.006,1.2359 -0.0113,2.47181 -0.0172,3.74516 -0.0186,3.27348 -0.0545,6.54615 -0.0988,9.81935 -0.041,3.34496 -0.0589,6.68995 -0.0793,10.0351 -0.0441,6.55435 -0.111,13.10816 -0.19531,19.66211 1.56174,-1.08885 1.56174,-1.08885 3.15503,-2.19971 7.41132,-5.14589 14.79753,-10.2292 22.65747,-14.67529 0.79841,-0.45415 1.59683,-0.90831 2.41943,-1.37622 10.94598,-6.1642 18.37726,-9.78703 30.9712,-8.24097 C 339.79756,390.24838 364.35163,384.89643 385,371 c 0.33,-0.33 0.66,-0.66 1,-1 3.08984,-0.53516 3.08984,-0.53516 7,0 2.92599,2.1613 5.19656,4.81394 7.5625,7.5625 0.63357,0.70447 1.26715,1.40895 1.91992,2.13477 1.86284,2.08154 3.69515,4.18577 5.51758,6.30273 0.5941,0.68949 1.18819,1.37897 1.80029,2.08935 1.40338,1.63391 2.80208,3.27183 4.19971,4.91065 -0.32162,0.60046 -0.64324,1.20092 -0.97461,1.81958 -1.40662,2.99109 -1.45323,4.90168 -1.02539,8.18042 1.92845,3.04336 1.92845,3.04336 4.5,5.8125 4.5,5.14583 4.5,5.14583 4.5,6.1875 -21.43625,0.21059 -42.87232,0.36912 -64.30939,0.46631 -9.95451,0.0463 -19.90838,0.10946 -29.86249,0.21264 -8.67986,0.0899 -17.35927,0.14783 -26.03959,0.16785 -4.593,0.0117 -9.18467,0.039 -13.77725,0.10477 -4.33094,0.0615 -8.66001,0.0799 -12.99135,0.0664 -1.58182,0.002 -3.16371,0.0201 -4.74515,0.0549 C 257.6344,416.31596 251.65141,413.71342 243,406 c -2.92402,-1.97662 -5.93291,-3.75534 -9,-5.5 -0.79253,-0.45504 -1.58506,-0.91008 -2.40161,-1.37891 C 220.19511,392.7064 208.2365,387.58869 196,383 c 0.33,-19.47 0.66,-38.94 1,-59 z"
     fill="#cdbca7"
     id="path12" />
  <path
     d="m 178,129 c 0.67772,0.1882 1.35545,0.37641 2.05371,0.57031 C 217.34492,140.15939 217.34492,140.15939 228,151 c 0.4478,2.82045 0.5884,5.02277 0.48828,7.82812 -0.0106,1.12351 -0.0106,1.12351 -0.0214,2.26972 -0.0279,2.38508 -0.0906,4.76779 -0.15434,7.15216 -0.0251,1.61976 -0.0479,3.23955 -0.0684,4.85937 -0.055,3.96446 -0.14129,7.92714 -0.24414,11.89063 -1.70728,1.1228 -1.70728,1.1228 -4,2 -2.23218,-0.67163 -2.23218,-0.67163 -4.68359,-1.96484 -0.91749,-0.46729 -1.83498,-0.93457 -2.78028,-1.41602 -0.9813,-0.51369 -1.9626,-1.02738 -2.97363,-1.55664 C 202.66037,176.59242 191.69731,172.41626 180,169 c -0.86673,-0.25564 -1.73347,-0.51127 -2.62646,-0.77466 -23.12832,-6.58707 -46.40151,-6.61641 -70.24317,-6.25342 -1.05062,0.0134 -2.10124,0.0268 -3.1837,0.0406 -1.99687,0.0276 -3.993643,0.0645 -5.990142,0.11197 -0.88824,0.0129 -1.776479,0.0258 -2.691635,0.0391 -1.167853,0.0248 -1.167853,0.0248 -2.359299,0.05 C 91,162 91,162 89,160 c -0.236283,-2.54527 -0.352214,-4.97848 -0.371094,-7.52734 -0.01354,-1.11709 -0.01354,-1.11709 -0.02736,-2.25673 -0.01452,-1.57609 -0.02339,-3.15223 -0.02708,-4.72838 -0.0119,-2.4129 -0.06107,-4.82324 -0.111572,-7.2356 -0.0095,-1.53058 -0.0167,-3.06119 -0.02148,-4.59179 -0.01953,-0.72195 -0.03906,-1.4439 -0.05919,-2.18773 0.01841,-2.0425 0.01841,-2.0425 0.617776,-5.47243 3.141479,-2.74313 5.976199,-3.40515 10.070313,-3.67187 0.964537,-0.0638 1.929077,-0.12762 2.922847,-0.19336 C 127.38129,120.99688 153.406,122.1489 178,129 Z"
     fill="#a0e458"
     id="path13" />
  <path
     d="m 423,126 c 0.46982,2.7617 0.60994,4.90528 0.52344,7.66016 -0.005,0.74567 -0.009,1.49135 -0.0143,2.25962 -0.0213,2.38185 -0.078,4.76147 -0.13419,7.14272 -0.0165,1.6074 -0.0308,3.21483 -0.043,4.82227 -0.1355,11.72217 -0.1355,11.72217 -1.33203,14.11523 -0.57168,-0.004 -1.14337,-0.009 -1.73238,-0.0135 -6.05296,-0.0449 -12.10588,-0.0747 -18.15898,-0.0964 -2.24676,-0.01 -4.49351,-0.0235 -6.74023,-0.041 -17.76155,-0.13483 -35.22323,0.3587 -52.61841,4.27588 -0.9469,0.211 -1.89379,0.42201 -2.86938,0.6394 -15.57566,3.64138 -30.51155,8.99925 -44.60328,16.57154 -3.0537,1.55051 -6.00384,2.67752 -9.27734,3.66406 -2.82364,-2.82364 -2.41666,-5.62931 -2.51172,-9.42188 -0.0185,-0.7376 -0.037,-1.47521 -0.0561,-2.23516 -0.0321,-1.56343 -0.0577,-3.12699 -0.0774,-4.69062 -0.028,-1.59487 -0.0757,-3.18952 -0.14356,-4.7832 -0.5567,-13.12123 -0.5567,-13.12123 2.52686,-17.12695 2.35568,-1.61398 4.61272,-2.68546 7.26196,-3.74219 1.471,-0.77454 2.93856,-1.55565 4.40234,-2.34375 1.50647,-0.72971 3.01841,-1.44819 4.53516,-2.15625 0.82137,-0.38382 1.64275,-0.76764 2.48901,-1.16309 C 328.98082,128.1188 399.86837,105.86137 423,126 Z"
     fill="#a0e557"
     id="path14" />
  <path
     d="m 401,357 c 4.44417,3.62789 8.30987,7.33281 12.02344,11.69922 2.41864,2.81538 4.91214,5.55966 7.41406,8.30078 l 2.62109,2.875 L 425,382 l 2.34375,-0.97656 c 2.90487,-1.11923 4.58,-1.48488 7.65625,-1.02344 3.30831,2.08946 5.68592,4.73743 8.21484,7.67578 3.56282,4.09715 7.24363,8.06609 10.97266,12.01172 1.32592,1.40848 2.65144,2.81733 3.97656,4.22656 l 1.96973,2.09473 c 3.14037,3.35071 6.25058,6.72893 9.35913,10.10913 2.72682,2.96214 5.46693,5.91095 8.22192,8.84692 l 1.90796,2.03492 c 1.21801,1.29784 2.43749,2.59431 3.65869,3.88916 3.06405,3.26621 5.93744,6.59646 8.71851,10.11108 l 1.75,1.4375 C 495,444 495,444 495.5625,446.75 494.26367,454.25434 486.64078,459.41262 481,464 l -1.63281,1.36328 c -2.44593,1.86326 -4.01832,2.63622 -7.11328,2.64063 -4.58256,-1.41383 -6.96041,-4.12633 -10.19141,-7.56641 l -1.88013,-1.94507 C 455.9778,454.11624 451.88304,449.6648 448,445 c -5.52372,-6.62625 -10.98531,-13.16867 -17.17969,-19.1875 -2.42947,-2.41904 -4.65002,-4.99009 -6.88281,-7.58984 -3.22577,-3.70053 -6.57096,-7.29339 -9.89844,-10.90235 C 410.90131,403.74977 410.71703,401.71619 411,397 c 0.62393,-1.35386 1.28399,-2.6925 2,-4 -7.64555,-8.35291 -15.31437,-16.68396 -23,-25 z"
     fill="#917267"
     id="path15"
     sodipodi:nodetypes="cccccccccsccccccccccccccccccccc" />
  <path
     d="m 197,324 c 13.53563,5.63985 13.53563,5.63985 19.0625,8.6875 1.06348,0.58137 2.12695,1.16273 3.22266,1.76172 1.94738,1.11239 3.8488,2.30675 5.71484,3.55078 3.63127,0.46357 5.31968,0.49645 8.3125,-1.6875 1.83052,-2.50848 2.34759,-4.25333 2.6875,-7.3125 2.31185,2.91701 4.05105,5.88028 5.75,9.1875 3.38554,6.30788 7.49698,11.80172 12.32281,17.07939 2.23092,3.16385 2.43916,4.70814 2.47309,8.53316 0.0197,1.1408 0.0394,2.28161 0.0598,3.45698 10e-4,1.221 0.002,2.442 0.004,3.7 0.0165,1.2581 0.0331,2.5162 0.0501,3.81242 0.0403,3.33251 0.0636,6.66425 0.0787,9.99691 0.0196,3.40551 0.0616,6.81074 0.10162,10.21606 0.074,6.67246 0.12558,13.34481 0.16018,20.01758 -3.1491,-1.51877 -5.98441,-3.29485 -8.86963,-5.27368 C 231.69046,398.4583 214.4778,390.39112 196,383 c 0.33,-19.47 0.66,-38.94 1,-59 z"
     fill="#dcd0c2"
     id="path16" />
  <path
     d="m 280.69722,426.57867 1.96382,-0.027 c 2.15779,-0.0259 4.31507,-0.0306 6.47299,-0.0351 1.55278,-0.0139 3.10554,-0.029 4.6583,-0.0451 4.20879,-0.0392 8.41743,-0.0587 12.62638,-0.072 2.63237,-0.009 5.2647,-0.0211 7.89705,-0.0345 8.2445,-0.041 16.48891,-0.07 24.73351,-0.0816 9.50218,-0.0134 19.00308,-0.0661 28.50487,-0.153 7.35564,-0.0649 14.71092,-0.0951 22.06685,-0.0991 4.38873,-0.003 8.77625,-0.0207 13.16468,-0.0745 4.13008,-0.0496 8.25802,-0.0559 12.38829,-0.0296 1.51048,0.002 3.02107,-0.0106 4.53125,-0.0404 3.03002,-0.0562 9.27861,-0.38256 12.10324,0.89629 0.85778,0.38836 1.10731,1.09803 1.71754,1.73576 1.22997,1.28539 2.55771,2.74407 3.71123,3.94939 1.9326,2.01939 3.75824,3.82597 5.24984,5.31758 2.23552,2.23551 2.8708,3.29826 3.51294,4.21421 0.81488,1.16236 -0.0422,0.4482 -2.49106,0.74552 -3.75275,0.45564 -46.57999,-0.49188 -53.86321,-0.50985 -8.72231,0.0449 -17.44458,0.0844 -26.16697,0.11072 -7.60353,0.023 -15.20693,0.0564 -22.81036,0.10227 -4.02498,0.0239 -8.04983,0.0426 -12.07488,0.0489 -3.79134,0.006 -7.58234,0.0261 -11.37356,0.0567 -1.38867,0.009 -2.77739,0.0125 -4.16609,0.0107 -11.96838,-0.0917 -11.96838,-0.0917 -21.80387,6.05999 l -2.25,2.375 c -3.47783,1.15928 -6.18803,1.11313 -9.85547,1.09766 l -2.00496,-0.004 c -2.10907,-0.006 -4.21803,-0.0181 -6.32707,-0.0309 -1.43164,-0.005 -2.86328,-0.01 -4.29492,-0.0137 -3.5059,-0.011 -7.01173,-0.0283 -10.51758,-0.0488 0.65501,-8.40132 2.44766,-14.09119 8.9375,-19.8125 5.27458,-3.7675 9.23279,-5.55835 15.75972,-5.60877 z"
     fill="#ea3942"
     id="path17"
     sodipodi:nodetypes="ccccccscccccsssssscsccccccccccccc" />
  <path
     d="m 114.75854,294.79419 c 2.1737,0.0183 4.34698,0.0205 6.52075,0.0203 12.41384,0.0302 24.82998,0.4457 37.09571,2.49805 0.79688,0.13189 1.59376,0.26377 2.41479,0.39966 24.57031,4.19445 53.9214,11.6159 73.21021,28.28784 2.18038,3.27057 2.63246,4.20519 2,8 -2.125,2.8125 -2.125,2.8125 -5,5 -5.20668,0.67277 -8.00663,-0.82838 -12.375,-3.5625 C 184.72666,315.00286 147.75335,311.389 109.01904,312.137 c -3.71726,0.066 -7.43424,0.10812 -11.151857,0.1482 -1.135272,0.0301 -2.270543,0.0601 -3.440216,0.0911 -1.049851,0.01 -2.099702,0.02 -3.181366,0.0303 -0.919595,0.0179 -1.839191,0.0359 -2.786652,0.0543 -3.271713,-0.61315 -4.441316,-1.86287 -6.458954,-4.46083 -0.5,-3.5 -0.5,-3.5 0,-7 2.116086,-2.75579 3.498516,-3.85583 6.857666,-4.82154 8.672612,-1.08416 17.168049,-1.45977 25.900879,-1.38428 z"
     fill="#89a5f3"
     id="path18" />
  <path
     d="m 107.99219,211.79687 c 1.02602,-0.006 2.05205,-0.0114 3.10916,-0.0173 2.16315,-0.009 4.32631,-0.016 6.48947,-0.0198 3.24083,-0.01 6.481,-0.0407 9.72168,-0.0723 33.56116,-0.17045 82.29119,6.75805 107.6875,31.3125 0.85784,3.07437 0.63168,5.88295 0,9 -1.625,2.0625 -1.625,2.0625 -4,3 -5.46353,0.63437 -8.81409,-1.26975 -13.3125,-4.0625 C 199.14924,240.02897 178.18629,233.44014 157,230 c -0.97888,-0.16398 -1.95776,-0.32796 -2.96631,-0.49691 -8.32296,-1.30647 -16.31539,-1.73582 -24.729,-1.59294 -2.53385,0.0204 -5.06771,0.0406 -7.60156,0.0606 -3.93921,0.0437 -7.87829,0.0925 -11.81739,0.14575 -3.83951,0.0481 -7.67885,0.0781 -11.51855,0.1062 -1.773362,0.0326 -1.773362,0.0326 -3.58255,0.0659 -1.64354,0.01 -1.64354,0.01 -3.320282,0.0203 -0.96149,0.0127 -1.922979,0.0254 -2.913605,0.0385 -3.054294,-0.41586 -4.399426,-1.15386 -6.55075,-3.3473 -0.453518,-3.17463 -0.674244,-4.98717 0,-8 2.09545,-2.72409 3.701583,-3.77549 7.106231,-4.3642 6.303507,-0.57933 12.557036,-0.81084 18.885956,-0.83893 z"
     fill="#88a4f3"
     id="path19" />
  <path
     d="m 168,256 c 0.95616,0.19255 1.91232,0.38511 2.89746,0.5835 18.8274,3.86824 36.05287,10.57485 53.10254,19.4165 0.83531,0.40477 1.67062,0.80953 2.53125,1.22656 2.5306,3.05557 1.88147,6.64643 1.71875,10.46094 -0.018,0.79728 -0.0361,1.59457 -0.0547,2.41602 -0.0471,1.966 -0.11883,3.93139 -0.19531,5.89648 -3.44881,-0.77638 -5.71273,-2.00139 -8.6875,-3.9375 C 199.31763,280.19284 175.87074,273.53492 153,270 c -1.29035,-0.20625 -2.5807,-0.4125 -3.91016,-0.625 -10.04521,-1.43194 -20.0869,-1.55851 -30.21484,-1.5625 -0.67685,-10e-4 -1.3537,-0.002 -2.05106,-0.003 C 109.79193,267.81065 102.956,267.9606 96,269 87.239957,269.73807 87.239957,269.73807 83.375,267.4375 81.457882,264.03897 81.451384,261.84031 82,258 c 2.252277,-2.85288 4.245568,-4.71775 7.898438,-5.30542 C 115.71379,250.2184 142.60472,250.71467 168,256 Z"
     fill="#88a5f3"
     id="path20" />
  <path
     d="m 392,121.875 c 1.93359,-0.006 1.93359,-0.006 3.90625,-0.0117 22.35988,0.0227 22.35988,0.0227 27.09375,4.1367 0.46982,2.7617 0.60994,4.90528 0.52344,7.66016 -0.005,0.74567 -0.009,1.49135 -0.0143,2.25962 -0.0213,2.38185 -0.078,4.76147 -0.13419,7.14272 -0.0165,1.6074 -0.0308,3.21483 -0.043,4.82227 -0.1355,11.72217 -0.1355,11.72217 -1.33203,14.11523 -19.14,0 -38.28,0 -58,0 0,-12.54 0,-25.08 0,-38 7.7378,-3.8689 19.59694,-2.15021 28,-2.125 z"
     fill="#93cc4b"
     id="path21" />
  <path
     d="m 170,128 c 17.41236,2.17654 45.2518,10.02982 58,23 0.4478,2.82045 0.5884,5.02277 0.48828,7.82812 -0.007,0.74901 -0.0142,1.49802 -0.0214,2.26972 -0.0279,2.38508 -0.0906,4.76779 -0.15434,7.15216 -0.0251,1.61976 -0.0479,3.23955 -0.0684,4.85937 -0.055,3.96446 -0.14129,7.92714 -0.24414,11.89063 -1.70728,1.1228 -1.70728,1.1228 -4,2 -2.23218,-0.67163 -2.23218,-0.67163 -4.68359,-1.96484 -1.37636,-0.70093 -1.37636,-0.70093 -2.78052,-1.41602 -0.98122,-0.51369 -1.96244,-1.02738 -2.97339,-1.55664 C 199.44841,174.97578 185.10818,170.53245 170,166 c 0,-12.54 0,-25.08 0,-38 z"
     fill="#93cc4a"
     id="path22" />
  <path
     d="m 256,359 c 8.22599,6.16949 8.22599,6.16949 11.9375,9.3125 10.63724,8.27137 23.2956,13.66117 36.0625,17.6875 -3.42848,2.82397 -7.20875,4.65697 -11.1875,6.5625 -11.63324,5.7069 -23.32894,11.83503 -33.24609,20.25781 C 258,414 258,414 256,414 c 0,-18.15 0,-36.3 0,-55 z"
     fill="#f2e7d6"
     id="path23" />
  <path
     d="m 197,383 c 16.65975,5.94991 16.65975,5.94991 23.1875,9.0625 0.78464,0.37286 1.56927,0.74572 2.37769,1.12988 11.42945,5.5893 22.93029,12.28529 32.43481,20.80762 0,0.33 0,0.66 0,1 -19.14,0 -38.28,0 -58,0 0,-10.56 0,-21.12 0,-32 z"
     fill="#b7a18d"
     id="path24" />
  <path
     d="m 197,281 c 9.09719,3.3218 17.27103,7.06131 25.39062,12.36328 2.56884,1.75443 2.56884,1.75443 5.60938,2.63672 0.75195,2.0061 0.75195,2.0061 1.28125,4.62891 0.20238,0.95326 0.40477,1.90652 0.61328,2.88867 0.29971,1.50723 0.29971,1.50723 0.60547,3.04492 1.62352,8.12082 1.62352,8.12082 4.21875,15.96484 C 236,326 236,326 235,329 c -0.69609,-0.74508 -1.39219,-1.49016 -2.10938,-2.25781 -8.36187,-7.93248 -19.78625,-12.1579 -30.37109,-16.29688 C 199,309 199,309 196,307 c -0.24878,-2.61377 -0.24878,-2.61377 -0.0742,-5.88281 0.0548,-1.1666 0.10957,-2.33321 0.16602,-3.53516 0.0728,-1.22332 0.14566,-2.44664 0.2207,-3.70703 0.0612,-1.23106 0.12246,-2.46211 0.18555,-3.73047 C 196.65169,287.09537 196.81959,284.04767 197,281 Z"
     fill="#dcd0c3"
     id="path25" />
  <path
     d="m 197,241 c 5.93307,1.97769 10.80906,3.71853 16.25,6.5 1.74023,0.88172 1.74023,0.88172 3.51562,1.78125 2.0236,1.07534 4.01925,2.20719 5.96485,3.41797 2.95919,1.69606 4.90697,1.6585 8.26953,1.30078 1.35073,-0.63067 2.6882,-1.29191 4,-2 -0.18176,0.60844 -0.36352,1.21687 -0.55078,1.84375 C 232.0707,262.13809 230.50136,270.5136 229,279 c -3.35425,-1.3103 -6.62177,-2.72572 -9.87109,-4.27734 -1.35642,-0.64679 -1.35642,-0.64679 -2.74024,-1.30664 -0.93264,-0.44667 -1.86527,-0.89333 -2.82617,-1.35352 -0.92877,-0.44279 -1.85754,-0.88559 -2.81445,-1.3418 C 206.14241,268.52114 201.56592,266.28296 197,264 c 0,-7.59 0,-15.18 0,-23 z"
     fill="#dcd0c3"
     id="path26" />
  <path
     d="m 401,357 c 4.42114,3.60909 8.26401,7.28907 11.95703,11.63281 2.59978,3.01236 5.28624,5.93939 7.98047,8.86719 0.74588,0.81138 0.74588,0.81138 1.50684,1.63916 1.18445,1.28765 2.36994,2.57435 3.55566,3.86084 -3.5773,4.66133 -7.10867,7.73911 -12,11 -12,-13 -12,-13 -24,-26 3.66667,-3.66667 7.33333,-7.33333 11,-11 z"
     fill="#116f9a"
     id="path27" />
  <path
     d="m 392,212 c 8.61992,-0.19203 17.1705,-0.20036 25.75,0.75 1.27359,0.13922 2.54719,0.27844 3.85937,0.42187 3.78483,0.92441 5.68582,2.0472 8.39063,4.82813 0.5625,3.5 0.5625,3.5 0,7 -1.60547,2.19531 -1.60547,2.19531 -4,4 -3.24219,0.46094 -3.24219,0.46094 -6.875,0.375 -1.19367,-0.0129 -2.38734,-0.0258 -3.61719,-0.0391 -6.51076,-0.62353 -9.85581,-2.11969 -14.07031,-7.14844 C 398.42005,218.63218 395.33377,215.26347 392,212 Z"
     fill="#89a5f2"
     id="path28" />
  <path
     d="m 415,371 10,2 v 0 8 c -3.45196,-1.42581 -5.10143,-3.09746 -7.25,-6.125 z"
     fill="#c8baa7"
     id="path29"
     sodipodi:nodetypes="ccccsc" />
</svg>
