<?xml version="1.0" encoding="UTF-8" standalone="no"?>
<svg
   version="1.1"
   width="16"
   height="16"
   id="svg1"
   sodipodi:docname="left-arrow.svg"
   viewBox="0 0 512 512"
   inkscape:version="1.4.2 (f4327f4, 2025-05-13)"
   xmlns:inkscape="http://www.inkscape.org/namespaces/inkscape"
   xmlns:sodipodi="http://sodipodi.sourceforge.net/DTD/sodipodi-0.dtd"
   xmlns="http://www.w3.org/2000/svg"
   xmlns:svg="http://www.w3.org/2000/svg">
  <defs
     id="defs1" />
  <sodipodi:namedview
     id="namedview1"
     pagecolor="#ffffff"
     bordercolor="#111111"
     borderopacity="1"
     inkscape:showpageshadow="0"
     inkscape:pageopacity="0"
     inkscape:pagecheckerboard="1"
     inkscape:deskcolor="#d1d1d1"
     inkscape:zoom="5.953125"
     inkscape:cx="42.07874"
     inkscape:cy="38.971129"
     inkscape:window-width="1920"
     inkscape:window-height="991"
     inkscape:window-x="-9"
     inkscape:window-y="-9"
     inkscape:window-maximized="1"
     inkscape:current-layer="svg1" />
  <path
     d="M 374.3125,1.9375 C 379.85732,5.2002399 384.41842,9.5251376 389,14 c 0.87141,0.821133 1.74281,1.642266 2.64062,2.488281 8.9312,8.596941 14.50315,15.806744 15.73438,28.324219 -0.45861,13.731371 -10.23167,22.201837 -19.31603,31.248779 -0.7696,0.77046 -1.53921,1.54092 -2.33213,2.334727 -2.56015,2.561782 -5.12383,5.119991 -7.68753,7.678213 -1.84359,1.843306 -3.68696,3.686833 -5.53012,5.530563 -3.95868,3.959201 -7.91918,7.916578 -11.88094,11.872698 -5.72792,5.71977 -11.45306,11.44233 -17.17754,17.16555 -9.28931,9.28713 -18.58085,18.57202 -27.87381,27.85551 -9.02331,9.01412 -18.04556,18.0293 -27.0664,27.04589 -0.55673,0.55647 -1.11346,1.11294 -1.68706,1.68627 -2.79314,2.79183 -5.58627,5.58369 -8.37938,8.37556 C 255.29925,208.74072 232.15082,231.87155 209,255 c 1.35243,3.01838 2.85837,5.10466 5.19943,7.43156 0.99412,0.99546 0.99412,0.99546 2.00831,2.01104 0.73005,0.7208 1.46009,1.44161 2.21226,2.18426 0.77405,0.77224 1.54811,1.54448 2.34562,2.34011 2.60314,2.59471 5.21334,5.18219 7.82349,7.76985 1.86454,1.85579 3.72861,3.71207 5.59224,5.56878 4.01858,4.00258 8.04053,8.00174 12.06451,11.99889 6.36409,6.32216 12.71838,12.65412 19.0712,18.98759 2.17456,2.16768 4.3492,4.33529 6.52387,6.50286 0.54349,0.54172 1.08698,1.08344 1.64694,1.64157 6.18655,6.16606 12.37542,12.32978 18.56511,18.49269 0.56577,0.56333 1.13155,1.12666 1.71447,1.70706 9.16164,9.12167 18.3292,18.23738 27.49808,27.35178 9.41884,9.36335 18.82799,18.73636 28.22911,28.11749 5.7955,5.78245 11.59884,11.55679 17.41262,17.32085 3.98731,3.95452 7.96542,7.91813 11.93652,11.88892 2.28896,2.2882 4.58311,4.57074 6.88578,6.84515 2.50159,2.47213 4.98717,4.95934 7.46949,7.45079 0.72335,0.70742 1.4467,1.41484 2.19198,2.1437 6.63681,6.72314 11.1793,14.19792 11.67538,23.80365 -0.3472,12.76456 -7.66631,20.58289 -16.34864,29.22461 -1.46534,1.46437 -2.90798,2.94882 -4.35058,4.43555 -6.44849,6.53534 -11.96781,10.97827 -21.17578,12.34766 -18.74536,-0.0202 -28.17604,-11.39742 -40.7436,-23.97815 -0.90677,-0.90381 -1.81355,-1.80761 -2.7478,-2.73881 -2.48779,-2.47982 -4.97253,-4.96267 -7.45671,-7.44611 -2.69078,-2.68891 -5.3844,-5.37498 -8.0776,-8.06147 -5.87221,-5.8587 -11.74071,-11.72111 -17.60838,-17.58436 -3.6677,-3.66493 -7.33613,-7.32912 -11.00469,-10.99318 -10.17095,-10.15878 -20.34097,-20.3185 -30.50754,-30.48167 -0.97347,-0.97314 -0.97347,-0.97314 -1.96661,-1.96594 -0.65045,-0.65024 -1.3009,-1.30047 -1.97106,-1.9704 -1.31787,-1.31743 -2.63574,-2.63485 -3.95361,-3.95228 -0.6537,-0.65347 -1.3074,-1.30695 -1.9809,-1.98023 -10.60465,-10.60069 -21.21605,-21.19461 -31.83034,-31.78565 -10.91513,-10.8914 -21.82461,-21.78843 -32.72846,-32.69111 -6.11536,-6.11445 -12.2331,-12.22646 -18.35708,-18.33227 -5.21057,-5.19514 -10.41594,-10.39543 -15.61468,-15.60241 -2.65014,-2.65404 -5.30261,-5.30563 -7.96173,-7.95068 -2.887,-2.87186 -5.76215,-5.7553 -8.63637,-8.63995 -0.8356,-0.82754 -1.6712,-1.65509 -2.53212,-2.50771 -7.83674,-7.90332 -14.31949,-15.67917 -14.82463,-27.21653 0.26358,-7.77555 1.98147,-13.61561 7.33656,-19.38944 0.80827,-0.87257 1.61653,-1.74514 2.44928,-2.64415 4.01447,-4.21665 8.08861,-8.36737 12.20415,-12.4853 0.94201,-0.94604 1.88381,-1.89228 2.82542,-2.8387 2.55964,-2.57146 5.1223,-5.13988 7.68555,-7.70773 2.77476,-2.78077 5.54672,-5.56433 8.31914,-8.34743 6.67581,-6.70019 13.35644,-13.39557 20.03798,-20.09005 1.88856,-1.89227 3.77699,-3.78467 5.66537,-5.67711 11.74549,-11.77072 23.49258,-23.53984 35.24445,-35.30418 2.71378,-2.71671 5.42754,-5.43344 8.14128,-8.15019 0.67441,-0.67515 1.34882,-1.35031 2.04367,-2.04592 10.94298,-10.95566 21.87563,-21.92157 32.80413,-32.891677 11.23574,-11.278162 22.48089,-22.546875 33.73524,-33.806459 6.31272,-6.316125 12.62121,-12.636343 18.91913,-18.967226 5.35797,-5.38598 10.72438,-10.763379 16.10197,-16.129777 2.74168,-2.736501 5.47918,-5.476867 8.20586,-8.228328 2.95848,-2.985139 5.93605,-5.950473 8.91583,-8.914344 1.28217,-1.302996 1.28217,-1.302996 2.59025,-2.632315 9.96565,-9.8350334 22.73006,-14.709243 36.39974,-8.499674 z"
     fill="#ffffff"
     id="arrow"
     
     inkscape:label="#arrow" />
</svg>
