<?xml version="1.0" encoding="UTF-8" standalone="no"?>
<svg
   version="1.1"
   width="16"
   height="16"
   id="svg1"
   sodipodi:docname="right-arrow.svg"
   viewBox="0 0 512 512"
   inkscape:version="1.4.2 (f4327f4, 2025-05-13)"
   xmlns:inkscape="http://www.inkscape.org/namespaces/inkscape"
   xmlns:sodipodi="http://sodipodi.sourceforge.net/DTD/sodipodi-0.dtd"
   xmlns="http://www.w3.org/2000/svg"
   xmlns:svg="http://www.w3.org/2000/svg">
  <defs
     id="defs1" />
  <sodipodi:namedview
     id="namedview1"
     pagecolor="#ffffff"
     bordercolor="#111111"
     borderopacity="1"
     inkscape:showpageshadow="0"
     inkscape:pageopacity="0"
     inkscape:pagecheckerboard="1"
     inkscape:deskcolor="#d1d1d1"
     inkscape:zoom="23.812499"
     inkscape:cx="6.8241472"
     inkscape:cy="15.916011"
     inkscape:window-width="1920"
     inkscape:window-height="991"
     inkscape:window-x="-9"
     inkscape:window-y="-9"
     inkscape:window-maximized="1"
     inkscape:current-layer="svg1"
     showguides="true" />
  <path
     d="m 163.3125,1.9375 c 9.1817,5.6010057 16.68257,13.909203 24.23968,21.474243 1.36017,1.355707 1.36017,1.355707 2.74781,2.738803 2.48779,2.47982 4.97253,4.962677 7.45671,7.446114 2.69078,2.688913 5.3844,5.374978 8.0776,8.061467 5.87221,5.858701 11.74071,11.721112 17.60838,17.584364 3.6677,3.664925 7.33613,7.329116 11.00468,10.993181 10.17096,10.158779 20.34098,20.318493 30.50755,30.481668 0.97347,0.97314 0.97347,0.97314 1.96661,1.96594 0.65045,0.65024 1.3009,1.30047 1.97106,1.9704 1.31787,1.31743 2.63574,2.63485 3.95361,3.95228 0.6537,0.65347 1.3074,1.30695 1.9809,1.98023 10.60465,10.60069 21.21605,21.19461 31.83034,31.78565 10.91513,10.8914 21.82461,21.78843 32.72846,32.69111 6.11536,6.11445 12.2331,12.22646 18.35708,18.33227 5.21057,5.19514 10.41594,10.39543 15.61468,15.60241 2.65014,2.65404 5.30261,5.30563 7.96173,7.95068 2.887,2.87186 5.76215,5.7553 8.63637,8.63995 1.2534,1.24131 1.2534,1.24131 2.53212,2.50771 7.83674,7.90332 14.31949,15.67917 14.82463,27.21653 -0.26358,7.77555 -1.98147,13.61561 -7.33656,19.38944 -0.80827,0.87257 -1.61653,1.74514 -2.44928,2.64415 -4.01447,4.21665 -8.08861,8.36736 -12.20415,12.4853 -0.94201,0.94604 -1.88381,1.89228 -2.82542,2.8387 -2.55964,2.57146 -5.1223,5.13988 -7.68555,7.70773 -2.77476,2.78077 -5.54672,5.56433 -8.31914,8.34743 -6.67581,6.70019 -13.35644,13.39557 -20.03798,20.09005 -1.88856,1.89227 -3.77699,3.78467 -5.66537,5.67711 -11.74549,11.77072 -23.49258,23.53984 -35.24445,35.30418 -2.71378,2.71671 -5.42754,5.43344 -8.14128,8.15019 -1.01161,1.01273 -1.01161,1.01273 -2.04367,2.04592 -10.94298,10.95566 -21.87563,21.92157 -32.80413,32.89168 -11.23574,11.27816 -22.48089,22.54687 -33.73524,33.80646 -6.31272,6.31612 -12.62121,12.63634 -18.91913,18.96722 -5.35797,5.38598 -10.72438,10.76338 -16.10197,16.12978 -2.74168,2.7365 -5.47918,5.47687 -8.20586,8.22833 -2.95848,2.98514 -5.93605,5.95047 -8.91583,8.91434 -0.85478,0.86867 -1.70956,1.73733 -2.59025,2.63232 -6.99817,6.90644 -13.45135,11.01051 -23.52474,10.99967 C 138.32476,512.17167 131.47174,506.27978 123,498 c -0.95648,-0.90621 -1.91297,-1.81242 -2.89844,-2.74609 -8.38622,-8.03971 -14.81228,-15.43967 -15.47656,-27.50391 0.40813,-14.09248 9.96756,-22.50132 19.31602,-31.81128 0.76961,-0.77046 1.53921,-1.54092 2.33214,-2.33473 2.56015,-2.56178 5.12383,-5.11999 7.68753,-7.67821 1.84359,-1.8433 3.68696,-3.68683 5.53012,-5.53056 3.95868,-3.9592 7.91918,-7.91658 11.88094,-11.8727 5.72792,-5.71977 11.45306,-11.44233 17.17754,-17.16555 9.28931,-9.28713 18.58085,-18.57202 27.87381,-27.85551 9.02331,-9.01412 18.04556,-18.0293 27.0664,-27.04589 0.8351,-0.8347 0.8351,-0.8347 1.68706,-1.68627 2.79314,-2.79183 5.58627,-5.58369 8.37938,-8.37556 C 256.70075,303.25928 279.84918,280.12845 303,257 c -1.35243,-3.01838 -2.85837,-5.10466 -5.19943,-7.43156 -0.66274,-0.66364 -1.32549,-1.32728 -2.00831,-2.01104 -0.73005,-0.7208 -1.46009,-1.44161 -2.21226,-2.18426 -0.77405,-0.77224 -1.54811,-1.54448 -2.34562,-2.34011 -2.60314,-2.59471 -5.21334,-5.18219 -7.82349,-7.76985 -1.86454,-1.85579 -3.72861,-3.71207 -5.59224,-5.56878 -4.01858,-4.00258 -8.04053,-8.00174 -12.06451,-11.99889 -6.36409,-6.32216 -12.71838,-12.65412 -19.0712,-18.98759 -2.17456,-2.16768 -4.3492,-4.33529 -6.52387,-6.50286 -0.54349,-0.54172 -1.08698,-1.08344 -1.64694,-1.64157 -6.18655,-6.16606 -12.37542,-12.32978 -18.56511,-18.49269 -0.56577,-0.56333 -1.13155,-1.12666 -1.71447,-1.70706 -9.16164,-9.12168 -18.3292,-18.23738 -27.49809,-27.35178 -9.41883,-9.36335 -18.82798,-18.73636 -28.2291,-28.11749 -5.7955,-5.78245 -11.59884,-11.55679 -17.41262,-17.320853 -3.98731,-3.954516 -7.96542,-7.91813 -11.93652,-11.888916 -2.28896,-2.2882 -4.58311,-4.570738 -6.88578,-6.845151 -2.50159,-2.472125 -4.98717,-4.959342 -7.46949,-7.450787 -1.08503,-1.061134 -1.08503,-1.061134 -2.19198,-2.143706 -6.63681,-6.723134 -11.1793,-14.197914 -11.67538,-23.803651 0.3472,-12.76456 7.66631,-20.582886 16.34864,-29.224609 1.46534,-1.464364 2.90798,-2.948817 4.35058,-4.435547 C 136.00848,1.2658312 148.6042,-4.7438721 163.3125,1.9375 Z"
     fill="#ffffff"
     id="arrow"
     inkscape:label="#arrow" />
</svg>
