<?xml version="1.0" encoding="UTF-8" standalone="no"?>
<svg
   version="1.1"
   width="16"
   height="16"
   id="svg3"
   sodipodi:docname="no-color-normal.svg"
   inkscape:version="1.4.2 (f4327f4, 2025-05-13)"
   viewBox="0 0 512 512"
   xmlns:inkscape="http://www.inkscape.org/namespaces/inkscape"
   xmlns:sodipodi="http://sodipodi.sourceforge.net/DTD/sodipodi-0.dtd"
   xmlns="http://www.w3.org/2000/svg"
   xmlns:svg="http://www.w3.org/2000/svg">
  <defs
     id="defs3" />
  <sodipodi:namedview
     id="namedview3"
     pagecolor="#ffffff"
     bordercolor="#111111"
     borderopacity="1"
     inkscape:showpageshadow="0"
     inkscape:pageopacity="0"
     inkscape:pagecheckerboard="1"
     inkscape:deskcolor="#d1d1d1"
     inkscape:zoom="1.4882812"
     inkscape:cx="255.66405"
     inkscape:cy="255.32809"
     inkscape:window-width="1920"
     inkscape:window-height="991"
     inkscape:window-x="-9"
     inkscape:window-y="-9"
     inkscape:window-maximized="1"
     inkscape:current-layer="svg3" />
  <path
     d="m 255.625,32.6875 c 0.87585,0.0022 1.75169,0.0043 2.65408,0.0065 13.76158,0.05421 27.19058,0.591572 40.72092,3.306 0.97824,0.193359 1.95647,0.386719 2.96435,0.585937 C 323.96914,41.086206 345.28327,48.183432 365,59 c 1.34489,0.716442 2.68995,1.432581 4.03516,2.148437 C 383.32571,68.86118 395.799,78.338154 408,89 c 1.27037,1.084746 1.27037,1.084746 2.56641,2.191406 4.94639,4.27683 9.23367,8.80788 13.43359,13.808594 0.81082,0.91137 1.62164,1.82273 2.45703,2.76172 7.78073,8.81173 14.25309,18.32227 20.54297,28.23828 0.65871,1.02738 1.31742,2.05477 1.99609,3.11328 21.46167,35.04249 31.49353,78.41588 31.37891,119.26172 -8.8e-4,0.7747 -0.002,1.54939 -0.003,2.34756 -0.0768,20.80032 -2.97454,40.43033 -9.17337,60.32505 -0.29898,0.97171 -0.59796,1.94342 -0.906,2.94458 -0.27304,0.84933 -0.54608,1.69866 -0.82739,2.57373 -0.97858,5.11611 1.19776,9.06754 3.34692,13.62158 10.33464,23.56946 10.75704,52.04788 1.60937,76.07422 -10.22314,25.32466 -29.4729,45.95188 -54.71093,56.68359 -22.57264,8.78187 -50.95829,11.80626 -73.86573,2.146 -5.66701,-2.56598 -5.66701,-2.56598 -8.28369,-3.98023 -5.45972,-2.75409 -9.02407,-1.83491 -14.56152,-0.11108 -1.36153,0.3844 -2.72351,0.76724 -4.08594,1.14844 -0.68723,0.19892 -1.37446,0.39783 -2.08252,0.60278 -34.52137,9.75903 -72.74765,10.72719 -107.83154,3.24878 -0.97453,-0.20367 -1.94906,-0.40734 -2.95312,-0.61719 C 178.42943,469.40157 150.89523,457.65409 127.99966,441 c -0.59555,-0.4233 -1.19109,-0.84659 -1.80469,-1.28271 -9.8887,-7.04173 -18.90481,-14.70803 -27.60302,-23.17188 -1.36758,-1.32731 -2.75359,-2.63558 -4.14307,-3.93994 C 87.89098,406.32712 82.43688,399.24314 76.99966,392 76.35529,391.1468 76.35529,391.1468 75.6979,390.27637 54.97885,362.66691 41.97998,331.69413 34.99966,298 34.81887,297.14809 34.63808,296.29618 34.45181,295.41846 29.41314,270.65084 30.2922,242.73003 34.99966,218 c 0.29802,-1.58917 0.29802,-1.58917 0.60205,-3.21045 C 43.67511,172.93487 60.92109,136.01502 88.99966,104 c 0.79664,-0.92039 1.59328,-1.84078 2.41406,-2.78906 4.55555,-5.181737 9.2887,-9.801292 14.58594,-14.21094 0.8366,-0.736055 1.6732,-1.472109 2.53516,-2.230469 C 149.09495,49.67722 202.44045,32.450615 255.625,32.6875 Z M 215,53 c -0.84401,0.171606 -1.68803,0.343213 -2.55762,0.52002 C 184.23926,59.327765 157.50126,70.24871 134,87 c -0.58427,0.416045 -1.16854,0.83209 -1.77051,1.260742 C 123.54938,94.526124 115.73076,101.61776 108,109 c -0.65484,0.60199 -1.30969,1.20398 -1.98437,1.82422 C 67.55732,147.17648 49.4678,205.17441 48.00391,256.75391 47.42762,311.66829 70.21936,361.93503 108,401 c 1.11762,1.19496 1.11762,1.19496 2.25781,2.41406 6.32948,6.60975 13.45078,12.09463 20.74219,17.58594 0.82129,0.62842 0.82129,0.62842 1.65918,1.26953 15.961,12.16628 33.56766,21.69205 52.34082,28.73047 1.09079,0.41306 1.09079,0.41306 2.20361,0.83447 C 228.29846,467.1378 270.9251,467.08849 313,456 c -0.38382,-0.4444 -0.76764,-0.88881 -1.16309,-1.34668 -3.08933,-3.58854 -6.1313,-7.20299 -9.08691,-10.90332 -0.66516,-0.83016 -1.33031,-1.66031 -2.01563,-2.51563 C 299.42015,439.54127 298.1889,437.78335 297,436 c -1.14727,0.21656 -2.29453,0.43313 -3.47656,0.65625 C 269.42987,440.76319 241.90312,441.74398 218,436 c -0.75088,-0.16629 -1.50176,-0.33258 -2.27539,-0.50391 C 191.32315,430.05564 168.26459,419.58633 148,405 c -0.56896,-0.40525 -1.13792,-0.8105 -1.72412,-1.22803 C 105.23157,374.18079 81.6373,329.06885 73.65405,279.86792 70.80263,258.34236 72.1134,235.05616 77,214 c 0.18192,-0.80631 0.36384,-1.61262 0.55127,-2.44336 C 83.20354,187.20994 94.74835,163.73307 110,144 c 0.67031,-0.89332 1.34063,-1.78664 2.03125,-2.70703 29.4865,-37.82211 73.76173,-61.455512 120.98169,-67.902589 7.00302,-0.771876 14.0523,-0.724029 21.08935,-0.706055 2.56465,0.0031 5.12813,-0.02036 7.69263,-0.04565 15.13451,-0.05872 30.03356,1.656103 44.58008,5.986324 0.85811,0.251609 1.71623,0.503218 2.60034,0.762451 47.67661,14.554004 86.66298,48.021729 110.14966,91.737549 10.37974,19.91134 17.30031,41.54103 19.875,63.875 0.11086,0.92039 0.22172,1.84078 0.33594,2.78906 1.79944,17.65395 0.18854,34.71237 -2.33594,52.21094 -0.19924,1.40104 -0.39846,2.80208 -0.59766,4.20312 -0.13277,0.92297 -0.26554,1.84594 -0.40234,2.79688 0.53367,0.4009 1.06734,0.8018 1.61719,1.21484 6.07562,4.63556 11.76213,9.61038 17.38281,14.78516 1.69285,-3.06238 2.54337,-5.90408 3.25391,-9.32422 0.21463,-1.02932 0.42925,-2.05863 0.65039,-3.11914 0.2172,-1.07057 0.43441,-2.14113 0.6582,-3.24414 0.22107,-1.05123 0.44215,-2.10246 0.66992,-3.18555 10.51556,-51.05287 -2.09381,-109.81459 -30.57226,-153.2207 C 421.68358,129.06792 412.91228,118.26161 403,108 c -0.89912,-0.97647 -0.89912,-0.97647 -1.81641,-1.97266 -31.2425,-33.121753 -82.38979,-53.937384 -127.37753,-56.134487 -2.23264,-0.05564 -4.46339,-0.08309 -6.69669,-0.09598 -0.81855,-0.007 -1.63709,-0.01403 -2.48045,-0.02126 -2.62636,-0.0174 -5.2525,-0.02385 -7.87892,-0.02561 -0.89772,-6.75e-4 -1.79544,-0.0013 -2.72037,-0.002 C 240.7885,49.76383 227.98607,50.2025 215,53.000045 Z m -78.66602,84.38257 C 125.58453,147.92676 117.2889,159.86868 110,173 c -0.52207,0.9332 -0.52207,0.9332 -1.05469,1.88525 -21.60906,39.18673 -25.08129,86.91133 -13.23877,129.66553 11.78731,40.50037 38.14332,75.76185 75.20996,96.32715 C 204.7934,419.12239 248.71202,430.76344 287,421 c 1.33922,-2.095 1.33922,-2.095 0.0742,-4.87109 -0.91554,-2.35461 -1.83218,-4.70879 -2.75,-7.0625 -7.77346,-22.26444 -5.2389,-49.81761 4.48828,-71.00391 C 294.03423,327.33385 300.84219,318.6732 309,310 c 0.52852,-0.60457 1.05703,-1.20914 1.60156,-1.83203 17.01872,-18.63332 43.69511,-26.69177 68.09766,-28.35156 11.38148,-0.31981 22.32057,1.83368 33.02197,5.50659 3.34072,1.13983 5.69108,1.677 9.27881,1.677 1.72838,-10.10413 2.36908,-19.94854 2.3125,-30.1875 -0.004,-1.08558 -0.004,-1.08558 -0.008,-2.19308 -0.21872,-41.268 -15.20938,-80.00769 -43.25027,-110.37723 -1.77159,-1.93325 -3.45251,-3.90508 -5.11719,-5.92969 C 364.44795,126.05568 349.99386,116.76767 336,109 c -0.9332,-0.52207 -0.9332,-0.52207 -1.88525,-1.05469 -64.3582,-35.489562 -145.6592,-20.496063 -197.78077,29.43726 z M 326.375,333.00391 C 322.50176,338.6267 321.96948,345.34531 323,352 c 2.89102,7.61888 7.94561,12.41853 13.75,18 1.33225,1.30518 1.33225,1.30518 2.69141,2.63672 2.17734,2.13052 4.36349,4.25108 6.55859,6.36328 -1.46402,3.41381 -3.34535,5.53305 -6.02734,8.08203 -1.1882,1.15146 -1.1882,1.15146 -2.40039,2.32617 -1.6653,1.59531 -3.33454,3.18651 -5.00782,4.77344 -5.44413,5.29377 -8.89574,9.14945 -9.99804,16.8457 -0.0105,7.79706 0.84425,13.1885 6.30468,18.94532 5.2843,4.86475 9.62404,7.30644 16.94141,7.40234 0.97582,0.0284 1.95164,0.0567 2.95703,0.0859 9.3601,-1.33554 14.91636,-7.64465 21.23047,-14.21094 0.87012,-0.88816 1.74023,-1.77633 2.63672,-2.69141 2.13052,-2.17734 4.25108,-4.36349 6.36328,-6.55859 3.41381,1.46402 5.53305,3.34535 8.08203,6.02734 1.15146,1.1882 1.15146,1.1882 2.32617,2.40039 1.59531,1.6653 3.18651,3.33454 4.77344,5.00782 5.29377,5.44413 9.14945,8.89574 16.8457,9.99804 7.79706,0.0105 13.1885,-0.84426 18.94532,-6.30468 4.86475,-5.2843 7.30644,-9.62404 7.40234,-16.94141 0.0284,-0.97582 0.0567,-1.95164 0.0859,-2.95703 -1.33554,-9.3601 -7.64465,-14.91636 -14.21094,-21.23047 -0.88816,-0.87012 -1.77633,-1.74023 -2.69141,-2.63672 -2.17734,-2.13052 -4.36349,-4.25108 -6.55859,-6.36328 1.46402,-3.41381 3.34535,-5.53305 6.02734,-8.08203 0.79213,-0.76764 1.58426,-1.53527 2.40039,-2.32617 1.6653,-1.59531 3.33454,-3.18651 5.00782,-4.77344 5.34498,-5.19736 8.81981,-9.05536 9.99804,-16.5918 0.0113,-7.54724 -1.11256,-13.53103 -6.26953,-19.26953 -6.33496,-5.88593 -11.70192,-7.14262 -20.1875,-7.41797 -9.26234,1.43433 -14.75979,7.74588 -20.97656,14.21094 -0.87012,0.88816 -1.74023,1.77633 -2.63672,2.69141 -2.13052,2.17734 -4.25108,4.36349 -6.36328,6.55859 -3.41381,-1.46402 -5.53305,-3.34535 -8.08203,-6.02734 -0.76764,-0.79213 -1.53527,-1.58426 -2.32617,-2.40039 -1.59531,-1.6653 -3.18651,-3.33454 -4.77344,-5.00782 -5.19736,-5.34498 -9.05536,-8.81981 -16.5918,-9.99804 -9.94484,-0.0149 -16.59081,2.5391 -22.85156,10.4375 z"
     fill="#fd6888"
     id="path1" />
  <path
     d="M 346.42187,138.54297 C 355.54536,145.23251 362.84483,153.61994 365,165 c 1.11088,16.3354 -2.53296,26.17372 -13,39 -0.86223,1.06751 -1.72421,2.13522 -2.58594,3.20313 -2.12301,2.61189 -4.26031,5.21032 -6.41406,7.79687 1.24486,2.70672 2.21762,4.21763 4.375,6.375 5.4055,5.4055 7.76506,10.10637 8,17.6875 -0.1614,11.2231 -5.8167,18.53471 -13.47657,26.28516 -5.36582,4.91023 -10.56079,7.81419 -17.89843,8.21484 -4.69398,-0.22952 -8.5464,-1.70478 -12.77344,-3.6875 -2.44832,-1.11883 -2.44832,-1.11883 -6.22656,-0.875 -2.10062,1.98532 -2.10062,1.98532 -4.0625,4.6875 -1.17756,1.50627 -1.17756,1.50627 -2.37891,3.04297 -0.41524,0.53544 -0.83048,1.07089 -1.2583,1.62256 -2.19319,2.77792 -4.5002,5.45751 -6.80029,8.14697 -3.35577,3.94537 -6.67226,7.91646 -9.9375,11.9375 -3.95694,4.863 -8.02686,9.6195 -12.11866,14.36865 -3.79242,4.41061 -7.49003,8.89054 -11.15869,13.40479 -4.3597,5.32107 -8.82187,10.55485 -13.28516,15.78906 -1.02867,1.21817 -1.02867,1.21817 -2.07812,2.46094 -5.72286,6.69326 -11.23036,11.29573 -19.92188,13.53906 -2.5198,0.0832 -5.04132,0.12247 -7.56249,0.125 -4.39581,0.16856 -6.68491,0.30712 -10.22266,2.97656 -2.24426,2.54025 -4.25379,5.13573 -6.21484,7.89844 -4.89185,5.3691 -11.08019,10.54321 -18.56641,11.23828 -9.53122,0.23611 -16.6829,-1.33911 -23.80859,-7.92578 -6.6824,-7.37228 -8.3594,-14.04399 -7.98829,-23.96875 0.71002,-6.53517 2.98534,-10.71897 7.11329,-15.75781 0.49975,-0.61166 0.9995,-1.22332 1.5144,-1.85352 1.01543,-1.21832 2.05299,-2.4186 3.11377,-3.59765 2.69115,-3.15618 3.65702,-4.3456 3.46558,-8.63868 C 162.56531,317.34238 162.28687,316.18867 162,315 c -0.89734,-12.78336 0.84372,-20.66246 9.1875,-30.4375 1.46422,-1.66947 2.93918,-3.32862 4.41943,-4.98389 2.03339,-2.30422 3.96207,-4.68835 5.89307,-7.07861 3.74852,-4.60533 7.57084,-9.14204 11.41625,-13.66626 2.8792,-3.39328 5.71579,-6.81642 8.52125,-10.27124 3.45524,-4.24643 6.9896,-8.41534 10.5625,-12.5625 7.88546,-9.15767 15.47356,-18.54581 22.99999,-28 -0.39832,-0.46148 -0.79664,-0.92297 -1.20703,-1.39844 -5.3027,-6.52839 -8.20311,-13.07079 -7.85547,-21.60156 1.5572,-10.49059 9.89768,-19.94271 17.86719,-26.48047 6.29538,-4.33786 12.80413,-4.13761 20.19531,-3.51953 6.00691,1.6326 10.47622,4.8242 15,9 1.52184,-1.66575 3.04241,-3.33266 4.5625,-5 0.45746,-0.50112 0.91492,-1.00225 1.38623,-1.51855 2.61124,-2.86879 5.1668,-5.77364 7.67627,-8.73145 13.86519,-15.84593 34.92146,-22.2325 53.79688,-10.20703 z M 251.4375,175.1875 c -0.59168,0.64067 -1.18336,1.28133 -1.79297,1.94141 -0.5427,0.61746 -1.08539,1.23492 -1.64453,1.87109 -0.78375,0.86625 -1.5675,1.7325 -2.37501,2.625 -1.82971,2.6742 -2.625,4.1234 -2.625,7.375 2.53414,5.57509 7.14968,8.77105 11.8711,12.51172 3.26823,2.59908 6.45298,5.27825 9.62891,7.98828 3.9683,3.37367 7.96019,6.71179 12,10 4.60453,3.74788 9.14019,7.56984 13.66406,11.41406 4.28946,3.63893 8.63027,7.20944 13.00781,10.74219 2.09561,1.7367 4.1326,3.49563 6.15625,5.3125 0.56912,0.50338 1.13824,1.00676 1.72461,1.52539 1.1005,0.9764 2.1911,1.96412 3.26953,2.96485 3.75997,3.31087 6.67329,4.43925 11.67774,4.54101 2.68743,-1.93275 2.68743,-1.93275 5,-5 0.61488,-0.61746 1.22976,-1.23492 1.86328,-1.87109 0.64324,-0.66129 1.28648,-1.32258 1.94922,-2.00391 0.60457,-0.61617 1.20914,-1.23234 1.83203,-1.86719 1.97862,-3.2958 1.88731,-5.48506 1.35547,-9.25781 -1.97736,-2.68261 -1.97736,-2.68261 -4.8125,-4.875 -0.49919,-0.42434 -0.99838,-0.84869 -1.5127,-1.28589 C 330.13321,228.53757 328.57037,227.26659 327,226 c -0.87528,-0.72058 -1.75055,-1.44117 -2.65235,-2.18359 -1.77181,-1.45209 -3.54942,-2.89712 -5.33203,-4.33594 -3.56234,-2.93016 -7.04014,-5.94831 -10.51562,-8.98047 -5.12311,-4.46263 -10.28645,-8.85634 -15.57032,-13.1289 -2.23458,-1.80853 -4.45643,-3.62922 -6.67187,-5.46094 -6.53562,-5.38848 -13.1212,-10.7021 -19.94531,-15.72266 -0.56373,-0.4266 -1.12745,-0.8532 -1.70826,-1.29272 -2.41806,-1.74222 -4.32154,-2.84601 -7.27612,-3.35572 -2.89352,0.57288 -3.90769,1.49067 -5.89062,3.64844 z M 249,219 c -5.7629,6.22008 -11.32281,12.51871 -16.65235,19.11719 -2.57581,3.16297 -5.20479,6.27592 -7.84766,9.38281 -4.90583,5.77517 -9.71808,11.6217 -14.49999,17.5 -1.68623,2.06355 -3.37443,4.12547 -5.0625,6.1875 -0.75411,0.92168 -1.50821,1.84336 -2.28516,2.79297 -0.54527,0.66645 -1.09055,1.33289 -1.65234,2.01953 6.93096,4.62065 15.90976,5.21624 23.99999,4 3.75623,-1.54692 7.22985,-3.35982 10.78516,-5.30859 9.52649,-5.01211 19.96507,-4.89647 30.08985,-1.75391 1.57394,0.53947 1.57394,0.53947 3.17968,1.08984 2.64771,0.87438 5.20275,1.49195 7.94532,1.97266 1.72945,-2.04142 3.45857,-4.08313 5.1875,-6.125 0.48275,-0.56976 0.9655,-1.13953 1.46289,-1.72656 3.13395,-3.70186 6.24898,-7.41862 9.34961,-11.14844 -1.31096,-2.95312 -2.63411,-4.82764 -5.08985,-6.91797 -0.61375,-0.52739 -1.22751,-1.05477 -1.85986,-1.59814 -0.98396,-0.82734 -0.98396,-0.82734 -1.98779,-1.67139 -0.6766,-0.57734 -1.3532,-1.15468 -2.0503,-1.74951 -4.69494,-3.99265 -9.4445,-7.91671 -14.23877,-11.78955 -2.10129,-1.72247 -4.17421,-3.46384 -6.23437,-5.23438 -0.5883,-0.5045 -1.17659,-1.00901 -1.78272,-1.52881 -1.14681,-0.98612 -2.29052,-1.97588 -3.43066,-2.96972 C 253.88176,221.44195 252.08999,220.03 249,219 Z"
     fill="#fe6f88"
     id="path2" />
  <path
     d="m 347.87891,337.44531 c 4.97753,1.30167 8.16618,5.53199 11.62793,9.11377 1.1123,1.14836 2.22771,2.2937 3.34595,3.43628 1.11688,1.14622 2.22279,2.30327 3.31592,3.47217 3.66796,3.79902 6.79863,5.85689 11.83129,7.53247 9.82181,-0.17232 15.33803,-7.09406 21.75,-13.6875 1.51341,-1.54775 3.02893,-3.09343 4.54688,-4.63672 0.99532,-1.02227 0.99532,-1.02227 2.01074,-2.06519 3.00805,-2.86268 5.60322,-2.96238 9.71582,-2.88012 C 418,338 418,338 420.5,339.5 c 1.696,2.82665 2.26278,5.07573 2.05079,8.38281 -1.30839,5.02939 -5.61223,8.23916 -9.22413,11.73828 -1.24577,1.20971 -2.48852,2.42254 -3.72851,3.63818 -1.25485,1.22535 -2.52057,2.43967 -3.79785,3.64161 -3.56719,3.45422 -5.76643,6.07749 -6.8003,11.09912 0.3534,9.89515 7.00617,15.25255 13.6875,21.75 1.54775,1.51341 3.09343,3.02893 4.63672,4.54687 0.68151,0.66355 1.36303,1.32709 2.06519,2.01074 2.32686,2.44502 2.59704,3.57267 2.98559,7.00489 C 422,417 422,417 419.9375,419.9375 417,422 417,422 413.6875,422.75 c -6.59574,-1.34151 -10.28765,-6.28428 -14.80468,-11.00391 -0.83604,-0.86202 -0.83604,-0.86202 -1.68897,-1.74145 -1.10491,-1.14457 -2.19714,-2.30155 -3.27441,-3.47217 C 389.95212,402.39857 386.53516,400.56379 381,399 c -10.61505,0.39351 -17.71662,10.61053 -24.60815,17.6438 -5.17288,5.25789 -5.17288,5.25789 -10.26685,5.6687 -2.95468,-0.0591 -4.01558,-0.24685 -6.625,-1.8125 -1.69476,-2.82461 -2.26086,-5.07409 -2.05468,-8.37891 1.29953,-4.96933 5.51842,-8.17411 9.11377,-11.61182 1.14934,-1.10033 2.29465,-2.20489 3.43628,-3.31323 1.14425,-1.10604 2.30122,-2.19911 3.47216,-3.27685 C 357.60106,389.95284 359.3912,386.51427 361,381 c -0.18127,-9.06392 -7.64156,-14.87047 -13.6875,-20.75 -1.54774,-1.51341 -3.09342,-3.02893 -4.63671,-4.54688 -0.68152,-0.66354 -1.36303,-1.32709 -2.06519,-2.01074 -2.86269,-3.00805 -2.96238,-5.60322 -2.88013,-9.71582 C 338,342 338,342 339.5,339.5 c 2.82461,-1.69476 5.07409,-2.26086 8.37891,-2.05469 z"
     fill="#fd5186"
     id="path3" />
</svg>
