<?xml version="1.0" encoding="UTF-8" standalone="no"?>
<svg
   version="1.1"
   width="16"
   height="16"
   id="svg6"
   sodipodi:docname="no-color-hover.svg"
   inkscape:version="1.4.2 (f4327f4, 2025-05-13)"
   viewBox="0 0 512 512"
   xmlns:inkscape="http://www.inkscape.org/namespaces/inkscape"
   xmlns:sodipodi="http://sodipodi.sourceforge.net/DTD/sodipodi-0.dtd"
   xmlns="http://www.w3.org/2000/svg"
   xmlns:svg="http://www.w3.org/2000/svg">
  <defs
     id="defs6" />
  <sodipodi:namedview
     id="namedview6"
     pagecolor="#ffffff"
     bordercolor="#111111"
     borderopacity="1"
     inkscape:showpageshadow="0"
     inkscape:pageopacity="0"
     inkscape:pagecheckerboard="1"
     inkscape:deskcolor="#d1d1d1"
     inkscape:zoom="1.4882812"
     inkscape:cx="255.66405"
     inkscape:cy="255.32809"
     inkscape:window-width="1920"
     inkscape:window-height="991"
     inkscape:window-x="-9"
     inkscape:window-y="-9"
     inkscape:window-maximized="1"
     inkscape:current-layer="svg6" />
  <path
     d="m 242.0625,87.625 c 1.07875,0.0013 1.07875,0.0013 2.17929,0.0027 C 256.5061,87.676683 268.16013,88.644199 280,92 c 1.22469,0.346113 1.22469,0.346113 2.47412,0.699219 39.56111,11.653301 71.81699,38.931921 91.80957,74.697261 C 383.28016,184.08141 389.48295,202.18721 392,221 c 0.12891,0.9423 0.25781,1.88461 0.39062,2.85547 C 394.85833,245.83756 391.97597,268.07208 385,289 c -1.04156,0.15855 -2.08313,0.31711 -3.15625,0.48047 C 360.58733,292.86809 341.33774,299.4492 325,314 c -0.80438,0.65098 -1.60875,1.30195 -2.4375,1.97266 -16.84999,14.08553 -29.68537,36.85081 -31.95703,58.84765 -0.0967,1.15242 -0.19336,2.30485 -0.29297,3.49219 -0.71554,5.17636 -0.71554,5.17636 -3.16016,7.26953 -2.70905,1.17613 -5.25863,1.82221 -8.15234,2.41797 -1.15242,0.27973 -2.30484,0.55945 -3.49219,0.84766 -40.25028,9.30517 -83.92869,1.43511 -119.20312,-19.75782 C 123.8405,348.55989 99.96512,315.86617 91.37891,278.28125 89.13902,267.6235 87.34488,256.90112 87,246 86.96,245.09379 86.9201,244.18758 86.87891,243.25391 86.50333,227.32505 88.84964,211.34716 93,196 c 0.19545,-0.72365 0.39091,-1.44729 0.59229,-2.19287 C 100.31528,169.81473 113.54791,148.60948 131,131 c 0.90105,-0.91394 1.80211,-1.82789 2.73047,-2.76953 C 162.38806,100.6006 202.76996,87.506991 242.0625,87.625 Z m 24.48047,69.88672 C 264.15341,159.84989 261.93235,161.4259 259,163 c -0.70125,-0.61875 -1.4025,-1.2375 -2.125,-1.875 -5.86418,-4.33439 -11.78446,-4.83734 -18.875,-4.125 -7.02534,1.67386 -11.92574,4.93645 -15.75,11.125 -3.38282,6.53013 -4.17581,12.6902 -2,19.75 1.18399,3.08274 2.50019,5.66092 4.75,8.125 -1.62304,4.12228 -4.60778,6.84719 -7.71558,9.87915 -0.58401,0.57788 -1.16803,1.15577 -1.76974,1.75116 -1.26757,1.25328 -2.53738,2.50431 -3.80914,3.75334 -2.01965,1.98478 -4.03205,3.97664 -6.04253,5.9707 -5.71719,5.6684 -11.44523,11.32575 -17.18278,16.97353 -3.51231,3.45835 -7.01448,6.92669 -10.51086,10.40112 -1.32731,1.31498 -2.65838,2.62617 -3.99344,3.93328 C 163.44944,258.9705 154.04131,268.7514 152,284 c 0.071,1.75166 0.17334,3.50243 0.3125,5.25 0.12496,3.13906 0.0392,4.30802 -1.94141,6.79687 -1.42636,1.31341 -2.86821,2.61017 -4.32422,3.89063 -4.24511,4.27752 -6.16765,10.16412 -6.54687,16.125 0.94243,7.42161 3.6942,13.09933 9.5,17.9375 6.6682,4.80111 11.87906,5.9354 20,5 5.22136,-1.73051 9.14449,-3.99888 12.77734,-8.10938 3.49581,-3.6018 6.62132,-3.81296 11.47266,-4.01562 19.14513,-1.5857 29.92828,-13.74998 42.85156,-26.78125 1.33048,-1.33422 2.66141,-2.66799 3.99277,-4.00134 3.47315,-3.48072 6.94024,-6.96741 10.40604,-10.45545 3.54957,-3.57017 7.10493,-7.13456 10.65979,-10.69946 C 268.1124,267.96392 275.05825,260.98402 282,254 c 0.60328,0.34934 1.20656,0.69867 1.82812,1.05859 0.79922,0.45504 1.59844,0.91008 2.42188,1.37891 0.78891,0.45246 1.57781,0.90492 2.39062,1.37109 5.91314,2.98594 12.72142,3.33294 19.02344,1.35547 7.06536,-3.18047 11.20248,-7.61022 14.46875,-14.58203 1.71544,-5.10766 1.8368,-10.8287 0.0391,-15.93359 C 321.19468,226.70134 320.13429,224.85876 319,223 c -0.67692,-1.32816 -1.34632,-2.66025 -2,-4 1.30324,-1.25104 1.30324,-1.25104 2.63281,-2.52734 11.01271,-10.69697 19.30285,-19.85348 19.80469,-35.84766 -0.30012,-13.03544 -5.38471,-21.91685 -14.5625,-30.8125 -19.74128,-16.82646 -42.23639,-9.49007 -58.33203,7.69922 z"
     fill="#fe7689"
     id="path1" />
  <path
     d="m 360,69 c 1.0493,0.766992 2.09859,1.533984 3.17969,2.324219 C 370.90224,77.063971 378.05151,83.34893 385,90 c 0.55301,0.520459 1.10602,1.040918 1.67578,1.577148 37.36097,35.273652 59.90511,86.702502 62.23438,137.946292 0.0445,1.7209 0.0445,1.7209 0.0898,3.47656 0.04,1.22977 0.0799,2.45953 0.12109,3.72656 0.25519,14.98128 -1.30187,29.80647 -4.05859,44.52344 -0.15759,0.84458 -0.31518,1.68916 -0.47754,2.55933 C 443.4812,289.37293 441.91599,294.6631 440,300 c -3.01413,-0.98072 -5.99172,-1.99677 -8.94531,-3.14844 C 420.91949,292.94192 410.66341,290.92027 400,289 c 0.14099,-0.58153 0.28198,-1.16306 0.42725,-1.76221 11.43087,-47.84865 6.26103,-94.0717 -19.3335,-136.48486 C 378.31674,146.30228 375.2331,142.12629 372,138 c -0.66258,-0.86625 -1.32516,-1.7325 -2.00781,-2.625 C 343.83701,102.17434 304.81876,79.510671 262.67969,74.472656 229.23126,71.275826 196.27318,76.215944 166,91 c -0.69722,0.339023 -1.39444,0.678047 -2.11279,1.027344 C 147.84092,99.932843 134.272,110.07241 121,122 c -0.67547,0.60199 -1.35094,1.20398 -2.04687,1.82422 C 104.64248,137.35119 94.1396,155.25408 86,173 c -0.27973,0.60924 -0.55945,1.21849 -0.84766,1.84619 -3.40095,7.56384 -5.861,15.19702 -7.90234,23.21631 -0.19876,0.77827 -0.39751,1.55654 -0.60229,2.3584 -3.03662,12.60461 -3.99814,25.02286 -3.96338,37.93677 0.003,2.44178 -0.0204,4.88234 -0.0457,7.32397 -0.0433,10.74732 1.09661,20.81792 3.36133,31.31836 0.19344,0.89936 0.38688,1.79873 0.58618,2.72534 0.48434,2.08877 1.01831,4.14897 1.60132,6.21216 0.20577,0.73178 0.41153,1.46357 0.62354,2.21753 2.55658,8.64574 6.24597,16.75538 10.18896,24.84497 0.81598,1.69383 0.81598,1.69383 1.64844,3.42187 7.5747,14.85381 17.74468,27.71042 29.35156,39.57813 1.06734,1.16016 1.06734,1.16016 2.15625,2.34375 25.38048,26.94235 61.82955,42.1283 97.84375,47.65625 1.23943,0.19723 1.23943,0.19723 2.50391,0.39844 22.32107,2.87262 44.91543,-0.75999 66.49609,-6.39844 0.23783,1.57975 0.23783,1.57975 0.48047,3.19141 C 291.53231,416.11949 295.38961,427.7637 300,440 c -47.45722,13.72191 -97.0925,10.0988 -143,-8 -0.75297,-0.296 -1.50595,-0.592 -2.28174,-0.89697 C 137.01751,424.00355 120.66984,414.16887 106,402 c -0.55849,-0.45311 -1.11697,-0.90621 -1.69238,-1.37305 C 80.32323,381.14548 63.01776,356.90044 50,329 49.46762,327.87594 48.93523,326.75187 48.38672,325.59375 38.11293,302.8693 31.93319,276.62524 31.79688,251.67187 c -0.007,-0.86289 -0.0141,-1.72579 -0.0214,-2.61483 C 31.54959,213.35157 31.54959,213.35157 35,198 c 0.20399,-0.94359 0.40799,-1.88719 0.61816,-2.85937 C 45.89159,148.484 69.73233,105.46534 108,76 c 0.58701,-0.461484 1.17401,-0.922969 1.77881,-1.398438 C 179.79539,20.134002 288.11173,15.869745 360,69 Z"
     fill="#fe7989"
     id="path2" />
  <path
     d="M 389.49219,302.87891 C 412.48061,302.31253 434.97069,310.57076 452,326 c 0.83016,0.73735 1.66031,1.47469 2.51563,2.23438 15.45283,14.5048 25.0001,34.74535 25.76562,55.9375 0.55053,26.40816 -5.44675,49.91988 -24.01367,69.58179 -16.36598,16.74834 -36.61161,26.14066 -60.17602,26.5393 C 371.20939,480.43574 350.99984,474.50196 332,458 c -0.74636,-0.64582 -1.49273,-1.29164 -2.26172,-1.95703 -16.06378,-14.99076 -25.99351,-37.46987 -26.96093,-59.27343 -0.69457,-25.06662 7.83854,-47.17776 24.82812,-65.59375 16.77347,-17.34126 37.7696,-27.12505 61.88672,-28.29688 z M 362.125,362.1875 c -1.47905,2.38292 -1.99091,3.99668 -2.125,6.8125 1.87548,3.6274 4.11362,6.35252 7.01172,9.20704 0.75732,0.75087 1.51465,1.50175 2.29492,2.27539 0.78569,0.76892 1.57137,1.53785 2.38086,2.33007 0.79729,0.78827 1.59457,1.57653 2.41602,2.38868 1.96104,1.93755 3.9266,3.87027 5.89648,5.79882 -1.44401,3.34362 -3.24554,5.43631 -5.8789,7.9336 -1.13406,1.09731 -1.13406,1.09731 -2.29102,2.21679 -1.59515,1.52483 -3.19412,3.04568 -4.79687,4.5625 -1.13212,1.09925 -1.13212,1.09925 -2.28711,2.22071 -0.69424,0.66056 -1.38849,1.32113 -2.10376,2.00171 -1.91942,2.41303 -2.40984,4.00698 -2.64234,7.06469 1.75114,3.71262 1.75114,3.71262 5,6 3.04832,0.58064 5.09935,0.58703 7.75,-1.14062 2.17918,-1.87046 4.21376,-3.83322 6.25,-5.85938 0.75749,-0.74709 0.75749,-0.74709 1.53028,-1.50927 3.51719,-3.47034 7.002,-6.97099 10.46972,-10.49073 3.24095,1.41921 5.35836,3.13309 7.82031,5.66016 1.04995,1.06638 1.04995,1.06638 2.1211,2.1543 0.72058,0.74185 1.44117,1.48371 2.18359,2.24804 1.43788,1.47224 2.87788,2.9424 4.32031,4.41016 0.63439,0.65235 1.26876,1.30469 1.92237,1.97681 2.24714,2.13455 3.38896,2.52408 6.50732,2.86303 3.15918,-0.072 3.15918,-0.072 5.5,-1.875 1.68564,-2.52845 2.34835,-4.28818 2.27588,-7.34008 -1.5581,-5.02089 -6.42103,-8.54648 -10.15088,-12.03492 -0.90621,-0.87462 -1.81242,-1.74925 -2.74609,-2.65039 C 408.51754,397.25814 406.26652,395.12216 404,393 c 1.44402,-3.34362 3.24554,-5.4363 5.87891,-7.93359 0.75603,-0.73154 1.51207,-1.46309 2.29101,-2.2168 1.59515,-1.52483 3.19412,-3.04567 4.79688,-4.5625 0.75474,-0.73283 1.50949,-1.46566 2.28711,-2.2207 0.69424,-0.66056 1.38848,-1.32113 2.10376,-2.00171 1.91985,-2.41358 2.41465,-4.00539 2.64233,-7.0647 -1.14159,-2.28318 -2.19012,-4.19012 -4,-6 -3.34753,-0.54653 -5.86435,-0.7116 -8.82031,1.14063 -2.16415,1.86533 -4.16899,3.82846 -6.17969,5.85937 -1.05784,1.04634 -2.11649,2.09185 -3.17578,3.13672 -2.96235,2.93409 -5.89801,5.89318 -8.82422,8.86328 -3.24095,-1.4192 -5.35835,-3.13308 -7.82031,-5.66015 -0.69996,-0.71092 -1.39992,-1.42184 -2.12109,-2.1543 -0.72059,-0.74185 -1.44118,-1.48371 -2.1836,-2.24805 -1.43787,-1.47223 -2.87788,-2.94239 -4.32031,-4.41015 -0.95157,-0.97852 -0.95157,-0.97852 -1.92236,-1.97681 -2.48712,-2.3625 -3.54689,-2.54432 -7.06983,-2.80054 -3.42865,-0.0426 -3.42865,-0.0426 -5.4375,1.4375 z"
     fill="#fd4f85"
     id="path3" />
  <path
     d="m 310.5,157.6875 c 6.7823,4.07508 11.01246,9.84989 13.5,17.3125 0.23828,2.12891 0.23828,2.12891 0.3125,4.5625 0.0561,1.17756 0.0561,1.17756 0.11328,2.37891 -1.46092,10.49448 -7.10087,16.49555 -14.61328,23.55859 -1.82853,1.75864 -3.65544,3.51897 -5.48047,5.28125 -0.80719,0.76377 -1.61439,1.52754 -2.44604,2.31445 -2.26077,2.28272 -2.79834,3.43319 -3.38599,6.5918 0.65785,4.35825 2.57244,5.83413 5.77344,8.69922 2.7351,2.55565 3.68089,4.26095 4.16406,7.98828 C 308,240 308,240 305.9375,242.9375 303,245 303,245 299.6875,245.75 c -9.33161,-1.89796 -17.11716,-12.98236 -23.77344,-19.59766 -0.84579,-0.83967 -0.84579,-0.83967 -1.70867,-1.69631 -2.97487,-2.95418 -5.94657,-5.9115 -8.91584,-8.87131 -3.05809,-3.04696 -6.12769,-6.08204 -9.19991,-9.11474 -2.3727,-2.34656 -4.73647,-4.70196 -7.09793,-7.05982 -1.12813,-1.12327 -2.25963,-2.24318 -3.39458,-3.35955 -1.58412,-1.55974 -3.15511,-3.13167 -4.7236,-4.7071 -0.8952,-0.88934 -1.7904,-1.77868 -2.71273,-2.69497 C 235.82836,185.78962 234.82427,183.58041 234,180 c 0.86466,-3.38002 2.0119,-6.10754 5,-8 3.39118,-0.72668 4.76603,-0.95959 8,0 2.96752,2.20673 5.6262,4.56366 8.28906,7.12891 2.55997,2.16972 2.55997,2.16972 5.60596,1.74292 3.62342,-1.0174 4.96171,-2.20635 7.4956,-4.94996 0.79278,-0.83144 1.58555,-1.66289 2.40235,-2.51953 1.62301,-1.75203 3.24542,-3.50462 4.86719,-5.25781 9.37701,-9.83147 21.18455,-16.74362 34.83984,-10.45703 z"
     fill="#fe6888"
     id="path4" />
  <path
     d="m 172,272 c 22.77,0 45.54,0 69,0 -1.62408,3.24816 -2.54128,4.7947 -4.96167,7.23633 -0.89685,0.91114 -0.89685,0.91114 -1.81181,1.8407 -0.96871,0.96734 -0.96871,0.96734 -1.95699,1.95422 -0.66865,0.67293 -1.33729,1.34586 -2.0262,2.03918 -1.41555,1.42129 -2.83372,2.83998 -4.25432,4.25623 -2.15994,2.1568 -4.30626,4.32654 -6.4519,6.49756 -1.38005,1.38232 -2.76088,2.76386 -4.14258,4.14453 -0.63568,0.64489 -1.27137,1.28979 -1.92631,1.95422 -4.52794,4.48198 -9.86105,9.3457 -16.46822,10.07703 -1.87897,-0.0773 -3.75801,-0.15727 -5.63525,-0.2688 -8.10449,-0.44162 -8.10449,-0.44162 -14.98975,3.4563 -1.15509,1.24355 -2.28265,2.51349 -3.375,3.8125 -3.00419,3.04184 -5.22014,4.86318 -9.5625,5.625 -4.38565,-0.79739 -5.85387,-2.02357 -8.4375,-5.625 -0.75,-2.8125 -0.75,-2.8125 0,-6 2.86689,-3.9849 6.28564,-7.36164 9.9375,-10.625 2.86269,-4.6844 2.25152,-8.5035 2.04687,-13.88672 C 167.01238,282.23516 169.24812,277.50376 172,272 Z"
     fill="#fe7f89"
     id="path5" />
  <path
     d="m 236,208 c 2.99944,1.34573 5.08076,2.83537 7.3916,5.16455 0.64036,0.64051 1.28073,1.28103 1.94049,1.94095 0.67932,0.68964 1.35863,1.37928 2.05853,2.08981 0.70462,0.70745 1.40923,1.41489 2.1352,2.14377 2.24613,2.25732 4.48521,4.5215 6.72418,6.78592 1.52298,1.53301 3.04641,3.06557 4.57031,4.59766 3.73186,3.75389 7.45794,7.51343 11.17969,11.27734 -1.37872,1.65447 -2.76721,3.30149 -4.19568,4.91321 -1.83292,2.06087 -1.83292,2.06087 -3.41821,4.30542 -2.95583,3.65434 -5.11132,5.52418 -9.79505,6.46911 -4.25322,0.2389 -8.43014,0.21382 -12.68481,0.0935 -1.55795,-0.0149 -3.11595,-0.0263 -4.67395,-0.0343 -4.07806,-0.0304 -8.1538,-0.10881 -12.23096,-0.19763 -4.1694,-0.0822 -8.33917,-0.11845 -12.50915,-0.15869 C 204.32707,257.30512 196.16382,257.1688 188,257 c 4.93997,-5.96118 10.2853,-11.41486 15.77344,-16.87109 0.92374,-0.92233 1.84749,-1.84466 2.79922,-2.79494 2.43409,-2.43031 4.87118,-4.8576 7.30893,-7.28423 2.49574,-2.48543 4.98859,-4.97377 7.48169,-7.46185 C 226.23939,217.72245 231.11867,212.8602 236,208 Z"
     fill="#fe7588"
     id="path6" />
</svg>
