<?xml version="1.0" encoding="UTF-8" standalone="no"?>
<svg
   version="1.1"
   width="16"
   height="16"
   id="svg10"
   sodipodi:docname="title.svg"
   viewBox="0 0 512 512"
   inkscape:version="1.4.2 (f4327f4, 2025-05-13)"
   xmlns:inkscape="http://www.inkscape.org/namespaces/inkscape"
   xmlns:sodipodi="http://sodipodi.sourceforge.net/DTD/sodipodi-0.dtd"
   xmlns="http://www.w3.org/2000/svg"
   xmlns:svg="http://www.w3.org/2000/svg">
  <defs
     id="defs10" />
  <sodipodi:namedview
     id="namedview10"
     pagecolor="#ffffff"
     bordercolor="#111111"
     borderopacity="1"
     inkscape:showpageshadow="0"
     inkscape:pageopacity="0"
     inkscape:pagecheckerboard="1"
     inkscape:deskcolor="#d1d1d1"
     inkscape:zoom="1.4882812"
     inkscape:cx="255.66404"
     inkscape:cy="256"
     inkscape:window-width="1920"
     inkscape:window-height="991"
     inkscape:window-x="-9"
     inkscape:window-y="-9"
     inkscape:window-maximized="1"
     inkscape:current-layer="svg10" />
  <path
     d="m 114.38932,-0.13142776 c 1.1003,-0.003841 2.2006,-0.007682 3.33424,-0.0116398 1.20854,8.6648e-4 2.41708,0.001733 3.66225,0.002626 1.92613,-0.004457 1.92613,-0.004457 3.89119,-0.009003 3.56701,-0.008068 7.13401,-0.009859 10.70103,-0.0105975 3.84607,-0.001851 7.69213,-0.009398 11.53819,-0.0161352 8.41119,-0.0135826 16.82237,-0.0196079 25.23357,-0.0240107 5.25185,-0.002763 10.5037,-0.007 15.75555,-0.0115042 14.54046,-0.0121925 29.08092,-0.0224919 43.62139,-0.0258751 0.93065,-2.1956e-4 1.86129,-4.3913e-4 2.82014,-6.6535e-4 0.93287,-2.1828e-4 1.86574,-4.3655e-4 2.82688,-6.6145e-4 1.89036,-4.4346e-4 3.78072,-8.9003e-4 5.67108,-0.00134 0.93768,-2.2143e-4 1.87536,-4.4286e-4 2.84146,-6.71e-4 15.19394,-0.003948 30.38782,-0.0214023 45.58174,-0.0446885 15.59885,-0.0237139 31.19769,-0.0361759 46.79657,-0.0373419 8.75839,-9.1674e-4 17.51673,-0.006669 26.27511,-0.0248196 7.45796,-0.0154015 14.91584,-0.0205212 22.37382,-0.0122619 3.80453,0.003906 7.6089,0.002978 11.41341,-0.0110573 4.12656,-0.0150839 8.25275,-0.006872 12.37933,0.003582 1.19961,-0.008056 2.39923,-0.0161128 3.6352,-0.0244134 10.6985,0.063473 17.17748,2.48884216 25.0515,9.91534346 5.81278,6.5226602 7.32568,14.1327902 7.34405,22.6710132 0.008,1.881766 0.008,1.881766 0.0154,3.801547 6e-4,1.38964 10e-4,2.77928 0.002,4.16892 0.004,1.478403 0.008,2.956804 0.0133,4.435205 0.012,4.064127 0.0176,8.128243 0.0222,12.192385 0.006,4.383458 0.0176,8.766901 0.0283,13.150349 0.0245,10.590618 0.0392,21.181241 0.0521,31.771873 0.004,2.99401 0.008,5.98802 0.0118,8.98203 0.0252,18.6105 0.0473,37.22099 0.0597,55.8315 0.003,4.31041 0.006,8.62081 0.009,12.93121 7.5e-4,1.07128 10e-4,2.14255 0.002,3.24629 0.0126,17.32554 0.0458,34.65097 0.0875,51.97646 0.0425,17.80812 0.066,35.6162 0.0712,53.42437 0.003,9.99013 0.015,19.9801 0.0481,29.97017 0.0281,8.51491 0.0389,17.02962 0.0278,25.54457 -0.005,4.33686 -0.003,8.67332 0.0225,13.01012 0.0924,16.93223 -0.0692,32.94264 -5.04343,49.30518 -5.5532,20.24245 -3.07472,42.76091 2.84483,62.54335 1.29928,4.51518 1.98244,7.87325 0.58911,12.52002 -2,2 -2,2 -4.24512,2.24609 -0.94207,-0.002 -1.88414,-0.004 -2.85476,-0.006 -1.07976,0.003 -2.15952,0.005 -3.272,0.008 -1.18971,-0.007 -2.37941,-0.0144 -3.60517,-0.0218 -1.87312,4.4e-4 -1.87312,4.4e-4 -3.78409,8.8e-4 -3.42961,-10e-4 -6.85899,-0.0112 -10.28857,-0.0251 -3.58212,-0.0125 -7.16425,-0.0137 -10.7464,-0.0161 -6.78566,-0.006 -13.57126,-0.0226 -20.3569,-0.0427 -7.72419,-0.0223 -15.44839,-0.0333 -23.17261,-0.0434 -15.8915,-0.0209 -31.78293,-0.0561 -47.67438,-0.10064 0.0105,0.80743 0.0209,1.61487 0.0317,2.44678 0.0415,3.6427 0.0676,7.28536 0.0933,10.92822 0.0168,1.27101 0.0335,2.54203 0.0508,3.85156 0.006,1.21172 0.0129,2.42344 0.0195,3.67188 0.0105,1.12067 0.0209,2.24135 0.0317,3.39599 -0.22705,2.70557 -0.22705,2.70557 -2.22705,4.70557 -8.54898,1.64443 -14.80764,-3.64086 -21.6875,-8.0625 -1.81485,-1.16148 -3.63229,-2.31692 -5.46211,-3.4547 -1.65283,-1.02804 -3.29242,-2.07727 -4.9312,-3.12758 -3.34599,-1.55336 -4.49958,-1.58476 -7.91919,-0.35522 -2.23423,1.03693 -2.23423,1.03693 -4.39843,2.36328 -0.80954,0.47502 -1.61907,0.95004 -2.45313,1.43945 -1.2491,0.74734 -1.2491,0.74734 -2.52344,1.50977 -1.65358,0.97536 -3.30723,1.95062 -4.96093,2.92578 -2.2372,1.32179 -4.47225,2.64525 -6.69336,3.9939 -4.24372,2.53055 -6.98893,3.43844 -11.97071,2.76782 -1.68481,-1.15357 -1.68481,-1.15357 -3,-3 -0.34057,-2.7273 -0.34057,-2.7273 -0.29297,-5.98047 0.01,-1.16338 0.0193,-2.32676 0.0293,-3.52539 0.0251,-1.21494 0.0503,-2.42988 0.0762,-3.68164 0.0135,-1.22655 0.0271,-2.45309 0.041,-3.7168 0.0354,-3.03234 0.0848,-6.0638 0.14648,-9.0957 -0.66076,0.003 -1.32153,0.006 -2.00232,0.008 -16.10973,0.0664 -32.21941,0.11596 -48.32924,0.14705 -7.79073,0.0154 -15.58137,0.0365 -23.37205,0.0709 -6.79374,0.03 -13.58741,0.0493 -20.38122,0.0559 -3.59421,0.004 -7.18824,0.013 -10.7824,0.0349 -4.02139,0.0243 -8.04245,0.0248 -12.06392,0.0234 -1.17964,0.0108 -2.35929,0.0216 -3.57468,0.0327 -7.00724,-0.0261 -12.92138,-0.9299 -19.494167,-3.37326 -0.904921,-0.33 -1.809843,-0.66 -2.742187,-1 -12.928955,-6.06193 -21.9101,-16.46205 -27.308594,-29.54688 -2.249537,-6.35414 -3.0735,-12.50719 -3.080646,-19.24866 -0.0021,-0.6618 -0.0041,-1.32359 -0.0062,-2.00544 -0.0057,-2.21525 -0.0042,-4.43045 -0.0028,-6.64571 -0.0026,-1.6053 -0.0056,-3.2106 -0.009,-4.81589 -0.0081,-4.4099 -0.0099,-8.81977 -0.0106,-13.22967 -0.0019,-4.75682 -0.0094,-9.51363 -0.01614,-14.27045 -0.01358,-10.40094 -0.01961,-20.80188 -0.02401,-31.20283 -0.0028,-6.49582 -0.007,-12.99164 -0.0115,-19.48746 -0.01219,-17.98903 -0.02249,-35.97807 -0.02587,-53.96711 -2.2e-4,-1.15114 -4.4e-4,-2.30228 -6.66e-4,-3.4883 -2.18e-4,-1.15388 -4.36e-4,-2.30775 -6.61e-4,-3.49659 -4.44e-4,-2.33815 -8.9e-4,-4.6763 -0.0013,-7.01445 -2.21e-4,-1.15979 -4.43e-4,-2.31959 -6.71e-4,-3.51454 -0.0039,-18.78972 -0.0214,-37.5794 -0.04469,-56.36911 -0.02372,-19.29634 -0.03618,-38.59266 -0.03734,-57.88902 -9.17e-4,-10.83206 -0.0067,-21.66407 -0.02482,-32.49611 -0.01541,-9.22438 -0.02051,-18.44868 -0.01226,-27.67306 0.0039,-4.704248 0.003,-9.408362 -0.01106,-14.112592 -0.01277,-4.311952 -0.01152,-8.623671 5.9e-4,-12.935622 0.002,-1.554535 -0.0011,-3.109087 -0.0098,-4.663598 C 64.527438,43.317499 68.14898,28.239309 80.660653,15.24882 89.929977,6.3361191 101.2073,-0.11415051 114.38932,-0.13142776 Z"
     fill="#62d7b5"
     id="path1" />
  <path
     d="m 120.57745,378.7393 c 1.38984,-0.003 2.77967,-0.007 4.16951,-0.0116 3.80935,-0.0103 7.6186,-0.008 11.42796,-0.004 4.11178,0.002 8.22353,-0.007 12.3353,-0.014 8.04995,-0.0127 16.09987,-0.0145 24.14984,-0.0122 6.54014,0.002 13.08027,4e-5 19.62042,-0.004 0.9307,-6e-4 1.86141,-10e-4 2.82032,-0.002 1.89064,-0.001 3.78129,-0.002 5.67193,-0.004 17.72529,-0.0109 35.45056,-0.009 53.17584,-0.003 16.22854,0.005 32.45701,-0.006 48.68553,-0.0251 16.65776,-0.0194 33.31548,-0.0276 49.97325,-0.0239 9.35455,0.002 18.70904,-6.1e-4 28.06358,-0.0147 7.95943,-0.0119 15.91878,-0.0134 23.8782,-10e-4 4.06316,0.006 8.12617,0.007 12.18932,-0.005 3.71562,-0.0108 7.43097,-0.008 11.14658,0.006 1.98874,0.004 3.97748,-0.007 5.96619,-0.0183 1.17208,0.007 2.34415,0.0144 3.55175,0.0218 1.01575,-6e-5 2.03151,-1.1e-4 3.07804,-1.7e-4 2.91379,0.43365 3.77755,1.04821 5.51899,3.3749 1.99867,4.9826 0.004,9.86161 -1.3125,14.8125 -6.08371,24.28458 -6.48014,47.59415 0.72339,71.66748 1.29927,4.51518 1.98243,7.87324 0.58911,12.52002 -2,2 -2,2 -4.24512,2.24609 -0.94208,-0.002 -1.88415,-0.004 -2.85477,-0.006 -1.07976,0.003 -2.15952,0.005 -3.272,0.008 -1.1897,-0.007 -2.37941,-0.0144 -3.60516,-0.0218 -1.87313,4.4e-4 -1.87313,4.4e-4 -3.78409,8.8e-4 -3.42962,-0.001 -6.859,-0.0112 -10.28858,-0.0251 -3.58212,-0.0125 -7.16425,-0.0137 -10.7464,-0.0161 -6.78566,-0.006 -13.57126,-0.0226 -20.35689,-0.0427 -7.7242,-0.0223 -15.4484,-0.0333 -23.17262,-0.0434 -15.89149,-0.0209 -31.78292,-0.0561 -47.67437,-0.10064 0.0105,0.80743 0.0209,1.61487 0.0317,2.44677 0.0415,3.64271 0.0676,7.28537 0.0933,10.92823 0.0168,1.27101 0.0335,2.54203 0.0508,3.85156 0.006,1.21172 0.0129,2.42344 0.0195,3.67187 0.0105,1.12068 0.0209,2.24136 0.0317,3.396 -0.22705,2.70557 -0.22705,2.70557 -2.22705,4.70557 -8.54898,1.64442 -14.80765,-3.64086 -21.6875,-8.0625 -1.81486,-1.16148 -3.6323,-2.31692 -5.46212,-3.4547 -1.65283,-1.02804 -3.29242,-2.07728 -4.93119,-3.12758 -3.34599,-1.55336 -4.49959,-1.58476 -7.91919,-0.35522 -2.23424,1.03692 -2.23424,1.03692 -4.39844,2.36328 -0.80953,0.47502 -1.61906,0.95004 -2.45313,1.43945 -0.83273,0.49822 -1.66546,0.99645 -2.52343,1.50977 -1.65359,0.97535 -3.30724,1.95062 -4.96094,2.92578 -2.2372,1.32179 -4.47225,2.64525 -6.69336,3.99389 -4.24372,2.53056 -6.98892,3.43845 -11.9707,2.76783 -1.68482,-1.15357 -1.68482,-1.15357 -3,-3 -0.34058,-2.7273 -0.34058,-2.7273 -0.29297,-5.98047 0.01,-1.16338 0.0193,-2.32676 0.0293,-3.52539 0.0251,-1.21494 0.0503,-2.42989 0.0762,-3.68164 0.0135,-1.22655 0.0271,-2.45309 0.041,-3.7168 0.0354,-3.03234 0.0848,-6.0638 0.14649,-9.0957 -0.66077,0.003 -1.32154,0.006 -2.00233,0.008 -16.10973,0.0664 -32.21941,0.11595 -48.32924,0.14705 -7.79073,0.0154 -15.58137,0.0365 -23.37205,0.0709 -6.79374,0.03 -13.58741,0.0493 -20.38121,0.0559 -3.59422,0.004 -7.18825,0.013 -10.7824,0.0349 -4.02139,0.0243 -8.04246,0.0248 -12.06393,0.0234 -1.17964,0.0108 -2.35928,0.0216 -3.57467,0.0327 -7.00725,-0.0261 -12.92138,-0.9299 -19.494174,-3.37326 -0.904921,-0.33 -1.809843,-0.66 -2.742187,-1 -12.928925,-6.06075 -21.91007,-16.46087 -27.308564,-29.5457 -4.545085,-12.83825 -3.895314,-27.01113 1.542969,-39.45703 7.492669,-14.88828 17.61283,-24.14011 33.359906,-30.07013 5.77032,-1.5859 11.79081,-1.20412 17.72536,-1.18666 z"
     fill="#fecf8b"
     id="path2" />
  <path
     d="m 125,0 c 0,124.74 0,249.48 0,378 -5.94,0.66 -11.88,1.32 -18,2 -14.070501,4.1039 -25.711856,11.27385 -33.359375,23.93359 C 69.333327,411.98414 66.464691,419.86109 66,429 c -0.33,0 -0.66,0 -1,0 -0.06868,-48.46027 -0.121538,-96.92053 -0.153196,-145.38084 -0.0038,-5.72266 -0.0076,-11.44533 -0.0116,-17.16799 -7.87e-4,-1.13927 -0.0016,-2.27853 -0.0024,-3.45232 -0.01305,-18.44091 -0.0367,-36.88179 -0.06428,-55.32268 -0.02807,-18.92551 -0.04472,-37.851 -0.05081,-56.77652 -0.0041,-11.67574 -0.0171,-23.3514 -0.04148,-35.02711 -0.01587,-8.00914 -0.02065,-16.018233 -0.01676,-24.027384 0.0019,-4.619149 -0.001,-9.238159 -0.01711,-13.857283 -0.01466,-4.234469 -0.0153,-8.468707 -0.0051,-12.703187 0.0013,-1.526453 -0.0025,-3.05292 -0.01195,-4.579345 C 64.523128,43.188065 68.223005,28.163116 80.660156,15.25 93.990732,2.4312828 106.47611,0 125,0 Z"
     fill="#00cb93"
     id="path3" />
  <path
     d="m 173.11023,243.61905 c 0.94375,-0.005 1.88749,-0.009 2.85984,-0.0142 3.17613,-0.012 6.35184,-0.002 9.52798,0.007 2.27141,-0.004 4.54282,-0.009 6.81422,-0.0159 6.17963,-0.0137 12.35911,-0.008 18.53874,0.001 6.45685,0.008 12.91369,5.6e-4 19.37055,-0.004 11.53993,-0.006 23.07979,0.004 34.61972,0.0188 10.46781,0.0134 20.93553,0.0111 31.40335,-0.003 12.14952,-0.0161 24.29897,-0.022 36.4485,-0.0132 6.43373,0.005 12.86739,0.005 19.30112,-0.005 6.04759,-0.009 12.095,-0.003 18.14257,0.0147 2.22407,0.004 4.44816,0.003 6.67222,-0.004 3.02713,-0.008 6.05364,0.002 9.08073,0.017 1.33204,-0.01 1.33204,-0.01 2.69098,-0.0203 5.96128,0.0577 5.96128,0.0577 8.14346,1.69474 2.20807,2.9535 1.69065,6.53082 1.66397,10.07758 0.008,1.2809 0.008,1.2809 0.0159,2.58768 0.0132,2.82643 0.004,5.6523 -0.006,8.47873 0.002,1.96151 0.005,3.92302 0.009,5.88452 0.004,4.11246 -0.002,8.22472 -0.016,12.33716 -0.0171,5.27634 -0.007,10.55222 0.0107,15.82854 0.0108,4.05085 0.007,8.10159 -3.8e-4,12.15245 -0.002,1.9457 4.6e-4,3.89141 0.007,5.83709 0.008,2.71749 -0.004,5.43422 -0.0207,8.15165 0.006,0.80736 0.0121,1.61473 0.0184,2.44656 -0.0624,5.46426 -0.0624,5.46426 -1.68238,7.63085 -3.10874,2.3325 -7.09234,1.70669 -10.83444,1.68136 -0.94375,0.005 -1.88749,0.0108 -2.85984,0.0163 -3.17612,0.0144 -6.35183,0.007 -9.52798,5e-5 -2.27141,0.006 -4.54282,0.0127 -6.81422,0.0208 -6.17962,0.018 -12.3591,0.0168 -18.53874,0.0111 -5.15196,-0.003 -10.3039,0.003 -15.45586,0.009 -12.84483,0.0149 -25.68957,0.0112 -38.53441,-8.6e-4 -11.1623,-0.01 -22.32444,0.003 -33.48672,0.0269 -11.45507,0.0244 -22.91003,0.0336 -34.36513,0.0274 -6.43376,-0.003 -12.86738,-8.9e-4 -19.30112,0.0163 -6.04763,0.0154 -12.09495,0.0116 -18.14257,-0.007 -2.22407,-0.004 -4.44817,-5.3e-4 -6.67222,0.01 -3.02728,0.0131 -6.05349,0.002 -9.08073,-0.016 -0.88802,0.01 -1.77605,0.0192 -2.69098,0.0291 -5.89677,-0.0716 -5.89677,-0.0716 -8.46483,-2.32641 -1.49655,-3.45577 -1.37088,-6.89786 -1.3426,-10.59672 -0.005,-0.84433 -0.0105,-1.68866 -0.0159,-2.55857 -0.0132,-2.78853 -0.005,-5.57648 0.006,-8.36502 -0.002,-1.93766 -0.005,-3.87531 -0.009,-5.81297 -0.004,-4.05941 0.002,-8.11861 0.016,-12.17799 0.0171,-5.20793 0.007,-10.4154 -0.0107,-15.62331 -0.0108,-4.00024 -0.007,-8.00037 3.8e-4,-12.00061 0.002,-1.92058 -4.6e-4,-3.84117 -0.007,-5.76174 -0.008,-2.68145 0.004,-5.36215 0.0207,-8.04354 -0.006,-0.79645 -0.0121,-1.59289 -0.0184,-2.41347 0.0624,-5.39038 0.0624,-5.39038 1.68237,-7.55366 3.10799,-2.33631 7.09223,-1.70544 10.83488,-1.67724 z"
     fill="#00ca92"
     id="path4" />
  <path
     d="m 261.69141,51.503906 c 1.43294,-1.55e-4 2.86588,-0.0016 4.29881,-0.0044 2.99328,-0.0014 5.98608,0.0111 8.97927,0.03395 3.82543,0.02841 7.65007,0.02563 11.47557,0.01291 2.95554,-0.007 5.9109,8.5e-4 8.86642,0.01326 1.41011,0.0045 2.82025,0.0049 4.23037,9.35e-4 1.97379,-0.0029 3.94759,0.01581 5.92129,0.0354 1.12028,0.0054 2.24056,0.01081 3.39479,0.01637 4.744,0.585331 8.02967,2.343788 11.49266,5.59349 2.09612,3.550933 2.15872,6.50002 2.04004,10.501221 -0.006,0.725395 -0.0113,1.450789 -0.0172,2.198166 -0.0223,2.303123 -0.0725,4.604655 -0.12347,6.907303 -0.0201,1.567034 -0.0383,3.134094 -0.0547,4.701172 C 322.15136,85.343055 322.08239,89.171258 322,93 c 0.96825,-0.02618 1.9365,-0.05237 2.93409,-0.07935 3.61157,-0.09088 7.22305,-0.14804 10.83544,-0.195312 1.55975,-0.02506 3.11938,-0.05911 4.67872,-0.10254 2.24931,-0.06104 4.49707,-0.0891 6.74706,-0.111084 0.69087,-0.02581 1.38174,-0.05161 2.09354,-0.0782 3.84599,-0.0022 6.19892,0.593154 9.13645,2.972 3.81754,3.84687 3.70812,5.733506 3.75171,11.060306 0.007,0.66365 0.0131,1.3273 0.0199,2.01106 0.0197,2.20042 0.0314,4.40076 0.0414,6.60124 0.004,0.75193 0.008,1.50385 0.0123,2.27856 0.0209,3.98153 0.0352,7.96302 0.0445,11.94459 0.0111,4.10695 0.0454,8.21335 0.0852,12.32011 0.0262,3.16224 0.0345,6.32434 0.0381,9.48667 0.005,1.51344 0.0165,3.02686 0.035,4.54019 0.0244,2.12322 0.0234,4.24504 0.0165,6.36837 0.006,1.20642 0.0117,2.41284 0.0178,3.65582 -0.59102,4.03217 -1.95343,6.17038 -4.48775,9.32757 -3.64305,2.4287 -6.30722,2.25676 -10.51172,2.19532 -0.72822,-0.003 -1.45645,-0.006 -2.20674,-0.009 -2.32318,-0.0112 -4.64597,-0.0363 -6.96904,-0.0617 -1.57616,-0.01 -3.15234,-0.0191 -4.72851,-0.0273 -3.86148,-0.022 -7.72267,-0.0566 -11.58399,-0.0977 0.0314,1.40693 0.0314,1.40693 0.0635,2.84229 0.0684,3.5001 0.11844,6.99948 0.15625,10.5 0.02,1.51118 0.0473,3.02229 0.082,4.5332 0.0489,2.17972 0.0713,4.35841 0.0889,6.53858 0.0314,1.9638 0.0314,1.9638 0.0635,3.96728 -0.54197,4.3189 -1.61359,6.33974 -4.4541,9.61865 -4.31758,2.59263 -7.52757,3.3799 -12.53686,3.40406 -1.27831,0.0127 -2.55661,0.0254 -3.87364,0.0384 -1.3827,-0.002 -2.7654,-0.005 -4.14809,-0.009 -1.43198,0.005 -2.86395,0.01 -4.29592,0.0159 -2.99495,0.009 -5.98965,0.007 -8.9846,-0.003 -3.82435,-0.0115 -7.64777,0.009 -11.472,0.0379 -2.95557,0.0184 -5.91093,0.0181 -8.86655,0.0124 -1.40931,-1.5e-4 -2.81863,0.006 -4.22788,0.0183 -14.13398,0.10727 -14.13398,0.10727 -19.59446,-4.51462 -3.00128,-4.38375 -3.36016,-7.90712 -3.29297,-13.14843 0.004,-0.6574 0.008,-1.31479 0.0129,-1.9921 0.0167,-2.07859 0.0543,-4.15617 0.0926,-6.23447 0.0151,-1.41795 0.0288,-2.83592 0.041,-4.2539 0.0329,-3.45736 0.0846,-6.91413 0.14649,-10.3711 -1.3082,0.0314 -1.3082,0.0314 -2.64283,0.0635 -3.26345,0.0685 -6.52613,0.1185 -9.79003,0.15625 -1.40735,0.02 -2.81462,0.0472 -4.22168,0.082 -14.96507,0.36073 -14.96507,0.36073 -20.34546,-4.30176 -2.65141,-4.39045 -3.37771,-7.65313 -3.38819,-12.75219 -0.005,-0.64634 -0.0105,-1.29267 -0.0159,-1.95859 -0.0131,-2.11879 -0.004,-4.23682 0.006,-6.35562 -0.002,-1.48161 -0.005,-2.96322 -0.009,-4.44482 -0.004,-3.09751 0.002,-6.19477 0.016,-9.29225 0.0171,-3.96341 0.007,-7.92621 -0.0107,-11.8896 -0.0109,-3.05671 -0.007,-6.11327 3.9e-4,-9.16998 0.002,-1.46119 -4.4e-4,-2.92239 -0.007,-4.38357 -0.008,-2.04387 0.004,-4.08677 0.0207,-6.13058 0.004,-1.74157 0.004,-1.74157 0.007,-3.51833 0.59288,-4.831576 2.43363,-7.305303 6.1036,-10.401348 5.94667,-3.110229 13.18624,-2.114645 19.71485,-1.953125 1.41338,0.02009 2.8268,0.03834 4.24023,0.05469 3.44133,0.0438 6.88162,0.112674 10.32227,0.195313 -0.0157,-0.912898 -0.0314,-1.825796 -0.0476,-2.766358 -0.0513,-3.401262 -0.0888,-6.802112 -0.11719,-10.203613 -0.015,-1.469467 -0.0355,-2.93889 -0.0615,-4.408203 -0.0366,-2.117544 -0.0535,-4.234492 -0.0667,-6.352295 -0.0157,-1.272546 -0.0314,-2.545093 -0.0476,-3.856201 0.52363,-5.247976 2.07491,-7.370601 6.10986,-10.694824 5.80114,-3.00772 12.5605,-2.270742 18.92213,-2.21455 z"
     fill="#f83d48"
     id="path5" />
  <path
     d="m 124.3667,424.63086 c 1.68099,-0.009 1.68099,-0.009 3.39594,-0.0181 1.23636,0.009 2.47273,0.0175 3.74656,0.0265 1.3093,-0.003 2.6186,-0.005 3.96757,-0.008 3.64183,-0.007 7.28339,0.005 10.92518,0.0203 3.92432,0.0129 7.84862,0.009 11.77296,0.006 6.80169,-0.002 13.6033,0.008 20.40497,0.0247 9.83413,0.0244 19.66821,0.0322 29.50237,0.036 15.95429,0.007 31.90854,0.0265 47.86282,0.0549 15.50032,0.0275 31.00063,0.0488 46.50097,0.0615 1.43258,0.001 1.43258,0.001 2.8941,0.002 4.79109,0.004 9.58218,0.008 14.37327,0.0114 39.76223,0.0311 79.5244,0.084 119.28659,0.15097 0.0501,0.73689 0.10022,1.47377 0.15185,2.23299 0.23427,3.38769 0.47864,6.77458 0.72315,10.16154 0.0786,1.15891 0.15726,2.31782 0.23828,3.51185 0.7871,10.72609 2.89903,20.55877 6.02734,30.84362 0.94264,3.56489 0.84467,5.71938 -0.14062,9.25 -2,2 -2,2 -4.24512,2.2461 -0.94207,-0.002 -1.88415,-0.004 -2.85477,-0.006 -1.07976,0.003 -2.15952,0.005 -3.272,0.008 -1.1897,-0.007 -2.37941,-0.0144 -3.60516,-0.0218 -1.87313,4.4e-4 -1.87313,4.4e-4 -3.78409,8.8e-4 -3.42962,-10e-4 -6.859,-0.0112 -10.28857,-0.0251 -3.58213,-0.0125 -7.16426,-0.0137 -10.7464,-0.0161 -6.78567,-0.006 -13.57127,-0.0226 -20.3569,-0.0427 -7.7242,-0.0223 -15.4484,-0.0333 -23.17261,-0.0434 -15.8915,-0.0209 -31.78293,-0.0561 -47.67438,-0.10064 0.0105,0.80743 0.0209,1.61487 0.0317,2.44677 0.0415,3.64271 0.0675,7.28537 0.0933,10.92823 0.0168,1.27101 0.0335,2.54203 0.0508,3.85156 0.006,1.21172 0.0129,2.42344 0.0195,3.67187 0.0105,1.12068 0.0209,2.24136 0.0317,3.396 -0.22705,2.70557 -0.22705,2.70557 -2.22705,4.70557 -8.54898,1.64442 -14.80765,-3.64086 -21.6875,-8.0625 -1.81486,-1.16148 -3.63229,-2.31692 -5.46211,-3.4547 -1.65284,-1.02804 -3.29243,-2.07728 -4.9312,-3.12758 -3.34599,-1.55336 -4.49959,-1.58476 -7.91919,-0.35522 -2.23423,1.03692 -2.23423,1.03692 -4.39844,2.36328 -0.80953,0.47502 -1.61906,0.95004 -2.45312,1.43945 -0.83274,0.49822 -1.66547,0.99645 -2.52344,1.50977 -1.65359,0.97535 -3.30723,1.95062 -4.96094,2.92578 -2.23719,1.32179 -4.47224,2.64525 -6.69336,3.99389 -4.24371,2.53056 -6.98892,3.43845 -11.9707,2.76783 -1.68184,-1.09298 -1.68184,-1.09298 -3,-3 -0.36077,-3.09417 -0.36077,-3.09417 -0.34058,-6.94996 -6.6e-4,-1.05404 -6.6e-4,-1.05404 -0.001,-2.12937 0.002,-2.3215 0.0254,-4.64227 0.0489,-6.96364 0.006,-1.60997 0.01,-3.21994 0.0129,-4.82991 0.0114,-4.23667 0.0409,-8.47303 0.0741,-12.70958 0.0307,-4.32339 0.0444,-8.64682 0.0595,-12.97028 0.0322,-8.48256 0.0834,-16.96487 0.14649,-25.44726 -0.61053,0.003 -1.22106,0.006 -1.85009,0.008 -14.84713,0.0662 -29.69425,0.11588 -44.5415,0.14705 -7.17999,0.0155 -14.35988,0.0366 -21.53981,0.0709 -6.25714,0.0299 -12.51421,0.0492 -18.77141,0.0559 -3.314,0.004 -6.62774,0.0147 -9.94169,0.0349 -3.69715,0.0217 -7.39389,0.0248 -11.0911,0.0234 -1.10195,0.0108 -2.2039,0.0216 -3.33925,0.0327 -1.50811,-0.006 -1.50811,-0.006 -3.04669,-0.0125 -1.31217,0.004 -1.31217,0.004 -2.65085,0.008 C 118.50218,436.91751 117.61779,436.21049 116,434 c -0.63823,-5.10583 -0.63823,-5.10583 1.18802,-7.66443 2.47867,-1.82697 4.11277,-1.70831 7.17868,-1.70471 z"
     fill="#ff9765"
     id="path6" />
  <path
     d="m 316,437 c 40.59,0 81.18,0 123,0 1.32,7.92 2.64,15.84 4,24 1.58412,5.6282 1.58412,5.6282 3.36328,11.19531 0.7487,3.29793 0.49897,5.54933 -0.36328,8.80469 -2,2 -2,2 -4.24512,2.2461 -0.94207,-0.002 -1.88414,-0.004 -2.85476,-0.006 -1.07977,0.003 -2.15953,0.005 -3.27201,0.008 -1.1897,-0.007 -2.37941,-0.0144 -3.60516,-0.0218 -1.87312,4.3e-4 -1.87312,4.3e-4 -3.78409,8.8e-4 -3.42962,-10e-4 -6.859,-0.0112 -10.28857,-0.0251 -3.58213,-0.0125 -7.16426,-0.0137 -10.7464,-0.0161 -6.78567,-0.006 -13.57127,-0.0226 -20.3569,-0.0427 -7.7242,-0.0223 -15.44839,-0.0333 -23.17261,-0.0434 C 347.78287,483.07973 331.89146,483.04304 316,483 c 0,-15.18 0,-30.36 0,-46 z"
     fill="#ffd08c"
     id="path7" />
  <path
     d="m 124.3667,424.63086 c 1.68099,-0.009 1.68099,-0.009 3.39594,-0.0181 1.23636,0.009 2.47273,0.0175 3.74656,0.0265 1.3093,-0.003 2.6186,-0.005 3.96757,-0.008 3.64183,-0.007 7.28339,0.005 10.92518,0.0203 3.92432,0.0129 7.84862,0.009 11.77296,0.006 6.80169,-0.002 13.6033,0.008 20.40497,0.0247 9.83413,0.0244 19.66821,0.0322 29.50237,0.036 15.95429,0.007 31.90854,0.0265 47.86282,0.0549 15.50032,0.0275 31.00063,0.0488 46.50097,0.0615 1.43258,0.001 1.43258,0.001 2.8941,0.002 4.79109,0.004 9.58218,0.008 14.37327,0.0114 39.76223,0.0311 79.5244,0.0842 119.28659,0.15097 0,3.96 0,7.92 0,12 -66,0 -132,0 -200,0 0,15.18 0,30.36 0,46 -0.33,0 -0.66,0 -1,0 0,-15.18 0,-30.36 0,-46 -5.38373,0.0236 -5.38373,0.0236 -10.87622,0.0476 -11.83843,0.0496 -23.67687,0.083 -35.51537,0.10783 -7.17999,0.0155 -14.35988,0.0366 -21.53981,0.0709 -6.25714,0.0299 -12.51421,0.0493 -18.77141,0.0559 -3.314,0.004 -6.62774,0.0147 -9.94169,0.0349 -3.69715,0.0217 -7.39389,0.0248 -11.0911,0.0234 -1.10195,0.0108 -2.2039,0.0216 -3.33925,0.0327 -1.50811,-0.006 -1.50811,-0.006 -3.04669,-0.0125 -1.31217,0.004 -1.31217,0.004 -2.65085,0.008 C 118.50218,436.91751 117.61779,436.21049 116,434 c -0.63823,-5.10583 -0.63823,-5.10583 1.18802,-7.66443 2.47867,-1.82697 4.11277,-1.70831 7.17868,-1.70471 z"
     fill="#ffa871"
     id="path8" />
  <path
     d="m 222.24428,298.61905 c 1.06135,-0.008 2.12269,-0.0169 3.2162,-0.0256 1.73865,0.009 1.73865,0.009 3.51242,0.0184 1.22472,-0.005 2.44943,-0.0105 3.71126,-0.0159 3.35543,-0.0109 6.71029,-0.008 10.06569,10e-4 3.51132,0.008 7.02263,5.6e-4 10.53395,-0.004 5.89543,-0.005 11.79076,0.002 17.68617,0.016 6.8177,0.0163 13.63513,0.011 20.45282,-0.005 5.85318,-0.0136 11.70628,-0.0155 17.55948,-0.008 3.49608,0.005 6.99204,0.005 10.48812,-0.005 3.89547,-0.0103 7.79065,0.004 11.68611,0.0207 1.16112,-0.006 2.32224,-0.0122 3.51855,-0.0184 1.05853,0.008 2.11705,0.0169 3.20766,0.0256 0.9212,10e-4 1.84241,0.002 2.79153,0.003 C 343,299 343,299 344.7964,300.30115 c 2.0051,2.83013 1.56739,5.36414 1.2036,8.69885 -3.30962,2.20641 -4.31294,2.2522 -8.16199,2.2607 -1.06838,0.007 -2.13677,0.0142 -3.23753,0.0215 -1.17204,-0.002 -2.34409,-0.005 -3.55165,-0.007 -1.23432,0.005 -2.46865,0.0102 -3.74037,0.0155 -3.38636,0.0115 -6.77248,0.014 -10.15884,0.0114 -2.82569,-10e-4 -5.65137,0.004 -8.47706,0.009 -6.66479,0.0111 -13.32953,0.0115 -19.99434,0.005 -6.87958,-0.006 -13.75895,0.006 -20.6385,0.0276 -5.90411,0.0176 -11.80815,0.0236 -17.71228,0.0204 -3.52741,-0.002 -7.05467,8.4e-4 -10.58206,0.0147 -3.93149,0.0149 -7.86271,0.006 -11.79421,-0.006 -1.75806,0.0115 -1.75806,0.0115 -3.55165,0.0232 -1.06838,-0.007 -2.13677,-0.014 -3.23753,-0.0213 -1.39482,2.5e-4 -1.39482,2.5e-4 -2.81782,5.1e-4 C 216,311.00002 216,311.00002 214.20472,309.66413 212.31343,307.05162 212.54496,305.12026 213,302 c 2.97575,-2.91292 5.15133,-3.37593 9.24428,-3.38095 z"
     fill="#00a577"
     id="path9" />
  <path
     d="m 221.20668,270.62578 c 1.61737,-0.0105 1.61737,-0.0105 3.26741,-0.0213 1.18297,0.008 2.36593,0.0153 3.58475,0.0232 1.86852,-0.005 1.86852,-0.005 3.77479,-0.0111 3.4174,-0.007 6.83426,2e-5 10.25161,0.0133 3.57319,0.0113 7.14636,0.007 10.71955,0.005 5.99977,-8.8e-4 11.99943,0.0102 17.99917,0.0286 6.94205,0.0212 13.88393,0.0247 20.82601,0.0184 6.67262,-0.006 13.34518,-6e-5 20.01779,0.0112 2.84248,0.005 5.68492,0.006 8.5274,0.003 3.96519,-0.002 7.93023,0.0122 11.8954,0.0285 1.18499,-0.002 2.36998,-0.005 3.59088,-0.007 1.61314,0.0106 1.61314,0.0106 3.25886,0.0215 1.40727,0.003 1.40727,0.003 2.84296,0.006 C 344,271 344,271 346,273 c 0.5638,6.20182 0.5638,6.20182 -1.1997,8.69843 -2.41108,1.74315 -3.95386,1.68143 -6.91759,1.68925 -1.05853,0.01 -2.11706,0.0198 -3.20766,0.03 -1.16112,-0.005 -2.32225,-0.009 -3.51856,-0.0136 -1.22296,0.007 -2.44592,0.0137 -3.70594,0.0208 -3.35555,0.0152 -6.71053,0.0168 -10.06607,0.0111 -2.80076,-0.003 -5.60147,0.003 -8.40222,0.009 -6.60733,0.014 -13.21453,0.0125 -19.82186,0.001 -6.81715,-0.0115 -13.6339,0.003 -20.45099,0.0294 -5.85233,0.0222 -11.70454,0.0288 -17.55691,0.0229 -3.49563,-0.003 -6.991,-9.3e-4 -10.48659,0.0163 -3.89783,0.0183 -7.79517,0.004 -11.69301,-0.0129 -1.1591,0.01 -2.3182,0.0193 -3.51242,0.0293 -1.06135,-0.01 -2.12269,-0.0197 -3.2162,-0.0298 -1.38238,-3.1e-4 -1.38238,-3.1e-4 -2.79268,-6.3e-4 -3.22158,-0.65779 -4.42631,-1.96376 -6.4516,-4.50057 -0.4375,-2.5625 -0.4375,-2.5625 0,-5 2.38798,-3.23637 4.29862,-3.37489 8.20668,-3.37419 z"
     fill="#00a577"
     id="path10" />
</svg>
