<?xml version="1.0" encoding="UTF-8" standalone="no"?>
<svg
   version="1.1"
   width="16"
   height="16"
   id="svg4"
   sodipodi:docname="create-white.svg"
   inkscape:version="1.4.2 (f4327f4, 2025-05-13)"
   viewBox="0 0 512 512"
   xmlns:inkscape="http://www.inkscape.org/namespaces/inkscape"
   xmlns:sodipodi="http://sodipodi.sourceforge.net/DTD/sodipodi-0.dtd"
   xmlns="http://www.w3.org/2000/svg"
   xmlns:svg="http://www.w3.org/2000/svg">
  <defs
     id="defs4" />
  <sodipodi:namedview
     id="namedview4"
     pagecolor="#ffffff"
     bordercolor="#111111"
     borderopacity="1"
     inkscape:showpageshadow="0"
     inkscape:pageopacity="0"
     inkscape:pagecheckerboard="1"
     inkscape:deskcolor="#d1d1d1"
     inkscape:zoom="1.4882812"
     inkscape:cx="255.66405"
     inkscape:cy="255.32809"
     inkscape:window-width="1920"
     inkscape:window-height="991"
     inkscape:window-x="-9"
     inkscape:window-y="-9"
     inkscape:window-maximized="1"
     inkscape:current-layer="svg4" />
  <path
     id="path4"
     d="m 209.875,95.5625 c 1.11222,-0.0224 2.22444,-0.04479 3.37036,-0.06787 C 219.48652,95.51281 223.2743,95.791658 228,100 c 3.62834,3.8193 4.31,6.88279 4.5,12 -0.19,5.11721 -0.87166,8.1807 -4.5,12 -5.72697,4.70884 -11.17476,4.92028 -18.27344,5.32422 C 174.61758,131.32217 141.93069,142.46991 114,164 c -0.94231,0.71801 -1.88461,1.43602 -2.85547,2.17578 -29.29461,23.12287 -46.42703,54.29332 -57.26172,89.44922 -1.9876,6.28636 -3.56464,11.03276 -9.14062,14.96875 C 40.01648,273.01719 35.18087,272.64585 30,272 c -3.5625,-1.8125 -3.5625,-1.8125 -6,-4 -0.59812,-0.51563 -1.19625,-1.03125 -1.8125,-1.5625 C 18.73695,262.26052 19.65646,256.06736 20,251 c 0.66888,-3.79955 1.68674,-7.43737 2.8125,-11.125 0.30841,-1.02625 0.61682,-2.05251 0.93457,-3.10986 C 33.34837,206.07543 49.7183,179.07071 72,156 c 0.9196,-0.98276 1.83887,-1.96584 2.75781,-2.94922 C 108.99018,117.00708 160.56884,96.186151 209.875,95.5625 Z M 222,184 c 4.96763,2.3064 7.37449,5.24925 10,10 0.53746,2.86999 0.50763,5.66289 0.4541,8.57568 5.9e-4,0.83969 10e-4,1.67937 0.002,2.5445 -0.003,2.75985 -0.0338,5.5186 -0.0653,8.27826 -0.007,1.91956 -0.0132,3.83912 -0.0171,5.7587 -0.0152,5.04061 -0.0545,10.08075 -0.0988,15.12118 -0.041,5.14805 -0.0592,10.29617 -0.0793,15.44434 -0.0428,10.09265 -0.11106,20.18496 -0.19531,30.27734 1.06409,-0.009 2.12818,-0.0178 3.22452,-0.0269 10.03448,-0.0811 20.06889,-0.14107 30.10363,-0.18033 5.15882,-0.0209 10.31738,-0.0492 15.47605,-0.0945 4.97965,-0.0435 9.95905,-0.0674 14.93888,-0.0778 1.89861,-0.007 3.7972,-0.0218 5.69569,-0.0434 2.66215,-0.0291 5.32326,-0.033 7.98555,-0.0312 1.17388,-0.0216 1.17388,-0.0216 2.37149,-0.0436 5.19112,0.039 8.05795,1.12053 12.20419,4.49768 3.62834,3.8193 4.31,6.88279 4.5,12 -0.19,5.11721 -0.87166,8.1807 -4.5,12 -4.97846,4.055 -8.42658,4.5671 -14.57568,4.4541 -0.83969,5.9e-4 -1.67937,0.001 -2.5445,0.002 -2.75985,-0.003 -5.5186,-0.0338 -8.27826,-0.0652 -1.91956,-0.007 -3.83913,-0.0132 -5.75869,-0.0172 -5.04062,-0.0152 -10.08076,-0.0545 -15.12119,-0.0988 -5.14805,-0.041 -10.29617,-0.0592 -15.44434,-0.0794 -10.09265,-0.0428 -20.18496,-0.11106 -30.27734,-0.19531 0.009,1.06409 0.0178,2.12818 0.0269,3.22452 0.0811,10.03448 0.14107,20.06889 0.18033,30.10363 0.0209,5.15882 0.0492,10.31738 0.0945,15.47605 0.0435,4.97965 0.0674,9.95905 0.0777,14.93888 0.007,1.89861 0.0218,3.7972 0.0434,5.69569 0.0291,2.66215 0.033,5.32326 0.0312,7.98555 0.0144,0.78259 0.0288,1.56518 0.0436,2.37149 -0.039,5.19112 -1.12053,8.05795 -4.49768,12.20419 -3.8193,3.62834 -6.88279,4.31 -12,4.5 -5.11721,-0.19 -8.1807,-0.87166 -12,-4.5 -4.055,-4.97846 -4.5671,-8.42658 -4.4541,-14.57568 -5.8e-4,-0.83969 -0.001,-1.67937 -0.002,-2.5445 0.003,-2.75985 0.0338,-5.5186 0.0653,-8.27826 0.007,-1.91956 0.0132,-3.83912 0.0171,-5.7587 0.0152,-5.04061 0.0545,-10.08075 0.0988,-15.12118 0.041,-5.14805 0.0592,-10.29617 0.0794,-15.44434 0.0428,-10.09265 0.11107,-20.18496 0.19531,-30.27734 -1.06409,0.009 -2.12818,0.0178 -3.22452,0.0269 -10.03448,0.0811 -20.06889,0.14107 -30.10363,0.18033 -5.15882,0.0209 -10.31738,0.0492 -15.47605,0.0945 -4.97965,0.0435 -9.95905,0.0674 -14.93888,0.0778 -1.8986,0.007 -3.79719,0.0218 -5.69569,0.0434 -2.66215,0.0291 -5.32326,0.033 -7.98554,0.0312 -0.78259,0.0144 -1.56519,0.0288 -2.37149,0.0436 -5.19112,-0.039 -8.05796,-1.12053 -12.2042,-4.49768 -3.62834,-3.8193 -4.31,-6.88279 -4.5,-12 0.19,-5.11721 0.87166,-8.1807 4.5,-12 4.97847,-4.055 8.42659,-4.5671 14.57569,-4.4541 0.83968,-5.9e-4 1.67936,-10e-4 2.54449,-0.002 2.75985,0.003 5.5186,0.0338 8.27826,0.0652 1.91956,0.007 3.83913,0.0132 5.7587,0.0172 5.04061,0.0152 10.08075,0.0545 15.12118,0.0988 5.14805,0.041 10.29618,0.0592 15.44434,0.0794 10.09265,0.0428 20.18496,0.11106 30.27734,0.19531 -0.009,-1.06409 -0.0178,-2.12818 -0.0269,-3.22452 -0.0811,-10.03448 -0.14108,-20.06889 -0.18034,-30.10363 -0.0209,-5.15882 -0.0492,-10.31738 -0.0945,-15.47605 -0.0435,-4.97965 -0.0674,-9.95905 -0.0778,-14.93888 -0.007,-1.89861 -0.0218,-3.7972 -0.0434,-5.69569 -0.0291,-2.66215 -0.033,-5.32326 -0.0312,-7.98555 -0.0144,-0.78259 -0.0288,-1.56518 -0.0436,-2.37149 0.039,-5.19112 1.12054,-8.05795 4.49768,-12.20419 5.27133,-5.00776 11.10809,-4.92776 18,-4 z M 390,16 c 5.00685,2.32461 7.27138,5.279116 10,10 1.04282,3.14174 1.72503,6.332567 2.40234,9.570313 0.20445,0.91748 0.40889,1.83496 0.61953,2.780242 0.65055,2.922324 1.28487,5.84779 1.91563,8.774445 5.54811,27.488253 5.54811,27.488253 23.48291,48.214355 11.72725,7.549565 26.01866,9.473965 39.41455,12.361085 2.86731,0.62201 5.73097,1.25909 8.59473,1.89722 0.87196,0.1824 1.74392,0.36481 2.6423,0.55275 6.31651,1.41262 10.76183,3.5694 15.30301,8.34959 2.39804,5.165 2.37882,9.90023 1.625,15.5 -2.32461,5.00685 -5.27912,7.27138 -10,10 -3.14174,1.04282 -6.33257,1.72503 -9.57031,2.40234 -1.37622,0.30667 -1.37622,0.30667 -2.78025,0.61953 -2.92232,0.65055 -5.84779,1.28487 -8.77444,1.91563 -27.48825,5.54811 -27.48825,5.54811 -48.21436,23.48291 -7.54956,11.72725 -9.47396,26.01866 -12.36108,39.41455 -0.62201,2.86731 -1.25909,5.73097 -1.89722,8.59473 -0.1824,0.87196 -0.36481,1.74392 -0.55275,2.6423 -1.41262,6.31651 -3.5694,10.76183 -8.34959,15.30301 -5.165,2.39804 -9.90023,2.37882 -15.5,1.625 -5.00685,-2.32461 -7.27138,-5.27912 -10,-10 -1.04282,-3.14174 -1.72503,-6.33257 -2.40234,-9.57031 -0.30667,-1.37622 -0.30667,-1.37622 -0.61953,-2.78025 -0.65055,-2.92232 -1.28487,-5.84779 -1.91563,-8.77444 -5.54811,-27.48825 -5.54811,-27.48825 -23.48291,-48.21436 -11.72725,-7.54957 -26.01866,-9.47396 -39.41455,-12.36108 -2.86731,-0.62201 -5.73097,-1.25908 -8.59473,-1.89722 -0.87196,-0.1824 -1.74392,-0.36481 -2.6423,-0.55275 -6.31651,-1.41262 -10.76183,-3.5694 -15.30301,-8.34959 -2.39804,-5.165 -2.37882,-9.90023 -1.625,-15.5 2.32461,-5.00685 5.27912,-7.27138 10,-10 3.14174,-1.04282 6.33257,-1.72503 9.57031,-2.40234 0.91748,-0.20445 1.83496,-0.40889 2.78024,-0.61953 2.92233,-0.65055 5.8478,-1.28487 8.77445,-1.91563 27.48825,-5.54811 27.48825,-5.54811 48.21436,-23.48291 7.54956,-11.72725 9.47396,-26.018656 12.36108,-39.414551 0.62201,-2.867306 1.25909,-5.730972 1.89722,-8.594726 0.1824,-0.871961 0.36481,-1.743921 0.55275,-2.642304 C 367.56303,26.611498 369.71981,22.166176 374.5,17.625 379.665,15.226964 384.40023,15.246185 390,16 Z m -7,79 c -1.08592,1.582249 -2.09241,3.219204 -3.0625,4.875 C 372.94388,111.09932 363.2352,121.42005 351,127 c 0,0.66 0,1.32 0,2 1.58225,1.08592 3.2192,2.09242 4.875,3.0625 11.22432,6.99361 21.54505,16.7023 27.125,28.9375 0.66,0 1.32,0 2,0 1.08592,-1.58225 2.09241,-3.2192 3.0625,-4.875 C 395.05612,144.90068 404.7648,134.57995 417,129 c 0,-0.66 0,-1.32 0,-2 -1.58225,-1.08592 -3.2192,-2.09242 -4.875,-3.0625 C 400.90068,116.94388 390.57995,107.2352 385,95 c -0.66,0 -1.32,0 -2,0 z m 23,185 c 4.65352,2.16056 7.98624,5.23787 10,10 0.60222,3.94497 0.56784,7.82864 0.5,11.8125 -0.0128,1.1471 -0.0256,2.29421 -0.0388,3.47607 -1.22947,53.30164 -26.14693,101.75786 -63.89477,138.39502 -9.88069,9.3412 -21.06542,17.11347 -32.56641,24.31641 -0.59941,0.37866 -1.19883,0.75732 -1.81641,1.14746 -18.99845,11.82787 -40.41022,19.12782 -62.18359,23.85254 -0.75829,0.17644 -1.51658,0.35288 -2.29785,0.53467 -25.8926,5.85514 -57.05075,4.59859 -82.70215,-1.53467 -1.48162,-0.35409 -1.48162,-0.35409 -2.99316,-0.71533 C 117.19177,478.65014 72.6995,446.54286 45.18752,401.9375 14.98237,351.57943 14.98237,351.57943 20.00002,329 c 2.53831,-4.29352 5.2221,-7.40737 10,-9 5.91111,-0.69182 11.39836,-1.0357 16.5,2.375 5.80375,5.18149 7.1499,12.37047 9.1958,19.58325 2.68214,9.42358 6.0355,18.22095 10.3042,27.04175 0.30809,0.6368 0.61617,1.27359 0.93359,1.92969 4.77709,9.71275 10.49384,18.48288 17.06641,27.07031 1.07895,1.41732 1.07895,1.41732 2.17969,2.86328 27.42902,34.71328 68.22002,55.64377 111.82031,61.13672 45.53422,4.44565 89.83234,-9.14765 125.08936,-38.10913 30.87232,-25.85705 54.08199,-64.48436 58.23779,-105.08716 0.38718,-4.58748 0.72563,-9.17427 0.99023,-13.77051 0.54184,-9.09726 1.01763,-16.36821 7.68262,-23.0332 4.873,-3.0933 10.44186,-2.59605 16,-2 z"
     style="fill:#ffffff;fill-opacity:1" />
</svg>
