<?xml version="1.0" encoding="UTF-8" standalone="no"?>
<svg
   version="1.1"
   width="24"
   height="24"
   id="svg18"
   sodipodi:docname="hyperlink-available.svg"
   viewBox="0 0 960 960"
   inkscape:version="1.4.2 (f4327f4, 2025-05-13)"
   xmlns:inkscape="http://www.inkscape.org/namespaces/inkscape"
   xmlns:sodipodi="http://sodipodi.sourceforge.net/DTD/sodipodi-0.dtd"
   xmlns="http://www.w3.org/2000/svg"
   xmlns:svg="http://www.w3.org/2000/svg">
  <defs
     id="defs18" />
  <sodipodi:namedview
     id="namedview18"
     pagecolor="#ffffff"
     bordercolor="#111111"
     borderopacity="1"
     inkscape:showpageshadow="0"
     inkscape:pageopacity="0"
     inkscape:pagecheckerboard="1"
     inkscape:deskcolor="#d1d1d1"
     inkscape:zoom="23.8125"
     inkscape:cx="9.7217848"
     inkscape:cy="12.052493"
     inkscape:window-width="1920"
     inkscape:window-height="991"
     inkscape:window-x="-9"
     inkscape:window-y="-9"
     inkscape:window-maximized="1"
     inkscape:current-layer="svg18" />
  <path
     d="m 644.77331,629.6657 c 2.03544,0.16816 4.07088,0.33642 6.16799,0.50973 2.2395,0.19713 4.479,0.39412 6.78635,0.59715 2.34818,0.19752 4.69639,0.39507 7.11572,0.59859 6.4379,0.54417 12.8748,1.09877 19.31137,1.65851 6.71423,0.5819 13.42945,1.15198 20.14455,1.72373 11.19755,0.95533 22.39426,1.91998 33.59049,2.89057 12.65824,1.09731 25.31754,2.18159 37.97754,3.25813 11.9003,1.01227 23.79974,2.03396 35.69885,3.0602 5.03767,0.43371 10.07554,0.86518 15.11361,1.29435 7.01546,0.59911 14.02993,1.20881 21.04421,1.82159 2.08937,0.17636 4.17873,0.35292 6.33141,0.53473 1.89641,0.16797 3.79282,0.33578 5.74669,0.50876 1.65211,0.1428 3.30419,0.2857 5.00637,0.43288 3.9959,0.55211 3.9959,0.55211 7.99041,2.54935 0.65096,4.29 0.65096,4.29 0,9.98626 -3.36108,4.18456 -6.53779,7.61095 -10.41537,11.25013 -1.05921,1.03562 -2.11841,2.07121 -3.20973,3.13821 -3.38286,3.30064 -6.7975,6.56577 -10.21709,9.82833 -3.40708,3.28179 -6.80676,6.57064 -10.19573,9.87112 -2.1088,2.05052 -4.229,4.08939 -6.36155,6.11524 -4.72835,4.56803 -7.41761,7.38012 -9.53182,13.72276 1.70148,1.67486 3.40296,3.34973 5.15598,5.07535 16.02044,15.77763 32.00923,31.58672 47.96749,47.42724 8.20563,8.14305 16.42204,16.27456 24.664,24.38086 7.95159,7.8215 15.87366,15.67182 23.776,23.54307 3.022,2.99981 6.05452,5.98908 9.09758,8.96752 4.25656,4.16971 8.47428,8.37529 12.68482,12.5914 1.26996,1.22688 2.53991,2.45373 3.84834,3.71779 5.41859,5.49668 8.31019,8.65431 9.93821,16.33079 -1.70725,7.45693 -4.56714,10.51798 -9.96125,15.92341 -1.37853,1.4052 -1.37853,1.4052 -2.78489,2.83881 -3.03534,3.07776 -6.11201,6.10998 -9.19325,9.14175 -2.12737,2.13037 -4.25281,4.26266 -6.37638,6.39679 -4.45252,4.46115 -8.92544,8.90049 -13.41426,13.32511 -5.75101,5.67152 -11.4516,11.39075 -17.13826,17.12674 -4.37993,4.40827 -8.78376,8.79196 -13.19543,13.16845 -2.11166,2.09997 -4.2162,4.20711 -6.31346,6.32148 -2.93507,2.95106 -5.90038,5.86793 -8.87614,8.77789 -2.52135,2.50041 -2.52135,2.50041 -5.09366,5.05135 -4.84041,3.55887 -4.84041,3.55887 -9.61228,4.87818 -8.32151,-2.10546 -12.85893,-7.74241 -18.68853,-13.81822 -1.31328,-1.32787 -2.62658,-2.65575 -3.97966,-4.02385 -2.8478,-2.8858 -5.684,-5.78308 -8.50989,-8.69032 -4.46812,-4.59542 -8.9666,-9.15906 -13.47444,-13.7155 -9.55922,-9.67343 -19.07886,-19.38529 -28.59324,-29.10279 -11.02974,-11.26504 -22.07493,-22.51394 -33.16299,-33.72159 -4.44173,-4.5067 -8.85243,-9.04231 -13.26291,-13.57956 -2.71191,-2.74816 -5.42519,-5.49494 -8.14013,-8.2401 -1.22553,-1.27714 -2.45109,-2.55426 -3.71375,-3.87009 -3.73907,-3.86017 -3.73907,-3.86017 -9.50195,-8.37038 -8.74864,0.86437 -13.19307,6.63654 -18.90368,12.74808 -2.11213,2.18788 -4.22515,4.37495 -6.33892,6.56128 -3.30748,3.45645 -6.60469,6.92164 -9.88629,10.40267 -3.17857,3.35928 -6.39316,6.68048 -9.61423,9.99894 -0.97189,1.05253 -1.94378,2.10508 -2.94512,3.18951 -2.82769,2.88904 -2.82769,2.88904 -8.23479,7.03081 -5.33109,-0.73979 -5.33109,-0.73979 -9.98626,-1.99726 -3.28717,-24.59136 -5.70343,-49.21043 -7.87978,-73.92171 -0.35235,-3.96703 -0.70489,-7.93402 -1.05758,-11.90102 -0.73245,-8.2562 -1.46023,-16.51282 -2.18503,-24.76972 -0.92387,-10.51606 -1.86358,-21.03065 -2.80728,-31.54497 -0.73091,-8.17109 -1.45139,-16.34308 -2.16902,-24.51534 -0.34193,-3.87545 -0.68745,-7.75057 -1.03687,-11.62536 -1.84618,-20.52286 -3.4117,-40.76705 -2.83695,-61.39205 5.09279,-2.54642 7.97474,-1.94972 13.64186,-1.46576 z"
     fill="#9561ff"
     id="path1"
     style="stroke-width:1.99725" />
  <path
     d="m 115.84059,125.82684 c 8.30823,3.46348 14.73827,9.30166 21.59527,14.97939 22.50875,18.27375 46.34073,33.3941 71.74503,47.30989 6.52226,3.62002 6.52226,3.62002 12.51402,7.61452 -1.9687,11.45783 -4.13092,22.83782 -6.72513,34.17172 -13.33031,58.32677 -17.79918,115.38856 -21.23639,175.53969 -63.93202,0 -127.864038,0 -193.73339,0 0,-18.85871 0.04423729,-35.54471 3.1207058,-53.80097 0.3507864,-2.11405 0.7015739,-4.22809 1.0629905,-6.40623 C 17.960301,267.07865 54.186242,193.95271 108.22606,135.85991 c 3.91922,-4.18291 3.91922,-4.18291 7.61453,-10.03307 z"
     fill="#836cff"
     id="path2"
     style="stroke-width:1.99725" />
  <path
     d="m 0,433.40356 c 63.932018,0 127.86404,0 193.73339,0 1.97727,33.61374 1.97727,33.61374 3.99449,67.90656 4.19109,38.01905 10.13299,74.57745 18.64817,111.77976 2.03232,9.29656 3.70759,18.65028 5.31886,28.02784 -1.18463,0.68194 -2.36926,1.36388 -3.58978,2.06649 -30.29201,17.49982 -58.83456,35.55217 -85.678,58.03048 -4.11042,3.40677 -8.29132,6.64569 -12.59205,9.80683 -8.56334,-3.16561 -13.53212,-9.68156 -19.22354,-16.47733 -1.051232,-1.24496 -2.102472,-2.48993 -3.185554,-3.77265 C 37.373821,618.73612 0,527.54132 0,433.40356 Z"
     fill="#b051ff"
     id="path3"
     style="stroke-width:1.99725" />
  <path
     d="m 645.1122,433.40356 c 63.93202,0 127.86404,0 193.73339,0 0,15.26181 -0.13142,29.06756 -2.37174,43.93954 -0.26583,1.78788 -0.53164,3.57577 -0.80552,5.41784 -6.15905,39.27252 -17.56539,107.19838 -46.75403,136.38701 -4.87497,-0.0499 -9.6648,-0.24993 -14.52688,-0.55392 -1.57184,-0.093 -3.14368,-0.18635 -4.76317,-0.28231 -27.20804,-1.72071 -54.34768,-4.46901 -81.49019,-6.9904 -7.41733,-0.6868 -14.83541,-1.36498 -22.25355,-2.0426 -2.25127,-0.21218 -4.50251,-0.42435 -6.82198,-0.64294 -11.3641,-1.0362 -22.50772,-1.70543 -33.91884,-1.47134 2.06957,-13.63433 4.19419,-27.25729 6.42865,-40.86564 7.22604,-44.37214 11.17624,-87.91044 13.54386,-132.89524 z"
     fill="#6e79ff"
     id="path4"
     style="stroke-width:1.99725" />
  <path
     d="m 247.65917,209.7114 c 10.27577,2.06738 20.13258,4.55152 29.99632,8.09969 41.64663,14.97 83.47387,19.27226 127.78655,23.85633 0,54.04563 0,108.09125 0,163.77463 -60.63656,0 -121.27311,0 -183.74713,0 0,-49.17419 0,-49.17419 2.37173,-72.02588 0.26148,-2.59791 0.52296,-5.19583 0.79237,-7.87247 9.31402,-88.86003 9.31402,-88.86003 22.80016,-115.8323 z"
     fill="#7475ff"
     id="path5"
     style="stroke-width:1.99725" />
  <path
     d="m 221.69491,433.40356 c 60.63654,0 121.2731,0 183.74713,0 0,53.38654 0,106.77306 0,161.77737 -17.79551,1.97728 -35.59103,3.95456 -53.9258,5.99175 -31.70138,5.69 -61.08901,13.59428 -91.32157,24.42927 -4.1512,1.40155 -8.2703,2.54006 -12.5355,3.53226 -13.80931,-41.73655 -19.31959,-86.26582 -23.96701,-129.82135 -0.26518,-2.42526 -0.53038,-4.8505 -0.80358,-7.34927 -1.81967,-19.59249 -1.19367,-38.72536 -1.19367,-58.56003 z"
     fill="#9660ff"
     id="path6"
     style="stroke-width:1.99725" />
  <path
     d="m 433.40355,433.40356 c 60.63656,0 121.27311,0 183.74713,0 0,21.85042 -0.26357,42.79238 -2.37173,64.41137 -0.19354,2.02253 -0.19354,2.02253 -0.39118,4.08593 -4.17746,43.0752 -11.77824,85.47819 -23.20135,127.23335 -9.28496,-2.69032 -18.51748,-5.43914 -27.61826,-8.70678 -42.48742,-15.11778 -85.03303,-20.23188 -130.16461,-25.2465 0,-53.38653 0,-106.77306 0,-161.77737 z"
     fill="#826dff"
     id="path7"
     style="stroke-width:1.99725" />
  <path
     d="m 405.44204,623.14245 c 0,70.52295 0,141.0459 0,213.7059 -34.79564,-3.86617 -60.84026,-23.57669 -82.74745,-50.17508 -4.55817,-5.78227 -8.86692,-11.72315 -13.12062,-17.73146 -1.48812,-2.05709 -2.97623,-4.11418 -4.50942,-6.23361 -22.26342,-32.59715 -38.40826,-69.80557 -49.41637,-107.60972 47.90729,-19.09512 97.92961,-31.95603 149.79386,-31.95603 z"
     fill="#b54eff"
     id="path8"
     style="stroke-width:1.99725" />
  <path
     d="m 405.44204,0 c 0,70.522948 0,141.04589 0,213.70591 -16.56954,0 -31.03903,-0.71154 -47.18507,-3.12071 -2.32243,-0.34644 -4.64486,-0.69288 -7.03768,-1.04981 -32.54541,-5.18785 -65.78662,-13.32637 -95.57111,-27.78551 16.39316,-53.43537 41.07376,-103.158287 79.89005,-143.802102 1.14055,-1.266696 2.28109,-2.53339 3.45619,-3.838469 C 355.29079,16.612962 380.86061,0 405.44204,0 Z"
     fill="#4f8cff"
     id="path9"
     style="stroke-width:1.99725" />
  <path
     d="m 433.40355,623.14245 c 42.11996,2.34 42.11996,2.34 58.54443,5.36762 1.90471,0.34259 3.80942,0.68516 5.77184,1.03813 28.66961,5.40494 57.00068,13.16021 83.48034,25.55028 -7.75017,57.50977 -49.47369,120.11977 -91.87357,157.78286 -7.0615,5.19511 -14.32644,9.69817 -21.96976,13.98075 -2.12789,1.26285 -2.12789,1.26285 -4.29877,2.55117 -10.59983,5.89814 -16.52717,5.9765 -29.65451,7.43509 0,-70.52294 0,-141.04589 0,-213.7059 z"
     fill="#a756ff"
     id="path10"
     style="stroke-width:1.99725" />
  <path
     d="m 493.3211,9.9862576 c 7.96606,1.3248534 15.75955,3.1633544 23.59253,5.1179564 2.18581,0.538409 4.37165,1.076818 6.6237,1.631543 56.37754,14.28286 108.1075,38.562318 153.5309,75.137809 1.0147,0.811963 2.0294,1.623915 3.07487,2.460478 27.56634,22.197046 51.90005,46.871256 72.82068,75.432326 1.55762,2.11374 3.11526,4.22747 4.72006,6.40524 32.78505,45.92172 54.78733,97.17945 67.18099,152.1266 0.43946,1.91067 0.8789,3.82132 1.33167,5.78988 2.43571,11.48218 4.62342,22.59539 -1.58132,33.28134 -6.11064,3.46271 -10.8714,2.96383 -17.72561,2.12209 -5.19178,-3.37028 -7.53375,-6.45683 -9.29923,-12.39846 -1.19067,-5.71114 -2.20268,-11.435 -3.1836,-17.18583 C 775.87107,242.42306 717.74786,157.22585 636.57707,100.81439 592.52957,71.022336 544.31661,52.89653 492.51019,42.124647 c -3.20944,-0.688862 -3.20944,-0.688862 -6.48373,-1.391641 -2.87301,-0.591589 -2.87301,-0.591589 -5.80403,-1.19513 -5.27588,-1.720295 -7.51359,-3.218326 -10.86835,-7.581853 -2.42089,-7.424034 -2.64661,-10.625735 0.74897,-17.725606 7.40701,-5.9961502 14.13794,-5.038836 23.21805,-4.2441594 z"
     fill="#349cff"
     id="path11"
     style="stroke-width:1.99725" />
  <path
     d="m 504.59269,82.827909 c 1.55311,0.431081 3.10622,0.862164 4.70642,1.306308 2.49187,0.683309 2.49187,0.683309 5.03407,1.380427 54.90706,15.435396 103.60898,42.696616 144.75978,82.254476 0.93586,0.88436 1.87171,1.76875 2.83594,2.67992 49.45157,46.8793 87.24214,113.00057 97.02664,181.06721 -0.35262,6.46435 -0.94608,10.23154 -4.24417,15.72836 -6.07829,3.64698 -10.8201,3.09496 -17.7256,2.24691 -9.49799,-6.63607 -10.46904,-15.79059 -12.73248,-26.46359 -12.47867,-53.71991 -38.12919,-100.54247 -75.14658,-141.30553 -1.52931,-1.69665 -3.05861,-3.39329 -4.63426,-5.14137 -39.07982,-41.13316 -89.54606,-66.43239 -143.44322,-81.94972 -1.57694,-0.45924 -3.15386,-0.91849 -4.77859,-1.39164 -3.46857,-0.98111 -6.95272,-1.90794 -10.44656,-2.79499 -1.79319,-0.47725 -3.58638,-0.95451 -5.43392,-1.44624 -1.63163,-0.41274 -3.26329,-0.82548 -4.94438,-1.25072 -4.07444,-1.89339 -4.07444,-1.89339 -6.65879,-5.70212 -2.03053,-6.019271 -1.08864,-10.105414 0.58709,-16.163786 6.48631,-11.446462 24.71531,-5.782124 35.23861,-3.053905 z"
     fill="#4095ff"
     id="path12"
     style="stroke-width:1.99725" />
  <path
     d="m 231.68116,669.07923 c 0.82572,2.12091 0.82572,2.12091 1.66812,4.28463 21.24942,54.234 44.82765,104.52757 85.80524,146.81993 4.40021,4.68106 4.40021,4.68106 4.40021,6.6783 -59.30627,-5.1814 -120.32184,-41.33984 -165.8967,-77.8928 -1.34505,-1.07843 -2.69011,-2.15685 -4.07593,-3.26795 -6.29562,-5.2243 -10.40222,-9.11719 -13.7745,-16.70456 21.69695,-20.54897 46.28043,-36.71739 71.90105,-51.92854 1.49069,-0.91141 2.98136,-1.82281 4.51722,-2.76182 5.62502,-3.37266 8.76933,-5.22719 15.45529,-5.22719 z"
     fill="#c643ff"
     id="path13"
     style="stroke-width:1.99725" />
  <path
     d="m 323.55473,11.983509 c -2.21285,2.255334 -2.21285,2.255334 -4.47041,4.556229 -41.36684,42.968445 -68.57011,96.990912 -87.40316,153.226632 -33.37045,-15.48709 -66.11423,-35.23847 -91.87356,-61.91479 3.13351,-8.683733 9.8364,-13.452675 16.85181,-18.973895 1.31448,-1.039485 2.62897,-2.07897 3.98329,-3.14996 25.66043,-19.874229 53.56545,-36.235756 83.02197,-49.777199 2.28881,-1.060728 4.5776,-2.121454 6.93577,-3.214327 57.63809,-25.6757529 57.63809,-25.6757529 72.95429,-20.75269 z"
     fill="#5688ff"
     id="path14"
     style="stroke-width:1.99725" />
  <path
     d="m 501.94302,153.00039 c 4.55706,1.45247 9.00861,3.06564 13.47267,4.78247 1.62069,0.61292 3.2414,1.22582 4.9112,1.85731 39.13908,15.26258 71.5177,37.95401 100.8183,68.0465 1.0118,0.92169 2.02362,1.8434 3.06608,2.79303 29.53004,27.5793 59.56896,78.71334 63.2489,119.54643 0.0464,2.28236 0.0464,2.28236 0.0937,4.61083 0.0516,1.52674 0.10306,3.05346 0.15598,4.62645 -0.8293,5.36079 -2.31529,7.04149 -6.64709,10.22811 -7.27591,0.92603 -11.90418,1.4644 -18.02988,-2.85545 -5.68635,-7.40912 -7.57784,-15.3483 -10.1813,-24.23227 -18.65512,-59.19254 -58.08957,-110.08365 -113.47909,-139.29757 -18.21507,-9.17999 -37.20037,-16.14195 -56.41943,-22.89377 -11.25545,-4.05268 -11.25545,-4.05268 -14.72241,-8.07435 -1.22593,-6.12964 -0.65972,-10.3661 1.12346,-16.35249 9.64858,-9.26222 20.59256,-5.92021 32.58894,-2.78523 z"
     fill="#4c8eff"
     id="path15"
     style="stroke-width:1.99725" />
  <path
     d="m 489.32659,221.69492 c 5.39542,1.56142 10.38956,3.75448 15.4787,6.11658 1.4001,0.63656 2.80019,1.27312 4.2427,1.92898 50.22906,23.37843 86.56752,64.7436 106.74518,115.97907 1.84624,7.88362 1.31993,14.5141 -2.88664,21.52506 -6.0783,3.64698 -10.82012,3.09496 -17.72561,2.24691 -7.89501,-6.09655 -10.82306,-13.8253 -14.35524,-22.84356 -17.96771,-42.98178 -50.73472,-74.33655 -93.51291,-92.25293 -3.50356,-1.40307 -7.04018,-2.72277 -10.57822,-4.03645 -5.38321,-2.6994 -5.38321,-2.6994 -8.16844,-6.6393 -1.77323,-5.93739 -0.84816,-10.11742 0.78797,-16.03261 4.81525,-8.02542 11.34812,-6.57543 19.97251,-5.99175 z"
     fill="#5887ff"
     id="path16"
     style="stroke-width:1.99725" />
  <path
     d="m 607.16443,669.07923 c 0.65909,0 1.31819,0 1.99724,0 2.72892,20.7277 5.03662,41.455 6.85582,62.28245 0.3878,4.41651 0.79133,8.83141 1.1956,13.24644 1.32455,14.80292 2.25762,29.42931 1.93484,44.3062 -77.90179,41.43008 -77.90179,41.43008 -100.41649,37.06617 -1.13539,-0.36815 -2.27078,-0.73632 -3.44058,-1.11564 1.52159,-1.57308 3.04315,-3.14613 4.61084,-4.76688 14.06618,-14.7482 26.43513,-29.87053 37.33144,-47.16166 0.79748,-1.25543 1.59495,-2.51087 2.4166,-3.80434 18.39918,-29.26489 32.78496,-60.38425 43.76984,-93.14817 1.7476,-4.90731 1.7476,-4.90731 3.74485,-6.90457 z"
     fill="#a657ff"
     id="path17"
     style="stroke-width:1.99725" />
  <path
     d="m 486.45554,296.26417 c 21.09408,5.7468 40.58397,28.81803 51.92854,46.76376 3.08913,6.98415 4.20764,10.95627 2.87105,18.47458 -3.1207,4.74347 -3.1207,4.74347 -7.989,7.98901 -6.74073,1.37311 -6.74073,1.37311 -13.98076,0 -6.89218,-5.68771 -11.41922,-13.07449 -16.10284,-20.59666 -5.91137,-8.63215 -14.3909,-14.33389 -22.75433,-20.41963 -5.53059,-4.04336 -9.22451,-7.13918 -13.07137,-12.9095 0.37628,-6.02051 1.13416,-10.4604 4.11933,-15.72836 4.94234,-2.86973 9.27442,-3.80392 14.97938,-3.5732 z"
     fill="#637fff"
     id="path18"
     style="stroke-width:1.99725" />
</svg>
