<?xml version="1.0" encoding="UTF-8" standalone="no"?>
<svg
   version="1.1"
   width="24"
   height="24"
   id="svg16"
   sodipodi:docname="hyperlink-not-available.svg"
   viewBox="0 0 960 960"
   inkscape:version="1.4.2 (f4327f4, 2025-05-13)"
   xmlns:inkscape="http://www.inkscape.org/namespaces/inkscape"
   xmlns:sodipodi="http://sodipodi.sourceforge.net/DTD/sodipodi-0.dtd"
   xmlns="http://www.w3.org/2000/svg"
   xmlns:svg="http://www.w3.org/2000/svg">
  <defs
     id="defs16" />
  <sodipodi:namedview
     id="namedview16"
     pagecolor="#ffffff"
     bordercolor="#111111"
     borderopacity="1"
     inkscape:showpageshadow="0"
     inkscape:pageopacity="0"
     inkscape:pagecheckerboard="1"
     inkscape:deskcolor="#d1d1d1"
     inkscape:zoom="23.8125"
     inkscape:cx="12.115486"
     inkscape:cy="12.472441"
     inkscape:window-width="1920"
     inkscape:window-height="991"
     inkscape:window-x="-9"
     inkscape:window-y="-9"
     inkscape:window-maximized="1"
     inkscape:current-layer="svg16" />
  <path
     d="m 881.34097,590.38734 c 3.3818,2.91492 6.70928,5.8936 9.99023,8.92153 2.07697,1.88127 4.15394,3.76253 6.29386,5.70079 34.46388,32.19865 59.4576,78.7669 62.28337,126.35216 1.29852,66.33669 -10.89187,117.9943 -57.15974,167.67562 -37.1298,38.29462 -87.31796,60.01533 -140.65884,60.95168 -24.93236,0.15426 -47.38537,-1.25642 -71.09613,-9.14519 -2.04864,-0.66787 -2.04864,-0.66787 -4.13865,-1.34925 -53.28698,-17.92629 -94.40509,-57.33896 -119.54563,-107.18013 -5.50097,-11.7206 -9.28915,-23.8727 -12.7157,-36.34568 -0.49726,-1.77689 -0.99453,-3.5538 -1.50686,-5.38453 -12.78558,-53.79124 -1.14335,-109.95752 26.74156,-156.86234 8.41669,-13.39477 18.72433,-25.0287 30.17779,-35.89107 0.96156,-1.07932 1.92311,-2.15864 2.91382,-3.27068 11.95159,-13.0471 26.74165,-21.88941 41.84243,-30.81757 3.06599,-1.82495 3.06599,-1.82495 6.19394,-3.68679 68.67775,-37.50905 159.11673,-26.70603 220.38455,20.33145 z m -212.45896,76.29908 c -3.87472,5.6611 -5.42706,8.84852 -5.59453,15.71256 4.87032,9.99021 12.24768,17.05584 20.07205,24.74227 1.97325,1.96352 1.97325,1.96352 3.98637,3.96672 4.18086,4.1557 8.37634,8.29627 12.57243,12.43658 2.84682,2.82445 5.69266,5.64988 8.53748,8.4763 6.95564,6.90639 13.92443,13.79929 20.90041,20.68513 -3.53585,9.34897 -10.59835,15.20373 -17.65774,21.95431 -2.69689,2.63169 -5.39283,5.26435 -8.08793,7.89788 -4.24554,4.12521 -8.49878,8.24158 -12.76927,12.34098 -4.12742,3.97121 -8.22055,7.9753 -12.31038,11.98518 -1.28094,1.21216 -2.56189,2.42432 -3.88164,3.67321 -7.36806,7.27466 -11.27643,12.23474 -11.36178,23.10804 2.85832,6.41242 2.85832,6.41242 8.525,10.65257 7.08842,2.1355 7.08842,2.1355 14.91874,0 15.81266,-11.05366 29.05397,-26.66847 42.625,-40.34663 2.28338,-2.29331 4.56724,-4.58611 6.85162,-6.87841 5.53648,-5.55778 11.06618,-11.12219 16.59212,-16.69042 9.10552,3.50823 15.12219,10.35541 21.79536,17.18561 1.88262,1.89857 1.88262,1.89857 3.80326,3.8355 3.9985,4.03501 7.98242,8.08399 11.96466,12.13504 3.99931,4.05674 8.00167,8.11033 12.01034,12.15785 2.49171,2.51699 4.9777,5.03965 7.45742,7.56844 8.73066,9.03694 8.73066,9.03694 20.62638,11.56566 7.30731,0.0908 7.30731,0.0908 11.58867,-3.06262 3.15223,-5.07685 4.24313,-8.51498 4.52891,-14.51414 -4.84643,-9.99412 -12.25358,-17.06164 -20.07205,-24.74228 -1.31549,-1.30903 -2.63101,-2.61804 -3.98638,-3.96672 -4.18085,-4.15569 -8.37634,-8.29627 -12.57243,-12.43658 -2.84682,-2.82444 -5.69265,-5.64988 -8.53749,-8.4763 -6.95563,-6.90638 -13.92441,-13.79929 -20.90039,-20.68513 3.49733,-9.06364 10.29481,-15.0158 17.11659,-21.63805 1.26111,-1.24454 2.52221,-2.48906 3.82153,-3.77131 5.3826,-5.3112 10.79011,-10.59682 16.19536,-15.88498 3.94825,-3.86985 7.88367,-7.75237 11.81865,-11.63565 1.22334,-1.18756 2.44666,-2.37511 3.70706,-3.59864 8.21262,-8.0058 8.21262,-8.0058 13.40955,-18.03941 -0.43073,-5.8847 -1.34593,-9.49565 -4.66212,-14.38099 -6.03543,-4.16093 -9.22315,-5.07384 -16.65038,-4.79366 -16.23045,10.98383 -29.90979,27.52729 -43.69063,41.4119 -2.38606,2.39594 -4.7726,4.79138 -7.15965,7.18633 -5.78898,5.81022 -11.57121,11.6271 -17.34971,17.44775 -9.34796,-3.52821 -15.16001,-10.5831 -21.88694,-17.65165 -2.62255,-2.69628 -5.24641,-5.39129 -7.87147,-8.08514 -4.11086,-4.24133 -8.21102,-8.49147 -12.28851,-12.76488 -3.9517,-4.13122 -7.943,-8.22068 -11.94196,-12.30613 -1.80236,-1.92075 -1.80236,-1.92075 -3.64114,-3.88031 -6.29266,-6.36993 -9.69661,-8.99889 -18.60118,-11.32821 -6.96233,-0.68206 -6.96233,-0.68206 -11.94926,3.43243 z"
     fill="#426eff"
     id="path1"
     style="stroke-width:2.13088" />
  <path
     d="m 669.68122,181.72782 c 2.68749,4.80511 2.68749,4.80511 4.97015,11.23515 0.85818,2.38916 1.71637,4.77834 2.60058,7.2399 0.88635,2.60373 1.77269,5.20745 2.68591,7.89009 0.69317,1.99388 0.69317,1.99388 1.40033,4.02807 17.80718,51.23984 29.85394,103.97487 36.69577,157.75795 0.2548,1.93928 0.50962,3.87856 0.77215,5.8766 2.84611,24.10931 3.13801,47.85475 4.15636,72.28669 -80.17762,0 -160.35524,0 -242.96247,0 0,-75.93158 0,-151.86315 0,-230.09568 29.53912,-3.16382 29.53912,-3.16382 59.67499,-6.39155 38.37471,-6.76967 77.59545,-14.60809 113.88033,-29.34452 9.91514,-3.40885 9.91514,-3.40885 16.1259,-0.4827 z"
     fill="#347fff"
     id="path2"
     style="stroke-width:2.13088" />
  <path
     d="m 207.20003,480 c 79.4743,0 158.94861,0 240.83122,0 0.044,37.92184 0.088,75.84369 0.13321,114.91468 0.0191,11.9932 0.0388,23.98643 0.0588,36.34308 0.0106,14.59605 0.0106,14.59605 0.0106,21.41963 0.004,4.78645 0.0107,9.57292 0.0215,14.35937 0.0149,7.2317 0.0171,14.46329 0.0171,21.69498 0.008,2.14796 0.0149,4.29591 0.0233,6.50895 -0.002,1.93495 -0.006,3.86988 -0.008,5.86346 0.002,1.69485 0.004,3.38968 0.006,5.13589 -0.26235,3.85563 -0.26235,3.85563 -2.3936,5.98615 -3.05795,0.38403 -6.13224,0.63952 -9.20766,0.84055 -1.95163,0.14062 -3.90325,0.28117 -5.914,0.426 -2.13089,0.15339 -4.26177,0.30656 -6.45725,0.46449 -55.90103,4.54731 -108.85467,18.18264 -161.70857,36.61824 C 225.7438,664.9362 207.20007,573.18333 207.20007,480 Z"
     fill="#1d9cff"
     id="path3"
     style="stroke-width:2.13088" />
  <path
     d="m 262.61252,179.59731 c 10.44639,1.19747 19.74409,4.37037 29.59918,7.83755 51.48373,18.08109 100.63992,24.02224 155.81955,30.51173 0,75.93157 0,151.86315 0,230.09568 -79.47431,0 -158.94861,0 -240.83122,0 0,-87.73093 13.31263,-189.98721 55.41249,-268.44496 z"
     fill="#1d9cff"
     id="path4"
     style="stroke-width:2.13088" />
  <path
     d="m 4.7312977,480 c 56.2649943,0 112.5299823,0 170.4999823,0 2.10994,26.01359 4.21988,52.02719 6.39375,78.82907 10.13042,71.4359 28.3778,137.04041 53.28125,204.52949 -1.11266,0.53382 -2.22533,1.06764 -3.37171,1.61766 -5.27985,2.54773 -10.5467,5.12065 -15.80954,7.70335 -2.88289,1.41405 -2.88289,1.41405 -5.824,2.85663 -14.29279,7.14456 -27.76576,15.08755 -40.81791,24.31055 -9.4603,6.37116 -9.4603,6.37116 -16.53799,5.14841 -16.29251,-10.66887 -28.80345,-27.06336 -40.81844,-42.16089 -3.016,-3.76872 -6.09761,-7.48638 -9.25761,-11.13529 C 39.052264,677.92821 4.7312977,576.44027 4.7312977,480 Z"
     fill="#0ab3ff"
     id="path5"
     style="stroke-width:2.13088" />
  <path
     d="m 774.11246,122.07339 c 22.96814,18.96713 41.81103,40.23444 59.675,63.91547 1.51651,1.97739 3.03304,3.95477 4.5955,5.99207 50.98334,67.95435 87.36507,157.91848 87.08779,243.81139 -0.006,2.2959 -0.0107,4.59179 -0.0171,6.95724 -0.006,1.74659 -0.0149,3.49319 -0.0221,5.29271 -22.19363,0.0492 -44.38725,0.0872 -66.58091,0.11035 -10.30429,0.0107 -20.60856,0.0263 -30.91285,0.0503 -9.93568,0.0231 -19.87131,0.0358 -29.807,0.0414 -3.79935,0.004 -7.59868,0.0107 -11.39799,0.0233 -5.30268,0.0149 -10.60523,0.0171 -15.90792,0.0171 -1.58664,0.008 -3.17329,0.0149 -4.808,0.0233 -10.84229,-0.0223 -10.84229,-0.0223 -13.21661,-2.39598 -0.36289,-4.38939 -0.59063,-8.79001 -0.7659,-13.19089 -0.12852,-2.84304 -0.25955,-5.68598 -0.39286,-8.52881 -0.0697,-1.51388 -0.13959,-3.02774 -0.21142,-4.5875 -4.25363,-87.93408 -25.85631,-170.29734 -56.17386,-252.79033 1.25294,-0.67405 2.50591,-1.34813 3.79681,-2.0426 25.37548,-13.67653 50.52011,-27.56704 75.05943,-42.69823 z"
     fill="#4768ff"
     id="path6"
     style="stroke-width:2.13088" />
  <path
     d="m 153.91878,122.07339 c 14.93627,8.06661 29.77108,16.30174 44.54395,24.6627 12.07783,6.82151 24.25377,13.45893 36.44355,20.07813 -0.50294,1.28119 -1.00588,2.56237 -1.52404,3.88238 -35.46995,90.934 -50.67092,180.13862 -58.15096,277.34567 -56.265,0 -112.529989,0 -170.4999823,0 0,-20.18615 0.068475,-37.57661 3.5964837,-56.9913 0.3837658,-2.1825 0.7675316,-4.36499 1.1629254,-6.61365 C 28.391017,280.5739 79.163694,195.3438 153.91878,122.07339 Z"
     fill="#0ab3ff"
     id="path7"
     style="stroke-width:2.13088" />
  <path
     d="m 480,480 c 80.17762,0 160.35522,0 242.96247,0 -0.70331,12.65526 -1.40663,25.31053 -2.13125,38.34928 -9.23255,3.07646 -18.02927,5.58163 -27.43984,7.85628 -42.65737,11.07478 -77.97806,33.60983 -108.96015,64.58124 -1.73081,1.73022 -3.46161,3.46044 -5.24488,5.24308 -31.62955,33.34527 -46.67347,74.97597 -58.69261,118.32683 -5.95051,-0.29934 -11.89983,-0.61178 -17.84922,-0.9321 -1.69234,-0.0838 -3.3847,-0.16747 -5.12832,-0.25384 C 484.74535,712.46754 484.74535,712.46754 480,710.09567 480,634.1641 480,558.23253 480,480 Z"
     fill="#3183ff"
     id="path8"
     style="stroke-width:2.13088" />
  <path
     d="m 480,4.8950363 c 37.84603,3.4393618 67.28969,17.9931437 95.90624,42.6103107 1.75552,1.469306 3.51105,2.938613 5.31979,4.452445 30.85664,26.611283 54.49385,60.908798 71.4052,97.812298 C 599.92167,174.37966 538.00029,185.98886 480,185.98886 480,126.2279 480,66.466935 480,4.8950363 Z"
     fill="#3085ff"
     id="path9"
     style="stroke-width:2.13088" />
  <path
     d="m 448.03125,4.8950363 c 0,59.7609607 0,119.5219137 0,181.0938237 -47.21899,-2.48436 -47.21899,-2.48436 -66.06875,-5.85893 -2.1417,-0.37247 -4.2834,-0.74495 -6.49001,-1.12872 -27.32207,-4.92582 -53.80856,-12.07378 -80.092,-20.97537 -1.55481,-0.5146 -3.10963,-1.02921 -4.71154,-1.55939 -4.29632,-1.51986 -4.29632,-1.51986 -11.00643,-4.56585 -2.13125,-6.39154 -2.13125,-6.39154 1.57345,-13.96486 1.7997,-3.08529 3.63065,-6.1525 5.48631,-9.20449 0.97272,-1.6195 1.94545,-3.239 2.94765,-4.90757 25.48276,-41.669195 58.28357,-77.556708 100.81757,-101.88452 1.51376,-0.878837 3.02756,-1.757675 4.58718,-2.663144 16.45127,-8.90078 34.3031,-14.3809797 52.95657,-14.3809797 z"
     fill="#2196ff"
     id="path10"
     style="stroke-width:2.13088" />
  <path
     d="m 448.03125,744.18393 c 0,59.76096 0,119.52191 0,181.09382 -20.33423,-3.38789 -33.39981,-6.41912 -51.14999,-14.91362 -2.96711,-1.41712 -2.96711,-1.41712 -5.99415,-2.86287 -45.00127,-23.0041 -77.0747,-63.81079 -102.83279,-106.05973 -1.22318,-2.00596 -1.22318,-2.00596 -2.47102,-4.05245 -3.70396,-6.2448 -6.88361,-11.89314 -8.05203,-19.11691 36.17004,-14.7989 73.30998,-24.46144 111.89061,-30.62616 3.27565,-0.53606 3.27565,-0.53606 6.61748,-1.08294 17.818,-2.64228 33.48603,-2.37914 51.99189,-2.37914 z"
     fill="#2196ff"
     id="path11"
     style="stroke-width:2.13088" />
  <path
     d="m 766.01653,479.73492 c 1.58663,0.008 3.17328,0.0149 4.808,0.0233 1.66329,-3e-4 3.32657,-6.2e-4 5.04029,-9.4e-4 5.52386,0.001 11.04754,0.0171 16.57138,0.0347 3.81961,0.004 7.63921,0.006 11.45881,0.008 10.07332,0.008 20.14656,0.0292 30.21985,0.0526 10.27099,0.0217 20.54199,0.0315 30.81297,0.0422 20.16782,0.0227 40.33558,0.0592 60.50336,0.10396 0.31676,29.17609 0.31676,29.17609 -1.71499,42.06936 -0.3654,2.35227 -0.73078,4.70454 -1.10725,7.12809 -0.38738,2.35225 -0.77474,4.70452 -1.17385,7.12805 -0.3709,2.40994 -0.74178,4.8199 -1.12391,7.30286 -1.77797,11.18495 -3.87804,21.54228 -7.66749,32.24561 -2.74045,-1.82496 -2.74045,-1.82496 -5.53626,-3.6868 -1.17345,-0.781 -2.34689,-1.56199 -3.5559,-2.36666 -3.45813,-2.31014 -6.90317,-4.63986 -10.34718,-6.97098 -43.91906,-29.11413 -88.59923,-40.3116 -140.4044,-46.63 -0.0573,-5.63713 -0.0997,-11.27368 -0.1332,-16.91096 -0.0171,-1.60801 -0.0358,-3.216 -0.0541,-4.87273 -0.0191,-4.10194 0.0759,-8.20408 0.18733,-12.30456 3.66548,-3.6642 8.33057,-2.38564 13.21657,-2.39559 z"
     fill="#4b63ff"
     id="path12"
     style="stroke-width:2.13088" />
  <path
     d="m 480,744.18393 c 31.96875,0 31.96875,0 36.23124,2.13051 0.93554,4.6241 0.93554,4.6241 1.51519,10.7358 0.34514,3.34946 0.34514,3.34946 0.69724,6.76658 0.23695,2.39741 0.4739,4.79481 0.71804,7.26486 4.58451,41.34845 14.93898,79.15999 39.29492,113.42498 0.83519,1.50227 1.67036,3.00455 2.53085,4.55232 -2.80906,8.4243 -7.81449,10.52064 -15.18514,14.6473 -1.32181,0.7458 -2.64361,1.49161 -4.00548,2.26003 -19.68593,10.70741 -39.50261,16.52562 -61.79686,19.31144 0,-59.76096 0,-119.52192 0,-181.09382 z"
     fill="#2c89ff"
     id="path13"
     style="stroke-width:2.13088" />
  <path
     d="m 595.08748,21.93916 c 47.29898,10.410867 92.8202,33.990358 132.13749,61.78495 2.07422,1.392405 4.14843,2.78482 6.28552,4.219423 1.96983,1.33198 3.93964,2.663971 5.96917,4.036327 1.74728,1.180934 3.49458,2.361878 5.29481,3.578597 1.86269,1.524237 1.86269,1.524237 3.763,3.079267 0,1.406136 0,2.812276 0,4.261026 -7.09969,4.09131 -14.20555,8.17179 -21.3125,12.25046 -1.99181,1.14798 -3.9836,2.29597 -6.03576,3.47874 -5.7832,3.31509 -11.58721,6.58839 -17.40798,9.83699 -2.46023,1.39035 -2.46023,1.39035 -4.97015,2.80878 -10.83469,5.83746 -10.83469,5.83746 -16.54945,5.26751 -7.12687,-2.96073 -9.49429,-10.4281 -12.84681,-16.99782 -18.49641,-34.392571 -42.36827,-62.661422 -70.73086,-89.481659 -3.59648,-3.86156 -3.59648,-3.86156 -3.59648,-8.122591 z"
     fill="#3b75ff"
     id="path14"
     style="stroke-width:2.13088" />
  <path
     d="m 249.82502,791.05527 c 1.86267,3.55928 1.86267,3.55928 3.76298,7.19049 21.55433,40.41771 48.78876,73.76622 81.48701,105.72683 -9.87813,3.1812 -17.18192,-0.28125 -26.50742,-3.86156 -1.7775,-0.67371 -3.55503,-1.34744 -5.38639,-2.04157 -41.36164,-16.03979 -89.71608,-36.74022 -121.55617,-68.66491 0,-1.40615 0,-2.81228 0,-4.26104 7.45661,-4.08856 14.91702,-8.1701 22.37812,-12.25046 2.09347,-1.14798 4.18691,-2.29597 6.3438,-3.47873 33.5952,-18.35905 33.5952,-18.35905 39.47807,-18.35905 z"
     fill="#15a5ff"
     id="path15"
     style="stroke-width:2.13088" />
  <path
     d="m 335.07501,21.93916 c 0,1.406141 0,2.812281 0,4.261031 -2.98043,2.854559 -2.98043,2.854559 -7.19297,6.25839 -33.73877,28.866651 -56.74797,66.11561 -78.05702,104.528419 -7.86654,-1.26182 -14.00218,-3.45542 -21.03775,-7.16552 -1.92726,-1.01204 -3.8545,-2.02407 -5.84014,-3.06678 -1.98769,-1.06148 -3.97536,-2.12294 -6.02328,-3.21658 -1.97944,-1.03676 -3.95888,-2.07351 -5.9983,-3.14167 -20.46785,-10.82021 -20.46785,-10.82021 -29.30052,-17.4977 0,-1.40614 0,-2.81228 0,-4.261026 5.15475,-4.122389 10.30979,-7.950518 15.71796,-11.717841 1.6338,-1.140599 3.2676,-2.281198 4.9509,-3.456369 C 236.20437,60.194091 292.45402,21.93916 335.07501,21.93916 Z"
     fill="#15a5ff"
     id="path16"
     style="stroke-width:2.13088" />
</svg>
