<?xml version="1.0" encoding="UTF-8" standalone="no"?>
<svg
   version="1.1"
   width="24"
   height="24"
   id="svg11"
   sodipodi:docname="pencil.svg"
   viewBox="0 0 960 960"
   inkscape:version="1.4.2 (f4327f4, 2025-05-13)"
   xmlns:inkscape="http://www.inkscape.org/namespaces/inkscape"
   xmlns:sodipodi="http://sodipodi.sourceforge.net/DTD/sodipodi-0.dtd"
   xmlns="http://www.w3.org/2000/svg"
   xmlns:svg="http://www.w3.org/2000/svg">
  <defs
     id="defs11" />
  <sodipodi:namedview
     id="namedview11"
     pagecolor="#ffffff"
     bordercolor="#111111"
     borderopacity="1"
     inkscape:showpageshadow="0"
     inkscape:pageopacity="0"
     inkscape:pagecheckerboard="1"
     inkscape:deskcolor="#d1d1d1"
     inkscape:zoom="16.83798"
     inkscape:cx="0.86114842"
     inkscape:cy="6.9485769"
     inkscape:window-width="1920"
     inkscape:window-height="991"
     inkscape:window-x="-9"
     inkscape:window-y="-9"
     inkscape:window-maximized="1"
     inkscape:current-layer="svg11" />
  <path
     d="m 898.63042,8.2571028 c 1.45961,0.6563904 2.91924,1.3127807 4.42308,1.9890622 27.4294,13.647086 43.90625,37.586073 53.81537,65.726791 5.22365,22.656938 4.32185,49.797704 -5.83408,70.816454 -0.65622,1.45998 -1.31245,2.91997 -1.98856,4.4242 -11.17506,22.4722 -33.0519,40.30979 -50.54993,57.92713 -2.65737,2.6817 -5.3144,5.36372 -7.97113,8.04607 -7.26447,7.33193 -14.53464,14.65815 -21.80604,21.98318 -6.24612,6.29345 -12.48903,12.59008 -18.73211,18.88654 -58.32357,58.81883 -116.75383,117.53178 -175.21283,176.21592 -8.6971,8.73073 -17.39361,17.46207 -26.08987,26.19365 -0.96078,0.96463 -1.92154,1.92929 -2.91142,2.92316 -31.09156,31.21773 -62.12854,62.4891 -93.13652,93.78989 -31.95171,32.25292 -63.95609,64.45262 -96.02708,96.58689 -4.54555,4.55457 -9.09053,9.10972 -13.63516,13.66522 -0.89423,0.89633 -1.78847,1.79267 -2.7098,2.71615 -13.4081,13.44237 -26.77034,26.92926 -40.10766,40.44187 -15.21215,15.41123 -30.47836,30.76625 -45.81518,46.0534 -7.80424,7.78233 -15.58172,15.58683 -23.28913,23.46522 -34.63547,35.36492 -66.43353,62.49961 -112.68867,80.97947 -10.22606,4.18083 -20.09092,9.05793 -29.99963,13.93266 -3.74139,1.79776 -7.48438,3.59224 -11.22951,5.38217 -14.36967,6.89919 -28.70721,13.86448 -43.04645,20.82664 -20.33472,9.87215 -40.671643,19.7393 -61.070044,29.47943 -9.584665,4.57726 -19.139086,9.20549 -28.656356,13.9216 -2.943497,1.44499 -2.943497,1.44499 -5.946473,2.91916 -3.720897,1.82775 -7.433616,3.67228 -11.136303,5.53665 -15.559137,7.60093 -15.559137,7.60093 -25.137533,6.17697 -1.87158456,-1.87206 -1.87158456,-1.87206 -2.450971,-6.59013 0.7748173,-8.7115 4.0545821,-15.02761 7.9780036,-22.75585 0.7697641,-1.56047 1.5395281,-3.12092 2.3326124,-4.72868 2.50695,-5.0715 5.043939,-10.12735 7.580928,-15.18387 1.74179,-3.51256 3.481166,-7.02634 5.218146,-10.5413 3.423521,-6.92474 6.855951,-13.84496 10.295531,-20.76174 5.541069,-11.16108 10.946318,-22.38329 16.303261,-33.63398 9.151038,-19.14874 18.401494,-38.24819 27.669619,-57.34041 9.300765,-19.16136 18.557959,-38.34237 27.717589,-57.57178 1.6113,-3.37214 3.23984,-6.73612 4.88725,-10.09077 2.00039,-4.17931 3.90953,-8.40313 5.7434,-12.65818 9.41044,-21.19573 22.55586,-35.88374 38.948,-52.02124 2.73562,-2.74822 5.46795,-5.49971 8.1973,-8.25415 7.45081,-7.50036 14.94707,-14.95372 22.45214,-22.39968 8.10816,-8.06069 16.17279,-16.16475 24.24309,-24.26332 13.9722,-14.00904 27.97154,-27.9905 41.99115,-41.95201 14.70298,-14.64204 29.39183,-29.29801 44.06182,-43.97313 1.37215,-1.37258 1.37215,-1.37258 2.77202,-2.7729 3.71373,-3.71496 7.42738,-7.43005 11.14089,-11.14524 34.7878,-34.80338 69.61598,-69.56605 104.46479,-104.30829 30.93814,-30.84388 61.84844,-61.71537 92.73307,-92.61283 1.98433,-1.98515 3.96868,-3.97028 5.95301,-5.95543 0.98102,-0.98143 1.96207,-1.96285 2.97282,-2.97405 4.93878,-4.94075 9.87757,-9.88149 14.81642,-14.82217 0.97442,-0.9748 1.94886,-1.94959 2.95282,-2.95395 25.8407,-25.84998 51.69977,-51.68158 77.56505,-77.50697 0.92031,-0.91889 1.84063,-1.83779 2.78881,-2.78452 3.70044,-3.69473 7.40088,-7.38945 11.10142,-11.08408 12.85687,-12.83648 25.70756,-25.6791 38.55428,-38.52575 16.55211,-16.55183 33.11734,-33.0904 49.70356,-49.608074 7.99442,-7.961914 15.98291,-15.929554 23.95539,-23.913472 7.30096,-7.311035 14.61904,-14.604474 21.95105,-21.884358 2.64619,-2.633333 5.28617,-5.272935 7.91919,-7.919463 15.83507,-15.907769 30.7965,-29.898337 52.19927,-37.9708566 1.48132,-0.5719283 2.96266,-1.1438567 4.48888,-1.7331164 22.94821,-7.8526903 53.60959,-6.289496 75.28741,4.1901928 z"
     fill="#feb123"
     id="path1"
     style="stroke-width:1.87182" />
  <path
     d="m 765.74791,240.39231 c 7.19273,3.33925 12.13613,7.91179 17.63385,13.52854 0.94485,0.95041 1.88972,1.90082 2.86322,2.88002 3.0024,3.02404 5.99149,6.06086 8.98039,9.09824 2.03887,2.05817 4.0786,4.11549 6.1192,6.17193 4.98869,5.03114 9.96548,10.07377 14.93613,15.12273 -2.9207,6.99895 -7.22857,11.43988 -12.56331,16.77132 -0.90808,0.91261 -1.81613,1.82522 -2.7517,2.76548 -3.05763,3.06834 -6.12845,6.12307 -9.19933,9.1781 -2.21193,2.21412 -4.42304,4.42906 -6.63338,6.64476 -6.08611,6.09604 -12.18385,12.18028 -18.28351,18.26275 -6.57196,6.55748 -13.13315,13.12577 -19.69564,19.69276 -11.3747,11.37957 -22.75628,22.75224 -34.14247,34.12028 -16.46265,16.43641 -32.91494,32.88309 -49.36475,49.33235 -26.68764,26.68618 -53.38362,53.36401 -80.08484,80.03658 -25.94093,25.91315 -51.87795,51.83022 -77.80967,77.75257 -1.59789,1.5973 -3.19575,3.19459 -4.84205,4.8403 -8.01589,8.01303 -16.03168,16.02611 -24.04745,24.03925 -66.52078,66.49878 -133.0551,132.98399 -199.59826,199.46036 -7.19273,-3.33924 -12.13613,-7.91178 -17.63383,-13.52854 -0.94487,-0.9504 -1.88974,-1.90081 -2.86324,-2.88001 -3.0024,-3.02405 -5.99149,-6.06086 -8.98039,-9.09824 -2.03887,-2.05818 -4.0786,-4.11549 -6.1192,-6.17195 -4.98869,-5.03112 -9.96548,-10.07375 -14.93613,-15.12271 2.9207,-6.99895 7.22857,-11.43989 12.56331,-16.77132 0.90808,-0.91261 1.81613,-1.82522 2.7517,-2.76548 3.05763,-3.06834 6.12845,-6.12307 9.19934,-9.1781 2.21192,-2.21412 4.42303,-4.42907 6.63337,-6.64476 6.08611,-6.09602 12.18384,-12.18028 18.28351,-18.26275 6.57195,-6.55748 13.13315,-13.12577 19.69564,-19.69276 11.3747,-11.37957 22.75628,-22.75225 34.14247,-34.12028 16.46265,-16.43641 32.91494,-32.8831 49.36475,-49.33235 26.68763,-26.68619 53.38362,-53.36401 80.08484,-80.03659 25.94093,-25.91314 51.87795,-51.83021 77.80967,-77.75256 1.59788,-1.5973 3.19575,-3.19459 4.84205,-4.8403 8.01589,-8.01303 16.03168,-16.02611 24.04745,-24.03925 66.52078,-66.49878 133.0551,-132.98399 199.59826,-199.46037 z"
     fill="#fe901d"
     id="path2"
     style="stroke-width:1.87182" />
  <path
     d="m 668.42551,143.04529 c 7.19273,3.33924 12.13613,7.91179 17.63383,13.52854 0.94487,0.95041 1.88974,1.90082 2.86325,2.88002 3.00239,3.02404 5.99148,6.06086 8.98038,9.09823 2.03887,2.05818 4.0786,4.1155 6.1192,6.17194 4.98869,5.03113 9.96548,10.07376 14.93613,15.12272 -2.92072,6.99896 -7.22857,11.43989 -12.56331,16.77132 -0.90808,0.91261 -1.81613,1.82522 -2.7517,2.76548 -3.05763,3.06834 -6.12845,6.12307 -9.19934,9.17811 -2.21192,2.21412 -4.42303,4.42906 -6.63337,6.64475 -6.08611,6.09604 -12.18384,12.18031 -18.28351,18.26275 -6.57195,6.55749 -13.13315,13.12577 -19.69564,19.69276 -11.3747,11.37957 -22.75627,22.75225 -34.14247,34.12029 -16.46265,16.4364 -32.91494,32.88309 -49.36475,49.33234 -26.68763,26.68619 -53.38362,53.36401 -80.08484,80.03659 -25.94093,25.91314 -51.87795,51.83021 -77.80967,77.75257 -1.59788,1.59729 -3.19575,3.19459 -4.84205,4.8403 -8.01589,8.01302 -16.03168,16.02611 -24.04745,24.03925 -66.52078,66.49878 -133.0551,132.98399 -199.59826,199.46036 -7.19273,-3.33925 -12.13612,-7.91179 -17.63383,-13.52854 -0.94487,-0.95041 -1.88974,-1.90081 -2.86324,-2.88001 -3.0024,-3.02405 -5.99149,-6.06087 -8.98039,-9.09824 -2.03887,-2.05818 -4.07859,-4.1155 -6.1192,-6.17195 -4.98869,-5.03112 -9.96548,-10.07375 -14.93613,-15.12271 2.9207,-6.99896 7.22857,-11.43989 12.56331,-16.77132 0.90808,-0.91261 1.81613,-1.82522 2.7517,-2.76548 3.05763,-3.06834 6.12845,-6.12307 9.19934,-9.17811 2.21192,-2.21412 4.42303,-4.42906 6.63337,-6.64475 6.08611,-6.09602 12.18385,-12.18029 18.28351,-18.26275 6.57196,-6.55749 13.13315,-13.12577 19.69564,-19.69276 11.3747,-11.37957 22.75628,-22.75225 34.14247,-34.12029 16.46265,-16.4364 32.91494,-32.88309 49.36475,-49.33234 26.68764,-26.68619 53.38362,-53.36401 80.08484,-80.03659 25.94093,-25.91314 51.87795,-51.83021 77.80967,-77.75257 1.59789,-1.59729 3.19575,-3.19459 4.84205,-4.8403 8.01589,-8.01302 16.03168,-16.02611 24.04745,-24.03925 66.52078,-66.49878 133.0551,-132.98399 199.59826,-199.46036 z"
     fill="#febe14"
     id="path3"
     style="stroke-width:1.87182" />
  <path
     d="m 898.63042,8.2571028 c 1.45961,0.6563904 2.91924,1.3127807 4.42308,1.9890622 27.4294,13.647086 43.90625,37.586073 53.81537,65.726791 5.22365,22.656938 4.32185,49.797704 -5.83408,70.816454 -0.65622,1.45998 -1.31245,2.91997 -1.98856,4.4242 -11.1707,22.46343 -32.93837,40.11208 -50.53278,57.58772 -2.3582,2.34938 -4.71597,4.69921 -7.07328,7.04948 -5.70843,5.68949 -11.42272,11.37304 -17.14035,17.05327 -5.54279,-2.4968 -9.43236,-5.226 -13.71555,-9.52466 -1.19138,-1.18653 -2.38275,-2.37305 -3.61023,-3.59555 -1.28563,-1.29941 -2.57128,-2.59884 -3.89587,-3.93765 -1.37019,-1.36999 -2.74038,-2.73998 -4.1521,-4.15147 -4.52538,-4.52915 -9.03735,-9.0714 -13.54937,-13.61387 -3.13558,-3.14337 -6.272,-6.2859 -9.4092,-9.42765 -8.25422,-8.27059 -16.49711,-16.55236 -24.73773,-24.83648 -8.4112,-8.45163 -16.83301,-16.89267 -25.25395,-25.3346 -16.52081,-16.56515 -33.0297,-33.14213 -49.53118,-49.726546 2.60925,-5.420004 5.13622,-9.365063 9.36889,-13.659261 1.13837,-1.162541 2.27672,-2.32508 3.44959,-3.522849 1.23201,-1.236483 2.464,-2.472964 3.73334,-3.746917 1.27966,-1.292437 2.5593,-2.584876 3.87774,-3.916478 2.71368,-2.733327 5.43248,-5.461601 8.15597,-8.18517 4.11979,-4.128972 8.20877,-8.286851 12.29689,-12.447176 25.61973,-25.834875 25.61973,-25.834875 41.4673,-33.148592 1.86734,-0.880818 3.73469,-1.761636 5.65862,-2.6691454 1.45237,-0.5477964 2.90476,-1.0955928 4.40115,-1.6599892 1.48132,-0.5719283 2.96266,-1.1438567 4.48888,-1.7331164 22.94821,-7.8526903 53.60959,-6.289496 75.28741,4.1901928 z"
     fill="#fe4c4b"
     id="path4"
     style="stroke-width:1.87182" />
  <path
     d="m 200.52937,757.08037 c 6.76415,5.46474 13.06867,10.9321 18.59887,17.66754 3.83171,4.65121 7.79784,8.59852 12.40657,12.47551 9.46595,8.17756 18.21755,17.01548 27.01368,25.90169 1.6285,1.63736 3.25699,3.27471 4.93484,4.96168 3.97416,3.99699 7.94383,7.99833 11.90942,12.00384 -4.67874,5.38101 -9.724,7.93543 -16.1278,10.97641 -2.15082,1.02923 -4.30165,2.05845 -6.51764,3.11888 -2.35528,1.11285 -4.71059,2.2256 -7.06596,3.33826 -2.44852,1.16756 -4.89644,2.3364 -7.34378,3.50645 -5.08663,2.43067 -10.17585,4.85579 -15.26693,7.27707 -11.59364,5.51942 -23.148,11.11987 -34.70657,16.71233 -4.52258,2.18493 -9.04579,4.36856 -13.56899,6.5522 -2.26151,1.09201 -4.52301,2.18404 -6.78449,3.2761 -13.56899,6.55221 -13.56899,6.55221 -16.96101,8.19015 -2.26226,1.0924 -4.52453,2.18482 -6.78678,3.27724 -5.642,2.72446 -11.28407,5.44878 -16.92628,8.17277 -12.66992,6.11714 -25.33824,12.23751 -38.003741,18.3638 -5.752107,2.78166 -11.505804,5.55991 -17.263294,8.3304 -10.405203,5.00839 -20.795607,10.0405 -31.14388,15.16568 -1.800998,0.88263 -3.601996,1.76525 -5.457569,2.67462 -3.30835,1.62164 -6.608726,3.25967 -9.898929,4.91783 -8.090641,3.93905 -14.19692,6.50667 -23.427706,5.32183 -1.87158456,-1.87206 -1.87158456,-1.87206 -2.450971,-6.59013 0.7748173,-8.71152 4.0546196,-15.02758 7.9779849,-22.75585 1.1561901,-2.344 1.1561901,-2.344 2.3357191,-4.73537 2.505715,-5.06938 5.041528,-10.12306 7.57784,-15.17718 1.725262,-3.47696 3.448185,-6.95507 5.168791,-10.43435 2.571916,-5.19908 5.145684,-10.39717 7.728281,-15.59097 7.826995,-15.74105 15.420424,-31.58478 22.935366,-47.47719 4.399139,-9.24203 9.019858,-18.19307 14.23245,-27.00362 6.953148,5.77944 13.596824,11.59308 19.849032,18.12825 1.106172,1.15472 2.212344,2.30944 3.352036,3.49914 2.270693,2.39017 4.526951,4.79411 6.769873,7.21036 1.098935,1.13782 2.19787,2.27564 3.330107,3.44794 0.97514,1.03633 1.95028,2.07265 2.95496,3.14036 2.9157,2.38556 2.9157,2.38556 6.44643,1.69793 5.51357,-2.09751 8.47912,-5.26138 12.63862,-9.4412 1.67957,-1.67437 3.35913,-3.34873 5.0896,-5.07385 1.81632,-1.83926 3.6322,-3.67897 5.44766,-5.51908 1.87198,-1.87819 3.74508,-3.75527 5.61923,-5.6313 3.92104,-3.93063 7.83272,-7.87028 11.73725,-11.81733 5.00948,-5.06376 10.03513,-10.11109 15.06701,-15.15258 3.86551,-3.87428 7.7257,-7.75383 11.58395,-11.63533 1.852,-1.86315 3.70488,-3.72542 5.55866,-5.58679 2.58544,-2.59894 5.16369,-5.20503 7.74158,-7.81148 1.46945,-1.48259 2.93889,-2.96519 4.45287,-4.49273 3.47686,-3.40799 3.47686,-3.40799 5.24364,-7.37993 z"
     fill="#f3c791"
     id="path5"
     style="stroke-width:1.87182" />
  <path
     d="m 724.57305,86.883545 c 9.43329,7.904397 18.28374,16.155635 26.9584,24.880635 1.31625,1.31631 2.6325,2.63262 3.98863,3.98881 4.3081,4.31048 8.60955,8.62754 12.91092,12.94473 3.00209,3.00634 6.00458,6.01226 9.00749,9.01779 7.87152,7.88064 15.7374,15.76688 23.60212,23.65433 8.03874,8.05998 16.08282,16.11462 24.12646,24.16971 15.75895,15.78297 31.51193,31.57187 47.26116,47.36453 -1.76061,2.07252 -3.52381,4.14281 -5.2881,6.2122 -0.98161,1.15313 -1.96322,2.30627 -2.97457,3.49435 -4.29614,4.92029 -8.84741,9.48879 -13.47988,14.09637 -0.93957,0.93717 -1.87914,1.87432 -2.84718,2.8399 -2.95052,2.94092 -5.90753,5.87521 -8.86484,8.80928 -2.02311,2.01423 -4.04579,4.02888 -6.06803,6.04398 -4.9128,4.89358 -9.83144,9.78126 -14.75335,14.66567 -9.43329,-7.90439 -18.28373,-16.15564 -26.9584,-24.88065 -1.31624,-1.3163 -2.63249,-2.6326 -3.98862,-3.98879 -4.30811,-4.31049 -8.60955,-8.62755 -12.91092,-12.94474 -3.0021,-3.00634 -6.00459,-6.01227 -9.00749,-9.01778 -7.87153,-7.88065 -15.73741,-15.76689 -23.60212,-23.65434 -8.03874,-8.05997 -16.08283,-16.11462 -24.12647,-24.16971 -15.75895,-15.78296 -31.51194,-31.57186 -47.26116,-47.36453 1.76062,-2.07251 3.52382,-4.1428 5.28811,-6.21219 0.9816,-1.15314 1.96321,-2.30628 2.97456,-3.49436 4.29615,-4.92028 8.84743,-9.48878 13.47988,-14.09638 0.93958,-0.93716 1.87915,-1.87432 2.84719,-2.83988 2.95051,-2.94092 5.90752,-5.87521 8.86483,-8.80929 2.02311,-2.01422 4.04579,-4.02887 6.06804,-6.04397 4.91279,-4.893593 9.83143,-9.781261 14.75334,-14.665675 z"
     fill="#22d7dc"
     id="path6"
     style="stroke-width:1.87182" />
  <path
     d="m 891.14408,8.2571028 c 17.4238,0.9172736 31.48346,13.3177862 42.98064,25.4263522 22.70558,26.983312 26.77865,56.590581 24.39641,90.641255 -1.53384,8.11303 -3.90271,15.04799 -7.48634,22.4647 -0.65622,1.45998 -1.31245,2.91997 -1.98856,4.4242 -11.1707,22.46343 -32.93837,40.11208 -50.53278,57.58772 -2.3582,2.34938 -4.71597,4.69921 -7.07328,7.04948 -5.70843,5.68949 -11.42272,11.37304 -17.14035,17.05327 -5.43778,-2.45945 -9.29543,-5.09304 -13.4904,-9.32465 -1.12355,-1.12411 -2.2471,-2.24822 -3.40469,-3.40641 -1.18953,-1.20914 -2.37905,-2.41829 -3.60462,-3.66407 -1.85349,-1.86191 -1.85349,-1.86191 -3.74442,-3.76143 -3.93684,-3.95877 -7.86045,-7.93036 -11.78387,-11.90243 -2.67004,-2.68952 -5.34094,-5.37817 -8.01273,-8.06594 -6.54098,-6.58387 -13.07011,-13.17928 -19.59315,-19.78093 6.96207,-8.34474 14.14705,-16.22638 21.96919,-23.76636 2.01987,-1.97844 4.03886,-3.95778 6.05706,-5.93794 3.1073,-3.03926 6.21973,-6.07237 9.34832,-9.08972 23.58719,-22.79167 46.22137,-48.509391 47.16111,-83.094516 0.0273,-2.895737 0.0389,-5.791656 0.0365,-8.68752 10e-4,-1.497089 0.002,-2.994177 0.004,-4.536633 -0.0929,-10.364727 -1.14053,-19.645204 -4.09778,-29.6284282 z"
     fill="#f33a38"
     id="path7"
     style="stroke-width:1.87182" />
  <path
     d="m 127.53757,684.0701 c 13.96012,11.729 26.84245,24.42729 39.78031,37.2629 2.81821,2.78767 5.64645,5.5652 8.48427,8.33287 4.11248,4.01162 8.19388,8.05258 12.26948,12.10164 1.91789,1.85472 1.91789,1.85472 3.87454,3.74692 1.73537,1.74381 1.73537,1.74381 3.50579,3.52284 1.02859,1.01372 2.05719,2.02744 3.11694,3.07186 1.96047,3.09918 1.96047,3.09918 1.84181,6.67992 -2.37807,5.30103 -5.66239,8.56118 -9.74967,12.69237 -2.549,2.59433 -2.549,2.59433 -5.1495,5.24107 -1.86772,1.87058 -3.73647,3.74013 -5.60616,5.60872 -1.91017,1.92395 -3.81977,3.84845 -5.72884,5.77348 -4.00085,4.02703 -8.01264,8.04278 -12.03156,12.05175 -5.15512,5.14535 -10.27519,10.32412 -15.38684,15.51263 -3.93198,3.9813 -7.88515,7.94099 -11.84476,11.89477 -1.89756,1.90121 -3.78765,3.80992 -5.67011,5.7261 -2.62939,2.67136 -5.29154,5.31034 -7.95513,7.94758 -1.50716,1.51139 -3.01432,3.02278 -4.56716,4.57996 -4.15609,2.99374 -4.15609,2.99374 -8.17659,2.75915 -5.13563,-2.4264 -8.41687,-5.96498 -12.385107,-10.01055 -2.497031,-2.52481 -2.497031,-2.52481 -5.044504,-5.10063 -2.583884,-2.65512 -2.583884,-2.65512 -5.219968,-5.36388 -1.76793,-1.79656 -3.537148,-3.59184 -5.307696,-5.38582 -4.32627,-4.3936 -8.638908,-8.79975 -12.940253,-13.21776 2.193012,-6.90765 4.5904,-13.3731 7.888437,-19.82479 1.216623,-2.40129 1.216623,-2.40129 2.457825,-4.85109 0.870492,-1.70282 1.740985,-3.40562 2.637856,-5.16004 7.514717,-14.85347 14.851194,-29.77505 21.99112,-44.81239 8.09505,-17.0356 16.39459,-33.9533 24.91547,-50.77958 z"
     fill="#fdd8a7"
     id="path8"
     style="stroke-width:1.87182" />
  <path
     d="m 67.646862,809.49799 c 10.395527,8.6581 19.998362,17.88492 29.528634,27.48124 1.518508,1.52153 3.037014,3.04307 4.601544,4.61073 4.80912,4.82075 9.61167,9.648 14.41405,14.47548 3.27605,3.28629 6.55254,6.57214 9.82947,9.85755 7.99698,8.01956 15.98859,16.04443 23.97602,24.0735 -4.51523,4.70496 -8.60536,7.45153 -14.47553,10.35483 -1.78668,0.88941 -3.57335,1.77883 -5.41416,2.6952 -2.89308,1.41692 -2.89308,1.41692 -5.84459,2.86247 -2.00471,0.99167 -4.00943,1.98335 -6.07489,3.00508 -16.91464,8.34094 -33.905933,16.52041 -50.949957,24.59316 -7.600388,3.60562 -15.155409,7.29237 -22.692964,11.02758 -1.948014,0.95668 -3.89603,1.91337 -5.903077,2.89905 -3.73138,1.83419 -7.454665,3.685 -11.168278,5.55492 -15.785607,7.71311 -15.785607,7.71311 -25.331733,6.27387 -1.87158456,-1.87206 -1.87158456,-1.87206 -2.450971,-6.59013 0.77481169,-8.71152 4.0546214,-15.02758 7.9779943,-22.75585 0.770784,-1.56268 1.5415699,-3.12534 2.3357117,-4.73537 2.505718,-5.06938 5.041526,-10.12306 7.577838,-15.17718 1.725262,-3.47696 3.448185,-6.95507 5.168791,-10.43435 2.571916,-5.19908 5.145684,-10.39717 7.728281,-15.59097 7.826995,-15.74105 15.420424,-31.58478 22.935366,-47.47719 4.399139,-9.24203 9.019858,-18.19307 14.23245,-27.00362 z"
     fill="#393836"
     id="path9"
     style="stroke-width:1.87182" />
  <path
     d="m 808.79436,171.12616 c 8.89164,7.42033 17.2862,15.15983 25.43453,23.38611 1.65465,1.65902 1.65465,1.65902 3.34271,3.35156 3.47417,3.4854 6.94171,6.97731 10.40906,10.46949 2.37439,2.38438 4.7492,4.76834 7.12445,7.15184 5.7794,5.80134 11.55286,11.6085 17.32312,17.41892 -6.94385,8.28687 -14.07708,16.17861 -21.74255,23.80292 -0.93957,0.93717 -1.87914,1.87432 -2.84718,2.8399 -2.95052,2.94092 -5.90753,5.87521 -8.86484,8.80928 -2.02311,2.01423 -4.04579,4.02888 -6.06803,6.04398 -4.9128,4.89358 -9.83144,9.78126 -14.75335,14.66567 -8.89163,-7.42034 -17.2862,-15.15984 -25.43453,-23.38611 -1.65465,-1.65902 -1.65465,-1.65902 -3.34271,-3.35156 -3.47417,-3.4854 -6.94171,-6.97731 -10.40906,-10.46949 -2.37439,-2.38438 -4.7492,-4.76834 -7.12445,-7.15184 -5.7794,-5.80134 -11.55286,-11.6085 -17.32312,-17.41892 6.5266,-6.53491 13.07008,-13.05239 19.62238,-19.56155 2.91076,-2.8977 5.82063,-5.7963 8.73012,-8.69528 2.00945,-2.00046 4.02058,-3.99926 6.0333,-5.99645 2.92051,-2.89862 5.835,-5.80318 8.74836,-8.709 1.73406,-1.72468 3.4681,-3.44936 5.2547,-5.22631 4.06123,-3.86547 4.06123,-3.86547 5.88709,-7.97316 z"
     fill="#12b8c0"
     id="path10"
     style="stroke-width:1.87182" />
  <path
     d="m 111.0043,852.77401 c 4.93894,2.37925 8.11072,5.70698 11.94204,9.61695 1.58024,1.59873 3.16049,3.19749 4.78862,4.84468 1.63333,1.68079 3.26665,3.36158 4.94947,5.09331 1.66227,1.68803 3.32454,3.37607 5.03719,5.11526 4.10453,4.17179 8.1954,8.3561 12.27496,12.55228 -4.33822,4.83555 -8.67091,7.48395 -14.47553,10.35483 -1.78698,0.88958 -3.57395,1.77914 -5.41508,2.69567 -1.92841,0.94445 -3.85682,1.88892 -5.84367,2.862 -3.003,1.48548 -3.003,1.48548 -6.06666,3.00096 -17.00242,8.38411 -34.079246,16.61199 -51.214069,24.7216 -7.218033,3.42111 -14.388753,6.92351 -21.537843,10.48645 -1.772803,0.87327 -3.545603,1.74655 -5.372126,2.64628 -3.350909,1.65237 -6.69244,3.32397 -10.022298,5.01837 -9.228126,4.51512 -15.749584,6.5622 -26.0363184,5.60794 10.0449034,-12.15496 21.0376624,-23.32231 32.1239944,-34.51607 0.992128,-1.00234 1.984255,-2.00468 3.006448,-3.0374 5.232948,-5.28394 10.4725,-10.56125 15.71671,-15.834 4.333321,-4.35957 8.65256,-8.7324 12.960356,-13.11721 5.22261,-5.31592 10.4675,-10.60879 15.729604,-15.88557 1.997347,-2.01046 3.986701,-4.02888 5.96786,-6.05529 2.759281,-2.81883 5.546246,-5.60704 8.342017,-8.38959 2.368025,-2.39133 2.368025,-2.39133 4.783885,-4.83096 4.30628,-3.16917 4.30628,-3.16917 8.36044,-2.95049 z"
     fill="#1f1e1d"
     id="path11"
     style="stroke-width:1.87182" />
</svg>
