<?xml version="1.0" encoding="UTF-8" standalone="no"?>
<svg
   viewBox="3 3 16 16"
   version="1.1"
   id="svg5"
   sodipodi:docname="red-cross.svg"
   inkscape:version="1.4.2 (f4327f4, 2025-05-13)"
   xmlns:inkscape="http://www.inkscape.org/namespaces/inkscape"
   xmlns:sodipodi="http://sodipodi.sourceforge.net/DTD/sodipodi-0.dtd"
   xmlns:xlink="http://www.w3.org/1999/xlink"
   xmlns="http://www.w3.org/2000/svg"
   xmlns:svg="http://www.w3.org/2000/svg">
  <sodipodi:namedview
     id="namedview5"
     pagecolor="#ffffff"
     bordercolor="#111111"
     borderopacity="1"
     inkscape:showpageshadow="0"
     inkscape:pageopacity="0"
     inkscape:pagecheckerboard="1"
     inkscape:deskcolor="#d1d1d1"
     inkscape:zoom="47.625"
     inkscape:cx="7.9895013"
     inkscape:cy="7.9895013"
     inkscape:window-width="1920"
     inkscape:window-height="991"
     inkscape:window-x="-9"
     inkscape:window-y="-9"
     inkscape:window-maximized="1"
     inkscape:current-layer="svg5" />
  <defs
     id="defs4">
    <linearGradient
       gradientUnits="userSpaceOnUse"
       y2="-2.623"
       x2="0"
       y1="986.67"
       id="linearGradient2">
      <stop
         stop-color="#ffce3b"
         id="stop1" />
      <stop
         offset="1"
         stop-color="#ffd762"
         id="stop2" />
    </linearGradient>
    <linearGradient
       id="0"
       gradientUnits="userSpaceOnUse"
       y1="986.67"
       x2="0"
       y2="-2.623">
      <stop
         stop-color="#ffce3b"
         id="stop3" />
      <stop
         offset="1"
         stop-color="#fef4ab"
         id="stop4" />
    </linearGradient>
    <linearGradient
       gradientUnits="userSpaceOnUse"
       x2="1"
       x1="0"
       xlink:href="#0"
       id="linearGradient4" />
  </defs>
  <g
     transform="matrix(2 0 0 2-11-2071.72)"
     id="g5">
    <path
       d="m11.906 1041.46l.99-.99c.063-.062.094-.139.094-.229 0-.09-.031-.166-.094-.229l-.458-.458c-.063-.062-.139-.094-.229-.094-.09 0-.166.031-.229.094l-.99.99-.99-.99c-.063-.062-.139-.094-.229-.094-.09 0-.166.031-.229.094l-.458.458c-.063.063-.094.139-.094.229 0 .09.031.166.094.229l.99.99-.99.99c-.063.062-.094.139-.094.229 0 .09.031.166.094.229l.458.458c.063.063.139.094.229.094.09 0 .166-.031.229-.094l.99-.99.99.99c.063.063.139.094.229.094.09 0 .166-.031.229-.094l.458-.458c.063-.062.094-.139.094-.229 0-.09-.031-.166-.094-.229l-.99-.99"
       fill="#fff"
       id="path5"
       style="fill:#da4453;fill-opacity:1" />
  </g>
</svg>
