<?xml version="1.0" encoding="UTF-8" standalone="no"?>
<svg
   version="1.1"
   width="24"
   height="24"
   id="svg18"
   sodipodi:docname="reference.svg"
   viewBox="0 0 960 960"
   inkscape:version="1.4.2 (f4327f4, 2025-05-13)"
   xmlns:inkscape="http://www.inkscape.org/namespaces/inkscape"
   xmlns:sodipodi="http://sodipodi.sourceforge.net/DTD/sodipodi-0.dtd"
   xmlns="http://www.w3.org/2000/svg"
   xmlns:svg="http://www.w3.org/2000/svg">
  <defs
     id="defs18" />
  <sodipodi:namedview
     id="namedview18"
     pagecolor="#ffffff"
     bordercolor="#111111"
     borderopacity="1"
     inkscape:showpageshadow="0"
     inkscape:pageopacity="0"
     inkscape:pagecheckerboard="1"
     inkscape:deskcolor="#d1d1d1"
     inkscape:zoom="23.8125"
     inkscape:cx="11.989501"
     inkscape:cy="12.136483"
     inkscape:window-width="1920"
     inkscape:window-height="991"
     inkscape:window-x="-9"
     inkscape:window-y="-9"
     inkscape:window-maximized="1"
     inkscape:current-layer="svg18" />
  <path
     d="m 81.086059,13.114929 c 1.877269,-0.0074 3.754538,-0.01498 5.688696,-0.02265 3.073331,0.0025 3.073331,0.0025 6.208751,0.0051 3.280571,-0.0088 3.280571,-0.0088 6.627416,-0.01751 6.063358,-0.01401 12.126668,-0.01926 18.190038,-0.02063 6.54201,-0.0037 13.08401,-0.01829 19.62601,-0.03141 14.29942,-0.02641 28.59882,-0.03816 42.89826,-0.04672 8.92826,-0.0054 17.85653,-0.01362 26.78479,-0.02238 24.72069,-0.02372 49.44136,-0.04376 74.16207,-0.05034 2.37222,-6.41e-4 2.37222,-6.41e-4 4.79237,-0.0013 1.58525,-4.27e-4 3.17052,-8.51e-4 4.8038,-0.0013 3.21229,-8.62e-4 6.42458,-0.0017 9.63686,-0.0025 1.59341,-4.3e-4 3.18681,-8.62e-4 4.82849,-0.0013 25.83261,-0.0076 51.66512,-0.04166 77.49769,-0.08696 26.52273,-0.04614 53.04542,-0.0704 79.5682,-0.07266 14.89142,-0.0018 29.78271,-0.01304 44.67408,-0.0483 12.67659,-0.02995 25.353,-0.03995 38.02961,-0.02386 6.46775,0.0076 12.93515,0.0058 19.40284,-0.02152 7.01108,-0.02462 14.02127,-0.01343 21.03235,0.007 3.06705,-0.02353 3.06705,-0.02353 6.19607,-0.0475 10.27185,0.06998 17.86386,0.424486 26.6593,6.600424 7.59919,8.750607 9.5975,13.442172 9.58808,25.09694 0.004,3.667475 0.004,3.667475 0.007,7.409041 -0.007,2.724444 -0.0131,5.448887 -0.0204,8.173329 -5.3e-4,2.85713 -2.5e-4,5.714258 8.2e-4,8.571387 5.4e-4,7.771216 -0.0112,15.542373 -0.0236,23.313575 -0.0112,8.115911 -0.0131,16.231825 -0.015,24.347745 -0.006,15.37528 -0.0212,30.75054 -0.0399,46.12581 -0.021,17.50139 -0.0313,35.00277 -0.0406,52.50416 -0.0197,36.00786 -0.0526,72.0157 -0.0942,108.02355 2.01454,-0.0267 4.02906,-0.0533 6.10462,-0.0808 7.60807,0.0878 14.51788,1.38448 21.867,3.24293 1.38194,0.34821 2.76388,0.69639 4.1877,1.05514 66.97152,17.58418 122.33249,61.0955 158.40095,122.06882 32.00973,56.56926 44.45025,127.91706 29.68693,192.26349 -3.56997,13.82383 -8.06868,27.35551 -12.72447,40.819 -1.83033,5.37566 -3.55413,10.78525 -5.28445,16.19646 1.59111,1.64912 3.18222,3.29822 4.82155,4.99731 14.9678,15.51477 29.9307,31.03464 44.88879,46.55955 7.69089,7.98202 15.38355,15.96221 23.08014,23.9383 7.42256,7.69225 14.84058,15.38918 22.25542,23.08945 2.8348,2.94225 5.67127,5.88277 8.50937,8.82157 3.96379,4.10505 7.92178,8.21604 11.87839,12.32856 1.18393,1.22333 2.36789,2.44666 3.5877,3.70706 8.14461,8.48394 10.50095,12.06072 10.77161,23.96263 0.07,1.9967 0.14007,3.99342 0.21212,6.05062 -2.02438,15.51714 -16.11451,26.51651 -26.238,37.02595 -1.76808,1.84492 -3.53576,3.69027 -5.30302,5.53602 -3.69256,3.85167 -7.3922,7.69578 -11.09667,11.53507 -4.72968,4.90367 -9.43769,9.82916 -14.1402,14.76097 -3.64017,3.81152 -7.29333,7.60941 -10.95028,11.40355 -2.58251,2.68516 -5.15275,5.383 -7.72275,8.08109 -1.58707,1.63712 -3.17411,3.27423 -4.80928,4.96095 -1.3829,1.43829 -2.7658,2.87659 -4.19061,4.35848 -8.49968,7.41225 -16.80772,11.19267 -27.84643,10.45225 -19.38109,-3.43123 -35.75814,-26.62329 -48.90526,-40.44755 -2.61966,-2.73317 -5.24055,-5.46505 -7.86265,-8.19568 -6.85582,-7.14654 -13.69458,-14.31045 -20.52979,-21.47826 -6.99471,-7.32871 -14.00558,-14.64065 -21.01506,-21.95409 -13.71998,-14.3198 -27.42196,-28.65803 -41.11257,-43.00815 -1.13291,0.39249 -2.26582,0.78498 -3.43307,1.18935 -1.49911,0.51933 -2.99822,1.03867 -4.54274,1.57372 -1.48052,0.51289 -2.96103,1.02579 -4.48641,1.55423 -2.17352,0.75263 -2.17352,0.75263 -4.39097,1.5205 -1.2274,0.42588 -2.45478,0.85177 -3.71937,1.29056 -35.63133,12.26827 -69.73998,16.53405 -107.1773,16.44373 -3.21313,-5.4e-4 -6.42627,-2.3e-4 -9.63939,8.8e-4 -8.66499,5.4e-4 -17.32994,-0.0117 -25.99492,-0.0245 -9.07696,-0.0117 -18.15392,-0.0136 -27.23088,-0.0156 -17.1627,-0.006 -34.32539,-0.022 -51.4881,-0.0416 -19.55007,-0.0218 -39.10015,-0.0325 -58.65022,-0.0422 -40.19215,-0.0202 -80.38425,-0.0545 -120.57637,-0.0979 0.0442,2.11883 0.0442,2.11883 0.0891,4.28048 0.11722,6.43785 0.18999,12.87541 0.26195,19.31397 0.047,2.22247 0.0942,4.44494 0.1427,6.73476 0.17396,20.72354 0.17396,20.72354 -6.11148,29.99473 -9.49233,8.90184 -15.35421,10.4547 -27.89571,10.35296 -8.01795,-0.86008 -14.58794,-3.75808 -21.98632,-6.9514 -20.24615,-8.6111 -34.10074,-10.75719 -54.74819,-2.4286 -3.54949,1.59107 -7.09489,3.19205 -10.63565,4.80402 -10.25055,4.51243 -19.76166,5.55364 -30.7951,3.95268 -9.64103,-5.00936 -15.32144,-10.7922 -18.72577,-21.40526 -0.15479,-3.73438 -0.20113,-7.47414 -0.18288,-11.21192 0.006,-2.17606 0.012,-4.35212 0.0183,-6.59413 0.0235,-3.40707 0.0235,-3.40707 0.0476,-6.88298 0.008,-2.29396 0.0169,-4.58792 0.0256,-6.95139 0.0221,-5.6694 0.0529,-11.33861 0.0914,-17.00791 -1.1303,0.0305 -2.26059,0.0611 -3.42514,0.0926 C 79.169798,849.06548 49.817412,847.8864 23.381868,822.87885 9.4813159,807.62835 0.225134,787.43825 0.19146507,766.38047 c -0.008427,-2.42099 -0.0166659,-4.842 -0.0252985,-7.33636 1.6666e-4,-2.69136 5.2245e-4,-5.3827 0.001047,-8.07405 -0.00618,-2.85557 -0.013108,-5.71113 -0.0208605,-8.56669 C 0.12814961,734.54535 0.12118362,726.6874 0.11622129,718.82939 0.10891824,710.35814 0.09097896,701.88691 0.07463137,693.41568 0.03762925,672.95063 0.0187724,652.48557 0.00210647,632.0205 -0.00613286,622.38125 -0.01605752,612.74201 -0.02596345,603.10275 -0.05781598,571.05543 -0.08496834,539.00814 -0.0985258,506.9608 c -0.0035579,-8.31666 -0.0071158,-16.63331 -0.01086094,-24.94997 -9.0633e-4,-2.06705 -0.001813,-4.1341 -0.002809,-6.26377 -0.0155424,-33.4746 -0.0629748,-66.94904 -0.12379605,-100.42357 -0.0619448,-34.37401 -0.0956512,-68.74796 -0.10164346,-103.12203 -0.00412,-19.29706 -0.0203924,-38.59392 -0.0682741,-57.89092 -0.0406911,-16.43677 -0.0557091,-32.8733 -0.0375077,-49.31012 0.008427,-8.38177 0.005056,-16.76304 -0.0313844,-25.14475 -0.0330884,-7.6853 -0.0310848,-15.36973 -0.00206,-23.05505 0.004494,-2.76848 -0.003558,-5.53702 -0.0258977,-8.30541 C -0.70896518,81.198134 4.8893761,59.092943 22.914209,38.667749 39.464169,23.372027 58.661429,13.148562 81.086059,13.114929 Z"
     fill="#78b4fe"
     id="path1"
     style="stroke-width:1.9089" />
  <path
     d="m 767.13923,384.86905 c 45.65675,41.90674 80.71075,104.93265 85.11537,169.01302 2.24022,46.13616 -1.98723,84.91849 -16.97524,128.26055 -1.83035,5.37566 -3.55416,10.78525 -5.28445,16.19647 1.59109,1.64912 3.1822,3.29824 4.82153,4.99733 14.9678,15.51476 29.93072,31.03463 44.88878,46.55954 7.69092,7.98202 15.38356,15.96221 23.08015,23.9383 7.42256,7.69223 14.84058,15.38918 22.25542,23.08943 2.8348,2.94225 5.67127,5.88279 8.50936,8.82159 3.96382,4.10503 7.92179,8.21604 11.87839,12.32856 1.18396,1.22333 2.3679,2.44664 3.58773,3.70704 8.14459,8.48394 10.50094,12.06074 10.7716,23.96263 0.07,1.99672 0.14007,3.99342 0.21213,6.05064 -2.02439,15.51715 -16.11453,26.51651 -26.23802,37.02593 -1.76809,1.84492 -3.53574,3.69029 -5.30302,5.53605 -3.69256,3.85166 -7.39221,7.69577 -11.09665,11.53506 -4.7297,4.90367 -9.43771,9.82914 -14.1402,14.76095 -3.64018,3.81154 -7.29335,7.60942 -10.9503,11.40358 -2.58251,2.68513 -5.15275,5.38299 -7.72275,8.08107 -1.58705,1.63711 -3.17411,3.27422 -4.80927,4.96096 -1.3829,1.4383 -2.76581,2.87659 -4.19062,4.35848 -8.49968,7.41225 -16.8077,11.19267 -27.84643,10.45223 -19.38107,-3.43123 -35.75814,-26.62326 -48.90526,-40.44752 -2.61964,-2.73318 -5.24056,-5.46506 -7.86265,-8.19569 -6.8558,-7.14655 -13.69458,-14.31045 -20.52979,-21.47825 -6.99469,-7.32872 -14.00558,-14.64068 -21.01506,-21.9541 -13.71996,-14.31981 -27.42196,-28.65804 -41.11255,-43.00817 -1.13293,0.39249 -2.26584,0.78499 -3.43309,1.18937 -1.49911,0.51933 -2.9982,1.03864 -4.54274,1.57372 -2.22077,0.76934 -2.22077,0.76934 -4.48642,1.55421 -1.449,0.50176 -2.89803,1.00354 -4.39094,1.5205 -1.2274,0.42588 -2.4548,0.85177 -3.71939,1.29056 -68.53737,23.59821 -138.957,20.52189 -204.17046,-12.96046 C 423.64538,787.0388 381.05204,732.29408 358.4567,667.20416 c -0.52065,-1.47416 -1.04128,-2.94834 -1.5777,-4.46718 -8.10706,-24.46863 -10.93457,-49.00502 -10.63841,-74.73599 0.0448,-4.14044 0.0384,-8.27847 0.026,-12.4191 0.0296,-15.22154 1.08424,-29.70626 4.34863,-44.59304 0.26325,-1.33997 0.52651,-2.67994 0.79776,-4.06052 8.97454,-45.08672 30.7854,-86.31322 60.85097,-119.91668 3.96928,-4.42624 3.96928,-4.42624 7.54152,-9.35721 6.98559,-8.78023 15.83524,-15.35005 24.43858,-22.34023 1.58591,-1.31191 3.17181,-2.62382 4.80578,-3.97546 93.97738,-74.69781 229.61381,-65.43673 318.08937,13.5303 z"
     fill="#5e638b"
     id="path2"
     style="stroke-width:1.9089" />
  <path
     d="m 767.13923,384.86905 c 45.65675,41.90674 80.71075,104.93265 85.11537,169.01302 2.24022,46.13616 -1.98723,84.91849 -16.97524,128.26055 -1.83035,5.37566 -3.55416,10.78525 -5.28445,16.19647 1.59109,1.64912 3.1822,3.29824 4.82153,4.99733 14.9678,15.51476 29.93072,31.03463 44.88878,46.55954 7.69092,7.98202 15.38356,15.96221 23.08015,23.9383 7.42256,7.69223 14.84058,15.38918 22.25542,23.08943 2.8348,2.94225 5.67127,5.88279 8.50936,8.82159 3.96382,4.10503 7.92179,8.21604 11.87839,12.32856 1.18396,1.22333 2.3679,2.44664 3.58773,3.70704 8.14459,8.48394 10.50094,12.06074 10.7716,23.96263 0.07,1.99672 0.14007,3.99342 0.21213,6.05064 -2.02439,15.51715 -16.11453,26.51651 -26.23802,37.02593 -1.76809,1.84492 -3.53574,3.69029 -5.30302,5.53605 -3.69256,3.85166 -7.39221,7.69577 -11.09665,11.53506 -4.7297,4.90367 -9.43771,9.82914 -14.1402,14.76095 -3.64018,3.81154 -7.29335,7.60942 -10.9503,11.40358 -2.58251,2.68513 -5.15275,5.38299 -7.72275,8.08107 -1.58705,1.63711 -3.17411,3.27422 -4.80927,4.96096 -2.07436,2.15743 -2.07436,2.15743 -4.19062,4.35848 -8.49968,7.41225 -16.8077,11.19267 -27.84643,10.45223 -19.38107,-3.43123 -35.75814,-26.62326 -48.90526,-40.44752 -2.61964,-2.73318 -5.24056,-5.46506 -7.86265,-8.19569 -6.8558,-7.14655 -13.69458,-14.31045 -20.52979,-21.47825 -6.99469,-7.32872 -14.00558,-14.64068 -21.01506,-21.9541 -13.71996,-14.31981 -27.42196,-28.65804 -41.11255,-43.00817 2.644,-8.24274 8.29927,-9.84765 15.33172,-13.62153 10.96742,-6.1438 21.10757,-12.77863 30.89751,-20.79716 1.05409,-0.85411 2.1082,-1.70824 3.19426,-2.58823 7.19596,-6.03735 11.77016,-11.66985 17.98926,-19.42514 -25.33596,-26.32847 -50.67192,-52.65694 -76.77564,-79.78325 3.7077,-5.13726 7.41541,-10.27453 11.23546,-15.56746 22.37372,-32.73832 32.41803,-71.13278 27.58667,-111.18802 -4.74267,-29.02712 -17.91833,-55.89376 -36.94955,-77.56748 -0.9897,-1.20654 -1.97937,-2.41309 -2.99906,-3.65621 -22.37688,-25.60175 -58.62332,-39.64047 -91.24422,-41.72355 -40.5811,-1.58368 -76.23569,13.06237 -106.12242,41.48789 -10.09677,-8.75259 -19.46341,-18.02179 -28.72505,-27.71432 -1.43617,-1.49522 -2.87236,-2.99042 -4.35207,-4.53092 -4.54454,-4.73338 -9.0825,-9.47352 -13.62026,-14.21391 -3.09737,-3.22846 -6.19516,-6.45649 -9.29339,-9.68405 -7.55748,-7.87486 -15.10956,-15.75528 -22.65745,-23.64005 1.7812,-2.16993 3.56383,-4.33857 5.34709,-6.50671 0.99254,-1.2078 1.9851,-2.41561 3.00773,-3.66003 83.9418,-100.67253 246.83976,-86.05622 337.01121,-5.57555 z"
     fill="#4f5480"
     id="path3"
     style="stroke-width:1.9089" />
  <path
     d="m 313.16376,13.370679 c 38.13809,-0.131779 76.276,-0.239323 114.41424,-0.30247 17.7083,-0.0301 35.41645,-0.07114 53.12468,-0.137928 15.43475,-0.0582 30.86941,-0.09586 46.30427,-0.108875 8.17239,-0.0076 16.34451,-0.02549 24.51682,-0.06795 7.6942,-0.03966 15.38798,-0.05184 23.08226,-0.04306 2.82168,-0.0016 5.64339,-0.01323 8.46499,-0.03559 3.85881,-0.02913 7.71612,-0.02203 11.57499,-0.006 2.15766,-0.0054 4.31532,-0.0107 6.53836,-0.01635 9.2704,1.114713 15.31356,4.373059 21.53971,11.54258 4.8984,7.352642 5.26496,11.184655 5.25773,20.110488 0.004,3.667476 0.004,3.667476 0.007,7.409042 -0.007,2.724443 -0.0131,5.448885 -0.0204,8.173327 -5.5e-4,2.85713 -2.5e-4,5.71426 8.2e-4,8.571388 5.4e-4,7.771215 -0.0112,15.542373 -0.0236,23.313576 -0.0112,8.115909 -0.0131,16.231823 -0.015,24.347743 -0.006,15.37529 -0.0212,30.75055 -0.0399,46.12582 -0.021,17.50139 -0.0313,35.00278 -0.0406,52.50416 -0.0197,36.00788 -0.0526,72.01572 -0.0942,108.02355 -2.14754,-0.0175 -2.14754,-0.0175 -4.33848,-0.0366 -6.58296,-0.0485 -13.16591,-0.0782 -19.74899,-0.10781 -2.25161,-0.0195 -4.50323,-0.0387 -6.82307,-0.0586 -60.50809,-0.20321 -118.28314,23.19333 -163.83722,64.41868 -1.22624,1.03849 -2.45249,2.07697 -3.7159,3.14693 -42.86384,36.46218 -73.8689,100.5678 -80.17836,157.28041 -4.71122,63.08498 4.21921,119.74024 35.79245,174.54677 3.15997,5.56416 3.15997,5.56416 3.15997,7.51009 -24.10006,0 -48.20012,0 -73.03049,0 0,-139.34826 0,-278.69652 0,-422.26745 40.16677,-0.64216 80.33354,-1.28432 121.71748,-1.94593 11.44162,-5.9299 11.44162,-5.9299 18.72577,-15.56747 2.09914,-6.54411 2.1488,-11.56341 2.20402,-18.46214 0.0131,-1.27271 0.0245,-2.54545 0.0373,-3.85674 0.0369,-4.2081 0.0588,-8.41606 0.0775,-12.6243 0.007,-1.43995 0.015,-2.87988 0.023,-4.36346 0.0389,-7.62161 0.0657,-15.24317 0.0833,-22.86487 0.0208,-7.85874 0.0852,-15.7164 0.15955,-23.57476 0.0491,-6.055 0.0646,-12.10976 0.0713,-18.16495 0.009,-2.89616 0.0309,-5.79229 0.0655,-8.68823 0.0457,-4.06155 0.0438,-8.12033 0.0309,-12.18208 0.0168,-3.46076 0.0168,-3.46076 0.0333,-6.99144 -1.33363,-9.32784 -5.51535,-15.42624 -12.26584,-21.59087 -7.06495,-4.49977 -13.12315,-4.54396 -21.22879,-4.65627 -1.20625,-0.0193 -2.41253,-0.0385 -3.65534,-0.0584 -3.98181,-0.0614 -7.96368,-0.10965 -11.94565,-0.1578 -2.7629,-0.04 -5.52579,-0.0809 -8.28868,-0.12253 -7.26817,-0.10736 -14.53644,-0.20355 -21.80479,-0.29743 -8.72278,-0.11499 -17.44541,-0.24381 -26.16804,-0.37031 -13.24801,-0.19058 -26.49621,-0.36358 -39.74452,-0.53994 0,-38.52948 0,-77.058953 0,-116.755986 z"
     fill="#6299f6"
     id="path4"
     style="stroke-width:1.9089" />
  <path
     d="m 689.55166,470.66493 c 27.38746,23.56437 45.61428,58.86365 50.55957,95.35071 3.50902,40.93136 -7.21302,78.64703 -31.8338,110.91818 -1.46764,2.04687 -2.93527,4.09376 -4.44737,6.20266 -24.49374,27.27134 -58.9264,45.29453 -94.97475,46.73279 -43.18576,0.79651 -79.4291,-11.68725 -111.00868,-42.96254 -8.80362,-9.57849 -15.53123,-19.86046 -21.76871,-31.37817 -0.86415,-1.55774 -1.72833,-3.11548 -2.61868,-4.7204 -16.71627,-32.16289 -20.12543,-72.86282 -10.48935,-108.14371 12.72354,-38.71796 37.24068,-71.25775 72.4453,-90.12102 51.81248,-26.1909 108.37787,-17.65331 154.13647,18.1215 z"
     fill="#caeffe"
     id="path5"
     style="stroke-width:1.9089" />
  <path
     d="m 201.35906,129.85337 c 2.05554,-0.0111 4.11107,-0.0222 6.22892,-0.0337 2.25595,-0.002 4.5119,-0.004 6.83623,-0.007 2.37539,-0.01 4.75079,-0.0193 7.19817,-0.0293 6.51941,-0.0255 13.03879,-0.0381 19.55824,-0.0467 4.07444,-0.006 8.14887,-0.0136 12.22332,-0.0224 12.75191,-0.0266 25.5038,-0.0454 38.25573,-0.0529 14.71285,-0.009 29.42537,-0.0428 44.13811,-0.0992 11.37721,-0.0421 22.75431,-0.0617 34.13158,-0.0643 6.79289,-0.002 13.58547,-0.0134 20.37828,-0.0483 7.58066,-0.0381 15.16062,-0.0296 22.74136,-0.0169 2.24458,-0.0179 4.48916,-0.0359 6.80178,-0.0543 12.28711,0.0643 21.79153,0.42881 31.21802,9.57306 6.82511,9.27478 8.39315,13.34099 8.45768,24.98358 0.009,1.27244 0.0187,2.54488 0.0281,3.85588 0.0273,4.2187 0.0401,8.43726 0.0504,12.65604 0.0112,2.9332 0.0215,5.86638 0.0324,8.79958 0.0197,6.15735 0.0307,12.31463 0.0371,18.47199 0.009,7.87387 0.0552,15.74709 0.10861,23.62074 0.035,6.06336 0.0446,12.12655 0.0476,18.19 0.006,2.90154 0.0206,5.80309 0.0453,8.70453 0.032,4.07072 0.0285,8.13986 0.0169,12.21067 0.009,3.46956 0.009,3.46956 0.0206,7.00923 -0.90655,8.43282 -3.58976,14.98246 -9.11476,21.27711 -8.26578,6.68824 -13.60882,8.71373 -23.94449,8.76183 -3.07925,0.0208 -3.07925,0.0208 -6.22072,0.0422 -2.25301,0.006 -4.50604,0.01 -6.82732,0.0156 -2.37239,0.0136 -4.74477,0.0255 -7.18905,0.0387 -7.87049,0.0409 -15.74099,0.0611 -23.61154,0.0806 -2.71198,0.008 -5.42395,0.0156 -8.13593,0.0241 -12.74292,0.037 -25.48581,0.0648 -38.22877,0.081 -14.69701,0.0195 -29.39351,0.0702 -44.09036,0.14887 -11.36768,0.0588 -22.73521,0.0876 -34.10303,0.094 -6.78573,0.004 -13.5709,0.022 -20.35649,0.071 -7.57593,0.0539 -15.15067,0.0455 -22.72674,0.0321 -2.23786,0.0249 -4.47572,0.0498 -6.78138,0.0755 -12.39047,-0.0808 -20.22304,-0.97431 -30.24407,-8.7738 -7.95069,-9.13184 -9.59829,-14.00407 -9.69434,-26.20359 -0.0124,-1.29141 -0.0246,-2.58283 -0.0373,-3.91338 -0.037,-4.28187 -0.0588,-8.56359 -0.0775,-12.84557 -0.008,-1.46321 -0.0153,-2.9264 -0.0231,-4.43393 -0.0391,-7.74779 -0.0658,-15.4955 -0.0834,-23.24337 -0.0207,-7.99185 -0.0851,-15.98265 -0.15949,-23.97413 -0.049,-6.15349 -0.0646,-12.30672 -0.0714,-18.4604 -0.009,-2.94504 -0.0308,-5.89007 -0.0656,-8.8349 -0.0457,-4.13164 -0.0438,-8.26057 -0.0309,-12.39242 -0.011,-2.34761 -0.022,-4.69523 -0.0333,-7.11398 1.41309,-10.0182 6.09441,-15.98525 13.20213,-22.65081 6.8379,-4.91962 11.98565,-5.47666 20.09445,-5.50289 z"
     fill="#caeffe"
     id="path6"
     style="stroke-width:1.9089" />
  <path
     d="m 826.24975,698.33909 c 5.20011,2.47049 9.03457,5.01075 13.0704,9.20945 1.0475,1.08037 2.095,2.16073 3.17424,3.27384 1.12578,1.18083 2.25157,2.36164 3.41148,3.57826 1.20353,1.24697 2.40705,2.49397 3.64705,3.77873 3.9719,4.1203 7.93018,8.25443 11.88811,12.38923 2.75505,2.86529 5.51079,5.72986 8.26718,8.59375 5.77164,6.00077 11.53691,12.00802 17.29742,18.02031 7.3958,7.71862 14.8039,15.42432 22.21635,23.12568 5.68879,5.91217 11.3727,11.82939 17.05494,17.74835 2.73078,2.84396 5.4627,5.68672 8.19578,8.5283 3.81092,3.96441 7.61562,7.93515 11.41852,11.90785 1.13716,1.18083 2.27432,2.36166 3.44594,3.57826 7.98242,8.35936 10.18449,11.96575 10.45071,23.67241 0.10506,2.99506 0.10506,2.99506 0.21213,6.05062 -2.02439,15.51715 -16.11453,26.51653 -26.23802,37.02595 -1.76807,1.84492 -3.53574,3.69027 -5.30302,5.53603 -3.69254,3.85166 -7.39219,7.69577 -11.09665,11.53506 -4.72968,4.90367 -9.43769,9.82916 -14.1402,14.76097 -3.64018,3.81154 -7.29335,7.60942 -10.95029,11.40356 -2.5825,2.68515 -5.15276,5.38301 -7.72275,8.08109 -1.58706,1.63711 -3.17412,3.27422 -4.80928,4.96094 -1.3829,1.4383 -2.76579,2.87661 -4.1906,4.35848 -8.4997,7.41225 -16.80772,11.19268 -27.84643,10.45225 -19.38109,-3.43123 -35.75814,-26.62326 -48.90528,-40.44754 -2.61964,-2.73316 -5.24054,-5.46504 -7.86263,-8.19569 -6.85582,-7.14653 -13.69458,-14.31043 -20.52981,-21.47823 -6.99469,-7.32872 -14.00556,-14.64068 -21.01504,-21.95412 -13.71998,-14.31981 -27.42198,-28.65802 -41.11257,-43.00815 2.64392,-8.24249 8.29922,-9.8481 15.33172,-13.62153 15.6723,-8.76923 29.10353,-19.28758 42.71815,-31.13493 2.16161,-1.79855 2.16161,-1.79855 4.36691,-3.63343 23.77088,-20.36582 41.66984,-49.85889 55.55554,-78.09575 z"
     fill="#4f5380"
     id="path7"
     style="stroke-width:1.9089" />
  <path
     d="m 500.42142,482.34053 c 11.09889,9.56525 21.27067,19.89444 31.442,30.50687 1.80951,1.88094 3.61945,3.76147 5.42974,5.64159 4.87816,5.06869 9.75057,10.14334 14.62189,15.21915 5.1049,5.31708 10.21515,10.62862 15.32483,15.94077 9.6594,10.04383 19.314,20.09259 28.96689,30.14318 10.99633,11.44892 21.99805,22.89227 33.00019,34.33517 22.61762,23.52394 45.22853,47.0548 67.83501,70.59029 -9.0089,19.45774 -31.45141,30.51891 -50.28161,37.39794 -35.21526,12.2514 -74.91649,10.76182 -108.94593,-5.16081 -26.32934,-14.43641 -47.09105,-34.38279 -61.73651,-61.42612 -0.86415,-1.55774 -1.72833,-3.11548 -2.61868,-4.7204 -16.71627,-32.16289 -20.12543,-72.86282 -10.48935,-108.14371 7.50553,-22.83944 18.58363,-45.61865 37.45153,-60.32392 z"
     fill="#e5fefe"
     id="path8"
     style="stroke-width:1.9089" />
  <path
     d="m 116.54321,729.47401 c 56.23348,0 112.46695,0 170.40447,0 0.11592,27.37198 0.23173,54.74396 0.35111,82.9454 0.0768,12.94584 0.0768,12.94584 0.15505,26.15322 0.0253,10.57009 0.0253,10.57009 0.0301,15.52442 0.009,3.44706 0.0283,6.89413 0.0569,10.34109 0.0412,5.23312 0.0468,10.46514 0.0446,15.69841 0.0202,1.52579 0.0404,3.05157 0.0612,4.6236 -0.0507,9.33382 -1.41221,15.62745 -6.31675,23.7397 -9.49235,8.90184 -15.35421,10.4547 -27.89572,10.35296 -8.01796,-0.86008 -14.58793,-3.75808 -21.98631,-6.95137 -20.24617,-8.61113 -34.10076,-10.75722 -54.74821,-2.42863 -3.54949,1.59108 -7.09489,3.19207 -10.63565,4.80403 -10.25054,4.51242 -19.76166,5.55363 -30.7951,3.95267 -9.64103,-5.00936 -15.32144,-10.79218 -18.72577,-21.40526 -0.17104,-5.35859 -0.23593,-10.66675 -0.21259,-16.02497 -2.2e-4,-1.65951 -4.5e-4,-3.31903 -6.8e-4,-5.02882 0.001,-5.37478 0.0157,-10.74941 0.0304,-16.12417 0.003,-3.3171 0.005,-6.6342 0.006,-9.95129 0.01,-12.30359 0.0359,-24.60716 0.0601,-36.91073 0.0385,-27.4924 0.0772,-54.98477 0.11695,-83.31026 z"
     fill="#fe9b8c"
     id="path9"
     style="stroke-width:1.9089" />
  <path
     d="m 198.75234,131.18894 c 1.28185,-9.4e-4 2.56372,-0.002 3.88441,-0.003 4.12447,0.006 8.24635,0.0649 12.37034,0.12637 2.5561,0.0115 5.11225,0.0195 7.66837,0.0238 9.44765,0.0407 18.89493,0.14937 28.34216,0.24989 31.68926,0.24081 31.68926,0.24081 64.01871,0.48648 0,57.15206 0,114.30411 0,173.18805 -21.04894,0.24081 -42.09786,0.48162 -63.78464,0.72972 -6.62622,0.10625 -13.25245,0.21259 -20.07945,0.32211 -8.14247,0.0527 -8.14247,0.0527 -11.96417,0.0625 -2.64777,0.0175 -5.29546,0.0588 -7.94267,0.11831 -25.12831,0.53698 -25.12831,0.53698 -33.60332,-6.65525 -7.72838,-8.38055 -9.16039,-15.56147 -9.23076,-27.06063 -0.0126,-1.29198 -0.0251,-2.58396 -0.0381,-3.91512 -0.0355,-4.26083 -0.0429,-8.52108 -0.0469,-12.78207 -0.012,-2.97127 -0.0246,-5.94253 -0.0378,-8.91378 -0.0224,-6.22574 -0.0294,-12.45126 -0.0272,-18.67706 3.8e-4,-7.96128 -0.0507,-15.9212 -0.11524,-23.88216 -0.0417,-6.13683 -0.0492,-12.27335 -0.0473,-18.41032 -0.005,-2.93414 -0.0209,-5.8683 -0.0499,-8.8023 -0.0369,-4.11269 -0.0259,-8.22248 -0.003,-12.33522 -0.005,-2.33588 -0.0107,-4.67176 -0.0161,-7.07842 1.4334,-9.98338 6.05874,-15.64523 12.7581,-22.69101 6.38941,-4.0942 10.46483,-4.15785 17.9448,-4.10101 z"
     fill="#e5feff"
     id="path10"
     style="stroke-width:1.9089" />
  <path
     d="m 826.24975,698.33909 c 5.20011,2.47049 9.03457,5.01075 13.0704,9.20945 1.0475,1.08037 2.095,2.16073 3.17424,3.27384 1.12578,1.18083 2.25157,2.36164 3.41148,3.57826 1.20353,1.24697 2.40705,2.49397 3.64705,3.77873 3.9719,4.1203 7.93018,8.25443 11.88811,12.38923 2.75505,2.86529 5.51079,5.72986 8.26718,8.59375 5.77164,6.00077 11.53691,12.00802 17.29742,18.02031 7.3958,7.71862 14.8039,15.42432 22.21635,23.12568 5.68879,5.91217 11.3727,11.82939 17.05494,17.74835 2.73078,2.84396 5.4627,5.68672 8.19578,8.5283 3.81092,3.96441 7.61562,7.93515 11.41852,11.90785 1.13716,1.18083 2.27432,2.36166 3.44594,3.57826 7.98242,8.35936 10.18449,11.96575 10.45071,23.67241 0.10506,2.99506 0.10506,2.99506 0.21213,6.05062 -1.51375,11.60304 -9.43801,19.46614 -17.21162,27.44071 -2.49835,2.57741 -2.49835,2.57741 -5.04717,5.20689 -1.7235,1.75841 -3.44701,3.51681 -5.22273,5.32851 -1.75247,1.80357 -3.50494,3.60712 -5.31052,5.46533 -4.30732,4.4304 -8.62316,8.85141 -12.9471,13.26428 -5.28786,-2.5024 -9.13009,-5.11212 -13.22519,-9.38339 -1.08171,-1.11874 -2.16342,-2.23749 -3.27793,-3.39013 -1.16375,-1.22333 -2.3275,-2.44666 -3.52651,-3.70706 -1.24307,-1.29118 -2.48612,-2.58239 -3.76687,-3.9127 -4.10222,-4.26564 -8.19103,-8.54491 -12.27987,-12.8244 -2.84336,-2.96202 -5.68754,-5.92317 -8.53255,-8.8835 -7.4828,-7.79077 -14.95428,-15.59319 -22.42349,-23.39805 -7.62492,-7.96346 -15.26048,-15.9159 -22.89517,-23.86926 -14.9764,-15.60483 -29.94089,-31.22195 -44.89794,-46.84682 2.78772,-7.7289 5.65061,-12.33585 11.23546,-18.24312 7.2578,-8.13918 13.41339,-16.57005 19.31094,-25.78361 0.764,-1.18492 1.52799,-2.36984 2.31513,-3.59068 5.33353,-8.47524 9.7197,-17.2079 13.95288,-26.32804 z"
     fill="#404576"
     id="path11"
     style="stroke-width:1.9089" />
  <path
     d="m 286.94768,787.852 c 19.56768,-0.44172 39.13223,-0.79781 58.7035,-1.00822 9.09039,-0.101 18.17742,-0.23784 27.26588,-0.45977 8.7909,-0.21331 17.57861,-0.32818 26.37172,-0.37825 3.33427,-0.0356 6.66839,-0.10528 10.00128,-0.21119 25.19947,-0.76861 38.3696,4.5981 57.42498,21.51676 9.44007,6.19599 19.81351,10.76335 29.96123,15.56747 2.14352,1.06105 4.28704,2.12213 6.4955,3.21534 31.1627,14.33189 66.34756,19.60292 100.24136,20.13585 0,0.64216 0,1.28432 0,1.94593 -104.43359,0 -208.86719,0 -316.46545,0 0,-19.90689 0,-39.81378 0,-60.32392 z"
     fill="#6299f6"
     id="path12"
     style="stroke-width:1.9089" />
  <path
     d="m 200.95683,363.29418 c 1.93821,-0.0249 3.87642,-0.05 5.87337,-0.0757 2.09491,-0.0136 4.18982,-0.0288 6.34821,-0.0436 2.1594,-0.0156 4.31881,-0.0313 6.54364,-0.0477 4.57592,-0.0269 9.15186,-0.0479 13.72782,-0.0631 6.97456,-0.0335 13.94746,-0.11889 20.92157,-0.20477 4.44857,-0.0197 8.89717,-0.0362 13.34576,-0.0494 2.07596,-0.0341 4.15192,-0.0681 6.29077,-0.10314 12.1419,0.035 21.60819,1.24964 31.66548,8.71551 6.22203,6.78904 7.99907,12.13437 8.42659,21.28364 -0.43262,9.9507 -2.54818,15.59583 -8.42659,23.47281 -10.8031,7.98323 -22.91274,6.78209 -35.63015,6.81838 -2.36372,0.0195 -4.72744,0.0389 -7.16278,0.059 -4.99161,0.0296 -9.98152,0.0457 -14.97305,0.0422 -6.36868,-6.1e-4 -12.73387,0.0792 -19.10174,0.17961 -6.11111,0.0807 -12.22223,0.0771 -18.33378,0.0841 -2.2728,0.042 -4.5456,0.0839 -6.88726,0.12707 -12.061,-0.10138 -19.74268,-0.84636 -28.49743,-9.88127 -6.60224,-9.1132 -7.62331,-17.41453 -6.1119,-28.564 7.04807,-14.37706 16.55717,-21.57645 31.98147,-21.74969 z"
     fill="#e4fdff"
     id="path13"
     style="stroke-width:1.9089" />
  <path
     d="m 286.94768,729.47401 c 14.40182,-0.49257 28.77647,-0.91809 43.1799,-1.17583 4.8939,-0.10741 9.78715,-0.25336 14.67888,-0.43896 7.04844,-0.2607 14.08844,-0.38125 21.14055,-0.47557 3.26325,-0.16579 3.26325,-0.16579 6.59242,-0.33478 9.41968,-0.008 15.07604,0.0786 22.024,7.09427 3.80191,5.42643 7.09446,10.94858 10.35658,16.73614 3.28894,4.32376 6.80118,8.23592 10.41621,12.2837 0.86612,0.97154 1.73224,1.94309 2.62462,2.94408 6.48722,7.1824 13.35374,13.55157 20.66555,19.79901 0,0.64216 0,1.28432 0,1.94593 -50.05397,0 -100.10795,0 -151.67871,0 0,-19.26473 0,-38.52947 0,-58.37799 z"
     fill="#c9eefe"
     id="path14"
     style="stroke-width:1.9089" />
  <path
     d="m 199.58165,480.01928 c 1.63829,-0.0313 3.27657,-0.0625 4.96452,-0.0948 7.50107,-0.087 15.00184,-0.16637 22.50329,-0.21123 3.94651,-0.0321 7.89293,-0.0852 11.83892,-0.15956 5.70896,-0.10703 11.41545,-0.14926 17.12522,-0.17767 1.74825,-0.0442 3.49653,-0.0882 5.29778,-0.13368 12.08696,0.0401 20.03243,2.80732 29.38146,10.88191 6.52815,7.63189 8.63986,13.46381 8.09011,23.44242 -1.37196,8.69338 -4.75989,14.07509 -10.89898,19.97621 -6.5173,4.57152 -11.47313,5.48556 -19.15185,5.63589 -2.69146,0.0562 -2.69146,0.0562 -5.43727,0.11383 -8.20535,0.11267 -16.41042,0.20826 -24.61631,0.26821 -4.3227,0.042 -8.64524,0.10839 -12.96722,0.19954 -6.24353,0.13037 -12.48391,0.18389 -18.72852,0.22092 -1.92177,0.0541 -3.84356,0.10839 -5.82356,0.16404 -11.29866,-0.0335 -17.71091,-1.53676 -25.94932,-9.77664 -5.96832,-7.84376 -7.05912,-14.40749 -6.82707,-24.19805 1.24737,-9.20163 6.48134,-14.5445 12.88129,-20.54632 6.19472,-4.45666 10.96497,-5.47716 18.31751,-5.60501 z"
     fill="#e4fdff"
     id="path15"
     style="stroke-width:1.9089" />
  <path
     d="m 86.186985,729.28397 c 1.587421,0.004 3.17484,0.01 4.810365,0.0156 3.028348,0.0265 3.028348,0.0265 6.117877,0.0537 9.616853,0.0601 9.616853,0.0601 19.427983,0.12162 0,19.26474 0,38.52947 0,58.37799 -6.56572,0.16054 -13.13145,0.32108 -19.896128,0.48648 -2.048469,0.0708 -4.096939,0.14167 -6.207483,0.21474 -11.31443,0.13368 -17.731104,-0.64027 -26.328538,-8.48495 -6.236985,-7.15181 -7.233821,-12.68893 -8.075484,-22.13499 0.888691,-10.71267 5.37183,-16.25452 12.991,-23.22958 6.327317,-4.67185 9.490273,-5.46774 17.160408,-5.41973 z"
     fill="#e4fdff"
     id="path16"
     style="stroke-width:1.9089" />
  <path
     d="m 286.94768,729.47401 c 8.65131,0 17.30261,0 26.21608,0 1.87257,1.94594 1.87257,1.94594 2.08515,7.34713 -0.009,2.35401 -0.0197,4.70801 -0.0298,7.13336 -0.006,2.53977 -0.0112,5.07956 -0.0187,7.6963 -0.015,2.70228 -0.0315,5.40454 -0.0476,8.1068 -0.009,2.70986 -0.0187,5.41971 -0.0257,8.12958 -0.0221,6.65497 -0.0556,13.30991 -0.0914,19.96482 -9.26926,0 -18.53851,0 -28.08865,0 0,-19.26473 0,-38.52947 0,-58.37799 z"
     fill="#e4fdff"
     id="path17"
     style="stroke-width:1.9089" />
  <path
     d="m 286.94768,787.852 c 9.26926,0 18.53851,0 28.08865,0 -0.61795,19.9069 -1.2359,39.81379 -1.87257,60.32392 -8.65131,0 -17.30261,0 -26.21608,0 0,-19.90689 0,-39.81378 0,-60.32392 z"
     fill="#78b4fe"
     id="path18"
     style="stroke-width:1.9089" />
</svg>
