<?xml version="1.0" encoding="UTF-8" standalone="no"?>
<!-- Uploaded to: SVG Repo, www.svgrepo.com, Generator: SVG Repo Mixer Tools -->

<svg
   fill="#000000"
   width="16"
   height="16"
   viewBox="0 0 16 16"
   data-name="Layer 1"
   id="Layer_1"
   version="1.1"
   sodipodi:docname="settings-white.svg"
   inkscape:version="1.4.2 (f4327f4, 2025-05-13)"
   xmlns:inkscape="http://www.inkscape.org/namespaces/inkscape"
   xmlns:sodipodi="http://sodipodi.sourceforge.net/DTD/sodipodi-0.dtd"
   xmlns="http://www.w3.org/2000/svg"
   xmlns:svg="http://www.w3.org/2000/svg">
  <defs
     id="defs1" />
  <sodipodi:namedview
     id="namedview1"
     pagecolor="#ffffff"
     bordercolor="#111111"
     borderopacity="1"
     inkscape:showpageshadow="0"
     inkscape:pageopacity="0"
     inkscape:pagecheckerboard="1"
     inkscape:deskcolor="#d1d1d1"
     inkscape:zoom="10.776307"
     inkscape:cx="35.494533"
     inkscape:cy="30.715531"
     inkscape:window-width="1920"
     inkscape:window-height="991"
     inkscape:window-x="-9"
     inkscape:window-y="-9"
     inkscape:window-maximized="1"
     inkscape:current-layer="Layer_1" />
  <path
     d="M 9.9234134,15.993182 A 0.89911928,0.89777442 0 0 1 9.1936487,15.621159 L 8.1220956,14.166887 H 7.8696032 L 6.7980501,15.624233 A 0.90219845,0.90084899 0 0 1 5.7203387,15.93169 L 3.9929211,15.209166 A 0.90219845,0.90084899 0 0 1 3.4448279,14.234528 l 0.2740466,-1.783251 -0.1816714,-0.1814 -1.7859218,0.273637 A 0.90219845,0.90084899 0 0 1 0.77518262,11.996241 L 0.06081388,10.271407 A 0.89911928,0.89777442 0 0 1 0.36873144,9.1953074 L 1.8251815,8.1253571 V 7.8732423 L 0.36257309,6.803292 A 0.89911928,0.89777442 0 0 1 0.05465553,5.7271925 L 0.77518262,4.0023588 A 0.90219845,0.90084899 0 0 1 1.7512813,3.4550853 L 3.5372031,3.7287221 3.7188745,3.5473224 3.4448279,1.7640719 A 0.90219845,0.90084899 0 0 1 3.9929211,0.7894332 L 5.7203387,0.07613297 A 0.90219845,0.90084899 0 0 1 6.7980501,0.38358996 L 7.8696032,1.8409361 H 8.1220956 L 9.1936487,0.38666453 A 0.90219845,0.90084899 0 0 1 10.27136,0.07920754 l 1.727418,0.71022566 a 0.90219845,0.90084899 0 0 1 0.548093,0.9746387 l -0.274047,1.7832505 0.181672,0.1813997 1.785922,-0.2736368 a 0.90219845,0.90084899 0 0 1 0.976098,0.5472735 l 0.714369,1.7248337 A 0.89911928,0.89777442 0 0 1 15.622967,6.803292 l -1.45645,1.0699503 v 0.2521148 l 1.45645,1.0699503 a 0.89911928,0.89777442 0 0 1 0.307918,1.0760996 l -0.714369,1.724834 a 0.90219845,0.90084899 0 0 1 -0.976098,0.547273 l -1.785922,-0.273637 -0.181672,0.1814 0.274047,1.783251 a 0.90219845,0.90084899 0 0 1 -0.548093,0.974638 l -1.727418,0.7133 a 0.86832752,0.86702872 0 0 1 -0.3479466,0.07072 z m -5.2345986,-1.82322 1.2593828,0.519602 1.016128,-1.380482 A 0.90527763,0.90392356 0 0 1 7.6940902,12.937059 H 8.303767 a 0.92375268,0.92237098 0 0 1 0.7297646,0.368948 l 1.0161284,1.383557 1.259382,-0.519602 -0.26173,-1.694088 a 0.92375268,0.92237098 0 0 1 0.237097,-0.78709 l 0.406451,-0.402769 a 0.92375268,0.92237098 0 0 1 0.779032,-0.255189 l 1.696625,0.261338 0.520381,-1.257499 -1.38255,-1.0146081 A 0.90527763,0.90392356 0 0 1 12.941005,8.3067567 V 7.7225884 a 0.90527763,0.90392356 0 0 1 0.372581,-0.7286731 l 1.38255,-1.014608 -0.520381,-1.2697974 -1.696626,0.2582639 A 0.92375268,0.92237098 0 0 1 11.69086,4.7125844 L 11.287488,4.3098158 A 0.92375268,0.92237098 0 0 1 11.031917,3.5319496 L 11.293647,1.8378615 10.034264,1.3090355 9.0181357,2.692592 A 0.92375268,0.92237098 0 0 1 8.303767,3.0615404 H 7.7187236 A 0.90527763,0.90392356 0 0 1 6.988959,2.6895174 L 5.9728311,1.3090355 4.6980523,1.8286378 4.9597823,3.5227259 A 0.92375268,0.92237098 0 0 1 4.7042107,4.3098158 L 4.3008387,4.7125844 A 0.92375268,0.92237098 0 0 1 3.5218073,4.9677738 L 1.815944,4.7095099 1.2955633,5.9639344 2.6781131,6.9785425 A 0.90527763,0.90392356 0 0 1 3.0506934,7.7072156 V 8.3067567 A 0.90527763,0.90392356 0 0 1 2.6781131,9.0354298 L 1.2955633,10.050038 1.815944,11.307537 3.5125697,11.046199 a 0.90527763,0.90392356 0 0 1 0.7790315,0.255189 l 0.4126095,0.387396 A 0.90527763,0.90392356 0 0 1 4.9597823,12.46665 Z M 14.41901,4.6695405 Z M 14.32356,4.0546265 Z M 7.9958494,11.688784 A 3.6950107,3.6894839 0 1 1 11.69086,7.9992997 3.6950107,3.6894839 0 0 1 7.9958494,11.688784 Z m 0,-6.1491402 A 2.4633405,2.459656 0 1 0 10.45919,7.9992997 2.4633405,2.459656 0 0 0 7.9958494,5.5396438 Z"
     id="path1"
     style="fill:#ffffff;fill-opacity:1;stroke:none;stroke-width:0.307687;stroke-opacity:1" />
</svg>
