<?xml version="1.0" encoding="UTF-8" standalone="no"?>
<!-- Uploaded to: SVG Repo, www.svgrepo.com, Generator: SVG Repo Mixer Tools -->

<svg
   fill="#000000"
   width="800px"
   height="800px"
   viewBox="0 0 52 52"
   data-name="Layer 1"
   id="Layer_1"
   version="1.1"
   sodipodi:docname="settings-27-36-45-25-degree-rotated.svg"
   inkscape:version="1.4.2 (f4327f4, 2025-05-13)"
   xmlns:inkscape="http://www.inkscape.org/namespaces/inkscape"
   xmlns:sodipodi="http://sodipodi.sourceforge.net/DTD/sodipodi-0.dtd"
   xmlns="http://www.w3.org/2000/svg"
   xmlns:svg="http://www.w3.org/2000/svg">
  <defs
     id="defs1" />
  <sodipodi:namedview
     id="namedview1"
     pagecolor="#ffffff"
     bordercolor="#111111"
     borderopacity="1"
     inkscape:showpageshadow="0"
     inkscape:pageopacity="0"
     inkscape:pagecheckerboard="1"
     inkscape:deskcolor="#d1d1d1"
     inkscape:zoom="0.9525"
     inkscape:cx="400.52493"
     inkscape:cy="400"
     inkscape:window-width="1920"
     inkscape:window-height="991"
     inkscape:window-x="-9"
     inkscape:window-y="-9"
     inkscape:window-maximized="1"
     inkscape:current-layer="Layer_1" />
  <path
     d="m 10.726595,4.0629965 a 2.92,2.92 0 0 1 2.647594,0.2669034 l 4.959916,3.1436518 0.764038,-0.2977338 1.521467,-5.6800654 a 2.93,2.93 0 0 1 2.898053,-2.20256454 l 6.080401,0.15269623 A 2.93,2.93 0 0 1 32.40758,1.753249 l 1.276651,5.7273249 0.763958,0.3355139 5.081027,-2.9351762 a 2.93,2.93 0 0 1 3.59996,0.5075325 l 4.198598,4.3847778 a 2.92,2.92 0 0 1 0.339056,3.6242301 l -3.143651,4.959914 0.297732,0.764039 5.689383,1.517836 a 2.92,2.92 0 0 1 2.202565,2.898053 l -0.143379,6.076769 a 2.93,2.93 0 0 1 -2.307364,2.809515 l -5.727326,1.276656 -0.335517,0.763954 2.935177,5.081028 a 2.93,2.93 0 0 1 -0.507533,3.599959 l -4.384778,4.198599 a 2.93,2.93 0 0 1 -3.62423,0.339054 l -4.963545,-3.152966 -0.764039,0.297731 -1.525098,5.670748 a 2.93,2.93 0 0 1 -2.89805,2.202568 L 22.401299,52.585483 A 2.93,2.93 0 0 1 19.591792,50.278116 L 18.315136,44.550792 17.551181,44.215275 12.470153,47.15045 A 2.93,2.93 0 0 1 8.8701937,46.642919 L 4.6715945,42.258141 A 2.92,2.92 0 0 1 4.3325376,38.633908 L 7.4761898,33.673994 7.178455,32.909955 1.5077093,31.384858 a 2.92,2.92 0 0 1 -2.20256898,-2.898051 l 0.12474685,-6.069511 A 2.93,2.93 0 0 1 1.7372566,19.607786 L 7.4645809,18.33113 7.8000931,17.567171 4.8649182,12.486144 A 2.93,2.93 0 0 1 5.3724449,8.8861884 L 9.7572223,4.6875905 A 2.82,2.82 0 0 1 10.726595,4.0629965 Z M 28.71954,3.4157952 24.295042,3.3261624 22.85052,8.707933 a 2.94,2.94 45 0 1 -1.76892,1.987943 l -1.844875,0.718916 A 3,3 45 0 1 16.59276,11.157205 L 11.884071,8.1625029 8.6868137,11.2222 11.479424,16.047544 a 3,3 45 0 1 0.212057,2.664869 l -0.754271,1.699875 a 3,3 45 0 1 -2.0559735,1.691973 l -5.4425924,1.208631 -0.089633,4.424496 5.3817706,1.444523 a 2.94,2.94 45 0 1 1.9418354,1.733226 l 0.689869,1.770332 a 2.94,2.94 45 0 1 -0.266903,2.647598 l -2.9853854,4.705058 3.0742204,3.234526 4.828974,-2.783292 a 3,3 45 0 1 2.686655,-0.15615 l 1.696246,0.744951 a 3,3 45 0 1 1.691973,2.055972 l 1.20863,5.442594 4.435388,0.117585 1.440892,-5.391089 a 3,3 45 0 1 1.725964,-1.960468 l 1.770333,-0.689869 a 2.94,2.94 45 0 1 2.647597,0.266904 l 4.705057,2.985385 3.243846,-3.077852 -2.792611,-4.825344 a 3,3 45 0 1 -0.156151,-2.686654 l 0.744951,-1.696248 a 3,3 45 0 1 2.055973,-1.691973 l 5.466915,-1.228836 0.09326,-4.41518 -5.381771,-1.444521 a 2.94,2.94 45 0 1 -1.987945,-1.768923 l -0.708026,-1.816918 a 2.94,2.94 45 0 1 0.266903,-2.647598 l 2.985386,-4.705056 -3.059698,-3.197257 -4.825343,2.792609 a 2.94,2.94 45 0 1 -2.658703,0.145258 L 31.603076,10.953208 A 2.94,2.94 45 0 1 29.911103,8.8972355 Z M 10.495532,43.680612 Z m 1.01502,1.750953 z M 21.64262,14.834626 A 12,12 45 1 1 14.818627,30.372745 12,12 45 0 1 21.64262,14.834626 Z m 7.261772,18.635093 a 8,8 0 1 0 -10.358746,-4.54933 8,8 0 0 0 10.358746,4.54933 z"
     id="path1"
     style="fill:#1b242d;fill-opacity:1;stroke:none;stroke-opacity:1" />
</svg>
