<?xml version="1.0" encoding="UTF-8" standalone="no"?>
<svg
   viewBox="0 0 16 16"
   width="16"
   height="16"
   version="1.1"
   id="svg7"
   sodipodi:docname="trash.svg"
   inkscape:version="1.4.2 (f4327f4, 2025-05-13)"
   xmlns:inkscape="http://www.inkscape.org/namespaces/inkscape"
   xmlns:sodipodi="http://sodipodi.sourceforge.net/DTD/sodipodi-0.dtd"
   xmlns="http://www.w3.org/2000/svg"
   xmlns:svg="http://www.w3.org/2000/svg">
  <defs
     id="defs7" />
  <sodipodi:namedview
     id="namedview7"
     pagecolor="#ffffff"
     bordercolor="#111111"
     borderopacity="1"
     inkscape:showpageshadow="0"
     inkscape:pageopacity="0"
     inkscape:pagecheckerboard="1"
     inkscape:deskcolor="#d1d1d1"
     inkscape:zoom="47.625"
     inkscape:cx="6.9606299"
     inkscape:cy="8.1049869"
     inkscape:window-width="1920"
     inkscape:window-height="991"
     inkscape:window-x="-9"
     inkscape:window-y="-9"
     inkscape:window-maximized="1"
     inkscape:current-layer="svg7" />
  <ellipse
     cx="7.9784551"
     cy="14.202811"
     opacity="0.3"
     rx="4.650949"
     ry="0.69661134"
     id="ellipse1"
     style="stroke-width:0.238412" />
  <path
     fill="#7c8aa3"
     d="M 10.744301,12.80959 H 5.2126092 c -0.3757478,0 -0.6910326,-0.269125 -0.7304438,-0.6237 L 3.5722928,3.9858459 H 12.384617 L 11.474745,12.18589 c -0.03941,0.354575 -0.354697,0.6237 -0.730444,0.6237 z"
     id="path1"
     style="stroke-width:0.238412" />
  <path
     fill="#a7b3c7"
     d="M 12.384617,5.1468646 H 3.5722928 c -0.4056118,0 -0.7343601,-0.3118496 -0.7343601,-0.6966109 V 3.9858459 c 0,-0.3847617 0.3287483,-0.6966114 0.7343601,-0.6966114 h 8.8123242 c 0.405611,0 0.73436,0.3118496 0.73436,0.6966114 v 0.4644078 c 0,0.3847614 -0.328749,0.6966109 -0.73436,0.6966109 z"
     id="path2"
     style="stroke-width:0.238412" />
  <path
     fill="none"
     stroke="#a7b3c7"
     stroke-linecap="round"
     stroke-linejoin="round"
     stroke-miterlimit="10"
     stroke-width="0.95365"
     d="M 10.548716,3.8697439 H 5.4081944 V 2.708725 c 0,-0.3847617 0.3287479,-0.6966113 0.7343598,-0.6966113 h 3.6718023 c 0.4056105,0 0.7343595,0.3118496 0.7343595,0.6966113 z"
     id="path3" />
  <path
     fill="#a7b3c7"
     d="m 6.632128,11.184163 v 0 c -0.3380502,0 -0.6119663,-0.259835 -0.6119663,-0.58051 V 6.6561893 c 0,-0.3206734 0.2739161,-0.5805088 0.6119663,-0.5805088 v 0 c 0.3380502,0 0.6119665,0.2598354 0.6119665,0.5805089 v 3.9474636 c 0,0.320675 -0.2739163,0.58051 -0.6119665,0.58051 z"
     id="path4"
     style="stroke-width:0.238412" />
  <path
     fill="#a7b3c7"
     d="m 9.3247825,11.184163 v 0 c -0.33805,0 -0.611967,-0.259835 -0.611967,-0.58051 V 6.6561893 c 0,-0.3206734 0.273917,-0.5805088 0.611967,-0.5805088 v 0 c 0.338051,0 0.611968,0.2598354 0.611968,0.5805089 v 3.9474636 c 0,0.320675 -0.273917,0.58051 -0.611968,0.58051 z"
     id="path5"
     style="stroke-width:0.238412" />
  <path
     d="m 10.907328,6.1845837 -0.55028,5.0520573 c -0.02815,0.234758 -0.237689,0.411929 -0.4866355,0.411929 h -1.64717 c -0.676101,0 -1.2232003,0.519905 -1.2232003,1.16102 h 3.7442588 c 0.375747,0 0.691033,-0.269125 0.730444,-0.6237 L 12.246312,5.1619582 C 11.579757,5.0967112 10.982967,5.552525 10.907328,6.1845837 Z"
     opacity="0.15"
     id="path6"
     style="stroke-width:0.238412" />
  <path
     fill="#ffffff"
     d="M 5.312972,8.7808549 4.924985,5.0179915 C 4.9240372,5.0087015 4.922775,4.9994135 4.921345,4.9903575 4.8809558,4.7061395 5.1007732,4.4502512 5.4033301,4.4502512 h 2.2973234 c 0.676101,0 1.223199,-0.5199043 1.223199,-1.161019 H 3.5723268 C 3.166681,3.2892343 2.8379327,3.601084 2.8379327,3.9858457 v 0.4644079 c 0,0.3847612 0.3287483,0.6966109 0.7343601,0.6966109 H 3.7088843 L 4.232483,10.063547 C 4.9041777,9.9924973 5.3881219,9.4182542 5.312972,8.7808549 Z"
     opacity="0.3"
     id="path7"
     style="stroke-width:0.238412" />
  <line
     x1="4.4290462"
     x2="5.8977675"
     y1="4.1019473"
     y2="4.1019473"
     fill="none"
     stroke="#ffffff"
     stroke-linecap="round"
     stroke-linejoin="round"
     stroke-miterlimit="10"
     stroke-width="0.71524"
     id="line7" />
</svg>
