<?xml version="1.0" encoding="UTF-8" standalone="no"?>
<svg
   version="1.1"
   width="16"
   height="16"
   id="svg6"
   sodipodi:docname="question-mark.svg"
   viewBox="0 0 512 512"
   inkscape:version="1.4.2 (f4327f4, 2025-05-13)"
   xmlns:inkscape="http://www.inkscape.org/namespaces/inkscape"
   xmlns:sodipodi="http://sodipodi.sourceforge.net/DTD/sodipodi-0.dtd"
   xmlns="http://www.w3.org/2000/svg"
   xmlns:svg="http://www.w3.org/2000/svg">
  <defs
     id="defs6" />
  <sodipodi:namedview
     id="namedview6"
     pagecolor="#ffffff"
     bordercolor="#111111"
     borderopacity="1"
     inkscape:showpageshadow="0"
     inkscape:pageopacity="0"
     inkscape:pagecheckerboard="1"
     inkscape:deskcolor="#d1d1d1"
     inkscape:zoom="1.4882812"
     inkscape:cx="255.66404"
     inkscape:cy="256"
     inkscape:window-width="1920"
     inkscape:window-height="991"
     inkscape:window-x="-9"
     inkscape:window-y="-9"
     inkscape:window-maximized="1"
     inkscape:current-layer="svg6" />
  <path
     d="m 298,31 c 0.60006,0.320815 1.20012,0.641631 1.81836,0.972168 C 324.71005,45.334145 346.22194,64.324202 363,87 c 0.39961,0.538828 0.79922,1.077656 1.21094,1.632812 30.94524,42.160308 42.83127,94.825418 35.60156,146.429688 -2.37904,15.21252 -6.51609,30.15222 -12.80371,44.21729 -1.76003,3.94364 -1.76003,3.94364 -1.28858,8.09228 1.40389,2.88275 2.95875,5.59092 4.63135,8.32715 0.67829,1.11351 1.35658,2.22702 2.05542,3.37427 0.73924,1.20473 1.47858,2.4094 2.21802,3.61401 0.76632,1.25462 1.53235,2.50943 2.2981,3.7644 2.35304,3.85302 4.71377,7.70127 7.0769,11.5481 0.3591,0.58463 0.71821,1.16926 1.0882,1.77161 3.02728,4.92725 6.05817,9.85229 9.0932,14.77478 4.36048,7.07359 8.69274,14.16369 13.0061,21.26611 4.93079,8.11808 9.90887,16.20516 14.9187,24.27466 4.59865,7.41562 9.13436,14.86859 13.66333,22.3269 3.87888,6.38165 7.79152,12.74121 11.73047,19.08594 5.69209,9.17131 11.31776,18.38171 16.91797,27.60937 2.49004,4.10157 4.99449,8.19392 7.50781,12.28125 0.6401,1.04366 1.2802,2.08732 1.9397,3.1626 1.22793,2.00154 2.45875,4.0013 3.69287,5.99903 0.82963,1.35472 0.82963,1.35472 1.67602,2.73681 0.48695,0.791 0.97389,1.582 1.47559,2.39698 2.83206,5.0799 4.0039,9.4764 3.29004,15.31396 -1.84919,5.4388 -5.37587,8.77362 -10,12 -2.90033,0.96678 -4.73518,1.12788 -7.7509,1.13422 -1.47503,0.007 -1.47503,0.007 -2.97987,0.0135 -1.08305,-1.8e-4 -2.1661,-3.7e-4 -3.28197,-5.6e-4 -1.72272,0.006 -1.72272,0.006 -3.48025,0.0111 -3.19302,0.009 -6.38602,0.0137 -9.57906,0.0164 -3.44186,0.004 -6.8837,0.0135 -10.32555,0.0222 -8.31476,0.0198 -16.62952,0.0298 -24.94431,0.0387 -3.91551,0.004 -7.83102,0.01 -11.74654,0.015 -13.01605,0.017 -26.03209,0.0315 -39.04815,0.0387 -3.37789,0.002 -6.75578,0.004 -10.13366,0.006 -1.25934,7.2e-4 -1.25934,7.2e-4 -2.54412,0.001 -13.60002,0.008 -27.19995,0.0336 -40.79993,0.0661 -13.96257,0.0331 -27.92509,0.0511 -41.8877,0.0543 -7.83959,0.002 -15.67905,0.0109 -23.5186,0.0365 -6.67664,0.0217 -13.35312,0.0298 -20.0298,0.02 -3.40561,-0.005 -6.81089,-0.003 -10.21646,0.0168 -3.69543,0.0177 -7.39003,0.0106 -11.08547,-0.003 -1.60785,0.0165 -1.60785,0.0165 -3.24818,0.0332 -7.22218,-0.0622 -12.84495,-1.12938 -18.27448,-6.31005 -3.32339,-5.42359 -4.18315,-9.92573 -3.125,-16.21094 2.95358,-7.42246 7.47036,-14.16727 11.75,-20.875 5.71714,-9.05084 11.33658,-18.15167 16.875,-27.3125 5.78674,-9.56692 11.6188,-19.1036 17.52978,-28.59448 0.49549,-0.7964 0.99097,-1.5928 1.50147,-2.41333 0.43119,-0.6911 0.86238,-1.3822 1.30664,-2.09424 1.08124,-1.73011 1.08124,-1.73011 2.03711,-3.70962 -1.01965,0.30809 -2.0393,0.61617 -3.08984,0.93359 C 200.12754,410.38493 148.13472,398.526 109.06372,377.5166 86.10368,364.70862 65.03314,346.81266 49,326 48.55672,325.43265 48.11345,324.8653 47.65674,324.28076 27.89587,298.70099 15.03518,267.89184 10,236 9.88576,235.29746 9.77151,234.59492 9.65381,233.87109 1.85285,183.66759 14.81412,131.27644 44.31787,90.163574 49.762,82.71687 55.63979,75.68411 62,69 62.51047,68.4623 63.02094,67.9246 63.54688,67.370605 71.47265,59.076787 79.62494,51.616569 89,45 89.57831,44.587983 90.15661,44.175967 90.75244,43.751465 111.52451,29.070579 134.315,19.038742 159,13 c 1.76537,-0.444727 1.76537,-0.444727 3.56641,-0.898437 C 207.70779,1.535446 257.42657,8.903117 298,31 Z"
     fill="#23b0e2"
     id="path1" />
  <path
     d="m 355,248 c 9.54693,2.70196 14.78945,14.69123 19.375,22.75 3.78609,6.63992 7.77982,13.00148 12.18094,19.25372 3.79833,5.4299 7.24289,11.05518 10.64435,16.74155 1.83219,3.06274 3.67859,6.11692 5.52237,9.1727 0.36644,0.60825 0.73288,1.2165 1.11042,1.84318 3.24194,5.37719 6.53811,10.71972 9.85442,16.05135 4.47749,7.20522 8.90959,14.43646 13.3125,21.6875 4.46606,7.35474 8.96147,14.68976 13.5,22 5.13799,8.27579 10.21359,16.58794 15.26953,24.91406 3.87888,6.38165 7.79152,12.74121 11.73047,19.08594 5.69209,9.17131 11.31776,18.38171 16.91797,27.60937 2.49004,4.10157 4.99449,8.19392 7.50781,12.28125 0.6401,1.04366 1.2802,2.08732 1.9397,3.1626 1.22793,2.00154 2.45875,4.0013 3.69287,5.99903 0.55309,0.90315 1.10618,1.80629 1.67602,2.73681 0.48695,0.791 0.97389,1.582 1.47559,2.39698 2.83206,5.0799 4.0039,9.4764 3.29004,15.31396 -1.84919,5.4388 -5.37587,8.77362 -10,12 -2.90033,0.96678 -4.73518,1.12788 -7.7509,1.13422 -1.47503,0.007 -1.47503,0.007 -2.97987,0.0135 -1.08305,-1.8e-4 -2.1661,-3.7e-4 -3.28197,-5.6e-4 -1.72272,0.006 -1.72272,0.006 -3.48025,0.0111 -3.19302,0.009 -6.38602,0.0137 -9.57906,0.0164 -3.44186,0.004 -6.8837,0.0135 -10.32555,0.0222 -8.31476,0.0198 -16.62953,0.0298 -24.94431,0.0387 -3.91551,0.004 -7.83103,0.01 -11.74654,0.015 -13.01605,0.017 -26.03209,0.0315 -39.04815,0.0387 -3.37789,0.002 -6.75578,0.004 -10.13366,0.006 -1.25934,7.2e-4 -1.25934,7.2e-4 -2.54412,0.001 -13.60002,0.008 -27.19995,0.0336 -40.79993,0.0661 -13.96257,0.0331 -27.92509,0.0511 -41.8877,0.0543 -7.83959,0.002 -15.67905,0.0109 -23.5186,0.0365 -6.67664,0.0217 -13.35312,0.0298 -20.0298,0.02 -3.40561,-0.005 -6.81089,-0.003 -10.21645,0.0168 -3.69544,0.0177 -7.39004,0.0106 -11.08548,-0.003 -1.0719,0.011 -2.1438,0.0219 -3.24818,0.0332 -7.22218,-0.0622 -12.84495,-1.12938 -18.27448,-6.31005 -3.32339,-5.42359 -4.18315,-9.92573 -3.125,-16.21094 2.95358,-7.42246 7.47036,-14.16727 11.75,-20.875 5.71716,-9.05087 11.33537,-18.15238 16.875,-27.3125 5.14312,-8.49364 10.29212,-16.98334 15.5,-25.4375 0.49581,-0.80977 0.99161,-1.61955 1.50244,-2.45386 2.51285,-4.0669 5.12245,-8.02506 7.88818,-11.92505 3.28073,-4.63953 6.23247,-9.41125 9.10938,-14.30859 4.18187,-7.04375 8.42368,-14.04401 12.75,-21 4.51725,-7.26891 8.99533,-14.55996 13.4375,-21.875 6.99974,-11.52301 14.06384,-23.00578 21.13769,-34.4834 2.06911,-3.36045 4.13425,-6.72332 6.19825,-10.08691 3.3245,-5.41773 6.66065,-10.82816 10.00146,-16.23584 1.77031,-2.87669 3.52438,-5.76272 5.27588,-8.65088 1.04508,-1.70213 2.09062,-3.40397 3.13672,-5.10547 0.45214,-0.75595 0.90428,-1.51191 1.37012,-2.29077 C 337.98322,250.20023 343.31128,246.4328 355,248 Z"
     fill="#f5ca4a"
     id="path2" />
  <path
     d="M 263.1875,79.875 C 282.65001,96.135209 296.17765,118.51243 299,144 c 1.51738,26.78751 -6.39013,52.76847 -24.21411,73.04956 C 261.32663,231.65653 242.75972,242.83092 223,246 c -0.0146,0.85231 -0.0292,1.70462 -0.0442,2.58276 -0.0612,3.17795 -0.13543,6.35527 -0.21826,9.53272 -0.0332,1.37228 -0.0612,2.74469 -0.084,4.11719 -0.0337,1.97871 -0.0876,3.95704 -0.14185,5.9353 -0.0262,1.18876 -0.0524,2.37751 -0.0794,3.60229 -0.47424,3.54251 -1.24012,5.42501 -3.43237,8.22974 -4.3589,2.98339 -9.35097,2.36807 -14.4375,2.375 -0.94166,0.0245 -1.88332,0.049 -2.85352,0.0742 -4.4106,0.0187 -6.97996,-0.002 -10.80664,-2.34766 -2.83667,-3.13374 -3.03417,-4.87134 -3.07934,-9.00683 -0.0192,-1.53235 -0.0192,-1.53235 -0.0389,-3.09565 -0.007,-1.10829 -0.0148,-2.21658 -0.0224,-3.35846 -0.008,-1.13713 -0.0161,-2.27426 -0.0245,-3.44586 -0.0138,-2.41093 -0.0246,-4.82188 -0.0324,-7.23285 -0.0172,-3.68299 -0.0611,-7.36509 -0.10523,-11.04785 -0.0101,-2.34114 -0.0186,-4.68228 -0.0254,-7.02344 -0.0175,-1.10019 -0.035,-2.20038 -0.0531,-3.33392 0.0175,-6.1731 0.28012,-9.89914 4.47884,-14.5567 4.25128,-3.21015 7.6898,-5.00417 12.99219,-5.35938 17.74006,-1.37953 31.86803,-6.41048 44.38671,-19.67968 C 261.97734,177.72139 264.58234,160.18281 263,141 260.72592,127.81437 252.28402,115.31863 242,107 226.36115,96.372391 210.67048,92.854841 192.0625,95.75 182.38001,97.870787 174.8326,101.9972 167,108 c -0.84047,0.63035 -1.68094,1.2607 -2.54688,1.91016 C 155.07265,117.90148 147.62309,131.72677 146,144 c -0.13402,2.16613 -0.25819,4.33288 -0.375,6.5 -0.47561,7.07675 -1.94554,11.88924 -7.0625,16.875 -4.91694,3.11806 -8.67817,4.32314 -14.5625,3.625 -5.05887,-2.2926 -8.92652,-5.32831 -12,-10 -5.14383,-15.43148 1.13789,-34.97874 8,-49 12.93199,-24.063327 32.83573,-41.035297 58.85156,-49.253906 29.1728,-8.400211 60.57105,-1.249761 84.33594,17.128906 z"
     fill="#fcfefe"
     id="path3" />
  <path
     d="m 354,308 c 2.19322,1.44789 2.19322,1.44789 4,4 0.6032,3.21159 0.55652,6.3863 0.53345,9.64624 0.009,0.97766 0.0172,1.95533 0.0261,2.96262 0.0227,3.23351 0.0159,6.46616 0.007,9.69973 0.005,2.24676 0.0115,4.49351 0.0188,6.74025 0.0104,4.71015 0.006,9.41999 -0.009,14.13011 -0.0172,6.03747 0.006,12.07399 0.0415,18.11135 0.022,4.64029 0.0205,9.28036 0.0122,13.92068 -8.2e-4,2.22596 0.006,4.45193 0.0208,6.67784 0.0174,3.11245 0.003,6.22317 -0.0198,9.33555 0.0117,0.92016 0.0234,1.84032 0.0354,2.78837 -0.0664,4.46257 -0.22017,6.39714 -2.98723,10.05527 C 353,418 353,418 349.5,418.6875 c -3.80337,-0.74709 -5.11552,-1.75791 -7.46785,-4.78062 -1.98872,-3.67412 -1.71659,-7.50766 -1.66325,-11.59658 -0.007,-0.95845 -0.0143,-1.91689 -0.0217,-2.90439 -0.0169,-3.15792 0.002,-6.31443 0.0239,-9.47232 -8.3e-4,-2.19905 -0.003,-4.3981 -0.007,-6.59715 -0.003,-4.60412 0.0118,-9.20775 0.0393,-13.81178 0.0341,-5.90057 0.0281,-11.80027 0.009,-17.70089 -0.0106,-4.53907 -0.002,-9.07794 0.0134,-13.617 0.005,-2.1757 0.005,-4.35142 -0.002,-6.52711 -0.005,-3.04025 0.0149,-6.07925 0.0423,-9.11936 -0.007,-0.89832 -0.013,-1.79664 -0.0198,-2.72218 0.0634,-4.14115 0.21029,-6.29273 2.46156,-9.87314 C 346.71359,306.39019 348.97505,306.87372 354,308 Z"
     fill="#fefdfa"
     id="path4" />
  <path
     d="m 211.26172,316.61328 c 4.68507,2.02574 7.44868,4.77608 9.89062,9.24609 1.71724,4.33661 1.61844,7.89388 0.11329,12.28125 -2.40997,5.33353 -5.40313,8.31208 -10.57813,11.10938 -5.60371,1.56383 -9.8624,1.5569 -14.9375,-1.25 -4.16039,-2.92374 -6.38768,-6.10418 -7.75,-11 -0.75142,-5.0643 -0.61978,-8.76043 1.6875,-13.375 6.26019,-7.10616 12.24598,-9.54114 21.57422,-7.01172 z"
     fill="#fbfdfe"
     id="path5" />
  <path
     d="m 349.5,443.375 c 4.12071,0.73584 5.82805,1.38627 8.5,4.625 0.65466,2.80242 0.61114,5.19222 0,8 -2.13602,3.33219 -3.63272,3.89315 -7.4375,5 -3.5625,0 -3.5625,0 -6.4375,-1.5 -2.80446,-3.29937 -3.27405,-5.17751 -3.125,-9.5 2.42312,-4.16473 3.69997,-5.76785 8.5,-6.625 z"
     fill="#fefdf8"
     id="path6" />
</svg>
