<?xml version="1.0" encoding="UTF-8" standalone="no"?>
<svg
   version="1.1"
   width="16"
   height="16"
   id="svg1"
   sodipodi:docname="warning.svg"
   viewBox="0 0 512 512"
   inkscape:version="1.4.2 (f4327f4, 2025-05-13)"
   xmlns:inkscape="http://www.inkscape.org/namespaces/inkscape"
   xmlns:sodipodi="http://sodipodi.sourceforge.net/DTD/sodipodi-0.dtd"
   xmlns="http://www.w3.org/2000/svg"
   xmlns:svg="http://www.w3.org/2000/svg">
  <defs
     id="defs1" />
  <sodipodi:namedview
     id="namedview1"
     pagecolor="#ffffff"
     bordercolor="#111111"
     borderopacity="1"
     inkscape:showpageshadow="0"
     inkscape:pageopacity="0"
     inkscape:pagecheckerboard="1"
     inkscape:deskcolor="#d1d1d1"
     inkscape:zoom="1.4882812"
     inkscape:cx="255.66404"
     inkscape:cy="256"
     inkscape:window-width="1920"
     inkscape:window-height="991"
     inkscape:window-x="-9"
     inkscape:window-y="-9"
     inkscape:window-maximized="1"
     inkscape:current-layer="svg1" />
  <path
     d="m 245.38281,26.796875 c 0.76842,-0.0071 1.53683,-0.01412 2.32854,-0.02139 C 303.37922,26.380692 356.42924,41.071339 400,77 c 0.55993,0.458423 1.11987,0.916846 1.69677,1.38916 C 414.33296,88.79315 426.03214,99.975792 436,113 c 0.64533,0.8387 0.64533,0.8387 1.30371,1.69434 6.92925,9.05376 13.09052,18.3816 18.69629,28.30567 0.36835,0.64097 0.7367,1.28197 1.11621,1.94237 19.19159,33.6061 28.37827,72.13544 28.19629,110.68262 -0.002,0.82849 -0.004,1.65699 -0.007,2.51058 -0.25714,61.87639 -25.48932,118.8881 -68.86847,162.67692 -5.50989,5.45792 -11.27504,10.47115 -17.4375,15.1875 -0.8387,0.64533 -0.8387,0.64533 -1.69434,1.30371 -9.05376,6.92926 -18.38161,13.09053 -28.30566,18.69629 -0.64099,0.36835 -1.28198,0.73669 -1.94239,1.11621 -18.82701,10.75163 -39.01409,17.86494 -60.05761,22.88379 -0.70061,0.16725 -1.40121,0.33451 -2.12305,0.50684 -4.26994,0.99176 -8.5511,1.78852 -12.87695,2.49316 -1.20528,0.20497 -2.41055,0.40992 -3.65235,0.6211 -23.68902,3.53906 -49.86554,2.85273 -73.34765,-1.6211 -0.90815,-0.17161 -1.81629,-0.34321 -2.75196,-0.52002 C 152.02855,469.7076 99.60607,434.56698 64.99953,384 c -3.2022,-4.88406 -6.1285,-9.9165 -9,-15 C 55.447,368.03852 55.447,368.03852 54.88332,367.05761 24.83543,314.44124 19.30342,249.9991 35.12404,192.03271 51.39229,135.67905 89.94275,86.02375 140.99953,57 c 0.6745,-0.385107 1.349,-0.770215 2.04394,-1.166992 30.68508,-17.312435 66.86404,-28.816776 102.33934,-29.036133 z m -21.30078,79.593755 c -16.12084,20.20397 -8.53099,51.39163 -6.72475,75.35496 0.33501,4.46236 0.66192,8.92533 0.99016,13.38819 0.55076,7.4705 1.10822,14.94046 1.66965,22.41016 0.64806,8.62359 1.28459,17.24797 1.9153,25.87284 0.61017,8.33957 1.22904,16.67847 1.85167,25.01711 0.26368,3.53393 0.5242,7.06807 0.78213,10.60242 0.30325,4.1507 0.61409,8.30076 0.93078,12.45046 0.11472,1.51955 0.22684,3.0393 0.33611,4.55926 0.14978,2.07739 0.30912,4.15384 0.47084,6.23033 0.0866,1.16054 0.1733,2.32108 0.26257,3.51679 0.67685,5.53947 0.67685,5.53947 3.43351,10.20684 1.6158,0.10383 3.2361,0.13853 4.85522,0.14527 1.03455,0.006 2.0691,0.0128 3.135,0.0193 1.689,0.002 1.689,0.002 3.41212,0.003 1.14804,0.003 2.29607,0.007 3.4789,0.0101 2.43371,0.005 4.86742,0.007 7.30113,0.007 3.73555,0.002 7.4708,0.0203 11.2063,0.0393 2.35872,0.003 4.71745,0.005 7.07617,0.006 1.68597,0.0108 1.68597,0.0108 3.40599,0.0218 1.0377,-0.003 2.0754,-0.006 3.14455,-0.009 0.91631,0.001 1.83263,0.003 2.77672,0.004 2.41454,-0.0379 2.41454,-0.0379 4.2079,-2.24724 0.43358,-2.3646 0.73274,-4.63878 0.9624,-7.02636 0.0804,-0.77937 0.1608,-1.55873 0.24364,-2.36171 1.31249,-13.24419 2.23292,-26.52812 3.21797,-39.79996 0.17924,-2.41279 0.35935,-4.82552 0.53974,-7.23823 0.63248,-8.46068 1.26126,-16.92162 1.88683,-25.38282 0.57812,-7.8178 1.16478,-15.63493 1.75536,-23.4518 0.51117,-6.77134 1.01595,-13.54315 1.51604,-20.31532 0.29683,-4.01821 0.59609,-8.03619 0.90199,-12.05372 1.61684,-21.00041 1.61684,-21.00041 2.24312,-42.04879 0.0112,-1.28721 0.0112,-1.28721 0.0226,-2.60043 -0.0865,-11.32834 -4.17027,-19.41616 -12.0084,-27.59929 -4.01062,-3.72904 -7.76268,-6.574197 -12.78125,-8.80859 -0.91782,-0.416367 -1.83563,-0.832734 -2.78125,-1.261719 -16.46034,-6.361826 -33.94057,0.131606 -45.63672,12.339849 z m 3.68359,260.09766 C 222.33855,374.20866 220.8205,382.72212 222,392 c 2.00105,8.75015 6.16633,16.43029 13.46484,21.82031 8.99251,5.59834 16.95935,7.27993 27.53516,6.17969 10.99866,-3.08779 17.65083,-8.54389 23.51953,-18.23438 3.91285,-7.3095 4.76887,-15.51683 2.79297,-23.56641 -3.46519,-10.43887 -9.41811,-18.02367 -19.20313,-23.19922 -15.73127,-7.11327 -31.67726,-1.21491 -42.34375,11.4883 z"
     fill="#ffc047"
     id="path1" />
</svg>
