<?xml version="1.0" encoding="UTF-8" standalone="no"?>
<svg
   width="24"
   height="24"
   viewBox="0 -960 960 960"
   version="1.1"
   id="svg1"
   sodipodi:docname="captive-portal-white-NA-55-percent-opaque.svg"
   inkscape:version="1.4.2 (f4327f4, 2025-05-13)"
   xmlns:inkscape="http://www.inkscape.org/namespaces/inkscape"
   xmlns:sodipodi="http://sodipodi.sourceforge.net/DTD/sodipodi-0.dtd"
   xmlns="http://www.w3.org/2000/svg"
   xmlns:svg="http://www.w3.org/2000/svg">
  <defs
     id="defs1" />
  <sodipodi:namedview
     id="namedview1"
     pagecolor="#ffffff"
     bordercolor="#111111"
     borderopacity="1"
     inkscape:showpageshadow="0"
     inkscape:pageopacity="0"
     inkscape:pagecheckerboard="1"
     inkscape:deskcolor="#d1d1d1"
     inkscape:zoom="32"
     inkscape:cx="8.875"
     inkscape:cy="15.90625"
     inkscape:window-width="1920"
     inkscape:window-height="991"
     inkscape:window-x="-9"
     inkscape:window-y="-9"
     inkscape:window-maximized="1"
     inkscape:current-layer="svg1" />
  <path
     d="M 849.52,-54 753,-150.48 656.52,-54 600,-110.48 696.52,-207 600,-303.48 656.52,-360 753,-263.48 849.52,-360 906,-303.48 809.52,-207 906,-110.48 Z M 480,-80 c -55.33333,0 -107.33333,-10.5 -156,-31.5 -48.66667,-21 -91,-49.5 -127,-85.5 -36,-36 -64.5,-78.33333 -85.5,-127 -21,-48.66667 -31.5,-100.66667 -31.5,-156 0,-55.33333 10.5,-107.33333 31.5,-156 21,-48.66667 49.5,-91 85.5,-127 36,-36 78.33333,-64.5 127,-85.5 48.66667,-21 100.66667,-31.5 156,-31.5 55.33333,0 107.33333,10.5 156,31.5 48.66667,21 91,49.5 127,85.5 36,36 64.5,78.33333 85.5,127 21,48.66667 31.5,100.66667 31.5,156 0,13.33333 -0.66667,26.66667 -2,40 -1.33333,13.33333 -3.33333,26.66667 -6,40 h -82 c 3.33333,-13.33333 5.83333,-26.66667 7.5,-40 1.66667,-13.33333 2.5,-26.66667 2.5,-40 0,-13.33333 -0.83333,-26.66667 -2.5,-40 -1.66667,-13.33333 -4.16667,-26.66667 -7.5,-40 H 654 c 2,13.33333 3.5,26.66667 4.5,40 1,13.33333 1.5,26.66667 1.5,40 0,13.33333 -0.5,26.66667 -1.5,40 -1,13.33333 -2.5,26.66667 -4.5,40 h -80 c 2,-13.33333 3.5,-26.66667 4.5,-40 1,-13.33333 1.5,-26.66667 1.5,-40 0,-13.33333 -0.5,-26.66667 -1.5,-40 -1,-13.33333 -2.5,-26.66667 -4.5,-40 H 386 c -2,13.33333 -3.5,26.66667 -4.5,40 -1,13.33333 -1.5,26.66667 -1.5,40 0,13.33333 0.5,26.66667 1.5,40 1,13.33333 2.5,26.66667 4.5,40 h 134 v 80 H 404 c 8,28.66667 18.33333,56.16667 31,82.5 12.66667,26.33333 27.66667,51.5 45,75.5 13.33333,0 26.66667,-0.83333 40,-2.5 13.33333,-1.66667 26.66667,-3.16667 40,-4.5 v 82 c -13.33333,1.333333 -26.66667,2.833333 -40,4.5 -13.33333,1.666667 -26.66667,2.5 -40,2.5 M 170,-400 h 136 c -2,-13.33333 -3.5,-26.66667 -4.5,-40 -1,-13.33333 -1.5,-26.66667 -1.5,-40 0,-13.33333 0.5,-26.66667 1.5,-40 1,-13.33333 2.5,-26.66667 4.5,-40 H 170 c -3.33333,13.33333 -5.83333,26.66667 -7.5,40 -1.66667,13.33333 -2.5,26.66667 -2.5,40 0,13.33333 0.83333,26.66667 2.5,40 1.66667,13.33333 4.16667,26.66667 7.5,40 m 34,-240 h 118 c 6,-24.66667 13.5,-48.83333 22.5,-72.5 9,-23.66667 19.5,-46.83333 31.5,-69.5 -36.66667,12 -69.66667,30.16667 -99,54.5 -29.33333,24.33333 -53.66667,53.5 -73,87.5 m 172,462 c -12,-22.66667 -22.5,-45.83333 -31.5,-69.5 -9,-23.66667 -16.5,-47.83333 -22.5,-72.5 H 204 c 19.33333,34 43.66667,63.16667 73,87.5 29.33333,24.33333 62.33333,42.5 99,54.5 m 28,-462 h 152 c -8,-28.66667 -18.33333,-56.16667 -31,-82.5 -12.66667,-26.33333 -27.66667,-51.5 -45,-75.5 -17.33333,24 -32.33333,49.16667 -45,75.5 -12.66667,26.33333 -23,53.83333 -31,82.5 m 234,0 h 118 c -19.33333,-34 -43.66667,-63.16667 -73,-87.5 -29.33333,-24.33333 -62.33333,-42.5 -99,-54.5 12,22.66667 22.5,45.83333 31.5,69.5 9,23.66667 16.5,47.83333 22.5,72.5"
     id="path1"
     style="fill:#ffffff;fill-opacity:0.55010223"
     sodipodi:nodetypes="ccccccccccccccsssssssssssssccsssccsssccsssccsssccccscsccscccsssccssscccscsccsccscccscscccscsc" />
</svg>
