<?xml version="1.0" encoding="UTF-8" standalone="no"?>
<svg
   width="24"
   height="24"
   viewBox="0 -960 960 960"
   version="1.1"
   id="svg1"
   sodipodi:docname="captive-portal-44-62-80.svg"
   inkscape:version="1.4.2 (f4327f4, 2025-05-13)"
   xmlns:inkscape="http://www.inkscape.org/namespaces/inkscape"
   xmlns:sodipodi="http://sodipodi.sourceforge.net/DTD/sodipodi-0.dtd"
   xmlns:xlink="http://www.w3.org/1999/xlink"
   xmlns="http://www.w3.org/2000/svg"
   xmlns:svg="http://www.w3.org/2000/svg">
  <defs
     id="defs1">
    <linearGradient
       id="linearGradient1"
       inkscape:collect="always">
      <stop
         style="stop-color:#ffffff;stop-opacity:0.55;"
         offset="0"
         id="stop1" />
      <stop
         style="stop-color:#ffffff;stop-opacity:0;"
         offset="1"
         id="stop2" />
    </linearGradient>
    <radialGradient
       inkscape:collect="always"
       xlink:href="#linearGradient1"
       id="radialGradient2"
       cx="467.73438"
       cy="-480"
       fx="467.73438"
       fy="-480"
       r="245.15625"
       gradientTransform="matrix(1,0,0,0.57520714,0,-203.90057)"
       gradientUnits="userSpaceOnUse" />
  </defs>
  <sodipodi:namedview
     id="namedview1"
     pagecolor="#ffffff"
     bordercolor="#111111"
     borderopacity="1"
     inkscape:showpageshadow="0"
     inkscape:pageopacity="0"
     inkscape:pagecheckerboard="1"
     inkscape:deskcolor="#d1d1d1"
     inkscape:zoom="32"
     inkscape:cx="12"
     inkscape:cy="12"
     inkscape:window-width="1920"
     inkscape:window-height="991"
     inkscape:window-x="-9"
     inkscape:window-y="-9"
     inkscape:window-maximized="1"
     inkscape:current-layer="svg1" />
  <path
     d="M 838,-65 720,-183 v 89 h -80 v -226 h 226 v 80 h -90 l 118,118 z M 480,-80 Q 397,-80 324,-111.5 251,-143 197,-197 143,-251 111.5,-324 80,-397 80,-480 q 0,-83 31.5,-156 31.5,-73 85.5,-127 54,-54 127,-85.5 73,-31.5 156,-31.5 83,0 156,31.5 73,31.5 127,85.5 54,54 85.5,127 31.5,73 31.5,156 0,20 -2,40 -2,20 -6,40 h -82 q 5,-20 7.5,-40 2.5,-20 2.5,-40 0,-20 -2.5,-40 -2.5,-20 -7.5,-40 H 654 q 3,20 4.5,40 1.5,20 1.5,40 0,20 -1.5,40 -1.5,20 -4.5,40 h -80 q 3,-20 4.5,-40 1.5,-20 1.5,-40 0,-20 -1.5,-40 -1.5,-20 -4.5,-40 H 386 q -3,20 -4.5,40 -1.5,20 -1.5,40 0,20 1.5,40 1.5,20 4.5,40 h 134 v 80 H 404 q 12,43 31,82.5 19,39.5 45,75.5 20,0 40,-2.5 20,-2.5 40,-4.5 v 82 q -20,2 -40,4.5 -20,2.5 -40,2.5 M 170,-400 h 136 q -3,-20 -4.5,-40 -1.5,-20 -1.5,-40 0,-20 1.5,-40 1.5,-20 4.5,-40 H 170 q -5,20 -7.5,40 -2.5,20 -2.5,40 0,20 2.5,40 2.5,20 7.5,40 m 34,-240 h 118 q 9,-37 22.5,-72.5 13.5,-35.5 31.5,-69.5 -55,18 -99,54.5 -44,36.5 -73,87.5 m 172,462 Q 358,-212 344.5,-247.5 331,-283 322,-320 H 204 q 29,51 73,87.5 44,36.5 99,54.5 m 28,-462 h 152 q -12,-43 -31,-82.5 -19,-39.5 -45,-75.5 -26,36 -45,75.5 -19,39.5 -31,82.5 m 234,0 h 118 q -29,-51 -73,-87.5 -44,-36.5 -99,-54.5 18,34 31.5,69.5 13.5,35.5 22.5,72.5"
     id="path1"
     style="display:inline;fill:#2c3e50;fill-opacity:1" />
</svg>
