<svg xmlns="http://www.w3.org/2000/svg" width="24" height="24" viewBox="0 -960 960 960"><path d="M838-65 720-183v89h-80v-226h226v80h-90l118 118zM480-80q-83 0-156-31.5T197-197t-85.5-127T80-480t31.5-156T197-763t127-85.5T480-880t156 31.5T763-763t85.5 127T880-480q0 20-2 40t-6 40h-82q5-20 7.5-40t2.5-40-2.5-40-7.5-40H654q3 20 4.5 40t1.5 40-1.5 40-4.5 40h-80q3-20 4.5-40t1.5-40-1.5-40-4.5-40H386q-3 20-4.5 40t-1.5 40 1.5 40 4.5 40h134v80H404q12 43 31 82.5t45 75.5q20 0 40-2.5t40-4.5v82q-20 2-40 4.5T480-80M170-400h136q-3-20-4.5-40t-1.5-40 1.5-40 4.5-40H170q-5 20-7.5 40t-2.5 40 2.5 40 7.5 40m34-240h118q9-37 22.5-72.5T376-782q-55 18-99 54.5T204-640m172 462q-18-34-31.5-69.5T322-320H204q29 51 73 87.5t99 54.5m28-462h152q-12-43-31-82.5T480-798q-26 36-45 75.5T404-640m234 0h118q-29-51-73-87.5T584-782q18 34 31.5 69.5T638-640"/></svg>