<?xml version="1.0" encoding="UTF-8" standalone="no"?>
<svg
   width="24"
   height="24"
   viewBox="0 0 24 24"
   fill="none"
   stroke="currentColor"
   stroke-width="2"
   stroke-linecap="round"
   stroke-linejoin="round"
   class="icon icon-tabler icons-tabler-outline icon-tabler-photo"
   version="1.1"
   id="svg5"
   sodipodi:docname="photo-44-62-80.svg"
   inkscape:version="1.4.2 (f4327f4, 2025-05-13)"
   xmlns:inkscape="http://www.inkscape.org/namespaces/inkscape"
   xmlns:sodipodi="http://sodipodi.sourceforge.net/DTD/sodipodi-0.dtd"
   xmlns="http://www.w3.org/2000/svg"
   xmlns:svg="http://www.w3.org/2000/svg">
  <defs
     id="defs5" />
  <sodipodi:namedview
     id="namedview5"
     pagecolor="#ffffff"
     bordercolor="#111111"
     borderopacity="1"
     inkscape:showpageshadow="0"
     inkscape:pageopacity="0"
     inkscape:pagecheckerboard="1"
     inkscape:deskcolor="#d1d1d1"
     inkscape:zoom="31.75"
     inkscape:cx="12.015748"
     inkscape:cy="11.968504"
     inkscape:window-width="1920"
     inkscape:window-height="991"
     inkscape:window-x="-9"
     inkscape:window-y="-9"
     inkscape:window-maximized="1"
     inkscape:current-layer="svg5" />
  <path
     stroke="none"
     d="M0 0h24v24H0z"
     fill="none"
     id="path1" />
  <path
     d="M15 8h.01"
     id="path2"
     style="fill:none;fill-opacity:1;stroke:#2c3e50;stroke-opacity:1" />
  <path
     id="path5"
     style="stroke:#2c3e50;stroke-opacity:1;fill:none;fill-opacity:1"
     d="m 15,13 c 0.928,-0.893 2.072,-0.893 3,0 l 3,3 M 3,16 8,11 c 0.928,-0.893 2.072,-0.893 3,0 l 5,5 M 3,6 A 3,3 0 0 1 6,3 h 12 a 3,3 0 0 1 3,3 v 12 a 3,3 0 0 1 -3,3 H 6 A 3,3 0 0 1 3,18 Z" />
</svg>
