<?xml version="1.0" encoding="UTF-8" standalone="no"?>
<svg
   width="24"
   height="24"
   viewBox="0 0 24 24"
   fill="none"
   stroke="currentColor"
   stroke-width="2"
   stroke-linecap="round"
   stroke-linejoin="round"
   class="icon icon-tabler icons-tabler-outline icon-tabler-photo-x"
   version="1.1"
   id="svg7"
   sodipodi:docname="photo-x.svg"
   inkscape:version="1.4.2 (f4327f4, 2025-05-13)"
   xmlns:inkscape="http://www.inkscape.org/namespaces/inkscape"
   xmlns:sodipodi="http://sodipodi.sourceforge.net/DTD/sodipodi-0.dtd"
   xmlns="http://www.w3.org/2000/svg"
   xmlns:svg="http://www.w3.org/2000/svg">
  <defs
     id="defs7" />
  <sodipodi:namedview
     id="namedview7"
     pagecolor="#ffffff"
     bordercolor="#111111"
     borderopacity="1"
     inkscape:showpageshadow="0"
     inkscape:pageopacity="0"
     inkscape:pagecheckerboard="1"
     inkscape:deskcolor="#d1d1d1"
     inkscape:zoom="31.75"
     inkscape:cx="11.984252"
     inkscape:cy="12"
     inkscape:window-width="1920"
     inkscape:window-height="991"
     inkscape:window-x="-9"
     inkscape:window-y="-9"
     inkscape:window-maximized="1"
     inkscape:current-layer="svg7" />
  <path
     stroke="none"
     d="M0 0h24v24H0z"
     fill="none"
     id="path1" />
  <path
     id="path7"
     d="m 17,22 5,-5 m 0,5 -5,-5 m -3,-3 1,-1 c 0.928,-0.893 2.072,-0.893 3,0 M 3,16 8,11 c 0.928,-0.893 2.072,-0.893 3,0 l 3,3 m -1,7 H 6 A 3,3 0 0 1 3,18 V 6 A 3,3 0 0 1 6,3 h 12 a 3,3 0 0 1 3,3 v 7 M 15,8 h 0.01"
     style="stroke:#ffffff;stroke-opacity:0.55000001" />
</svg>
