<?xml version="1.0" encoding="UTF-8" standalone="no"?>
<svg
   viewBox="0 0 48 48"
   width="48px"
   height="48px"
   version="1.1"
   id="svg2"
   sodipodi:docname="settings-30-degrees-rotated.svg"
   inkscape:version="1.4.2 (f4327f4, 2025-05-13)"
   xmlns:inkscape="http://www.inkscape.org/namespaces/inkscape"
   xmlns:sodipodi="http://sodipodi.sourceforge.net/DTD/sodipodi-0.dtd"
   xmlns="http://www.w3.org/2000/svg"
   xmlns:svg="http://www.w3.org/2000/svg">
  <defs
     id="defs2" />
  <sodipodi:namedview
     id="namedview2"
     pagecolor="#ffffff"
     bordercolor="#111111"
     borderopacity="1"
     inkscape:showpageshadow="0"
     inkscape:pageopacity="0"
     inkscape:pagecheckerboard="1"
     inkscape:deskcolor="#d1d1d1"
     inkscape:zoom="15.875"
     inkscape:cx="23.968504"
     inkscape:cy="24"
     inkscape:window-width="1920"
     inkscape:window-height="991"
     inkscape:window-x="-9"
     inkscape:window-y="-9"
     inkscape:window-maximized="1"
     inkscape:current-layer="svg2" />
  <path
     fill="#607d8b"
     d="M 36.416695,34.680256 C 36.853298,34.124038 37.2899,33.56782 37.6899,32.875 c 0.4,-0.69282 0.663398,-1.349038 0.926795,-2.005256 l 5.497114,-0.521281 c 0.496411,-0.05981 0.969616,-0.479423 0.959808,-1.062436 l -0.110512,-8.608588 c -0.0098,-0.583012 -0.34282,-1.006218 -0.925833,-0.99641 l -5.480127,-0.508141 c -0.58923,-1.379423 -1.278461,-2.585641 -2.190896,-3.805256 l 2.316987,-5.01314 c 0.163397,-0.4830128 0.01699,-1.0294229 -0.416025,-1.2794229 l -7.447819,-4.3 c -0.433013,-0.25 -1.066025,-0.1535899 -1.316025,0.2794228 L 26.320354,9.5676316 C 24.807918,9.3872469 23.332085,9.3434647 21.929457,9.5728875 L 18.74933,5.0810291 c -0.333012,-0.4232051 -0.952628,-0.55 -1.325833,-0.3035898 L 9.9995881,9.0360273 C 9.4897805,9.31904 9.3629856,9.9386552 9.5593957,10.398463 l 2.2971143,5.021281 c -0.436602,0.556218 -0.873205,1.112436 -1.273205,1.805256 -0.4,0.69282 -0.6633975,1.349038 -0.9267949,2.005256 L 3.9861907,19.651537 C 3.4897805,19.711345 3.0165754,20.13096 3.026383,20.713973 l 0.023909,8.558588 c 0.00981,0.583012 0.3428203,1.006218 0.925833,0.99641 l 5.480127,0.508141 c 0.5892307,1.379423 1.2784607,2.585641 2.1908967,3.805256 l -2.3169875,5.01314 c -0.1633974,0.483013 -0.016987,1.029423 0.4160255,1.279423 l 7.447818,4.3 c 0.433013,0.25 1.066026,0.15359 1.316026,-0.279423 l 3.183013,-4.51314 c 1.512435,0.180385 2.988268,0.224167 4.390896,-0.0053 l 3.180127,4.491859 c 0.333013,0.423205 0.952628,0.55 1.325833,0.30359 l 7.423909,-4.258588 c 0.509808,-0.283013 0.636603,-0.902628 0.440193,-1.362436 z M 19.006699,33.635254 c -4.76314,-2.75 -6.410254,-8.897114 -3.660254,-13.660254 2.75,-4.76314 8.897114,-6.410254 13.660254,-3.660254 4.763139,2.75 6.410254,8.897114 3.660254,13.660254 -2.75,4.76314 -8.897115,6.410254 -13.660254,3.660254 z"
     id="path1" />
  <path
     fill="#455A64"
     d="M24,13c-6.6,0-12,5.4-12,12c0,6.6,5.4,12,12,12s12-5.4,12-12C36,18.4,30.6,13,24,13z M24,30c-2.8,0-5-2.2-5-5c0-2.8,2.2-5,5-5s5,2.2,5,5C29,27.8,26.8,30,24,30z"
     id="path2" />
</svg>
